<?xml version="1.0" encoding="utf-8"?>

<!DOCTYPE svg PUBLIC "-//W3C//DTD SVG 1.1//EN" "http://www.w3.org/Graphics/SVG/1.1/DTD/svg11.dtd">
<svg version="1.1" id="Layer_1" xmlns="http://www.w3.org/2000/svg" xmlns:xlink="http://www.w3.org/1999/xlink" x="0px" y="0px"
	 viewBox="0 0 1730.294 1729.76" fill="#f1f1f1" enable-background="new 0 0 1730.294 1729.76" xml:space="preserve">
<g>
	<path d="M1482.902,65.492c-0.132-0.905-12.858-0.641,182.452-0.581c0.001,1.002,0.124,178.155-0.12,184.306
		c-48.613,0.032-97.222-0.018-145.83,0.023c-0.01,105.582-0.05,1358.428,0.023,1415.59c-12.181,0.078-24.357-0.005-36.534,0.041
		c-0.004-1.005-0.027-1404.199,0.014-1415.562c-12.903-0.105,81.958-0.098-1417.808-0.083c0.005-12.167,0.014-24.33-0.005-36.497
		c141.917-0.142,1416.123,0.26,1417.836-0.355C1482.86,200.118,1482.888,73.176,1482.902,65.492 M1519.39,101.823
		c0.051,36.866,0.028,73.736,0.014,110.602c36.488,0.088,72.975,0.065,109.463,0.014c-0.005-36.875-0.028-73.755,0.014-110.634
		C1592.383,101.804,1555.887,101.772,1519.39,101.823z"/>
	<path d="M64.9,292.258c15.568-0.016,1360.936,4.593,1375.565,4.635c-0.216,27.44,4.325,1255.819,4.363,1367.987
		c-23.403-0.041-46.801-0.014-70.203-0.018c0.028-287.8,0.023-575.601,0.005-863.406c-7.289-0.104-24.081,3.453-23.509-26.331
		c-12.955-0.062-26.076-8.466-32.77-26.128c62.883-36.802,80.806-131.996-6.476-194.932c-0.078-27.503,0.005-55.01-0.037-82.513
		c10.009-0.005,20.022-0.014,30.04,0.005c0.023-27.946,0.023-55.896,0-83.846c-25.377,0.028-50.753,0-76.125,0.014
		c-0.069,10.027-0.023,20.049-0.023,30.077c-30.026,0.065-60.056,0.037-90.077,0.014c-60.75-83.959-150.045-70.368-187.295-6.489
		c-2.029-0.65-3.897-1.66-5.825-2.518c-0.876,0.457-1.125,1.637-1.605,2.454c-14.002-4.109-25.974-17.093-26.465-32.627
		c-18.634-0.062-30.621-7.41-24.759-23.606c-288.257-0.005-576.514-0.014-864.771,0.005C64.873,334.105,64.942,313.18,64.9,292.258z
		"/>
	<path d="M615.784,390.37c18.963-8.258,37.446,8.77,46.552,13.666c4.004,2.508,19.943,9.195,21.115,8.952
		c-3.027-3.501-7.411-7.65-10.105-16.064c14.087-3.108,28.799-1.539,40.463,7.753c2.515-7.265,11.952-8.199,19.653-7.67
		c-0.512,4.829,0.729,9.75,3.104,13.947c11.822,13.66,22.583,21.194,25.746,21.991c-6.399-8.061-9.916-17.833-3.87-30.625
		c4.681-1.356,9.718-0.627,14.547-1.172c0.3-3.215,2.103-6.084,4.308-8.353c13.294-13.326,40.003-4.394,50.633-10.659
		c4.159,23.113-24.225,14.91-33.527,30.155c16.765,14.048,20.959,42.348,58.511,59.48c-0.337-2.16-16.194-13.898-14.745-36.88
		c3.708,0.641,7.523,0.434,11.226-0.171c-2.587-6.061-2.698-12.781-2.361-19.256c2.016,2.827,5.124,4.585,8.237,5.968
		c23.38,9.988,47.771-3.075,59.964,34.749c0.383,0.987,0.387,2.325,1.513,2.818c18.998,12.543,0.377,29.036,29.574,54.904
		c0.315-1.671-21.032-23.843-4.363-49.19c7.248-11.149,20.999-15.9,29.883-16.24c10.005,20.565-5.639,29.582-8.362,32.18
		c-26.474,24.443,13.231,45.057,45.772,89.879c-2.389-1.545-4.539-3.487-7.052-4.801l-0.793-0.009
		c0.41,1.065,1.107,1.983,1.785,2.906c-15.547-14.416-96.381-72.13-226.983-115.104c-65.656-22.101-136.016-48.199-216.186-31.276
		c0.074-2.071,0.839-3.999,1.564-5.908c-8.708,2.214-17.241,5.05-25.676,8.127c-1.614-3.736-2.634-7.721-2.924-11.784
		c-21.083,5.318-44.172,0.323-61.837-12.149c33.813,9.255,43.74-2.03,68.926-7.892c1-0.278,10.765-2.189,12.278-4.451
		C566.758,370.576,589.747,366.823,615.784,390.37z"/>
	<path d="M1106.297,465.315c8.135,39.986-32.204,63.069-57.547,59.789c-21.72-1.97-29.944-21.226-29.791-29.574
		c2.643,6.526,6.803,12.707,12.817,16.553c0.314,0.032,0.936,0.097,1.245,0.129c-3.856-4.926-6.785-10.645-7.97-16.821
		c0.826-0.203,1.67-0.42,2.518-0.623c12.63,47.306,77.231,7.451,57.026-34.292c-5.326-11.492-15.675-20.147-29.758-22.19
		c-53.138-7.551-68.714,72.918-30.501,108.891l0.623,0.083c-2.444-4.179-4.446-8.616-5.466-13.362c1.822-0.54,3.741-0.6,5.618-0.862
		c-0.304-1.158-0.59-2.311-0.858-3.464c41.585,12.992,39.637,28.387,62.464,33.37c0.212-1.54-1.619-1.31-2.486-1.882
		c-3.607-1.499-7.002-3.759-9.34-6.928c-0.004-0.005-8.937-6.957-11.522-9.769c2.777,1.421,5.858,2.408,8.999,2.5
		c-0.306-6.047,5.871-14.15,23.375-7.108c3.698,1.293,7.636-2.575,16.267-0.849c8.209,1.553,17.25,8.337,21.175,8.039
		c19.74-0.352,35.943-16.662,41.589-29.98c4.386-20.75-6.784-37.891-9.432-38.854c0.711,1.75,8.146,13.374,1.384,27.171
		c-9.179,18.845-46.272,26.833-57.215,0.47c-15.616-38.391,50.879-78.732,79.202-29.375
		c29.912,51.476-23.126,101.797-86.872,105.593c-113.564,10.609-143.026-93.607-100.99-139.701
		C1035.736,403.049,1097.917,422.335,1106.297,465.315z"/>
	<path d="M1215.387,430.336c2.112,0.701,4.211-0.604,6.379-0.194c20.018,1.463,21.094,47.901-11.452,74.585
		c2.03-3.75,3.657-7.804,4.326-12.029c-2.472,2.361-4.428,5.207-6.9,7.583c-1.711,1.757-3.69,3.233-5.309,5.078
		c8.416-14.881,6.978-32.424,0.337-48.627C1195.797,438.336,1205.747,428.262,1215.387,430.336z"/>
	<path d="M1277.532,439.998c2.096,0.462,9.62-2.471,15.742,4.603c21.759,20.214-35.069,48.759-61.44,60.725
		c0.747-1.494,1.513-2.984,2.205-4.511c-3.192,1.421-6.346,2.938-9.46,4.515c0.534-2.35,15.105-32.724,28.342-50.739
		C1258.838,446.722,1267.864,438.147,1277.532,439.998z"/>
	<path d="M1279.4,501.595c38.873-2.146,32.592,31.218,8.763,27.424c-16.023,2.643-25.87-13.156-49.6-4.829
		c-2.094,0.701-3.985,1.859-6.047,2.611c1.167-1.379,2.486-2.629,3.556-4.091c-3.362,0.812-6.665,1.932-9.727,3.551
		C1226.122,523.777,1248.666,499.703,1279.4,501.595z"/>
	<path d="M1249.167,543.304c62.045,20.024,31.974,100.602-24.26,77.237c-16.461-5.854-23.378-26.361-13.348-41.031
		c10.678-16.318,28.492-11.274,31.866-11.664c5.378-0.364,10.645,1.31,15.271,3.957c-11.508-28.74-91.439-14.864-66.343,38.605
		c4.305,9.417,8.774,15.293,4.949,28.019c-2.066,7.058-12.463,20.07-4.363,35.524c-5-4.861-9.068-10.622-12.398-16.733
		c-2.242-0.489-4.086-1.84-6.056-2.906c0.849,3.791,1.513,8.03,4.414,10.871c8.456,9.999,4.958,7.867,15.396,21.11
		c8.962,10.533,8.889,13.062,13.468,26.719c-3.971-0.862-7.942-1.969-11.521-3.916c-0.088,0.24-0.258,0.724-0.346,0.964
		c-4.118-0.19-9.215-3.452-11.231-3.63c1.01,2.345,22.094,31.295,62.487,24.426c46.558-8.1,57.983-61.572,28.328-82.13
		c-45.962-33.387-82.965,47.083-32.968,61.039c-0.235,0.798-0.47,1.591-0.673,2.408c-2.91-0.387-5.586-1.614-8.33-2.551
		c-0.212,0.945,0.604,1.245,1.278,1.6c-49.918-10.883-32.753-75.179,8.643-84.215c32.394-7.56,76.953,20.901,67.892,65.798
		c-8.289,40.918-48.328,54.252-73.423,53.82c-66.959,1.206-100.274-65.369-87.864-125.813c5.949-29.672,25.101-64.287,54.023-74.156
		C1207.016,545.781,1225.066,535.635,1249.167,543.304z"/>
	<path d="M1149.837,579.888c-2.458,3.27-5.401,6.314-7.103,10.064c6.555-3.23,10.745-7.421,13.708-8.883
		c-30.338,36.488-25.857,90.072-4.677,128.285c-3.538-0.235-6.471-2.472-9.529-4.031c0.599,1.536,1.374,3.003,2.121,4.479
		c-19.984-5.844-32.399-31.394-39.149-51.085c-26.936,7.467-43.977-6.876-31.562-33.425c-20.185-6.251-48.028-19.518-53.645-39.942
		c2.892,1.665,5.913,3.109,8.98,4.437c-0.424-1.338-0.904-2.675-0.987-4.077C1070.193,607.174,1113.213,610.218,1149.837,579.888z"
		/>
	<path d="M1161.686,727.037c2.758,1.559,4.926,3.948,7.624,5.59c0-1.882-1.776-3.026-2.578-4.575
		c42.635,30.607,63.479,69.548,87.25,48.318c4.76-4.099,13.609-21.798,34.892-10.83c-2.197,23.061-18.538,36.777-39.158,35.934
		c-0.055,0.198-0.157,0.6-0.208,0.798c3.109,0.363,19.012-0.153,24.685,17.905c55.704,13.002,24.473,53.72,47.599,70.069
		c-22.137,1.097-24.431-6.913-27.249-7.177c-0.097,2.809-0.3,5.664,0.332,8.44c-10.082,0.752-20.363-2.274-28.601-8.108
		c-1.232-0.687-2.163-2.108-3.644-2.172c23.628,45.093,41.705,32.206,60.85,62.708c14.49-8.2,9.475-24.262,19.196-31.921
		c3.422-2.795,8.099-3.487,12.356-2.652c-6.022,10.603,4.167,51.884-19.012,55.057c0.18,3.98-0.475,8.141-2.712,11.517
		c-8.645,13.839-28.085-0.259-29.085-0.535c6.703,11.871,14.986,22.268,28.495,20.967c0.364,3.985,0.078,8.021-0.909,11.9
		c4.147,9.339-1.569,14.008-1.619,15.548c1.667,5.737,15.795,18.027,9.344,36.441c-9.643-0.547-13.321-5.322-15.437-5.802
		c1.959,4.619,11.717,29.133,11.738,29.168c6.654,12.128,5.173,19.27,5.862,21.881c5.132,20.313,1.665,12.195,5.207,17.877
		c10.386,15.009,12.627,31.467,2.209,45.874c-0.992,1.148-0.664,2.726-0.775,4.123c-3.37,45.084-23.686,55.601-11.484,92.886
		c-14.63-20.174-18.804-47.972-9.275-71.19c-7.191,2.869-15.354,1.914-22.296-1.185c14.063-39.987,18.952-65.83,3.731-130.753
		c-17.049-70.238-63.009-220.106-131.376-315.792C1172.613,740.353,1167.336,733.536,1161.686,727.037z"/>
</g>
</svg>
