<svg width="17" height="17" viewBox="0 0 17 17" fill="none" xmlns="http://www.w3.org/2000/svg">
<mask id="mask0_529_1117" style="mask-type:alpha" maskUnits="userSpaceOnUse" x="0" y="1" width="16" height="16">
<mask id="path-1-inside-1_529_1117" fill="white">
<path fill-rule="evenodd" clip-rule="evenodd" d="M16 12.8722C14.7976 13.5013 13.4259 13.8577 11.9699 13.8577C7.21394 13.8577 3.35847 10.0553 3.35847 5.36493C3.35847 3.76884 3.80491 2.27559 4.58137 1C1.85615 2.42587 0 5.25278 0 8.50725C0 13.1977 3.85548 17 8.61145 17C11.749 17 14.4947 15.3451 16 12.8722Z"/>
</mask>
<path fill-rule="evenodd" clip-rule="evenodd" d="M16 12.8722C14.7976 13.5013 13.4259 13.8577 11.9699 13.8577C7.21394 13.8577 3.35847 10.0553 3.35847 5.36493C3.35847 3.76884 3.80491 2.27559 4.58137 1C1.85615 2.42587 0 5.25278 0 8.50725C0 13.1977 3.85548 17 8.61145 17C11.749 17 14.4947 15.3451 16 12.8722Z" fill="#6C4242"/>
<path d="M16 12.8722L16.8542 13.3921L18.7258 10.3174L15.5364 11.9861L16 12.8722ZM4.58137 1L5.43556 1.51995L7.30717 -1.55479L4.11778 0.113952L4.58137 1ZM15.5364 11.9861C14.474 12.542 13.2611 12.8577 11.9699 12.8577V14.8577C13.5908 14.8577 15.1211 14.4606 16.4636 13.7582L15.5364 11.9861ZM11.9699 12.8577C7.7531 12.8577 4.35847 9.49002 4.35847 5.36493H2.35847C2.35847 10.6207 6.67479 14.8577 11.9699 14.8577V12.8577ZM4.35847 5.36493C4.35847 3.95803 4.75142 2.64388 5.43556 1.51995L3.72717 0.480047C2.8584 1.90729 2.35847 3.57965 2.35847 5.36493H4.35847ZM1 8.50725C1 5.64458 2.63172 3.14869 5.04496 1.88605L4.11778 0.113952C1.08059 1.70305 -1 4.86098 -1 8.50725H1ZM8.61145 16C4.39463 16 1 12.6323 1 8.50725H-1C-1 13.763 3.31632 18 8.61145 18V16ZM15.1458 12.3522C13.8167 14.5357 11.3901 16 8.61145 16V18C12.1079 18 15.1726 16.1546 16.8542 13.3921L15.1458 12.3522Z" fill="black" mask="url(#path-1-inside-1_529_1117)"/>
</mask>
<g mask="url(#mask0_529_1117)">
<rect x="-6.67383" y="-0.65625" width="24.9535" height="21.6565" stroke="black"/>
<path d="M13.497 7.44173e-06L14.1208 0.984394L13.497 1.96878M13.2891 0.328136H14.5367L15.1606 -0.65625M13.2891 1.64065H14.5367L15.1606 2.62504M14.7447 2.62504L15.3685 1.64065H16.6162M16.4083 1.96878L15.7844 0.984394L16.4083 7.44173e-06M16.6162 0.328136H15.3685L14.7447 -0.65625M14.1208 -0.328121V0.546889L13.2891 0.984394L14.1208 1.4219V2.29691L14.9526 1.8594L15.7844 2.29691V1.4219L16.6162 0.984394L15.7844 0.546889V-0.328121L14.9526 0.109384L14.1208 -0.328121Z" stroke="black" stroke-width="2"/>
<path d="M13.497 10.5L14.1208 11.4844L13.497 12.4688M13.2891 10.8281H14.5367L15.1606 9.84375M13.2891 12.1407H14.5367L15.1606 13.125M14.7447 13.125L15.3685 12.1407H16.6162M16.4083 12.4688L15.7844 11.4844L16.4083 10.5M16.6162 10.8281H15.3685L14.7447 9.84375M14.1208 10.1719V11.0469L13.2891 11.4844L14.1208 11.9219V12.7969L14.9526 12.3594L15.7844 12.7969V11.9219L16.6162 11.4844L15.7844 11.0469V10.1719L14.9526 10.6094L14.1208 10.1719Z" stroke="black" stroke-width="2"/>
<path d="M13.497 5.25001L14.1208 6.23439L13.497 7.21878M13.2891 5.57814H14.5367L15.1606 4.59375M13.2891 6.89065H14.5367L15.1606 7.87504M14.7447 7.87504L15.3685 6.89065H16.6162M16.4083 7.21878L15.7844 6.23439L16.4083 5.25001M16.6162 5.57814H15.3685L14.7447 4.59375M14.1208 4.92188V5.79689L13.2891 6.23439L14.1208 6.6719V7.54691L14.9526 7.1094L15.7844 7.54691V6.6719L16.6162 6.23439L15.7844 5.79689V4.92188L14.9526 5.35938L14.1208 4.92188Z" stroke="black" stroke-width="2"/>
<path d="M13.497 15.75L14.1208 16.7344L13.497 17.7188M13.2891 16.0781H14.5367L15.1606 15.0938M13.2891 17.3907H14.5367L15.1606 18.375M14.7447 18.375L15.3685 17.3907H16.6162M16.4083 17.7188L15.7844 16.7344L16.4083 15.75M16.6162 16.0781H15.3685L14.7447 15.0938M14.1208 15.4219V16.2969L13.2891 16.7344L14.1208 17.1719V18.0469L14.9526 17.6094L15.7844 18.0469V17.1719L16.6162 16.7344L15.7844 16.2969V15.4219L14.9526 15.8594L14.1208 15.4219Z" stroke="black" stroke-width="2"/>
<path d="M10.1699 7.44173e-06L10.7937 0.984394L10.1699 1.96878M9.96191 0.328136H11.2096L11.8334 -0.65625M9.96191 1.64065H11.2096L11.8334 2.62504M11.4175 2.62504L12.0414 1.64065H13.2891M13.0811 1.96878L12.4573 0.984394L13.0811 7.44173e-06M13.2891 0.328136H12.0414L11.4175 -0.65625M10.7937 -0.328121V0.546889L9.96191 0.984394L10.7937 1.4219V2.29691L11.6255 1.8594L12.4573 2.29691V1.4219L13.2891 0.984394L12.4573 0.546889V-0.328121L11.6255 0.109384L10.7937 -0.328121Z" stroke="black" stroke-width="2"/>
<path d="M10.1699 10.5L10.7937 11.4844L10.1699 12.4688M9.96191 10.8281H11.2096L11.8334 9.84375M9.96191 12.1407H11.2096L11.8334 13.125M11.4175 13.125L12.0414 12.1407H13.2891M13.0811 12.4688L12.4573 11.4844L13.0811 10.5M13.2891 10.8281H12.0414L11.4175 9.84375M10.7937 10.1719V11.0469L9.96191 11.4844L10.7937 11.9219V12.7969L11.6255 12.3594L12.4573 12.7969V11.9219L13.2891 11.4844L12.4573 11.0469V10.1719L11.6255 10.6094L10.7937 10.1719Z" stroke="black" stroke-width="2"/>
<path d="M10.1699 5.25001L10.7937 6.23439L10.1699 7.21878M9.96191 5.57814H11.2096L11.8334 4.59375M9.96191 6.89065H11.2096L11.8334 7.87504M11.4175 7.87504L12.0414 6.89065H13.2891M13.0811 7.21878L12.4573 6.23439L13.0811 5.25001M13.2891 5.57814H12.0414L11.4175 4.59375M10.7937 4.92188V5.79689L9.96191 6.23439L10.7937 6.6719V7.54691L11.6255 7.1094L12.4573 7.54691V6.6719L13.2891 6.23439L12.4573 5.79689V4.92188L11.6255 5.35938L10.7937 4.92188Z" stroke="black" stroke-width="2"/>
<path d="M10.1699 15.75L10.7937 16.7344L10.1699 17.7188M9.96191 16.0781H11.2096L11.8334 15.0938M9.96191 17.3907H11.2096L11.8334 18.375M11.4175 18.375L12.0414 17.3907H13.2891M13.0811 17.7188L12.4573 16.7344L13.0811 15.75M13.2891 16.0781H12.0414L11.4175 15.0938M10.7937 15.4219V16.2969L9.96191 16.7344L10.7937 17.1719V18.0469L11.6255 17.6094L12.4573 18.0469V17.1719L13.2891 16.7344L12.4573 16.2969V15.4219L11.6255 15.8594L10.7937 15.4219Z" stroke="black" stroke-width="2"/>
<path d="M6.84271 7.44173e-06L7.46655 0.984394L6.84271 1.96878M6.63477 0.328136H7.88245L8.50629 -0.65625M6.63477 1.64065H7.88245L8.50629 2.62504M8.09039 2.62504L8.71423 1.64065H9.96191M9.75397 1.96878L9.13013 0.984394L9.75397 7.44173e-06M9.96191 0.328136H8.71423L8.09039 -0.65625M7.46655 -0.328121V0.546889L6.63477 0.984394L7.46655 1.4219V2.29691L8.29834 1.8594L9.13013 2.29691V1.4219L9.96191 0.984394L9.13013 0.546889V-0.328121L8.29834 0.109384L7.46655 -0.328121Z" stroke="black" stroke-width="2"/>
<path d="M6.84271 10.5L7.46655 11.4844L6.84271 12.4688M6.63477 10.8281H7.88245L8.50629 9.84375M6.63477 12.1407H7.88245L8.50629 13.125M8.09039 13.125L8.71423 12.1407H9.96191M9.75397 12.4688L9.13013 11.4844L9.75397 10.5M9.96191 10.8281H8.71423L8.09039 9.84375M7.46655 10.1719V11.0469L6.63477 11.4844L7.46655 11.9219V12.7969L8.29834 12.3594L9.13013 12.7969V11.9219L9.96191 11.4844L9.13013 11.0469V10.1719L8.29834 10.6094L7.46655 10.1719Z" stroke="black" stroke-width="2"/>
<path d="M6.84271 5.25001L7.46655 6.23439L6.84271 7.21878M6.63477 5.57814H7.88245L8.50629 4.59375M6.63477 6.89065H7.88245L8.50629 7.87504M8.09039 7.87504L8.71423 6.89065H9.96191M9.75397 7.21878L9.13013 6.23439L9.75397 5.25001M9.96191 5.57814H8.71423L8.09039 4.59375M7.46655 4.92188V5.79689L6.63477 6.23439L7.46655 6.6719V7.54691L8.29834 7.1094L9.13013 7.54691V6.6719L9.96191 6.23439L9.13013 5.79689V4.92188L8.29834 5.35938L7.46655 4.92188Z" stroke="black" stroke-width="2"/>
<path d="M6.84271 15.75L7.46655 16.7344L6.84271 17.7188M6.63477 16.0781H7.88245L8.50629 15.0938M6.63477 17.3907H7.88245L8.50629 18.375M8.09039 18.375L8.71423 17.3907H9.96191M9.75397 17.7188L9.13013 16.7344L9.75397 15.75M9.96191 16.0781H8.71423L8.09039 15.0938M7.46655 15.4219V16.2969L6.63477 16.7344L7.46655 17.1719V18.0469L8.29834 17.6094L9.13013 18.0469V17.1719L9.96191 16.7344L9.13013 16.2969V15.4219L8.29834 15.8594L7.46655 15.4219Z" stroke="black" stroke-width="2"/>
<path d="M3.51556 7.44173e-06L4.1394 0.984394L3.51556 1.96878M3.30762 0.328136H4.5553L5.17914 -0.65625M3.30762 1.64065H4.5553L5.17914 2.62504M4.76325 2.62504L5.38709 1.64065H6.63477M6.42682 1.96878L5.80298 0.984394L6.42682 7.44173e-06M6.63477 0.328136H5.38709L4.76325 -0.65625M4.1394 -0.328121V0.546889L3.30762 0.984394L4.1394 1.4219V2.29691L4.97119 1.8594L5.80298 2.29691V1.4219L6.63477 0.984394L5.80298 0.546889V-0.328121L4.97119 0.109384L4.1394 -0.328121Z" stroke="black" stroke-width="2"/>
<path d="M3.51556 10.5L4.1394 11.4844L3.51556 12.4688M3.30762 10.8281H4.5553L5.17914 9.84375M3.30762 12.1407H4.5553L5.17914 13.125M4.76325 13.125L5.38709 12.1407H6.63477M6.42682 12.4688L5.80298 11.4844L6.42682 10.5M6.63477 10.8281H5.38709L4.76325 9.84375M4.1394 10.1719V11.0469L3.30762 11.4844L4.1394 11.9219V12.7969L4.97119 12.3594L5.80298 12.7969V11.9219L6.63477 11.4844L5.80298 11.0469V10.1719L4.97119 10.6094L4.1394 10.1719Z" stroke="black" stroke-width="2"/>
<path d="M3.51556 5.25001L4.1394 6.23439L3.51556 7.21878M3.30762 5.57814H4.5553L5.17914 4.59375M3.30762 6.89065H4.5553L5.17914 7.87504M4.76325 7.87504L5.38709 6.89065H6.63477M6.42682 7.21878L5.80298 6.23439L6.42682 5.25001M6.63477 5.57814H5.38709L4.76325 4.59375M4.1394 4.92188V5.79689L3.30762 6.23439L4.1394 6.6719V7.54691L4.97119 7.1094L5.80298 7.54691V6.6719L6.63477 6.23439L5.80298 5.79689V4.92188L4.97119 5.35938L4.1394 4.92188Z" stroke="black" stroke-width="2"/>
<path d="M3.51556 15.75L4.1394 16.7344L3.51556 17.7188M3.30762 16.0781H4.5553L5.17914 15.0938M3.30762 17.3907H4.5553L5.17914 18.375M4.76325 18.375L5.38709 17.3907H6.63477M6.42682 17.7188L5.80298 16.7344L6.42682 15.75M6.63477 16.0781H5.38709L4.76325 15.0938M4.1394 15.4219V16.2969L3.30762 16.7344L4.1394 17.1719V18.0469L4.97119 17.6094L5.80298 18.0469V17.1719L6.63477 16.7344L5.80298 16.2969V15.4219L4.97119 15.8594L4.1394 15.4219Z" stroke="black" stroke-width="2"/>
<path d="M5.17914 2.62501L5.80298 3.60939L5.17914 4.59378M4.97119 2.95314H6.21887L6.84271 1.96875M4.97119 4.26565H6.21887L6.84271 5.25004M6.42682 5.25004L7.05066 4.26565H8.29834M8.09039 4.59378L7.46655 3.60939L8.09039 2.62501M8.29834 2.95314H7.05066L6.42682 1.96875M5.80298 2.29688V3.17189L4.97119 3.60939L5.80298 4.0469V4.92191L6.63477 4.4844L7.46655 4.92191V4.0469L8.29834 3.60939L7.46655 3.17189V2.29688L6.63477 2.73438L5.80298 2.29688Z" stroke="black" stroke-width="2"/>
<path d="M5.17914 13.125L5.80298 14.1094L5.17914 15.0938M4.97119 13.4531H6.21887L6.84271 12.4688M4.97119 14.7657H6.21887L6.84271 15.75M6.42682 15.75L7.05066 14.7657H8.29834M8.09039 15.0938L7.46655 14.1094L8.09039 13.125M8.29834 13.4531H7.05066L6.42682 12.4688M5.80298 12.7969V13.6719L4.97119 14.1094L5.80298 14.5469V15.4219L6.63477 14.9844L7.46655 15.4219V14.5469L8.29834 14.1094L7.46655 13.6719V12.7969L6.63477 13.2344L5.80298 12.7969Z" stroke="black" stroke-width="2"/>
<path d="M5.17914 7.87501L5.80298 8.85939L5.17914 9.84378M4.97119 8.20314H6.21887L6.84271 7.21875M4.97119 9.51565H6.21887L6.84271 10.5M6.42682 10.5L7.05066 9.51565H8.29834M8.09039 9.84378L7.46655 8.85939L8.09039 7.87501M8.29834 8.20314H7.05066L6.42682 7.21875M5.80298 7.54688V8.42189L4.97119 8.85939L5.80298 9.2969V10.1719L6.63477 9.7344L7.46655 10.1719V9.2969L8.29834 8.85939L7.46655 8.42189V7.54688L6.63477 7.98438L5.80298 7.54688Z" stroke="black" stroke-width="2"/>
<path d="M5.17914 18.375L5.80298 19.3594L5.17914 20.3438M4.97119 18.7031H6.21887L6.84271 17.7188M4.97119 20.0157H6.21887L6.84271 21M6.42682 21L7.05066 20.0157H8.29834M8.09039 20.3438L7.46655 19.3594L8.09039 18.375M8.29834 18.7031H7.05066L6.42682 17.7188M5.80298 18.0469V18.9219L4.97119 19.3594L5.80298 19.7969V20.6719L6.63477 20.2344L7.46655 20.6719V19.7969L8.29834 19.3594L7.46655 18.9219V18.0469L6.63477 18.4844L5.80298 18.0469Z" stroke="black" stroke-width="2"/>
<path d="M8.50629 2.62501L9.13013 3.60939L8.50629 4.59378M8.29834 2.95314H9.54602L10.1699 1.96875M8.29834 4.26565H9.54602L10.1699 5.25004M9.75397 5.25004L10.3778 4.26565H11.6255M11.4175 4.59378L10.7937 3.60939L11.4175 2.62501M11.6255 2.95314H10.3778L9.75397 1.96875M9.13013 2.29688V3.17189L8.29834 3.60939L9.13013 4.0469V4.92191L9.96191 4.4844L10.7937 4.92191V4.0469L11.6255 3.60939L10.7937 3.17189V2.29688L9.96191 2.73438L9.13013 2.29688Z" stroke="black" stroke-width="2"/>
<path d="M8.50629 13.125L9.13013 14.1094L8.50629 15.0938M8.29834 13.4531H9.54602L10.1699 12.4688M8.29834 14.7657H9.54602L10.1699 15.75M9.75397 15.75L10.3778 14.7657H11.6255M11.4175 15.0938L10.7937 14.1094L11.4175 13.125M11.6255 13.4531H10.3778L9.75397 12.4688M9.13013 12.7969V13.6719L8.29834 14.1094L9.13013 14.5469V15.4219L9.96191 14.9844L10.7937 15.4219V14.5469L11.6255 14.1094L10.7937 13.6719V12.7969L9.96191 13.2344L9.13013 12.7969Z" stroke="black" stroke-width="2"/>
<path d="M8.50629 7.87501L9.13013 8.85939L8.50629 9.84378M8.29834 8.20314H9.54602L10.1699 7.21875M8.29834 9.51565H9.54602L10.1699 10.5M9.75397 10.5L10.3778 9.51565H11.6255M11.4175 9.84378L10.7937 8.85939L11.4175 7.87501M11.6255 8.20314H10.3778L9.75397 7.21875M9.13013 7.54688V8.42189L8.29834 8.85939L9.13013 9.2969V10.1719L9.96191 9.7344L10.7937 10.1719V9.2969L11.6255 8.85939L10.7937 8.42189V7.54688L9.96191 7.98438L9.13013 7.54688Z" stroke="black" stroke-width="2"/>
<path d="M8.50629 18.375L9.13013 19.3594L8.50629 20.3438M8.29834 18.7031H9.54602L10.1699 17.7188M8.29834 20.0157H9.54602L10.1699 21M9.75397 21L10.3778 20.0157H11.6255M11.4175 20.3438L10.7937 19.3594L11.4175 18.375M11.6255 18.7031H10.3778L9.75397 17.7188M9.13013 18.0469V18.9219L8.29834 19.3594L9.13013 19.7969V20.6719L9.96191 20.2344L10.7937 20.6719V19.7969L11.6255 19.3594L10.7937 18.9219V18.0469L9.96191 18.4844L9.13013 18.0469Z" stroke="black" stroke-width="2"/>
<path d="M11.8334 2.62501L12.4573 3.60939L11.8334 4.59378M11.6255 2.95314H12.8732L13.497 1.96875M11.6255 4.26565H12.8732L13.497 5.25004M13.0811 5.25004L13.705 4.26565H14.9526M14.7447 4.59378L14.1208 3.60939L14.7447 2.62501M14.9526 2.95314H13.705L13.0811 1.96875M12.4573 2.29688V3.17189L11.6255 3.60939L12.4573 4.0469V4.92191L13.2891 4.4844L14.1208 4.92191V4.0469L14.9526 3.60939L14.1208 3.17189V2.29688L13.2891 2.73438L12.4573 2.29688Z" stroke="black" stroke-width="2"/>
<path d="M11.8334 13.125L12.4573 14.1094L11.8334 15.0938M11.6255 13.4531H12.8732L13.497 12.4688M11.6255 14.7657H12.8732L13.497 15.75M13.0811 15.75L13.705 14.7657H14.9526M14.7447 15.0938L14.1208 14.1094L14.7447 13.125M14.9526 13.4531H13.705L13.0811 12.4688M12.4573 12.7969V13.6719L11.6255 14.1094L12.4573 14.5469V15.4219L13.2891 14.9844L14.1208 15.4219V14.5469L14.9526 14.1094L14.1208 13.6719V12.7969L13.2891 13.2344L12.4573 12.7969Z" stroke="black" stroke-width="2"/>
<path d="M11.8334 7.87501L12.4573 8.85939L11.8334 9.84378M11.6255 8.20314H12.8732L13.497 7.21875M11.6255 9.51565H12.8732L13.497 10.5M13.0811 10.5L13.705 9.51565H14.9526M14.7447 9.84378L14.1209 8.85939L14.7447 7.87501M14.9526 8.20314H13.705L13.0811 7.21875M12.4573 7.54688V8.42189L11.6255 8.85939L12.4573 9.2969V10.1719L13.2891 9.7344L14.1209 10.1719V9.2969L14.9526 8.85939L14.1209 8.42189V7.54688L13.2891 7.98438L12.4573 7.54688Z" stroke="black" stroke-width="2"/>
<path d="M11.8334 18.375L12.4573 19.3594L11.8334 20.3438M11.6255 18.7031H12.8732L13.497 17.7188M11.6255 20.0157H12.8732L13.497 21M13.0811 21L13.705 20.0157H14.9526M14.7447 20.3438L14.1209 19.3594L14.7447 18.375M14.9526 18.7031H13.705L13.0811 17.7188M12.4573 18.0469V18.9219L11.6255 19.3594L12.4573 19.7969V20.6719L13.2891 20.2344L14.1209 20.6719V19.7969L14.9526 19.3594L14.1209 18.9219V18.0469L13.2891 18.4844L12.4573 18.0469Z" stroke="black" stroke-width="2"/>
<path d="M15.1605 2.62501L15.7843 3.60939L15.1605 4.59378M14.9525 2.95314H16.2002L16.824 1.96875M14.9525 4.26565H16.2002L16.824 5.25004M16.4081 5.25004L17.032 4.26565H18.2797M18.0717 4.59378L17.4479 3.60939L18.0717 2.62501M18.2797 2.95314H17.032L16.4081 1.96875M15.7843 2.29688V3.17189L14.9525 3.60939L15.7843 4.0469V4.92191L16.6161 4.4844L17.4479 4.92191V4.0469L18.2797 3.60939L17.4479 3.17189V2.29688L16.6161 2.73438L15.7843 2.29688Z" stroke="black" stroke-width="2"/>
<path d="M15.1605 13.125L15.7843 14.1094L15.1605 15.0938M14.9525 13.4531H16.2002L16.824 12.4688M14.9525 14.7657H16.2002L16.824 15.75M16.4081 15.75L17.032 14.7657H18.2797M18.0717 15.0938L17.4479 14.1094L18.0717 13.125M18.2797 13.4531H17.032L16.4081 12.4688M15.7843 12.7969V13.6719L14.9525 14.1094L15.7843 14.5469V15.4219L16.6161 14.9844L17.4479 15.4219V14.5469L18.2797 14.1094L17.4479 13.6719V12.7969L16.6161 13.2344L15.7843 12.7969Z" stroke="black" stroke-width="2"/>
<path d="M15.1605 7.87501L15.7843 8.85939L15.1605 9.84378M14.9525 8.20314H16.2002L16.824 7.21875M14.9525 9.51565H16.2002L16.824 10.5M16.4081 10.5L17.032 9.51565H18.2797M18.0717 9.84378L17.4479 8.85939L18.0717 7.87501M18.2797 8.20314H17.032L16.4081 7.21875M15.7843 7.54688V8.42189L14.9525 8.85939L15.7843 9.2969V10.1719L16.6161 9.7344L17.4479 10.1719V9.2969L18.2797 8.85939L17.4479 8.42189V7.54688L16.6161 7.98438L15.7843 7.54688Z" stroke="black" stroke-width="2"/>
<path d="M15.1605 18.375L15.7843 19.3594L15.1605 20.3438M14.9525 18.7031H16.2002L16.824 17.7188M14.9525 20.0157H16.2002L16.824 21M16.4081 21L17.032 20.0157H18.2797M18.0717 20.3438L17.4479 19.3594L18.0717 18.375M18.2797 18.7031H17.032L16.4081 17.7188M15.7843 18.0469V18.9219L14.9525 19.3594L15.7843 19.7969V20.6719L16.6161 20.2344L17.4479 20.6719V19.7969L18.2797 19.3594L17.4479 18.9219V18.0469L16.6161 18.4844L15.7843 18.0469Z" stroke="black" stroke-width="2"/>
<path d="M0.188416 5.25001L0.812256 6.23439L0.188416 7.21878M-0.0195312 5.57814H1.22815L1.85199 4.59375M-0.0195312 6.89065H1.22815L1.85199 7.87504M1.4361 7.87504L2.05994 6.89065H3.30762M3.09967 7.21878L2.47583 6.23439L3.09967 5.25001M3.30762 5.57814H2.05994L1.4361 4.59375M0.812256 4.92188V5.79689L-0.0195312 6.23439L0.812256 6.6719V7.54691L1.64404 7.1094L2.47583 7.54691V6.6719L3.30762 6.23439L2.47583 5.79689V4.92188L1.64404 5.35938L0.812256 4.92188Z" stroke="black" stroke-width="2"/>
<path d="M0.188416 15.75L0.812256 16.7344L0.188416 17.7188M-0.0195312 16.0781H1.22815L1.85199 15.0938M-0.0195312 17.3907H1.22815L1.85199 18.375M1.4361 18.375L2.05994 17.3907H3.30762M3.09967 17.7188L2.47583 16.7344L3.09967 15.75M3.30762 16.0781H2.05994L1.4361 15.0938M0.812256 15.4219V16.2969L-0.0195312 16.7344L0.812256 17.1719V18.0469L1.64404 17.6094L2.47583 18.0469V17.1719L3.30762 16.7344L2.47583 16.2969V15.4219L1.64404 15.8594L0.812256 15.4219Z" stroke="black" stroke-width="2"/>
<path d="M0.188416 7.44173e-06L0.812256 0.984394L0.188416 1.96878M-0.0195312 0.328136H1.22815L1.85199 -0.65625M-0.0195312 1.64065H1.22815L1.85199 2.62504M1.4361 2.62504L2.05994 1.64065H3.30762M3.09967 1.96878L2.47583 0.984394L3.09967 7.44173e-06M3.30762 0.328136H2.05994L1.4361 -0.65625M0.812256 -0.328121V0.546889L-0.0195312 0.984394L0.812256 1.4219V2.29691L1.64404 1.8594L2.47583 2.29691V1.4219L3.30762 0.984394L2.47583 0.546889V-0.328121L1.64404 0.109384L0.812256 -0.328121Z" stroke="black" stroke-width="2"/>
<path d="M0.188416 10.5L0.812256 11.4844L0.188416 12.4688M-0.0195312 10.8281H1.22815L1.85199 9.84375M-0.0195312 12.1407H1.22815L1.85199 13.125M1.4361 13.125L2.05994 12.1407H3.30762M3.09967 12.4688L2.47583 11.4844L3.09967 10.5M3.30762 10.8281H2.05994L1.4361 9.84375M0.812256 10.1719V11.0469L-0.0195312 11.4844L0.812256 11.9219V12.7969L1.64404 12.3594L2.47583 12.7969V11.9219L3.30762 11.4844L2.47583 11.0469V10.1719L1.64404 10.6094L0.812256 10.1719Z" stroke="black" stroke-width="2"/>
<path d="M-1.47516 2.62501L-0.851318 3.60939L-1.47516 4.59378M-1.68311 2.95314H-0.435425L0.188416 1.96875M-1.68311 4.26565H-0.435425L0.188416 5.25004M-0.227478 5.25004L0.396363 4.26565H1.64404M1.4361 4.59378L0.812256 3.60939L1.4361 2.62501M1.64404 2.95314H0.396363L-0.227478 1.96875M-0.851318 2.29688V3.17189L-1.68311 3.60939L-0.851318 4.0469V4.92191L-0.019531 4.4844L0.812256 4.92191V4.0469L1.64404 3.60939L0.812256 3.17189V2.29688L-0.019531 2.73438L-0.851318 2.29688Z" stroke="black" stroke-width="2"/>
<path d="M-1.47516 13.125L-0.851318 14.1094L-1.47516 15.0938M-1.68311 13.4531H-0.435425L0.188416 12.4688M-1.68311 14.7657H-0.435425L0.188416 15.75M-0.227478 15.75L0.396363 14.7657H1.64404M1.4361 15.0938L0.812256 14.1094L1.4361 13.125M1.64404 13.4531H0.396363L-0.227478 12.4688M-0.851318 12.7969V13.6719L-1.68311 14.1094L-0.851318 14.5469V15.4219L-0.019531 14.9844L0.812256 15.4219V14.5469L1.64404 14.1094L0.812256 13.6719V12.7969L-0.019531 13.2344L-0.851318 12.7969Z" stroke="black" stroke-width="2"/>
<path d="M-3.13873 5.25001L-2.51489 6.23439L-3.13873 7.21878M-3.34668 5.57814H-2.099L-1.47516 4.59375M-3.34668 6.89065H-2.099L-1.47516 7.87504M-1.89105 7.87504L-1.26721 6.89065H-0.0195308M-0.227478 7.21878L-0.851318 6.23439L-0.227478 5.25001M-0.0195308 5.57814H-1.26721L-1.89105 4.59375M-2.51489 4.92188V5.79689L-3.34668 6.23439L-2.51489 6.6719V7.54691L-1.68311 7.1094L-0.851318 7.54691V6.6719L-0.0195308 6.23439L-0.851318 5.79689V4.92188L-1.68311 5.35938L-2.51489 4.92188Z" stroke="black" stroke-width="2"/>
<path d="M-3.13873 15.75L-2.51489 16.7344L-3.13873 17.7188M-3.34668 16.0781H-2.099L-1.47516 15.0938M-3.34668 17.3907H-2.099L-1.47516 18.375M-1.89105 18.375L-1.26721 17.3907H-0.0195308M-0.227478 17.7188L-0.851318 16.7344L-0.227478 15.75M-0.0195308 16.0781H-1.26721L-1.89105 15.0938M-2.51489 15.4219V16.2969L-3.34668 16.7344L-2.51489 17.1719V18.0469L-1.68311 17.6094L-0.851318 18.0469V17.1719L-0.0195308 16.7344L-0.851318 16.2969V15.4219L-1.68311 15.8594L-2.51489 15.4219Z" stroke="black" stroke-width="2"/>
<path d="M-4.80231 7.87501L-4.17847 8.85939L-4.80231 9.84378M-5.01025 8.20314H-3.76257L-3.13873 7.21875M-5.01025 9.51565H-3.76257L-3.13873 10.5M-3.55463 10.5L-2.93079 9.51565H-1.68311M-1.89105 9.84378L-2.51489 8.85939L-1.89105 7.87501M-1.68311 8.20314H-2.93079L-3.55463 7.21875M-4.17847 7.54688V8.42189L-5.01025 8.85939L-4.17847 9.2969V10.1719L-3.34668 9.7344L-2.51489 10.1719V9.2969L-1.68311 8.85939L-2.51489 8.42189V7.54688L-3.34668 7.98438L-4.17847 7.54688Z" stroke="black" stroke-width="2"/>
<path d="M-4.80231 18.375L-4.17847 19.3594L-4.80231 20.3438M-5.01025 18.7031H-3.76257L-3.13873 17.7188M-5.01025 20.0157H-3.76257L-3.13873 21M-3.55463 21L-2.93079 20.0157H-1.68311M-1.89105 20.3438L-2.51489 19.3594L-1.89105 18.375M-1.68311 18.7031H-2.93079L-3.55463 17.7188M-4.17847 18.0469V18.9219L-5.01025 19.3594L-4.17847 19.7969V20.6719L-3.34668 20.2344L-2.51489 20.6719V19.7969L-1.68311 19.3594L-2.51489 18.9219V18.0469L-3.34668 18.4844L-4.17847 18.0469Z" stroke="black" stroke-width="2"/>
<path d="M-4.80231 2.62501L-4.17847 3.60939L-4.80231 4.59378M-5.01025 2.95314H-3.76257L-3.13873 1.96875M-5.01025 4.26565H-3.76257L-3.13873 5.25004M-3.55463 5.25004L-2.93079 4.26565H-1.68311M-1.89105 4.59378L-2.51489 3.60939L-1.89105 2.62501M-1.68311 2.95314H-2.93079L-3.55463 1.96875M-4.17847 2.29688V3.17189L-5.01025 3.60939L-4.17847 4.0469V4.92191L-3.34668 4.4844L-2.51489 4.92191V4.0469L-1.68311 3.60939L-2.51489 3.17189V2.29688L-3.34668 2.73438L-4.17847 2.29688Z" stroke="black" stroke-width="2"/>
<path d="M-4.80231 13.125L-4.17847 14.1094L-4.80231 15.0938M-5.01025 13.4531H-3.76257L-3.13873 12.4688M-5.01025 14.7657H-3.76257L-3.13873 15.75M-3.55463 15.75L-2.93079 14.7657H-1.68311M-1.89105 15.0938L-2.51489 14.1094L-1.89105 13.125M-1.68311 13.4531H-2.93079L-3.55463 12.4688M-4.17847 12.7969V13.6719L-5.01025 14.1094L-4.17847 14.5469V15.4219L-3.34668 14.9844L-2.51489 15.4219V14.5469L-1.68311 14.1094L-2.51489 13.6719V12.7969L-3.34668 13.2344L-4.17847 12.7969Z" stroke="black" stroke-width="2"/>
<path d="M-3.13873 7.44173e-06L-2.51489 0.984394L-3.13873 1.96878M-3.34668 0.328136H-2.099L-1.47516 -0.65625M-3.34668 1.64065H-2.099L-1.47516 2.62504M-1.89105 2.62504L-1.26721 1.64065H-0.0195308M-0.227478 1.96878L-0.851318 0.984394L-0.227478 7.44173e-06M-0.0195308 0.328136H-1.26721L-1.89105 -0.65625M-2.51489 -0.328121V0.546889L-3.34668 0.984394L-2.51489 1.4219V2.29691L-1.68311 1.8594L-0.851318 2.29691V1.4219L-0.0195308 0.984394L-0.851318 0.546889V-0.328121L-1.68311 0.109384L-2.51489 -0.328121Z" stroke="black" stroke-width="2"/>
<path d="M-3.13873 10.5L-2.51489 11.4844L-3.13873 12.4688M-3.34668 10.8281H-2.099L-1.47516 9.84375M-3.34668 12.1407H-2.099L-1.47516 13.125M-1.89105 13.125L-1.26721 12.1407H-0.0195308M-0.227478 12.4688L-0.851318 11.4844L-0.227478 10.5M-0.0195308 10.8281H-1.26721L-1.89105 9.84375M-2.51489 10.1719V11.0469L-3.34668 11.4844L-2.51489 11.9219V12.7969L-1.68311 12.3594L-0.851318 12.7969V11.9219L-0.0195308 11.4844L-0.851318 11.0469V10.1719L-1.68311 10.6094L-2.51489 10.1719Z" stroke="black" stroke-width="2"/>
<path d="M1.85199 7.87501L2.47583 8.85939L1.85199 9.84378M1.64404 8.20314H2.89172L3.51556 7.21875M1.64404 9.51565H2.89172L3.51556 10.5M3.09967 10.5L3.72351 9.51565H4.97119M4.76325 9.84378L4.13941 8.85939L4.76325 7.87501M4.97119 8.20314H3.72351L3.09967 7.21875M2.47583 7.54688V8.42189L1.64404 8.85939L2.47583 9.2969V10.1719L3.30762 9.7344L4.13941 10.1719V9.2969L4.97119 8.85939L4.13941 8.42189V7.54688L3.30762 7.98438L2.47583 7.54688Z" stroke="black" stroke-width="0.02"/>
<path d="M1.85199 18.375L2.47583 19.3594L1.85199 20.3438M1.64404 18.7031H2.89172L3.51556 17.7188M1.64404 20.0157H2.89172L3.51556 21M3.09967 21L3.72351 20.0157H4.97119M4.76325 20.3438L4.13941 19.3594L4.76325 18.375M4.97119 18.7031H3.72351L3.09967 17.7188M2.47583 18.0469V18.9219L1.64404 19.3594L2.47583 19.7969V20.6719L3.30762 20.2344L4.13941 20.6719V19.7969L4.97119 19.3594L4.13941 18.9219V18.0469L3.30762 18.4844L2.47583 18.0469Z" stroke="black" stroke-width="2"/>
<path d="M-1.47516 7.87501L-0.851318 8.85939L-1.47516 9.84378M-1.68311 8.20314H-0.435424L0.188416 7.21875M-1.68311 9.51565H-0.435424L0.188416 10.5M-0.227478 10.5L0.396363 9.51565H1.64404M1.4361 9.84378L0.812257 8.85939L1.4361 7.87501M1.64404 8.20314H0.396363L-0.227478 7.21875M-0.851318 7.54688V8.42189L-1.68311 8.85939L-0.851318 9.2969V10.1719L-0.0195308 9.7344L0.812257 10.1719V9.2969L1.64404 8.85939L0.812257 8.42189V7.54688L-0.0195308 7.98438L-0.851318 7.54688Z" stroke="black" stroke-width="2"/>
<path d="M-1.47516 18.375L-0.851318 19.3594L-1.47516 20.3438M-1.68311 18.7031H-0.435424L0.188416 17.7188M-1.68311 20.0157H-0.435424L0.188416 21M-0.227478 21L0.396363 20.0157H1.64404M1.4361 20.3438L0.812257 19.3594L1.4361 18.375M1.64404 18.7031H0.396363L-0.227478 17.7188M-0.851318 18.0469V18.9219L-1.68311 19.3594L-0.851318 19.7969V20.6719L-0.0195308 20.2344L0.812257 20.6719V19.7969L1.64404 19.3594L0.812257 18.9219V18.0469L-0.0195308 18.4844L-0.851318 18.0469Z" stroke="black" stroke-width="2"/>
<path d="M1.85199 2.62501L2.47583 3.60939L1.85199 4.59378M1.64404 2.95314H2.89172L3.51556 1.96875M1.64404 4.26565H2.89172L3.51556 5.25004M3.09967 5.25004L3.72351 4.26565H4.97119M4.76325 4.59378L4.13941 3.60939L4.76325 2.62501M4.97119 2.95314H3.72351L3.09967 1.96875M2.47583 2.29688V3.17189L1.64404 3.60939L2.47583 4.0469V4.92191L3.30762 4.4844L4.13941 4.92191V4.0469L4.97119 3.60939L4.13941 3.17189V2.29688L3.30762 2.73438L2.47583 2.29688Z" stroke="black" stroke-width="2"/>
<path d="M1.85199 13.125L2.47583 14.1094L1.85199 15.0938M1.64404 13.4531H2.89172L3.51556 12.4688M1.64404 14.7657H2.89172L3.51556 15.75M3.09967 15.75L3.72351 14.7657H4.97119M4.76325 15.0938L4.13941 14.1094L4.76325 13.125M4.97119 13.4531H3.72351L3.09967 12.4688M2.47583 12.7969V13.6719L1.64404 14.1094L2.47583 14.5469V15.4219L3.30762 14.9844L4.13941 15.4219V14.5469L4.97119 14.1094L4.13941 13.6719V12.7969L3.30762 13.2344L2.47583 12.7969Z" stroke="black" stroke-width="0.2"/>
</g>
<path d="M16.78 5.97H15.66L13.47 12.13H12.96L10.85 7.13L8.85 12.13H8.33L6.13 5.97H5.03V5.14H8.39V5.97H7.22L8.69 10.39L10.64 5.29H11.2L13.24 10.4L14.65 5.97H13.43V5.14H16.78V5.97Z" fill="black"/>
<path d="M9.72332 1.06377L9.67313 1.09665C9.45343 1.24057 9.26423 1.42636 9.11633 1.6434C8.96843 1.86043 8.86472 2.10447 8.81113 2.36158C8.70291 2.88084 8.80539 3.42181 9.09604 3.86548C9.38668 4.30915 9.84169 4.61918 10.361 4.72737C10.6181 4.78094 10.8832 4.78335 11.1413 4.73445C11.3993 4.68555 11.6452 4.58631 11.8649 4.44238C12.3668 4.11359 12.5416 3.75999 12.6784 3.31179C11.9226 4.1655 10.6478 4.04433 10.0998 3.2079C9.55188 2.37147 9.95002 1.15434 11.0345 0.80249C10.8096 0.755855 10.5776 0.754954 10.3524 0.799842C10.1271 0.84473 9.91318 0.934487 9.72332 1.06377ZM10.9364 1.27319L11.069 2.02309L10.4829 2.47878L11.2421 2.57917L11.4751 3.26331L11.7912 2.57803L12.5458 2.56189L11.9949 2.08598L12.2228 1.33898L11.5709 1.6943L10.9364 1.27319Z" fill="black"/>
</svg>
