<svg width="278" height="292" viewBox="0 0 278 292" fill="none" xmlns="http://www.w3.org/2000/svg">
<g opacity="0.3" filter="url(#filter0_d_202_1019)">
<path d="M168.31 71.587L71.5862 105.856L-25.2354 71.587L-71.5371 141.344L71.5862 192.086L214.611 141.344L168.31 71.587Z" fill="#455EB5"/>
<path opacity="0.45" d="M-54.6646 138.497L64.0327 185.578L23.2244 143.683C23.2244 143.683 -43.7758 126.905 -54.6646 138.497Z" fill="#240F4F"/>
<path opacity="0.45" d="M197.837 138.497L79.1396 185.578L119.948 143.683C119.85 143.683 186.85 126.905 197.837 138.497Z" fill="#240F4F"/>
<path d="M71.5862 192.086L-71.5371 141.344V147.954L71.5862 198.696L214.611 147.954V141.344L71.5862 192.086Z" fill="#0D2168"/>
<g filter="url(#filter1_d_202_1019)">
<path d="M-4.63501 222.592L11.9434 177.545L65.3081 196.459L-4.63501 222.592Z" fill="#0B2062"/>
<path opacity="0.45" d="M-0.0244141 209.576L65.3081 196.459L11.9434 177.545L-0.0244141 209.576Z" fill="#0B2062"/>
<path d="M71.5863 194.12L-4.63501 222.592L1.0546 228.795L71.5863 202.763L142.02 228.795L147.808 222.592L71.5863 194.12Z" fill="#0D2168"/>
<path d="M147.808 222.592L131.131 177.545L77.7664 196.459L147.808 222.592Z" fill="#0B2062"/>
<path opacity="0.45" d="M143.099 209.576L77.7664 196.459L131.131 177.545L143.099 209.576Z" fill="#0B2062"/>
</g>
<path d="M71.5861 202.763C74.4575 202.763 76.7852 200.35 76.7852 197.374C76.7852 194.397 74.4575 191.984 71.5861 191.984C68.7147 191.984 66.387 194.397 66.387 197.374C66.387 200.35 68.7147 202.763 71.5861 202.763Z" fill="white" fill-opacity="0.5"/>
<path d="M164.19 71.587L71.5862 119.38L-21.0173 71.587C-25.2355 77.3832 -59.177 136.057 -59.177 136.057C-58.7846 136.057 -58.4903 136.158 -58.0979 136.158C27.0502 145.005 50.6915 172.766 58.5393 179.477C66.387 186.29 71.6842 185.578 71.6842 185.578C71.6842 185.578 76.9815 186.29 84.8292 179.477C92.677 172.766 116.318 145.005 201.466 136.158C201.859 136.158 202.153 136.057 202.546 136.057C202.349 136.057 168.31 77.4849 164.19 71.587Z" fill="#F5B304"/>
<path d="M202.349 136.057C201.957 136.057 201.663 136.158 201.27 136.158C116.122 145.005 92.4807 172.765 84.6329 179.477C76.7852 186.29 71.4879 185.578 71.4879 185.578C71.4879 185.578 66.1907 186.29 58.343 179.477C50.4952 172.765 26.8539 145.005 -58.2942 136.158C-58.6866 136.158 -58.9809 136.057 -59.3733 136.057C-60.06 137.175 -59.3733 137.989 -59.3733 137.989C26.6577 146.632 49.5143 174.494 57.362 181.307C65.2098 188.019 71.3898 187.51 71.3898 187.51C71.3898 187.51 77.5699 188.019 85.4177 181.307C93.2654 174.596 116.122 146.734 202.153 137.989C202.349 137.989 203.036 137.175 202.349 136.057Z" fill="#0D2168"/>
<path d="M160.658 65.9942C113.277 54.1985 71.488 94.5682 71.488 94.5682C71.488 94.5682 29.6988 54.1985 -17.682 65.9942C-17.682 65.9942 -31.1213 87.3484 -49.6616 123.651C-49.6616 123.651 43.6285 134.531 71.488 175.104C99.3475 134.531 192.638 123.651 192.638 123.651C174.097 87.3484 160.658 65.9942 160.658 65.9942Z" fill="#C2F0FF"/>
<path d="M192.638 123.651C192.638 123.651 99.3475 134.531 71.488 175.104C43.7266 134.531 -49.5636 123.651 -49.5636 123.651C-49.5636 123.651 -49.5636 126.905 -54.7627 133.311C-54.7627 133.311 29.8949 139.616 60.6973 176.02C67.9565 184.561 71.488 183.544 71.488 183.544C71.488 183.544 75.1176 184.561 82.2786 176.02C112.983 139.616 197.739 133.311 197.739 133.311C192.638 126.803 192.638 123.651 192.638 123.651Z" fill="#A7E9FF"/>
<path d="M155.361 70.2651C155.361 70.2651 119.948 60.9099 71.4881 99.856C23.1264 61.0116 -12.3847 70.2651 -12.3847 70.2651L-36.3203 118.465C36.4676 123.651 71.4881 161.783 71.4881 161.783C71.4881 161.783 106.509 123.651 179.297 118.465L155.361 70.2651ZM71.5862 157.207C71.5862 157.207 38.8219 122.43 -30.6307 115.617L-10.5208 72.2988C-10.5208 72.2988 24.3036 65.2824 71.5862 102.093C118.869 65.2824 153.693 72.2988 153.693 72.2988L173.803 115.617C104.351 122.43 71.5862 157.207 71.5862 157.207Z" fill="#455EB5"/>
<path opacity="0.2" d="M80.5129 136.152C93.5925 126.153 134.466 104.025 161.933 107.076" stroke="#455EB5" stroke-width="3" stroke-linecap="round"/>
<path opacity="0.2" d="M80.5132 108.093C92.1213 98.671 122.302 80.2109 150.162 81.7439" stroke="#455EB5" stroke-width="3" stroke-linecap="round"/>
<path opacity="0.2" d="M80.5129 122.329C93.102 112.182 125.834 92.3023 156.048 93.9532" stroke="#455EB5" stroke-width="3" stroke-linecap="round"/>
<path opacity="0.2" d="M63.8364 136.152C50.7568 126.153 9.88314 104.025 -17.584 107.076" stroke="#455EB5" stroke-width="3" stroke-linecap="round"/>
<path opacity="0.2" d="M63.8364 108.093C52.2283 98.671 22.0472 80.2109 -5.81236 81.7439" stroke="#455EB5" stroke-width="3" stroke-linecap="round"/>
<path opacity="0.2" d="M63.8364 122.329C51.2473 112.182 18.5157 92.3023 -11.6982 93.9532" stroke="#455EB5" stroke-width="3" stroke-linecap="round"/>
<path d="M71.5862 94.5683C71.5862 94.5683 72.5672 91.0092 74.431 92.0261C74.431 92.0261 73.2539 149.683 75.2158 172.155C75.7063 177.748 80.4149 185.375 82.2788 188.222H79.8263L79.1397 190.561C79.1397 190.561 71.8805 177.85 71.5862 172.867C70.1148 150.496 70.8995 99.9577 71.5862 94.5683Z" fill="#54DAF5"/>
</g>
<defs>
<filter id="filter0_d_202_1019" x="-134.537" y="0.834595" width="412.149" height="290.96" filterUnits="userSpaceOnUse" color-interpolation-filters="sRGB">
<feFlood flood-opacity="0" result="BackgroundImageFix"/>
<feColorMatrix in="SourceAlpha" type="matrix" values="0 0 0 0 0 0 0 0 0 0 0 0 0 0 0 0 0 0 127 0" result="hardAlpha"/>
<feOffset/>
<feGaussianBlur stdDeviation="31.5"/>
<feComposite in2="hardAlpha" operator="out"/>
<feColorMatrix type="matrix" values="0 0 0 0 0.396078 0 0 0 0 0.839216 0 0 0 0 0.988235 0 0 0 1 0"/>
<feBlend mode="normal" in2="BackgroundImageFix" result="effect1_dropShadow_202_1019"/>
<feBlend mode="normal" in="SourceGraphic" in2="effect1_dropShadow_202_1019" result="shape"/>
</filter>
<filter id="filter1_d_202_1019" x="-19.635" y="166.545" width="182.443" height="81.2502" filterUnits="userSpaceOnUse" color-interpolation-filters="sRGB">
<feFlood flood-opacity="0" result="BackgroundImageFix"/>
<feColorMatrix in="SourceAlpha" type="matrix" values="0 0 0 0 0 0 0 0 0 0 0 0 0 0 0 0 0 0 127 0" result="hardAlpha"/>
<feOffset dy="4"/>
<feGaussianBlur stdDeviation="7.5"/>
<feComposite in2="hardAlpha" operator="out"/>
<feColorMatrix type="matrix" values="0 0 0 0 0 0 0 0 0 0 0 0 0 0 0 0 0 0 0.49 0"/>
<feBlend mode="normal" in2="BackgroundImageFix" result="effect1_dropShadow_202_1019"/>
<feBlend mode="normal" in="SourceGraphic" in2="effect1_dropShadow_202_1019" result="shape"/>
</filter>
</defs>
</svg>
