<svg width="877" height="394" viewBox="0 0 877 394" fill="none" xmlns="http://www.w3.org/2000/svg">
<path d="M376.598 291.584L380.456 293.9L388.787 280.023L374.489 287.608L376.598 291.584ZM111.402 12L115.26 14.3161L123.59 0.439629L109.293 8.02479L111.402 12ZM374.489 287.608C347.197 302.088 316.063 310.292 283 310.292V319.292C317.569 319.292 350.147 310.711 378.707 295.559L374.489 287.608ZM283 310.292C175.028 310.292 87.5 222.763 87.5 114.792H78.5C78.5 227.734 170.058 319.292 283 319.292V310.292ZM87.5 114.792C87.5 78.0432 97.6351 43.6755 115.26 14.3161L107.544 9.68387C89.1023 40.4033 78.5 76.3663 78.5 114.792H87.5ZM9.5 188.792C9.5 113.882 51.6306 48.8043 113.511 15.9752L109.293 8.02479C44.5873 42.3528 0.5 110.42 0.5 188.792H9.5ZM205 384.292C97.0283 384.292 9.5 296.763 9.5 188.792H0.5C0.5 301.734 92.0578 393.292 205 393.292V384.292ZM372.74 289.267C338.559 346.206 276.225 384.292 205 384.292V393.292C279.515 393.292 344.716 353.436 380.456 293.9L372.74 289.267Z" fill="#F1F1F1"/>
<mask id="mask0_532_1187" style="mask-type:alpha" maskUnits="userSpaceOnUse" x="5" y="12" width="372" height="377">
<mask id="path-2-inside-1_532_1187" fill="white">
<path fill-rule="evenodd" clip-rule="evenodd" d="M376.598 291.584C348.672 306.399 316.816 314.792 283 314.792C172.543 314.792 83 225.249 83 114.792C83 77.2047 93.3687 42.0394 111.402 12C48.109 45.5785 5 112.151 5 188.792C5 299.249 94.5431 388.792 205 388.792C277.87 388.792 341.638 349.821 376.598 291.584Z"/>
</mask>
<path fill-rule="evenodd" clip-rule="evenodd" d="M376.598 291.584C348.672 306.399 316.816 314.792 283 314.792C172.543 314.792 83 225.249 83 114.792C83 77.2047 93.3687 42.0394 111.402 12C48.109 45.5785 5 112.151 5 188.792C5 299.249 94.5431 388.792 205 388.792C277.87 388.792 341.638 349.821 376.598 291.584Z" fill="#6C4242"/>
<path d="M376.598 291.584L377.456 292.098L379.307 289.015L376.13 290.7L376.598 291.584ZM111.402 12L112.259 12.5147L114.11 9.43103L110.933 11.1166L111.402 12ZM376.13 290.7C348.344 305.441 316.649 313.792 283 313.792V315.792C316.983 315.792 349 307.357 377.067 292.467L376.13 290.7ZM283 313.792C173.095 313.792 84 224.696 84 114.792H82C82 225.801 171.991 315.792 283 315.792V313.792ZM84 114.792C84 77.3911 94.3168 42.403 112.259 12.5147L110.544 11.4853C92.4206 41.6758 82 77.0184 82 114.792H84ZM6 188.792C6 112.535 48.8916 46.2954 111.87 12.8834L110.933 11.1166C47.3264 44.8617 4 111.766 4 188.792H6ZM205 387.792C95.0953 387.792 6 298.696 6 188.792H4C4 299.801 93.9908 389.792 205 389.792V387.792ZM375.741 291.069C340.953 349.018 277.504 387.792 205 387.792V389.792C278.235 389.792 342.322 350.624 377.456 292.098L375.741 291.069Z" fill="black" mask="url(#path-2-inside-1_532_1187)"/>
</mask>
<g mask="url(#mask0_532_1187)">
<rect x="-150" y="-27" width="579.543" height="510" stroke="#F1F1F1"/>
<path d="M318.466 -11.5455L332.954 11.6363L318.466 34.8181M313.636 -3.81821H342.613L357.102 -27M313.636 27.0908H342.613L357.102 50.2726M347.443 50.2726L361.931 27.0908H390.909M386.079 34.8181L371.59 11.6363L386.079 -11.5455M390.909 -3.81821H361.931L347.443 -27M332.954 -19.2727V1.3333L313.636 11.6363L332.954 21.9393V42.5454L352.272 32.2424L371.59 42.5454V21.9393L390.909 11.6363L371.59 1.3333V-19.2727L352.272 -8.96972L332.954 -19.2727Z" stroke="#F1F1F1" stroke-width="2"/>
<path d="M318.466 235.727L332.954 258.909L318.466 282.091M313.636 243.454H342.613L357.102 220.272M313.636 274.363H342.613L357.102 297.545M347.443 297.545L361.931 274.363H390.909M386.079 282.091L371.59 258.909L386.079 235.727M390.909 243.454H361.931L347.443 220.272M332.954 228V248.606L313.636 258.909L332.954 269.212V289.818L352.272 279.515L371.59 289.818V269.212L390.909 258.909L371.59 248.606V228L352.272 238.303L332.954 228Z" stroke="#F1F1F1" stroke-width="2"/>
<path d="M318.466 112.092L332.954 135.274L318.466 158.456M313.636 119.819H342.613L357.102 96.6377M313.636 150.729H342.613L357.102 173.91M347.443 173.91L361.931 150.729H390.909M386.079 158.456L371.59 135.274L386.079 112.092M390.909 119.819H361.931L347.443 96.6377M332.954 104.365V124.971L313.636 135.274L332.954 145.577V166.183L352.272 155.88L371.59 166.183V145.577L390.909 135.274L371.59 124.971V104.365L352.272 114.668L332.954 104.365Z" stroke="#F1F1F1" stroke-width="2"/>
<path d="M318.466 359.364L332.954 382.545L318.466 405.727M313.636 367.091H342.613L357.102 343.909M313.636 398H342.613L357.102 421.182M347.443 421.182L361.931 398H390.909M386.079 405.727L371.59 382.545L386.079 359.364M390.909 367.091H361.931L347.443 343.909M332.954 351.636V372.242L313.636 382.545L332.954 392.849V413.455L352.272 403.152L371.59 413.455V392.849L390.909 382.545L371.59 372.242V351.636L352.272 361.939L332.954 351.636Z" stroke="#F1F1F1" stroke-width="2"/>
<path d="M241.193 -11.5455L255.682 11.6363L241.193 34.8181M236.364 -3.81821H265.341L279.829 -27M236.364 27.0908H265.341L279.829 50.2726M270.17 50.2726L284.659 27.0908H313.636M308.807 34.8181L294.318 11.6363L308.807 -11.5455M313.636 -3.81821H284.659L270.17 -27M255.682 -19.2727V1.3333L236.364 11.6363L255.682 21.9393V42.5454L275 32.2424L294.318 42.5454V21.9393L313.636 11.6363L294.318 1.3333V-19.2727L275 -8.96972L255.682 -19.2727Z" stroke="#F1F1F1" stroke-width="2"/>
<path d="M241.193 235.727L255.682 258.909L241.193 282.091M236.364 243.454H265.341L279.829 220.272M236.364 274.363H265.341L279.829 297.545M270.17 297.545L284.659 274.363H313.636M308.807 282.091L294.318 258.909L308.807 235.727M313.636 243.454H284.659L270.17 220.272M255.682 228V248.606L236.364 258.909L255.682 269.212V289.818L275 279.515L294.318 289.818V269.212L313.636 258.909L294.318 248.606V228L275 238.303L255.682 228Z" stroke="#F1F1F1" stroke-width="2"/>
<path d="M241.193 112.092L255.682 135.274L241.193 158.456M236.364 119.819H265.341L279.829 96.6377M236.364 150.729H265.341L279.829 173.91M270.17 173.91L284.659 150.729H313.636M308.807 158.456L294.318 135.274L308.807 112.092M313.636 119.819H284.659L270.17 96.6377M255.682 104.365V124.971L236.364 135.274L255.682 145.577V166.183L275 155.88L294.318 166.183V145.577L313.636 135.274L294.318 124.971V104.365L275 114.668L255.682 104.365Z" stroke="#F1F1F1" stroke-width="2"/>
<path d="M241.193 359.364L255.682 382.545L241.193 405.727M236.364 367.091H265.341L279.829 343.909M236.364 398H265.341L279.829 421.182M270.17 421.182L284.659 398H313.636M308.807 405.727L294.318 382.545L308.807 359.364M313.636 367.091H284.659L270.17 343.909M255.682 351.636V372.242L236.364 382.545L255.682 392.849V413.455L275 403.152L294.318 413.455V392.849L313.636 382.545L294.318 372.242V351.636L275 361.939L255.682 351.636Z" stroke="#F1F1F1" stroke-width="2"/>
<path d="M163.92 -11.5455L178.409 11.6363L163.92 34.8181M159.091 -3.81821H188.068L202.557 -27M159.091 27.0908H188.068L202.557 50.2726M192.898 50.2726L207.386 27.0908H236.363M231.534 34.8181L217.045 11.6363L231.534 -11.5455M236.363 -3.81821H207.386L192.898 -27M178.409 -19.2727V1.3333L159.091 11.6363L178.409 21.9393V42.5454L197.727 32.2424L217.045 42.5454V21.9393L236.363 11.6363L217.045 1.3333V-19.2727L197.727 -8.96972L178.409 -19.2727Z" stroke="#F1F1F1" stroke-width="2"/>
<path d="M163.92 235.727L178.409 258.909L163.92 282.091M159.091 243.454H188.068L202.557 220.272M159.091 274.363H188.068L202.557 297.545M192.898 297.545L207.386 274.363H236.363M231.534 282.091L217.045 258.909L231.534 235.727M236.363 243.454H207.386L192.898 220.272M178.409 228V248.606L159.091 258.909L178.409 269.212V289.818L197.727 279.515L217.045 289.818V269.212L236.363 258.909L217.045 248.606V228L197.727 238.303L178.409 228Z" stroke="#F1F1F1" stroke-width="2"/>
<path d="M163.92 112.092L178.409 135.274L163.92 158.456M159.091 119.819H188.068L202.557 96.6377M159.091 150.729H188.068L202.557 173.91M192.898 173.91L207.386 150.729H236.363M231.534 158.456L217.045 135.274L231.534 112.092M236.363 119.819H207.386L192.898 96.6377M178.409 104.365V124.971L159.091 135.274L178.409 145.577V166.183L197.727 155.88L217.045 166.183V145.577L236.363 135.274L217.045 124.971V104.365L197.727 114.668L178.409 104.365Z" stroke="#F1F1F1" stroke-width="2"/>
<path d="M163.92 359.364L178.409 382.545L163.92 405.727M159.091 367.091H188.068L202.557 343.909M159.091 398H188.068L202.557 421.182M192.898 421.182L207.386 398H236.363M231.534 405.727L217.045 382.545L231.534 359.364M236.363 367.091H207.386L192.898 343.909M178.409 351.636V372.242L159.091 382.545L178.409 392.849V413.455L197.727 403.152L217.045 413.455V392.849L236.363 382.545L217.045 372.242V351.636L197.727 361.939L178.409 351.636Z" stroke="#F1F1F1" stroke-width="2"/>
<path d="M86.6469 -11.5455L101.136 11.6363L86.6469 34.8181M81.8174 -3.81821H110.795L125.283 -27M81.8174 27.0908H110.795L125.283 50.2726M115.624 50.2726L130.113 27.0908H159.09M154.261 34.8181L139.772 11.6363L154.261 -11.5455M159.09 -3.81821H130.113L115.624 -27M101.136 -19.2727V1.3333L81.8174 11.6363L101.136 21.9393V42.5454L120.454 32.2424L139.772 42.5454V21.9393L159.09 11.6363L139.772 1.3333V-19.2727L120.454 -8.96972L101.136 -19.2727Z" stroke="#F1F1F1" stroke-width="2"/>
<path d="M86.6469 235.727L101.136 258.909L86.6469 282.091M81.8174 243.454H110.795L125.283 220.272M81.8174 274.363H110.795L125.283 297.545M115.624 297.545L130.113 274.363H159.09M154.261 282.091L139.772 258.909L154.261 235.727M159.09 243.454H130.113L115.624 220.272M101.136 228V248.606L81.8174 258.909L101.136 269.212V289.818L120.454 279.515L139.772 289.818V269.212L159.09 258.909L139.772 248.606V228L120.454 238.303L101.136 228Z" stroke="#F1F1F1" stroke-width="2"/>
<path d="M86.6469 112.092L101.136 135.274L86.6469 158.456M81.8174 119.819H110.795L125.283 96.6377M81.8174 150.729H110.795L125.283 173.91M115.624 173.91L130.113 150.729H159.09M154.261 158.456L139.772 135.274L154.261 112.092M159.09 119.819H130.113L115.624 96.6377M101.136 104.365V124.971L81.8174 135.274L101.136 145.577V166.183L120.454 155.88L139.772 166.183V145.577L159.09 135.274L139.772 124.971V104.365L120.454 114.668L101.136 104.365Z" stroke="#F1F1F1" stroke-width="2"/>
<path d="M86.6469 359.364L101.136 382.545L86.6469 405.727M81.8174 367.091H110.795L125.283 343.909M81.8174 398H110.795L125.283 421.182M115.624 421.182L130.113 398H159.09M154.261 405.727L139.772 382.545L154.261 359.364M159.09 367.091H130.113L115.624 343.909M101.136 351.636V372.242L81.8174 382.545L101.136 392.849V413.455L120.454 403.152L139.772 413.455V392.849L159.09 382.545L139.772 372.242V351.636L120.454 361.939L101.136 351.636Z" stroke="#F1F1F1" stroke-width="2"/>
<path d="M125.284 50.2739L139.773 73.4557L125.284 96.6374M120.454 58.0011H149.432L163.92 34.8193M120.454 88.9102H149.432L163.92 112.092M154.261 112.092L168.75 88.9102H197.727M192.897 96.6374L178.409 73.4557L192.897 50.2739M197.727 58.0011H168.75L154.261 34.8193M139.773 42.5466V63.1526L120.454 73.4557L139.773 83.7587V104.365L159.091 94.0617L178.409 104.365V83.7587L197.727 73.4557L178.409 63.1526V42.5466L159.091 52.8496L139.773 42.5466Z" stroke="#F1F1F1" stroke-width="2"/>
<path d="M125.284 297.547L139.773 320.729L125.284 343.911M120.454 305.275H149.432L163.92 282.093M120.454 336.184H149.432L163.92 359.365M154.261 359.365L168.75 336.184H197.727M192.897 343.911L178.409 320.729L192.897 297.547M197.727 305.275H168.75L154.261 282.093M139.773 289.82V310.426L120.454 320.729L139.773 331.032V351.638L159.091 341.335L178.409 351.638V331.032L197.727 320.729L178.409 310.426V289.82L159.091 300.123L139.773 289.82Z" stroke="#F1F1F1" stroke-width="2"/>
<path d="M125.284 173.91L139.772 197.091L125.284 220.273M120.454 181.637H149.431L163.92 158.455M120.454 212.546H149.431L163.92 235.728M154.261 235.728L168.75 212.546H197.727M192.897 220.273L178.409 197.091L192.897 173.91M197.727 181.637H168.75L154.261 158.455M139.772 166.182V186.788L120.454 197.091L139.772 207.394V228L159.09 217.697L178.409 228V207.394L197.727 197.091L178.409 186.788V166.182L159.09 176.485L139.772 166.182Z" stroke="#F1F1F1" stroke-width="2"/>
<path d="M202.557 50.2739L217.045 73.4557L202.557 96.6374M197.727 58.0011H226.704L241.193 34.8193M197.727 88.9102H226.704L241.193 112.092M231.534 112.092L246.022 88.9102H275M270.17 96.6374L255.682 73.4557L270.17 50.2739M275 58.0011H246.022L231.534 34.8193M217.045 42.5466V63.1526L197.727 73.4557L217.045 83.7587V104.365L236.363 94.0617L255.682 104.365V83.7587L275 73.4557L255.682 63.1526V42.5466L236.363 52.8496L217.045 42.5466Z" stroke="#F1F1F1" stroke-width="2"/>
<path d="M202.557 297.547L217.045 320.729L202.557 343.911M197.727 305.275H226.704L241.193 282.093M197.727 336.184H226.704L241.193 359.365M231.534 359.365L246.022 336.184H275M270.17 343.911L255.682 320.729L270.17 297.547M275 305.275H246.022L231.534 282.093M217.045 289.82V310.426L197.727 320.729L217.045 331.032V351.638L236.363 341.335L255.682 351.638V331.032L275 320.729L255.682 310.426V289.82L236.363 300.123L217.045 289.82Z" stroke="#F1F1F1" stroke-width="2"/>
<path d="M202.557 173.91L217.045 197.091L202.557 220.273M197.727 181.637H226.704L241.193 158.455M197.727 212.546H226.704L241.193 235.728M231.534 235.728L246.022 212.546H275M270.17 220.273L255.682 197.091L270.17 173.91M275 181.637H246.022L231.534 158.455M217.045 166.182V186.788L197.727 197.091L217.045 207.394V228L236.363 217.697L255.682 228V207.394L275 197.091L255.682 186.788V166.182L236.363 176.485L217.045 166.182Z" stroke="#F1F1F1" stroke-width="2"/>
<path d="M279.829 50.2739L294.317 73.4557L279.829 96.6374M274.999 58.0011H303.976L318.465 34.8193M274.999 88.9102H303.976L318.465 112.092M308.806 112.092L323.294 88.9102H352.272M347.442 96.6374L332.954 73.4557L347.442 50.2739M352.272 58.0011H323.294L308.806 34.8193M294.317 42.5466V63.1526L274.999 73.4557L294.317 83.7587V104.365L313.635 94.0617L332.954 104.365V83.7587L352.272 73.4557L332.954 63.1526V42.5466L313.635 52.8496L294.317 42.5466Z" stroke="#F1F1F1" stroke-width="2"/>
<path d="M279.829 297.547L294.317 320.729L279.829 343.911M274.999 305.275H303.976L318.465 282.093M274.999 336.184H303.976L318.465 359.365M308.806 359.365L323.294 336.184H352.272M347.442 343.911L332.954 320.729L347.442 297.547M352.272 305.275H323.294L308.806 282.093M294.317 289.82V310.426L274.999 320.729L294.317 331.032V351.638L313.635 341.335L332.954 351.638V331.032L352.272 320.729L332.954 310.426V289.82L313.635 300.123L294.317 289.82Z" stroke="#F1F1F1" stroke-width="2"/>
<path d="M279.828 173.91L294.317 197.091L279.828 220.273M274.999 181.637H303.976L318.465 158.455M274.999 212.546H303.976L318.465 235.728M308.806 235.728L323.294 212.546H352.271M347.442 220.273L332.953 197.091L347.442 173.91M352.271 181.637H323.294L308.806 158.455M294.317 166.182V186.788L274.999 197.091L294.317 207.394V228L313.635 217.697L332.953 228V207.394L352.271 197.091L332.953 186.788V166.182L313.635 176.485L294.317 166.182Z" stroke="#F1F1F1" stroke-width="2"/>
<path d="M357.1 50.2739L371.589 73.4557L357.1 96.6374M352.271 58.0011H381.248L395.737 34.8193M352.271 88.9102H381.248L395.737 112.092M386.078 112.092L400.566 88.9102H429.543M424.714 96.6374L410.225 73.4557L424.714 50.2739M429.543 58.0011H400.566L386.078 34.8193M371.589 42.5466V63.1526L352.271 73.4557L371.589 83.7587V104.365L390.907 94.0617L410.225 104.365V83.7587L429.543 73.4557L410.225 63.1526V42.5466L390.907 52.8496L371.589 42.5466Z" stroke="#F1F1F1" stroke-width="2"/>
<path d="M357.1 297.547L371.589 320.729L357.1 343.911M352.271 305.275H381.248L395.737 282.093M352.271 336.184H381.248L395.737 359.365M386.078 359.365L400.566 336.184H429.543M424.714 343.911L410.225 320.729L424.714 297.547M429.543 305.275H400.566L386.078 282.093M371.589 289.82V310.426L352.271 320.729L371.589 331.032V351.638L390.907 341.335L410.225 351.638V331.032L429.543 320.729L410.225 310.426V289.82L390.907 300.123L371.589 289.82Z" stroke="#F1F1F1" stroke-width="2"/>
<path d="M357.1 173.91L371.589 197.091L357.1 220.273M352.271 181.637H381.248L395.737 158.455M352.271 212.546H381.248L395.737 235.728M386.078 235.728L400.566 212.546H429.543M424.714 220.273L410.225 197.091L424.714 173.91M429.543 181.637H400.566L386.078 158.455M371.589 166.182V186.788L352.271 197.091L371.589 207.394V228L390.907 217.697L410.225 228V207.394L429.543 197.091L410.225 186.788V166.182L390.907 176.485L371.589 166.182Z" stroke="#F1F1F1" stroke-width="2"/>
<path d="M9.37593 112.092L23.8646 135.274L9.37593 158.456M4.54639 119.819H33.5236L48.0123 96.6377M4.54639 150.729H33.5236L48.0123 173.91M38.3532 173.91L52.8418 150.729H81.8191M76.9895 158.456L62.5009 135.274L76.9895 112.092M81.8191 119.819H52.8418L38.3532 96.6377M23.8646 104.365V124.971L4.54639 135.274L23.8646 145.577V166.183L43.1827 155.88L62.5009 166.183V145.577L81.8191 135.274L62.5009 124.971V104.365L43.1827 114.668L23.8646 104.365Z" stroke="#F1F1F1" stroke-width="2"/>
<path d="M9.37593 359.364L23.8646 382.545L9.37593 405.727M4.54639 367.091H33.5236L48.0123 343.909M4.54639 398H33.5236L48.0123 421.182M38.3532 421.182L52.8418 398H81.8191M76.9895 405.727L62.5009 382.545L76.9895 359.364M81.8191 367.091H52.8418L38.3532 343.909M23.8646 351.636V372.242L4.54639 382.545L23.8646 392.849V413.455L43.1827 403.152L62.5009 413.455V392.849L81.8191 382.545L62.5009 372.242V351.636L43.1827 361.939L23.8646 351.636Z" stroke="#F1F1F1" stroke-width="2"/>
<path d="M9.37593 -11.5455L23.8646 11.6363L9.37593 34.8181M4.54639 -3.81821H33.5236L48.0123 -27M4.54639 27.0908H33.5236L48.0123 50.2726M38.3532 50.2726L52.8418 27.0908H81.8191M76.9895 34.8181L62.5009 11.6363L76.9895 -11.5455M81.8191 -3.81821H52.8418L38.3532 -27M23.8646 -19.2727V1.3333L4.54639 11.6363L23.8646 21.9393V42.5454L43.1827 32.2424L62.5009 42.5454V21.9393L81.8191 11.6363L62.5009 1.3333V-19.2727L43.1827 -8.96972L23.8646 -19.2727Z" stroke="#F1F1F1" stroke-width="2"/>
<path d="M9.37593 235.727L23.8646 258.909L9.37593 282.091M4.54639 243.454H33.5236L48.0123 220.272M4.54639 274.363H33.5236L48.0123 297.545M38.3532 297.545L52.8418 274.363H81.8191M76.9895 282.091L62.5009 258.909L76.9895 235.727M81.8191 243.454H52.8418L38.3532 220.272M23.8646 228V248.606L4.54639 258.909L23.8646 269.212V289.818L43.1827 279.515L62.5009 289.818V269.212L81.8191 258.909L62.5009 248.606V228L43.1827 238.303L23.8646 228Z" stroke="#F1F1F1" stroke-width="2"/>
<path d="M-29.262 50.2739L-14.7734 73.4557L-29.262 96.6374M-34.0916 58.0011H-5.1143L9.37432 34.8193M-34.0916 88.9102H-5.1143L9.37432 112.092M-0.28476 112.092L14.2039 88.9102H43.1811M38.3516 96.6374L23.8629 73.4557L38.3516 50.2739M43.1811 58.0011H14.2039L-0.28476 34.8193M-14.7734 42.5466V63.1526L-34.0916 73.4557L-14.7734 83.7587V104.365L4.54478 94.0617L23.8629 104.365V83.7587L43.1811 73.4557L23.8629 63.1526V42.5466L4.54478 52.8496L-14.7734 42.5466Z" stroke="#F1F1F1" stroke-width="2"/>
<path d="M-29.262 297.547L-14.7734 320.729L-29.262 343.911M-34.0916 305.275H-5.1143L9.37432 282.093M-34.0916 336.184H-5.1143L9.37432 359.365M-0.28476 359.365L14.2039 336.184H43.1811M38.3516 343.911L23.8629 320.729L38.3516 297.547M43.1811 305.275H14.2039L-0.28476 282.093M-14.7734 289.82V310.426L-34.0916 320.729L-14.7734 331.032V351.638L4.54478 341.335L23.8629 351.638V331.032L43.1811 320.729L23.8629 310.426V289.82L4.54478 300.123L-14.7734 289.82Z" stroke="#F1F1F1" stroke-width="2"/>
<path d="M-67.8985 112.092L-53.4099 135.274L-67.8985 158.456M-72.728 119.819H-43.7508L-29.2622 96.6377M-72.728 150.729H-43.7508L-29.2622 173.91M-38.9212 173.91L-24.4326 150.729H4.54464M-0.2849 158.456L-14.7735 135.274L-0.2849 112.092M4.54464 119.819H-24.4326L-38.9212 96.6377M-53.4099 104.365V124.971L-72.728 135.274L-53.4099 145.577V166.183L-34.0917 155.88L-14.7735 166.183V145.577L4.54464 135.274L-14.7735 124.971V104.365L-34.0917 114.668L-53.4099 104.365Z" stroke="#F1F1F1" stroke-width="2"/>
<path d="M-67.8985 359.364L-53.4099 382.545L-67.8985 405.727M-72.728 367.091H-43.7508L-29.2622 343.909M-72.728 398H-43.7508L-29.2622 421.182M-38.9212 421.182L-24.4326 398H4.54464M-0.2849 405.727L-14.7735 382.545L-0.2849 359.364M4.54464 367.091H-24.4326L-38.9212 343.909M-53.4099 351.636V372.242L-72.728 382.545L-53.4099 392.849V413.455L-34.0917 403.152L-14.7735 413.455V392.849L4.54464 382.545L-14.7735 372.242V351.636L-34.0917 361.939L-53.4099 351.636Z" stroke="#F1F1F1" stroke-width="2"/>
<path d="M-67.8985 -11.5455L-53.4099 11.6363L-67.8985 34.8181M-72.728 -3.81821H-43.7508L-29.2622 -27M-72.728 27.0908H-43.7508L-29.2622 50.2726M-38.9212 50.2726L-24.4326 27.0908H4.54464M-0.2849 34.8181L-14.7735 11.6363L-0.2849 -11.5455M4.54464 -3.81821H-24.4326L-38.9212 -27M-53.4099 -19.2727V1.3333L-72.728 11.6363L-53.4099 21.9393V42.5454L-34.0917 32.2424L-14.7735 42.5454V21.9393L4.54464 11.6363L-14.7735 1.3333V-19.2727L-34.0917 -8.96972L-53.4099 -19.2727Z" stroke="#F1F1F1" stroke-width="2"/>
<path d="M-67.8985 235.727L-53.4099 258.909L-67.8985 282.091M-72.728 243.454H-43.7508L-29.2622 220.272M-72.728 274.363H-43.7508L-29.2622 297.545M-38.9212 297.545L-24.4326 274.363H4.54464M-0.2849 282.091L-14.7735 258.909L-0.2849 235.727M4.54464 243.454H-24.4326L-38.9212 220.272M-53.4099 228V248.606L-72.728 258.909L-53.4099 269.212V289.818L-34.0917 279.515L-14.7735 289.818V269.212L4.54464 258.909L-14.7735 248.606V228L-34.0917 238.303L-53.4099 228Z" stroke="#F1F1F1" stroke-width="2"/>
<path d="M48.0107 173.91L62.4993 197.091L48.0107 220.273M43.1812 181.637H72.1584L86.647 158.455M43.1812 212.546H72.1584L86.647 235.728M76.9879 235.728L91.4766 212.546H120.454M115.624 220.273L101.136 197.091L115.624 173.91M120.454 181.637H91.4766L76.9879 158.455M62.4993 166.182V186.788L43.1812 197.091L62.4993 207.394V228L81.8175 217.697L101.136 228V207.394L120.454 197.091L101.136 186.788V166.182L81.8175 176.485L62.4993 166.182Z" stroke="#F1F1F1" stroke-width="2"/>
<path d="M-29.262 173.91L-14.7734 197.091L-29.262 220.273M-34.0916 181.637H-5.1143L9.37432 158.455M-34.0916 212.546H-5.1143L9.37432 235.728M-0.28476 235.728L14.2039 212.546H43.1811M38.3516 220.273L23.8629 197.091L38.3516 173.91M43.1811 181.637H14.2039L-0.28476 158.455M-14.7734 166.182V186.788L-34.0916 197.091L-14.7734 207.394V228L4.54478 217.697L23.8629 228V207.394L43.1811 197.091L23.8629 186.788V166.182L4.54478 176.485L-14.7734 166.182Z" stroke="#F1F1F1" stroke-width="2"/>
<path d="M48.0107 50.2739L62.4993 73.4557L48.0107 96.6374M43.1812 58.0011H72.1584L86.647 34.8193M43.1812 88.9102H72.1584L86.647 112.092M76.9879 112.092L91.4766 88.9102H120.454M115.624 96.6374L101.136 73.4557L115.624 50.2739M120.454 58.0011H91.4766L76.9879 34.8193M62.4993 42.5466V63.1526L43.1812 73.4557L62.4993 83.7587V104.365L81.8175 94.0617L101.136 104.365V83.7587L120.454 73.4557L101.136 63.1526V42.5466L81.8175 52.8496L62.4993 42.5466Z" stroke="#F1F1F1" stroke-width="2"/>
<path d="M48.0107 297.547L62.4993 320.729L48.0107 343.911M43.1812 305.275H72.1584L86.647 282.093M43.1812 336.184H72.1584L86.647 359.365M76.9879 359.365L91.4766 336.184H120.454M115.624 343.911L101.136 320.729L115.624 297.547M120.454 305.275H91.4766L76.9879 282.093M62.4993 289.82V310.426L43.1812 320.729L62.4993 331.032V351.638L81.8175 341.335L101.136 351.638V331.032L120.454 320.729L101.136 310.426V289.82L81.8175 300.123L62.4993 289.82Z" stroke="#F1F1F1" stroke-width="2"/>
</g>
<path d="M268.531 176.977L246.324 261H225.348L211.402 207.094C210.66 204.281 210.211 201.137 210.055 197.66H209.82C209.469 201.488 208.961 204.633 208.297 207.094L194 261H172.145L150.055 176.977H170.738L182.574 232.934C183.082 235.316 183.453 238.52 183.688 242.543H184.039C184.195 239.535 184.762 236.254 185.738 232.699L200.973 176.977H221.246L235.016 233.402C235.523 235.473 235.973 238.48 236.363 242.426H236.598C236.754 239.34 237.164 236.215 237.828 233.051L249.43 176.977H268.531ZM298.121 261H279.195V176.977H298.121V261ZM387.125 261H363.219L338.727 224.496C338.258 223.793 337.516 222.25 336.5 219.867H336.207V261H317.281V176.977H336.207V216.703H336.5C336.969 215.609 337.75 214.047 338.844 212.016L362.047 176.977H384.605L355.309 217.055L387.125 261ZM414.137 261H395.211V176.977H414.137V261ZM429.43 257.777V239.027C432.828 241.879 436.52 244.027 440.504 245.473C444.488 246.879 448.512 247.582 452.574 247.582C454.957 247.582 457.027 247.367 458.785 246.938C460.582 246.508 462.066 245.922 463.238 245.18C464.449 244.398 465.348 243.5 465.934 242.484C466.52 241.43 466.812 240.297 466.812 239.086C466.812 237.445 466.344 235.98 465.406 234.691C464.469 233.402 463.18 232.211 461.539 231.117C459.938 230.023 458.023 228.969 455.797 227.953C453.57 226.938 451.168 225.902 448.59 224.848C442.027 222.113 437.125 218.773 433.883 214.828C430.68 210.883 429.078 206.117 429.078 200.531C429.078 196.156 429.957 192.406 431.715 189.281C433.473 186.117 435.855 183.52 438.863 181.488C441.91 179.457 445.426 177.973 449.41 177.035C453.395 176.059 457.613 175.57 462.066 175.57C466.441 175.57 470.309 175.844 473.668 176.391C477.066 176.898 480.191 177.699 483.043 178.793V196.312C481.637 195.336 480.094 194.477 478.414 193.734C476.773 192.992 475.074 192.387 473.316 191.918C471.559 191.41 469.801 191.039 468.043 190.805C466.324 190.57 464.684 190.453 463.121 190.453C460.973 190.453 459.02 190.668 457.262 191.098C455.504 191.488 454.02 192.055 452.809 192.797C451.598 193.539 450.66 194.438 449.996 195.492C449.332 196.508 449 197.66 449 198.949C449 200.355 449.371 201.625 450.113 202.758C450.855 203.852 451.91 204.906 453.277 205.922C454.645 206.898 456.305 207.875 458.258 208.852C460.211 209.789 462.418 210.766 464.879 211.781C468.238 213.188 471.246 214.691 473.902 216.293C476.598 217.855 478.902 219.633 480.816 221.625C482.73 223.617 484.195 225.902 485.211 228.48C486.227 231.02 486.734 233.988 486.734 237.387C486.734 242.074 485.836 246.02 484.039 249.223C482.281 252.387 479.879 254.965 476.832 256.957C473.785 258.91 470.23 260.316 466.168 261.176C462.145 262.035 457.887 262.465 453.395 262.465C448.785 262.465 444.391 262.074 440.211 261.293C436.07 260.512 432.477 259.34 429.43 257.777ZM550.602 261H500.562V176.977H519.488V245.648H550.602V261ZM638.551 261H617.926L611.949 242.309H582.066L576.148 261H555.641L586.227 176.977H608.668L638.551 261ZM607.613 227.777L598.59 199.535C597.926 197.426 597.457 194.906 597.184 191.977H596.715C596.52 194.438 596.031 196.879 595.25 199.301L586.109 227.777H607.613ZM744.781 261H726.09V210.727C726.09 205.297 726.324 199.301 726.793 192.738H726.324C725.348 197.895 724.469 201.605 723.688 203.871L704 261H688.531L668.492 204.457C667.945 202.934 667.066 199.027 665.855 192.738H665.328C665.836 201.02 666.09 208.285 666.09 214.535V261H649.039V176.977H676.754L693.922 226.781C695.289 230.766 696.285 234.77 696.91 238.793H697.262C698.316 234.145 699.43 230.102 700.602 226.664L717.77 176.977H744.781V261ZM782.809 261H763.883V176.977H782.809V261ZM875.855 261H855.23L849.254 242.309H819.371L813.453 261H792.945L823.531 176.977H845.973L875.855 261ZM844.918 227.777L835.895 199.535C835.23 197.426 834.762 194.906 834.488 191.977H834.02C833.824 194.438 833.336 196.879 832.555 199.301L823.414 227.777H844.918Z" fill="#F1F1F1"/>
<path d="M766.941 133.067L766.418 133.409C764.129 134.909 762.158 136.844 760.618 139.105C759.077 141.366 757.997 143.908 757.439 146.586C756.312 151.995 757.379 157.631 760.407 162.253C763.435 166.874 768.175 170.104 773.584 171.231C776.262 171.79 779.024 171.815 781.712 171.305C784.4 170.796 786.962 169.762 789.25 168.263C794.478 164.838 796.299 161.155 797.724 156.486C789.851 165.379 776.571 164.116 770.863 155.403C765.155 146.689 769.302 134.01 780.599 130.345C778.256 129.86 775.84 129.85 773.493 130.318C771.147 130.785 768.918 131.72 766.941 133.067ZM779.577 135.249L780.959 143.061L774.854 147.808L782.762 148.854L785.189 155.98L788.482 148.842L796.342 148.674L790.604 143.716L792.978 135.935L786.187 139.636L779.577 135.249Z" fill="#F1F1F1"/>
<path d="M401.188 289.928V316.93L404.592 317.206C404.715 318.402 404.362 319 403.534 319H394.932V318.632C394.932 317.957 395.131 317.528 395.53 317.344C395.714 317.252 395.944 317.191 396.22 317.16L398.52 317.022V290.02L395.162 289.744C395.039 288.548 395.392 287.95 396.22 287.95H404.822V288.272C404.822 288.947 404.623 289.391 404.224 289.606C404.04 289.698 403.81 289.759 403.534 289.79L401.234 289.928H401.188ZM427.952 319.69C426.143 319.69 425.161 318.479 425.008 316.056C422.708 318.479 420.255 319.69 417.648 319.69C415.072 319.69 412.941 318.739 411.254 316.838C409.567 314.906 408.678 312.085 408.586 308.374C408.494 304.663 409.414 301.673 411.346 299.404C413.309 297.135 416.007 296 419.442 296C421.221 296 423.076 296.429 425.008 297.288V289.928L422.432 289.652C421.819 289.591 421.512 289.008 421.512 287.904L427.538 287.076V317.344L430.436 317.712C430.375 319.031 429.547 319.69 427.952 319.69ZM418.614 298.162C416.191 298.162 414.367 299.082 413.14 300.922C411.944 302.762 411.346 305.047 411.346 307.776C411.346 310.505 411.929 312.775 413.094 314.584C414.259 316.393 416.038 317.298 418.43 317.298C419.657 317.298 420.715 317.068 421.604 316.608C422.524 316.117 423.659 315.32 425.008 314.216V300.554C424.425 300.002 423.567 299.465 422.432 298.944C421.297 298.423 420.025 298.162 418.614 298.162ZM450.729 306.672H436.147C436.086 307.408 436.055 307.96 436.055 308.328C436.055 310.965 436.638 313.143 437.803 314.86C438.969 316.577 440.747 317.436 443.139 317.436C445.531 317.436 447.739 316.623 449.763 314.998C450.07 315.213 450.223 315.519 450.223 315.918C450.223 316.715 449.395 317.543 447.739 318.402C446.083 319.261 444.274 319.69 442.311 319.69C439.613 319.69 437.42 318.77 435.733 316.93C434.047 315.059 433.203 312.223 433.203 308.42C433.203 304.617 434.215 301.597 436.239 299.358C438.263 297.119 440.686 296 443.507 296C444.826 296 445.976 296.261 446.957 296.782C447.939 297.303 448.69 297.993 449.211 298.852C450.223 300.569 450.729 302.471 450.729 304.556V306.672ZM447.877 304.878C447.939 302.885 447.54 301.229 446.681 299.91C445.823 298.591 444.596 297.932 443.001 297.932C441.407 297.932 440.011 298.576 438.815 299.864C437.65 301.121 436.853 302.793 436.423 304.878H447.877ZM477.692 319H469.55V318.678C469.55 318.065 469.749 317.681 470.148 317.528C470.363 317.405 471.313 317.298 473 317.206V305.154C473 300.585 471.221 298.3 467.664 298.3C466.376 298.3 465.18 298.561 464.076 299.082C463.003 299.603 461.791 300.447 460.442 301.612V317.114L463.708 317.39C463.8 318.463 463.447 319 462.65 319H454.462V318.678C454.462 318.065 454.661 317.681 455.06 317.528C455.275 317.405 456.225 317.298 457.912 317.206V298.622L455.336 298.346C454.723 298.285 454.416 297.748 454.416 296.736L459.706 296L460.35 299.68H460.488C463.064 297.227 465.686 296 468.354 296C470.317 296 472.003 296.705 473.414 298.116C474.825 299.496 475.53 301.673 475.53 304.648V317.114L478.75 317.39C478.873 318.463 478.52 319 477.692 319ZM486.87 298.53V312.284C486.87 314.124 487.054 315.443 487.422 316.24C487.82 317.037 488.572 317.436 489.676 317.436C490.81 317.436 491.73 317.329 492.436 317.114C493.172 316.869 494.107 316.301 495.242 315.412C495.763 315.596 496.024 315.949 496.024 316.47C496.024 317.267 495.303 318.019 493.862 318.724C492.42 319.399 491.056 319.736 489.768 319.736C487.774 319.736 486.364 319.153 485.536 317.988C484.738 316.823 484.34 315.105 484.34 312.836V298.53H481.12C480.997 297.303 481.35 296.69 482.178 296.69H484.34V291.354L486.87 290.48V296.69H495.564C495.594 297.181 495.502 297.794 495.288 298.53H486.87ZM507.489 319H499.117V318.678C499.117 318.065 499.316 317.681 499.715 317.528C499.929 317.436 500.849 317.329 502.475 317.206V298.622L499.899 298.392C499.285 298.331 498.979 297.763 498.979 296.69L505.005 296V317.114L508.547 317.39C508.639 318.463 508.286 319 507.489 319ZM504.775 291.492C504.437 291.86 503.962 292.044 503.349 292.044C502.735 292.044 502.245 291.86 501.877 291.492C501.539 291.124 501.371 290.649 501.371 290.066C501.371 289.483 501.539 289.008 501.877 288.64C502.245 288.272 502.735 288.088 503.349 288.088C503.962 288.088 504.437 288.272 504.775 288.64C505.143 289.008 505.327 289.483 505.327 290.066C505.327 290.649 505.143 291.124 504.775 291.492ZM516.698 298.53V312.284C516.698 314.124 516.882 315.443 517.25 316.24C517.649 317.037 518.4 317.436 519.504 317.436C520.639 317.436 521.559 317.329 522.264 317.114C523 316.869 523.935 316.301 525.07 315.412C525.591 315.596 525.852 315.949 525.852 316.47C525.852 317.267 525.131 318.019 523.69 318.724C522.249 319.399 520.884 319.736 519.596 319.736C517.603 319.736 516.192 319.153 515.364 317.988C514.567 316.823 514.168 315.105 514.168 312.836V298.53H510.948C510.825 297.303 511.178 296.69 512.006 296.69H514.168V291.354L516.698 290.48V296.69H525.392C525.423 297.181 525.331 297.794 525.116 298.53H516.698ZM545.919 306.672H531.337C531.275 307.408 531.245 307.96 531.245 308.328C531.245 310.965 531.827 313.143 532.993 314.86C534.158 316.577 535.937 317.436 538.329 317.436C540.721 317.436 542.929 316.623 544.953 314.998C545.259 315.213 545.413 315.519 545.413 315.918C545.413 316.715 544.585 317.543 542.929 318.402C541.273 319.261 539.463 319.69 537.501 319.69C534.802 319.69 532.609 318.77 530.923 316.93C529.236 315.059 528.393 312.223 528.393 308.42C528.393 304.617 529.405 301.597 531.429 299.358C533.453 297.119 535.875 296 538.697 296C540.015 296 541.165 296.261 542.147 296.782C543.128 297.303 543.879 297.993 544.401 298.852C545.413 300.569 545.919 302.471 545.919 304.556V306.672ZM543.067 304.878C543.128 302.885 542.729 301.229 541.871 299.91C541.012 298.591 539.785 297.932 538.191 297.932C536.596 297.932 535.201 298.576 534.005 299.864C532.839 301.121 532.042 302.793 531.613 304.878H543.067ZM544.953 289.79L535.937 294.666C535.477 294.451 535.078 294.053 534.741 293.47L542.285 287.766C542.806 287.797 543.312 288.011 543.803 288.41C544.293 288.809 544.677 289.269 544.953 289.79ZM576.654 317.482C577.727 317.482 578.57 317.053 579.184 316.194C579.613 316.562 579.828 317.037 579.828 317.62C579.828 318.172 579.567 318.663 579.046 319.092C578.524 319.552 577.804 319.782 576.884 319.782C574.86 319.782 572.115 318.494 568.65 315.918C565.859 318.525 562.547 319.828 558.714 319.828C555.616 319.828 553.255 319.092 551.63 317.62C550.004 316.148 549.192 314.231 549.192 311.87C549.192 310.214 549.698 308.573 550.71 306.948C551.752 305.323 553.362 303.927 555.54 302.762C553.27 299.726 552.136 297.104 552.136 294.896C552.136 292.688 552.78 290.986 554.068 289.79C555.356 288.563 557.104 287.95 559.312 287.95C560.845 287.95 562.286 288.502 563.636 289.606C565.016 290.71 565.706 292.259 565.706 294.252C565.706 296.245 565.031 298.055 563.682 299.68C562.363 301.305 560.799 302.471 558.99 303.176C559.296 303.575 559.818 304.173 560.554 304.97C563.283 307.945 565.982 310.582 568.65 312.882C570.183 310.827 571.256 308.405 571.87 305.614L569.248 305.338C569.125 304.265 569.478 303.728 570.306 303.728H576.838C576.807 303.82 576.807 303.943 576.838 304.096C576.868 304.219 576.853 304.357 576.792 304.51C576.761 304.633 576.715 304.755 576.654 304.878C576.5 305.154 576.132 305.323 575.55 305.384L574.032 305.476C573.326 308.88 572.069 311.763 570.26 314.124C573.112 316.363 575.243 317.482 576.654 317.482ZM558.07 301.704C559.848 301.029 561.152 299.987 561.98 298.576C562.838 297.165 563.268 295.724 563.268 294.252C563.268 292.78 562.823 291.707 561.934 291.032C561.075 290.357 560.201 290.02 559.312 290.02C557.656 290.02 556.429 290.449 555.632 291.308C554.834 292.167 554.436 293.255 554.436 294.574C554.436 296.383 555.57 298.775 557.84 301.75L558.024 301.658L558.07 301.704ZM551.952 311.64C551.952 313.235 552.534 314.661 553.7 315.918C554.865 317.175 556.797 317.804 559.496 317.804C562.225 317.804 564.74 316.746 567.04 314.63C564.678 312.667 562.01 310.091 559.036 306.902C558.422 306.258 557.656 305.384 556.736 304.28C555.202 305.108 554.022 306.151 553.194 307.408C552.366 308.635 551.952 310.045 551.952 311.64ZM595.5 287.26C597.953 287.26 600.008 287.812 601.664 288.916C603.32 290.02 604.148 291.385 604.148 293.01C604.148 294.605 603.335 295.417 601.71 295.448C601.71 293.516 601.112 292.029 599.916 290.986C598.751 289.913 597.171 289.376 595.178 289.376C591.958 289.376 589.489 290.679 587.772 293.286C586.085 295.893 585.242 299.312 585.242 303.544C585.242 307.776 586.07 311.119 587.726 313.572C589.382 315.995 591.943 317.206 595.408 317.206C598.904 317.206 601.741 316.271 603.918 314.4C604.286 314.584 604.47 314.891 604.47 315.32C604.47 316.179 603.581 317.129 601.802 318.172C600.023 319.184 597.815 319.69 595.178 319.69C591.13 319.69 588.002 318.356 585.794 315.688C583.617 312.989 582.451 309.217 582.298 304.372C582.175 299.527 583.31 295.463 585.702 292.182C588.094 288.901 591.36 287.26 595.5 287.26ZM631.512 319H623.186V318.678C623.186 318.065 623.385 317.681 623.784 317.528C623.999 317.436 624.903 317.329 626.498 317.206V305.614C626.498 303.253 625.992 301.459 624.98 300.232C623.999 299.005 622.711 298.392 621.116 298.392C619.521 298.392 618.218 298.653 617.206 299.174C616.194 299.695 615.105 300.477 613.94 301.52V317.114L617.482 317.39C617.574 318.463 617.221 319 616.424 319H608.052V318.678C608.052 318.065 608.251 317.681 608.65 317.528C608.865 317.436 609.785 317.329 611.41 317.206V289.928L608.834 289.652C608.221 289.591 607.914 289.008 607.914 287.904L613.94 287.076V299.312C615.964 297.104 618.417 296 621.3 296C623.355 296 625.133 296.736 626.636 298.208C628.169 299.649 628.951 301.98 628.982 305.2L629.028 317.114L632.57 317.39C632.662 318.463 632.309 319 631.512 319ZM653.147 306.672H638.565C638.504 307.408 638.473 307.96 638.473 308.328C638.473 310.965 639.056 313.143 640.221 314.86C641.387 316.577 643.165 317.436 645.557 317.436C647.949 317.436 650.157 316.623 652.181 314.998C652.488 315.213 652.641 315.519 652.641 315.918C652.641 316.715 651.813 317.543 650.157 318.402C648.501 319.261 646.692 319.69 644.729 319.69C642.031 319.69 639.838 318.77 638.151 316.93C636.465 315.059 635.621 312.223 635.621 308.42C635.621 304.617 636.633 301.597 638.657 299.358C640.681 297.119 643.104 296 645.925 296C647.244 296 648.394 296.261 649.375 296.782C650.357 297.303 651.108 297.993 651.629 298.852C652.641 300.569 653.147 302.471 653.147 304.556V306.672ZM650.295 304.878C650.357 302.885 649.958 301.229 649.099 299.91C648.241 298.591 647.014 297.932 645.419 297.932C643.825 297.932 642.429 298.576 641.233 299.864C640.068 301.121 639.271 302.793 638.841 304.878H650.295ZM694.738 319H686.412V318.678C686.412 318.065 686.611 317.681 687.01 317.528C687.225 317.436 688.129 317.329 689.724 317.206V305.66C689.724 303.299 689.218 301.505 688.206 300.278C687.225 299.051 685.829 298.438 684.02 298.438C682.701 298.438 681.536 298.729 680.524 299.312C679.543 299.895 678.439 300.769 677.212 301.934C677.488 302.762 677.626 303.866 677.626 305.246V317.114L681.168 317.39C681.291 318.463 680.938 319 680.11 319H671.784V318.678C671.784 318.065 671.983 317.681 672.382 317.528C672.597 317.436 673.501 317.329 675.096 317.206V305.66C675.096 303.329 674.575 301.551 673.532 300.324C672.489 299.067 671.063 298.438 669.254 298.438C667.997 298.438 666.877 298.699 665.896 299.22C664.945 299.741 663.933 300.523 662.86 301.566V317.114L666.402 317.39C666.494 318.463 666.141 319 665.344 319H656.972V318.678C656.972 318.065 657.171 317.681 657.57 317.528C657.785 317.436 658.705 317.329 660.33 317.206V298.484H658.214C657.294 298.484 656.834 297.901 656.834 296.736L662.124 296L662.722 299.312H662.86C664.884 297.104 667.184 296 669.76 296C671.171 296 672.505 296.353 673.762 297.058C675.019 297.763 675.985 298.867 676.66 300.37C677.304 299.542 677.917 298.852 678.5 298.3C679.083 297.748 679.911 297.227 680.984 296.736C682.088 296.245 683.269 296 684.526 296C686.581 296 688.375 296.736 689.908 298.208C691.472 299.68 692.254 302.026 692.254 305.246V317.114L695.796 317.39C695.919 318.463 695.566 319 694.738 319ZM707.75 319H699.378V318.678C699.378 318.065 699.578 317.681 699.976 317.528C700.191 317.436 701.111 317.329 702.736 317.206V298.622L700.16 298.392C699.547 298.331 699.24 297.763 699.24 296.69L705.266 296V317.114L708.808 317.39C708.9 318.463 708.548 319 707.75 319ZM705.036 291.492C704.699 291.86 704.224 292.044 703.61 292.044C702.997 292.044 702.506 291.86 702.138 291.492C701.801 291.124 701.632 290.649 701.632 290.066C701.632 289.483 701.801 289.008 702.138 288.64C702.506 288.272 702.997 288.088 703.61 288.088C704.224 288.088 704.699 288.272 705.036 288.64C705.404 289.008 705.588 289.483 705.588 290.066C705.588 290.649 705.404 291.124 705.036 291.492ZM735.544 319H727.402V318.678C727.402 318.065 727.601 317.681 728 317.528C728.214 317.405 729.165 317.298 730.852 317.206V305.154C730.852 300.585 729.073 298.3 725.516 298.3C724.228 298.3 723.032 298.561 721.928 299.082C720.854 299.603 719.643 300.447 718.294 301.612V317.114L721.56 317.39C721.652 318.463 721.299 319 720.502 319H712.314V318.678C712.314 318.065 712.513 317.681 712.912 317.528C713.126 317.405 714.077 317.298 715.764 317.206V298.622L713.188 298.346C712.574 298.285 712.268 297.748 712.268 296.736L717.558 296L718.202 299.68H718.34C720.916 297.227 723.538 296 726.206 296C728.168 296 729.855 296.705 731.266 298.116C732.676 299.496 733.382 301.673 733.382 304.648V317.114L736.602 317.39C736.724 318.463 736.372 319 735.544 319ZM753.304 287.858H762.642C768.162 287.858 772.133 289.115 774.556 291.63C777.009 294.114 778.236 297.963 778.236 303.176C778.236 308.359 776.917 312.299 774.28 314.998C771.673 317.666 767.794 319 762.642 319H752.016V318.632C752.016 317.957 752.215 317.528 752.614 317.344C752.798 317.252 753.028 317.191 753.304 317.16L755.604 317.022V289.928L752.246 289.652C752.123 288.456 752.476 287.858 753.304 287.858ZM758.272 317.068H761.676C766.061 317.068 769.435 315.949 771.796 313.71C774.188 311.471 775.384 307.96 775.384 303.176C775.384 298.392 774.142 294.911 771.658 292.734C769.205 290.557 765.525 289.56 760.618 289.744L758.272 289.836V317.068ZM799.458 306.672H784.876C784.814 307.408 784.784 307.96 784.784 308.328C784.784 310.965 785.366 313.143 786.532 314.86C787.697 316.577 789.476 317.436 791.868 317.436C794.26 317.436 796.468 316.623 798.492 314.998C798.798 315.213 798.952 315.519 798.952 315.918C798.952 316.715 798.124 317.543 796.468 318.402C794.812 319.261 793.002 319.69 791.04 319.69C788.341 319.69 786.148 318.77 784.462 316.93C782.775 315.059 781.932 312.223 781.932 308.42C781.932 304.617 782.944 301.597 784.968 299.358C786.992 297.119 789.414 296 792.236 296C793.554 296 794.704 296.261 795.686 296.782C796.667 297.303 797.418 297.993 797.94 298.852C798.952 300.569 799.458 302.471 799.458 304.556V306.672ZM796.606 304.878C796.667 302.885 796.268 301.229 795.41 299.91C794.551 298.591 793.324 297.932 791.73 297.932C790.135 297.932 788.74 298.576 787.544 299.864C786.378 301.121 785.581 302.793 785.152 304.878H796.606ZM834.083 287.95H840.799C840.799 287.95 840.799 288.057 840.799 288.272C840.799 289.192 840.37 289.698 839.511 289.79L838.637 289.928L827.873 319H825.941L815.959 290.02L813.475 289.744C813.353 288.548 813.705 287.95 814.533 287.95H822.537V288.272C822.537 288.947 822.338 289.391 821.939 289.606C821.755 289.698 821.525 289.759 821.249 289.79L818.949 289.928H818.903L827.229 315.182L836.245 290.02L833.025 289.744C832.903 288.548 833.255 287.95 834.083 287.95ZM851.815 319H843.443V318.678C843.443 318.065 843.642 317.681 844.041 317.528C844.255 317.436 845.175 317.329 846.801 317.206V298.622L844.225 298.392C843.611 298.331 843.305 297.763 843.305 296.69L849.331 296V317.114L852.873 317.39C852.965 318.463 852.612 319 851.815 319ZM849.101 291.492C848.763 291.86 848.288 292.044 847.675 292.044C847.061 292.044 846.571 291.86 846.203 291.492C845.865 291.124 845.697 290.649 845.697 290.066C845.697 289.483 845.865 289.008 846.203 288.64C846.571 288.272 847.061 288.088 847.675 288.088C848.288 288.088 848.763 288.272 849.101 288.64C849.469 289.008 849.653 289.483 849.653 290.066C849.653 290.649 849.469 291.124 849.101 291.492ZM873.444 306.672H858.862C858.801 307.408 858.77 307.96 858.77 308.328C858.77 310.965 859.353 313.143 860.518 314.86C861.683 316.577 863.462 317.436 865.854 317.436C868.246 317.436 870.454 316.623 872.478 314.998C872.785 315.213 872.938 315.519 872.938 315.918C872.938 316.715 872.11 317.543 870.454 318.402C868.798 319.261 866.989 319.69 865.026 319.69C862.327 319.69 860.135 318.77 858.448 316.93C856.761 315.059 855.918 312.223 855.918 308.42C855.918 304.617 856.93 301.597 858.954 299.358C860.978 297.119 863.401 296 866.222 296C867.541 296 868.691 296.261 869.672 296.782C870.653 297.303 871.405 297.993 871.926 298.852C872.938 300.569 873.444 302.471 873.444 304.556V306.672ZM870.592 304.878C870.653 302.885 870.255 301.229 869.396 299.91C868.537 298.591 867.311 297.932 865.716 297.932C864.121 297.932 862.726 298.576 861.53 299.864C860.365 301.121 859.567 302.793 859.138 304.878H870.592Z" fill="#F1F1F1"/>
</svg>
