<svg width="389" height="394" viewBox="0 0 389 394" fill="none" xmlns="http://www.w3.org/2000/svg">
<path d="M376.598 291.584L380.456 293.9L388.787 280.023L374.489 287.608L376.598 291.584ZM111.402 12L115.26 14.3161L123.59 0.439629L109.293 8.02479L111.402 12ZM374.489 287.608C347.197 302.088 316.063 310.292 283 310.292V319.292C317.569 319.292 350.147 310.711 378.707 295.559L374.489 287.608ZM283 310.292C175.028 310.292 87.5 222.763 87.5 114.792H78.5C78.5 227.734 170.058 319.292 283 319.292V310.292ZM87.5 114.792C87.5 78.0432 97.6351 43.6755 115.26 14.3161L107.544 9.68387C89.1023 40.4033 78.5 76.3663 78.5 114.792H87.5ZM9.5 188.792C9.5 113.882 51.6306 48.8043 113.511 15.9752L109.293 8.02479C44.5873 42.3528 0.5 110.42 0.5 188.792H9.5ZM205 384.292C97.0283 384.292 9.5 296.763 9.5 188.792H0.5C0.5 301.734 92.0578 393.292 205 393.292V384.292ZM372.74 289.267C338.559 346.206 276.225 384.292 205 384.292V393.292C279.515 393.292 344.716 353.436 380.456 293.9L372.74 289.267Z" fill="#F1F1F1"/>
<rect x="5.5" y="12.5" width="370.598" height="375.792" stroke="black"/>
<mask id="mask0_597_782" style="mask-type:alpha" maskUnits="userSpaceOnUse" x="5" y="12" width="372" height="377">
<mask id="path-3-inside-1_597_782" fill="white">
<path fill-rule="evenodd" clip-rule="evenodd" d="M376.598 291.584C348.672 306.399 316.816 314.792 283 314.792C172.543 314.792 83 225.249 83 114.792C83 77.2047 93.3687 42.0394 111.402 12C48.109 45.5785 5 112.151 5 188.792C5 299.249 94.5431 388.792 205 388.792C277.87 388.792 341.638 349.821 376.598 291.584Z"/>
</mask>
<path fill-rule="evenodd" clip-rule="evenodd" d="M376.598 291.584C348.672 306.399 316.816 314.792 283 314.792C172.543 314.792 83 225.249 83 114.792C83 77.2047 93.3687 42.0394 111.402 12C48.109 45.5785 5 112.151 5 188.792C5 299.249 94.5431 388.792 205 388.792C277.87 388.792 341.638 349.821 376.598 291.584Z" fill="#6C4242"/>
<path d="M376.598 291.584L377.456 292.098L379.307 289.015L376.13 290.7L376.598 291.584ZM111.402 12L112.259 12.5147L114.11 9.43103L110.933 11.1166L111.402 12ZM376.13 290.7C348.344 305.441 316.649 313.792 283 313.792V315.792C316.983 315.792 349 307.357 377.067 292.467L376.13 290.7ZM283 313.792C173.095 313.792 84 224.696 84 114.792H82C82 225.801 171.991 315.792 283 315.792V313.792ZM84 114.792C84 77.3911 94.3168 42.403 112.259 12.5147L110.544 11.4853C92.4206 41.6758 82 77.0184 82 114.792H84ZM6 188.792C6 112.535 48.8916 46.2954 111.87 12.8834L110.933 11.1166C47.3264 44.8617 4 111.766 4 188.792H6ZM205 387.792C95.0953 387.792 6 298.696 6 188.792H4C4 299.801 93.9908 389.792 205 389.792V387.792ZM375.741 291.069C340.953 349.018 277.504 387.792 205 387.792V389.792C278.235 389.792 342.322 350.624 377.456 292.098L375.741 291.069Z" fill="black" mask="url(#path-3-inside-1_597_782)"/>
</mask>
<g mask="url(#mask0_597_782)">
<rect x="-150" y="-27" width="579.543" height="510" stroke="#F1F1F1"/>
<path d="M318.466 -11.5455L332.954 11.6363L318.466 34.8181M313.636 -3.81821H342.613L357.102 -27M313.636 27.0908H342.613L357.102 50.2726M347.443 50.2726L361.931 27.0908H390.909M386.079 34.8181L371.59 11.6363L386.079 -11.5455M390.909 -3.81821H361.931L347.443 -27M332.954 -19.2727V1.3333L313.636 11.6363L332.954 21.9393V42.5454L352.272 32.2424L371.59 42.5454V21.9393L390.909 11.6363L371.59 1.3333V-19.2727L352.272 -8.96972L332.954 -19.2727Z" stroke="#F1F1F1" stroke-width="2"/>
<path d="M318.466 235.727L332.954 258.909L318.466 282.091M313.636 243.454H342.613L357.102 220.272M313.636 274.363H342.613L357.102 297.545M347.443 297.545L361.931 274.363H390.909M386.079 282.091L371.59 258.909L386.079 235.727M390.909 243.454H361.931L347.443 220.272M332.954 228V248.606L313.636 258.909L332.954 269.212V289.818L352.272 279.515L371.59 289.818V269.212L390.909 258.909L371.59 248.606V228L352.272 238.303L332.954 228Z" stroke="#F1F1F1" stroke-width="2"/>
<path d="M318.466 112.092L332.954 135.274L318.466 158.456M313.636 119.819H342.613L357.102 96.6377M313.636 150.729H342.613L357.102 173.91M347.443 173.91L361.931 150.729H390.909M386.079 158.456L371.59 135.274L386.079 112.092M390.909 119.819H361.931L347.443 96.6377M332.954 104.365V124.971L313.636 135.274L332.954 145.577V166.183L352.272 155.88L371.59 166.183V145.577L390.909 135.274L371.59 124.971V104.365L352.272 114.668L332.954 104.365Z" stroke="#F1F1F1" stroke-width="2"/>
<path d="M318.466 359.364L332.954 382.545L318.466 405.727M313.636 367.091H342.613L357.102 343.909M313.636 398H342.613L357.102 421.182M347.443 421.182L361.931 398H390.909M386.079 405.727L371.59 382.545L386.079 359.364M390.909 367.091H361.931L347.443 343.909M332.954 351.636V372.242L313.636 382.545L332.954 392.849V413.455L352.272 403.152L371.59 413.455V392.849L390.909 382.545L371.59 372.242V351.636L352.272 361.939L332.954 351.636Z" stroke="#F1F1F1" stroke-width="2"/>
<path d="M241.193 -11.5455L255.682 11.6363L241.193 34.8181M236.364 -3.81821H265.341L279.829 -27M236.364 27.0908H265.341L279.829 50.2726M270.17 50.2726L284.659 27.0908H313.636M308.807 34.8181L294.318 11.6363L308.807 -11.5455M313.636 -3.81821H284.659L270.17 -27M255.682 -19.2727V1.3333L236.364 11.6363L255.682 21.9393V42.5454L275 32.2424L294.318 42.5454V21.9393L313.636 11.6363L294.318 1.3333V-19.2727L275 -8.96972L255.682 -19.2727Z" stroke="#F1F1F1" stroke-width="2"/>
<path d="M241.193 235.727L255.682 258.909L241.193 282.091M236.364 243.454H265.341L279.829 220.272M236.364 274.363H265.341L279.829 297.545M270.17 297.545L284.659 274.363H313.636M308.807 282.091L294.318 258.909L308.807 235.727M313.636 243.454H284.659L270.17 220.272M255.682 228V248.606L236.364 258.909L255.682 269.212V289.818L275 279.515L294.318 289.818V269.212L313.636 258.909L294.318 248.606V228L275 238.303L255.682 228Z" stroke="#F1F1F1" stroke-width="2"/>
<path d="M241.193 112.092L255.682 135.274L241.193 158.456M236.364 119.819H265.341L279.829 96.6377M236.364 150.729H265.341L279.829 173.91M270.17 173.91L284.659 150.729H313.636M308.807 158.456L294.318 135.274L308.807 112.092M313.636 119.819H284.659L270.17 96.6377M255.682 104.365V124.971L236.364 135.274L255.682 145.577V166.183L275 155.88L294.318 166.183V145.577L313.636 135.274L294.318 124.971V104.365L275 114.668L255.682 104.365Z" stroke="#F1F1F1" stroke-width="2"/>
<path d="M241.193 359.364L255.682 382.545L241.193 405.727M236.364 367.091H265.341L279.829 343.909M236.364 398H265.341L279.829 421.182M270.17 421.182L284.659 398H313.636M308.807 405.727L294.318 382.545L308.807 359.364M313.636 367.091H284.659L270.17 343.909M255.682 351.636V372.242L236.364 382.545L255.682 392.849V413.455L275 403.152L294.318 413.455V392.849L313.636 382.545L294.318 372.242V351.636L275 361.939L255.682 351.636Z" stroke="#F1F1F1" stroke-width="2"/>
<path d="M163.92 -11.5455L178.409 11.6363L163.92 34.8181M159.091 -3.81821H188.068L202.557 -27M159.091 27.0908H188.068L202.557 50.2726M192.897 50.2726L207.386 27.0908H236.363M231.534 34.8181L217.045 11.6363L231.534 -11.5455M236.363 -3.81821H207.386L192.897 -27M178.409 -19.2727V1.3333L159.091 11.6363L178.409 21.9393V42.5454L197.727 32.2424L217.045 42.5454V21.9393L236.363 11.6363L217.045 1.3333V-19.2727L197.727 -8.96972L178.409 -19.2727Z" stroke="#F1F1F1" stroke-width="2"/>
<path d="M163.92 235.727L178.409 258.909L163.92 282.091M159.091 243.454H188.068L202.557 220.272M159.091 274.363H188.068L202.557 297.545M192.897 297.545L207.386 274.363H236.363M231.534 282.091L217.045 258.909L231.534 235.727M236.363 243.454H207.386L192.897 220.272M178.409 228V248.606L159.091 258.909L178.409 269.212V289.818L197.727 279.515L217.045 289.818V269.212L236.363 258.909L217.045 248.606V228L197.727 238.303L178.409 228Z" stroke="#F1F1F1" stroke-width="2"/>
<path d="M163.92 112.092L178.409 135.274L163.92 158.456M159.091 119.819H188.068L202.557 96.6377M159.091 150.729H188.068L202.557 173.91M192.897 173.91L207.386 150.729H236.363M231.534 158.456L217.045 135.274L231.534 112.092M236.363 119.819H207.386L192.897 96.6377M178.409 104.365V124.971L159.091 135.274L178.409 145.577V166.183L197.727 155.88L217.045 166.183V145.577L236.363 135.274L217.045 124.971V104.365L197.727 114.668L178.409 104.365Z" stroke="#F1F1F1" stroke-width="2"/>
<path d="M163.92 359.364L178.409 382.545L163.92 405.727M159.091 367.091H188.068L202.557 343.909M159.091 398H188.068L202.557 421.182M192.897 421.182L207.386 398H236.363M231.534 405.727L217.045 382.545L231.534 359.364M236.363 367.091H207.386L192.897 343.909M178.409 351.636V372.242L159.091 382.545L178.409 392.849V413.455L197.727 403.152L217.045 413.455V392.849L236.363 382.545L217.045 372.242V351.636L197.727 361.939L178.409 351.636Z" stroke="#F1F1F1" stroke-width="2"/>
<path d="M86.6469 -11.5455L101.136 11.6363L86.6469 34.8181M81.8174 -3.81821H110.795L125.283 -27M81.8174 27.0908H110.795L125.283 50.2726M115.624 50.2726L130.113 27.0908H159.09M154.261 34.8181L139.772 11.6363L154.261 -11.5455M159.09 -3.81821H130.113L115.624 -27M101.136 -19.2727V1.3333L81.8174 11.6363L101.136 21.9393V42.5454L120.454 32.2424L139.772 42.5454V21.9393L159.09 11.6363L139.772 1.3333V-19.2727L120.454 -8.96972L101.136 -19.2727Z" stroke="#F1F1F1" stroke-width="2"/>
<path d="M86.6469 235.727L101.136 258.909L86.6469 282.091M81.8174 243.454H110.795L125.283 220.272M81.8174 274.363H110.795L125.283 297.545M115.624 297.545L130.113 274.363H159.09M154.261 282.091L139.772 258.909L154.261 235.727M159.09 243.454H130.113L115.624 220.272M101.136 228V248.606L81.8174 258.909L101.136 269.212V289.818L120.454 279.515L139.772 289.818V269.212L159.09 258.909L139.772 248.606V228L120.454 238.303L101.136 228Z" stroke="#F1F1F1" stroke-width="2"/>
<path d="M86.6469 112.092L101.136 135.274L86.6469 158.456M81.8174 119.819H110.795L125.283 96.6377M81.8174 150.729H110.795L125.283 173.91M115.624 173.91L130.113 150.729H159.09M154.261 158.456L139.772 135.274L154.261 112.092M159.09 119.819H130.113L115.624 96.6377M101.136 104.365V124.971L81.8174 135.274L101.136 145.577V166.183L120.454 155.88L139.772 166.183V145.577L159.09 135.274L139.772 124.971V104.365L120.454 114.668L101.136 104.365Z" stroke="#F1F1F1" stroke-width="2"/>
<path d="M86.6469 359.364L101.136 382.545L86.6469 405.727M81.8174 367.091H110.795L125.283 343.909M81.8174 398H110.795L125.283 421.182M115.624 421.182L130.113 398H159.09M154.261 405.727L139.772 382.545L154.261 359.364M159.09 367.091H130.113L115.624 343.909M101.136 351.636V372.242L81.8174 382.545L101.136 392.849V413.455L120.454 403.152L139.772 413.455V392.849L159.09 382.545L139.772 372.242V351.636L120.454 361.939L101.136 351.636Z" stroke="#F1F1F1" stroke-width="2"/>
<path d="M125.284 50.2739L139.773 73.4557L125.284 96.6374M120.454 58.0011H149.432L163.92 34.8193M120.454 88.9102H149.432L163.92 112.092M154.261 112.092L168.75 88.9102H197.727M192.897 96.6374L178.409 73.4557L192.897 50.2739M197.727 58.0011H168.75L154.261 34.8193M139.773 42.5466V63.1526L120.454 73.4557L139.773 83.7587V104.365L159.091 94.0617L178.409 104.365V83.7587L197.727 73.4557L178.409 63.1526V42.5466L159.091 52.8496L139.773 42.5466Z" stroke="#F1F1F1" stroke-width="2"/>
<path d="M125.284 297.547L139.773 320.729L125.284 343.911M120.454 305.275H149.432L163.92 282.093M120.454 336.184H149.432L163.92 359.365M154.261 359.365L168.75 336.184H197.727M192.897 343.911L178.409 320.729L192.897 297.547M197.727 305.275H168.75L154.261 282.093M139.773 289.82V310.426L120.454 320.729L139.773 331.032V351.638L159.091 341.335L178.409 351.638V331.032L197.727 320.729L178.409 310.426V289.82L159.091 300.123L139.773 289.82Z" stroke="#F1F1F1" stroke-width="2"/>
<path d="M125.284 173.91L139.772 197.091L125.284 220.273M120.454 181.637H149.431L163.92 158.455M120.454 212.546H149.431L163.92 235.728M154.261 235.728L168.75 212.546H197.727M192.897 220.273L178.409 197.091L192.897 173.91M197.727 181.637H168.75L154.261 158.455M139.772 166.182V186.788L120.454 197.091L139.772 207.394V228L159.09 217.697L178.409 228V207.394L197.727 197.091L178.409 186.788V166.182L159.09 176.485L139.772 166.182Z" stroke="#F1F1F1" stroke-width="2"/>
<path d="M202.557 50.2739L217.045 73.4557L202.557 96.6374M197.727 58.0011H226.704L241.193 34.8193M197.727 88.9102H226.704L241.193 112.092M231.534 112.092L246.022 88.9102H275M270.17 96.6374L255.682 73.4557L270.17 50.2739M275 58.0011H246.022L231.534 34.8193M217.045 42.5466V63.1526L197.727 73.4557L217.045 83.7587V104.365L236.363 94.0617L255.682 104.365V83.7587L275 73.4557L255.682 63.1526V42.5466L236.363 52.8496L217.045 42.5466Z" stroke="#F1F1F1" stroke-width="2"/>
<path d="M202.557 297.547L217.045 320.729L202.557 343.911M197.727 305.275H226.704L241.193 282.093M197.727 336.184H226.704L241.193 359.365M231.534 359.365L246.022 336.184H275M270.17 343.911L255.682 320.729L270.17 297.547M275 305.275H246.022L231.534 282.093M217.045 289.82V310.426L197.727 320.729L217.045 331.032V351.638L236.363 341.335L255.682 351.638V331.032L275 320.729L255.682 310.426V289.82L236.363 300.123L217.045 289.82Z" stroke="#F1F1F1" stroke-width="2"/>
<path d="M202.557 173.91L217.045 197.091L202.557 220.273M197.727 181.637H226.704L241.193 158.455M197.727 212.546H226.704L241.193 235.728M231.534 235.728L246.022 212.546H275M270.17 220.273L255.682 197.091L270.17 173.91M275 181.637H246.022L231.534 158.455M217.045 166.182V186.788L197.727 197.091L217.045 207.394V228L236.363 217.697L255.682 228V207.394L275 197.091L255.682 186.788V166.182L236.363 176.485L217.045 166.182Z" stroke="#F1F1F1" stroke-width="2"/>
<path d="M279.829 50.2739L294.317 73.4557L279.829 96.6374M274.999 58.0011H303.976L318.465 34.8193M274.999 88.9102H303.976L318.465 112.092M308.806 112.092L323.294 88.9102H352.272M347.442 96.6374L332.954 73.4557L347.442 50.2739M352.272 58.0011H323.294L308.806 34.8193M294.317 42.5466V63.1526L274.999 73.4557L294.317 83.7587V104.365L313.635 94.0617L332.954 104.365V83.7587L352.272 73.4557L332.954 63.1526V42.5466L313.635 52.8496L294.317 42.5466Z" stroke="#F1F1F1" stroke-width="2"/>
<path d="M279.829 297.547L294.317 320.729L279.829 343.911M274.999 305.275H303.976L318.465 282.093M274.999 336.184H303.976L318.465 359.365M308.806 359.365L323.294 336.184H352.272M347.442 343.911L332.954 320.729L347.442 297.547M352.272 305.275H323.294L308.806 282.093M294.317 289.82V310.426L274.999 320.729L294.317 331.032V351.638L313.635 341.335L332.954 351.638V331.032L352.272 320.729L332.954 310.426V289.82L313.635 300.123L294.317 289.82Z" stroke="#F1F1F1" stroke-width="2"/>
<path d="M279.828 173.91L294.317 197.091L279.828 220.273M274.999 181.637H303.976L318.465 158.455M274.999 212.546H303.976L318.465 235.728M308.806 235.728L323.294 212.546H352.271M347.442 220.273L332.953 197.091L347.442 173.91M352.271 181.637H323.294L308.806 158.455M294.317 166.182V186.788L274.999 197.091L294.317 207.394V228L313.635 217.697L332.953 228V207.394L352.271 197.091L332.953 186.788V166.182L313.635 176.485L294.317 166.182Z" stroke="#F1F1F1" stroke-width="2"/>
<path d="M357.1 50.2739L371.589 73.4557L357.1 96.6374M352.271 58.0011H381.248L395.737 34.8193M352.271 88.9102H381.248L395.737 112.092M386.078 112.092L400.566 88.9102H429.543M424.714 96.6374L410.225 73.4557L424.714 50.2739M429.543 58.0011H400.566L386.078 34.8193M371.589 42.5466V63.1526L352.271 73.4557L371.589 83.7587V104.365L390.907 94.0617L410.225 104.365V83.7587L429.543 73.4557L410.225 63.1526V42.5466L390.907 52.8496L371.589 42.5466Z" stroke="#F1F1F1" stroke-width="2"/>
<path d="M357.1 297.547L371.589 320.729L357.1 343.911M352.271 305.275H381.248L395.737 282.093M352.271 336.184H381.248L395.737 359.365M386.078 359.365L400.566 336.184H429.543M424.714 343.911L410.225 320.729L424.714 297.547M429.543 305.275H400.566L386.078 282.093M371.589 289.82V310.426L352.271 320.729L371.589 331.032V351.638L390.907 341.335L410.225 351.638V331.032L429.543 320.729L410.225 310.426V289.82L390.907 300.123L371.589 289.82Z" stroke="#F1F1F1" stroke-width="2"/>
<path d="M357.1 173.91L371.589 197.091L357.1 220.273M352.271 181.637H381.248L395.737 158.455M352.271 212.546H381.248L395.737 235.728M386.078 235.728L400.566 212.546H429.543M424.714 220.273L410.225 197.091L424.714 173.91M429.543 181.637H400.566L386.078 158.455M371.589 166.182V186.788L352.271 197.091L371.589 207.394V228L390.907 217.697L410.225 228V207.394L429.543 197.091L410.225 186.788V166.182L390.907 176.485L371.589 166.182Z" stroke="#F1F1F1" stroke-width="2"/>
<path d="M9.37593 112.092L23.8646 135.274L9.37593 158.456M4.54639 119.819H33.5236L48.0123 96.6377M4.54639 150.729H33.5236L48.0123 173.91M38.3532 173.91L52.8418 150.729H81.8191M76.9895 158.456L62.5009 135.274L76.9895 112.092M81.8191 119.819H52.8418L38.3532 96.6377M23.8646 104.365V124.971L4.54639 135.274L23.8646 145.577V166.183L43.1827 155.88L62.5009 166.183V145.577L81.8191 135.274L62.5009 124.971V104.365L43.1827 114.668L23.8646 104.365Z" stroke="#F1F1F1" stroke-width="2"/>
<path d="M9.37593 359.364L23.8646 382.545L9.37593 405.727M4.54639 367.091H33.5236L48.0123 343.909M4.54639 398H33.5236L48.0123 421.182M38.3532 421.182L52.8418 398H81.8191M76.9895 405.727L62.5009 382.545L76.9895 359.364M81.8191 367.091H52.8418L38.3532 343.909M23.8646 351.636V372.242L4.54639 382.545L23.8646 392.849V413.455L43.1827 403.152L62.5009 413.455V392.849L81.8191 382.545L62.5009 372.242V351.636L43.1827 361.939L23.8646 351.636Z" stroke="#F1F1F1" stroke-width="2"/>
<path d="M9.37593 -11.5455L23.8646 11.6363L9.37593 34.8181M4.54639 -3.81821H33.5236L48.0123 -27M4.54639 27.0908H33.5236L48.0123 50.2726M38.3532 50.2726L52.8418 27.0908H81.8191M76.9895 34.8181L62.5009 11.6363L76.9895 -11.5455M81.8191 -3.81821H52.8418L38.3532 -27M23.8646 -19.2727V1.3333L4.54639 11.6363L23.8646 21.9393V42.5454L43.1827 32.2424L62.5009 42.5454V21.9393L81.8191 11.6363L62.5009 1.3333V-19.2727L43.1827 -8.96972L23.8646 -19.2727Z" stroke="#F1F1F1" stroke-width="2"/>
<path d="M9.37593 235.727L23.8646 258.909L9.37593 282.091M4.54639 243.454H33.5236L48.0123 220.272M4.54639 274.363H33.5236L48.0123 297.545M38.3532 297.545L52.8418 274.363H81.8191M76.9895 282.091L62.5009 258.909L76.9895 235.727M81.8191 243.454H52.8418L38.3532 220.272M23.8646 228V248.606L4.54639 258.909L23.8646 269.212V289.818L43.1827 279.515L62.5009 289.818V269.212L81.8191 258.909L62.5009 248.606V228L43.1827 238.303L23.8646 228Z" stroke="#F1F1F1" stroke-width="2"/>
<path d="M-29.262 50.2739L-14.7734 73.4557L-29.262 96.6374M-34.0916 58.0011H-5.1143L9.37432 34.8193M-34.0916 88.9102H-5.1143L9.37432 112.092M-0.28476 112.092L14.2039 88.9102H43.1811M38.3516 96.6374L23.8629 73.4557L38.3516 50.2739M43.1811 58.0011H14.2039L-0.28476 34.8193M-14.7734 42.5466V63.1526L-34.0916 73.4557L-14.7734 83.7587V104.365L4.54478 94.0617L23.8629 104.365V83.7587L43.1811 73.4557L23.8629 63.1526V42.5466L4.54478 52.8496L-14.7734 42.5466Z" stroke="#F1F1F1" stroke-width="2"/>
<path d="M-29.262 297.547L-14.7734 320.729L-29.262 343.911M-34.0916 305.275H-5.1143L9.37432 282.093M-34.0916 336.184H-5.1143L9.37432 359.365M-0.28476 359.365L14.2039 336.184H43.1811M38.3516 343.911L23.8629 320.729L38.3516 297.547M43.1811 305.275H14.2039L-0.28476 282.093M-14.7734 289.82V310.426L-34.0916 320.729L-14.7734 331.032V351.638L4.54478 341.335L23.8629 351.638V331.032L43.1811 320.729L23.8629 310.426V289.82L4.54478 300.123L-14.7734 289.82Z" stroke="#F1F1F1" stroke-width="2"/>
<path d="M-67.8984 112.092L-53.4097 135.274L-67.8984 158.456M-72.7279 119.819H-43.7507L-29.262 96.6377M-72.7279 150.729H-43.7507L-29.262 173.91M-38.9211 173.91L-24.4325 150.729H4.54476M-0.284778 158.456L-14.7734 135.274L-0.284778 112.092M4.54476 119.819H-24.4325L-38.9211 96.6377M-53.4097 104.365V124.971L-72.7279 135.274L-53.4097 145.577V166.183L-34.0916 155.88L-14.7734 166.183V145.577L4.54476 135.274L-14.7734 124.971V104.365L-34.0916 114.668L-53.4097 104.365Z" stroke="#F1F1F1" stroke-width="2"/>
<path d="M-67.8984 359.364L-53.4097 382.545L-67.8984 405.727M-72.7279 367.091H-43.7507L-29.262 343.909M-72.7279 398H-43.7507L-29.262 421.182M-38.9211 421.182L-24.4325 398H4.54476M-0.284778 405.727L-14.7734 382.545L-0.284778 359.364M4.54476 367.091H-24.4325L-38.9211 343.909M-53.4097 351.636V372.242L-72.7279 382.545L-53.4097 392.849V413.455L-34.0916 403.152L-14.7734 413.455V392.849L4.54476 382.545L-14.7734 372.242V351.636L-34.0916 361.939L-53.4097 351.636Z" stroke="#F1F1F1" stroke-width="2"/>
<path d="M-67.8984 -11.5455L-53.4097 11.6363L-67.8984 34.8181M-72.7279 -3.81821H-43.7507L-29.262 -27M-72.7279 27.0908H-43.7507L-29.262 50.2726M-38.9211 50.2726L-24.4325 27.0908H4.54476M-0.284778 34.8181L-14.7734 11.6363L-0.284778 -11.5455M4.54476 -3.81821H-24.4325L-38.9211 -27M-53.4097 -19.2727V1.3333L-72.7279 11.6363L-53.4097 21.9393V42.5454L-34.0916 32.2424L-14.7734 42.5454V21.9393L4.54476 11.6363L-14.7734 1.3333V-19.2727L-34.0916 -8.96972L-53.4097 -19.2727Z" stroke="#F1F1F1" stroke-width="2"/>
<path d="M-67.8984 235.727L-53.4097 258.909L-67.8984 282.091M-72.7279 243.454H-43.7507L-29.262 220.272M-72.7279 274.363H-43.7507L-29.262 297.545M-38.9211 297.545L-24.4325 274.363H4.54476M-0.284778 282.091L-14.7734 258.909L-0.284778 235.727M4.54476 243.454H-24.4325L-38.9211 220.272M-53.4097 228V248.606L-72.7279 258.909L-53.4097 269.212V289.818L-34.0916 279.515L-14.7734 289.818V269.212L4.54476 258.909L-14.7734 248.606V228L-34.0916 238.303L-53.4097 228Z" stroke="#F1F1F1" stroke-width="2"/>
<path d="M48.0106 173.91L62.4992 197.091L48.0106 220.273M43.181 181.637H72.1583L86.6469 158.455M43.181 212.546H72.1583L86.6469 235.728M76.9878 235.728L91.4764 212.546H120.454M115.624 220.273L101.136 197.091L115.624 173.91M120.454 181.637H91.4764L76.9878 158.455M62.4992 166.182V186.788L43.181 197.091L62.4992 207.394V228L81.8174 217.697L101.136 228V207.394L120.454 197.091L101.136 186.788V166.182L81.8174 176.485L62.4992 166.182Z" stroke="#F1F1F1" stroke-width="2"/>
<path d="M-29.2621 173.91L-14.7735 197.091L-29.2621 220.273M-34.0917 181.637H-5.11442L9.3742 158.455M-34.0917 212.546H-5.11442L9.3742 235.728M-0.284882 235.728L14.2037 212.546H43.181M38.3515 220.273L23.8628 197.091L38.3515 173.91M43.181 181.637H14.2037L-0.284882 158.455M-14.7735 166.182V186.788L-34.0917 197.091L-14.7735 207.394V228L4.54466 217.697L23.8628 228V207.394L43.181 197.091L23.8628 186.788V166.182L4.54466 176.485L-14.7735 166.182Z" stroke="#F1F1F1" stroke-width="2"/>
<path d="M48.0106 50.2739L62.4992 73.4557L48.0106 96.6374M43.181 58.0011H72.1583L86.6469 34.8193M43.181 88.9102H72.1583L86.6469 112.092M76.9878 112.092L91.4764 88.9102H120.454M115.624 96.6374L101.136 73.4557L115.624 50.2739M120.454 58.0011H91.4764L76.9878 34.8193M62.4992 42.5466V63.1526L43.181 73.4557L62.4992 83.7587V104.365L81.8174 94.0617L101.136 104.365V83.7587L120.454 73.4557L101.136 63.1526V42.5466L81.8174 52.8496L62.4992 42.5466Z" stroke="#F1F1F1" stroke-width="2"/>
<path d="M48.0106 297.547L62.4992 320.729L48.0106 343.911M43.181 305.275H72.1583L86.6469 282.093M43.181 336.184H72.1583L86.6469 359.365M76.9878 359.365L91.4764 336.184H120.454M115.624 343.911L101.136 320.729L115.624 297.547M120.454 305.275H91.4764L76.9878 282.093M62.4992 289.82V310.426L43.181 320.729L62.4992 331.032V351.638L81.8174 341.335L101.136 351.638V331.032L120.454 320.729L101.136 310.426V289.82L81.8174 300.123L62.4992 289.82Z" stroke="#F1F1F1" stroke-width="2"/>
</g>
<path d="M150.461 134.518C153.111 132.011 157.3 130.758 163.029 130.758C168.83 130.758 173.449 131.402 176.887 132.691C183.332 134.983 187.307 141.249 188.811 151.49C189.527 156.718 191.747 167.317 195.471 183.287C199.266 199.257 202.453 211.002 205.031 218.521C207.681 225.969 210.796 229.693 214.377 229.693C217.958 229.693 221.932 222.389 226.301 207.779C230.741 193.17 232.961 180.064 232.961 168.463C232.961 164.739 232.567 161.23 231.779 157.936L230.49 153.531L229.416 149.342C229.416 144.114 231.421 140.139 235.432 137.418C239.514 134.625 244.348 133.229 249.934 133.229C255.591 133.229 260.568 134.911 264.865 138.277C269.234 141.572 271.418 145.331 271.418 149.557L270.881 153.746L270.129 157.936C270.129 168.821 275.822 189.661 287.209 220.455C289.357 226.327 291.757 229.264 294.406 229.264C297.128 229.264 299.204 228.118 300.637 225.826C302.069 223.463 305.148 213.795 309.875 196.822C314.673 179.85 317.43 166.243 318.146 156.002C318.934 145.761 319.436 140.283 319.65 139.566C321.441 133.766 327.062 130.865 336.516 130.865C341.242 130.865 344.572 131.725 346.506 133.443C348.439 135.09 349.406 137.132 349.406 139.566C349.406 141.93 347.222 146.549 342.854 153.424C338.485 160.299 335.155 167.102 332.863 173.834L327.062 191.666C325.917 195.104 324.663 199.114 323.303 203.697L319.65 215.621C311.343 241.689 305.9 257.086 303.322 261.812C299.169 269.332 294.657 273.092 289.787 273.092C284.273 273.092 279.439 268.329 275.285 258.805C273.208 254.007 269.126 241.939 263.039 222.604C257.023 203.196 253.335 191.773 251.975 188.336L249.934 183.932C248.286 183.932 243.775 194.96 236.398 217.018C229.094 239.003 224.045 253.04 221.252 259.127C216.883 268.652 212.049 273.414 206.75 273.414C201.451 273.414 196.867 269.547 193 261.812C191.281 258.303 186.59 243.98 178.928 218.844C171.337 193.707 166.431 178.131 164.211 172.115C162.062 166.1 158.876 159.511 154.65 152.35C150.497 145.188 148.42 140.748 148.42 139.029C148.42 137.311 149.1 135.807 150.461 134.518Z" fill="#F1F1F1"/>
<path d="M230.717 61.3547L229.851 61.9219C226.061 64.4046 222.804 67.6202 220.267 71.3851C217.729 75.15 215.961 79.3905 215.062 83.8645C213.246 92.9001 215.084 102.338 220.17 110.102C225.256 117.867 233.175 123.321 242.183 125.266C246.644 126.229 251.238 126.301 255.703 125.479C260.168 124.656 264.417 122.955 268.207 120.472C276.865 114.801 279.853 108.659 282.171 100.865C269.175 115.654 247.074 113.397 237.485 98.7592C227.896 84.1216 234.654 62.9589 253.404 56.9522C249.502 56.1138 245.482 56.0715 241.585 56.8279C237.687 57.5842 233.991 59.1237 230.717 61.3547ZM251.758 65.1429L254.141 78.225L244.039 86.0982L257.202 87.9345L261.317 99.8823L266.717 87.9775L279.787 87.7828L270.189 79.4271L274.052 66.4367L262.799 72.5534L251.758 65.1429Z" fill="#F1F1F1"/>
</svg>
