<?xml version="1.0" encoding="utf-8"?>
<!-- Generator: Adobe Illustrator 27.5.0, SVG Export Plug-In . SVG Version: 6.00 Build 0)  -->
<svg version="1.1" xmlns="http://www.w3.org/2000/svg" xmlns:xlink="http://www.w3.org/1999/xlink" x="0px" y="0px"
	 viewBox="0 0 500 500" style="enable-background:new 0 0 500 500;" xml:space="preserve">
<g id="BACKGROUND">
	<rect style="fill:#FFFFFF;" width="500" height="500"/>
</g>
<g id="OBJECTS">
	<g>
		<path style="fill:#FCEAC0;" d="M384.184,243.761c-0.42,12.955-0.85,25.949-1.27,38.981c-0.506,15.552-1.012,31.162-1.527,46.828
			c-0.411,12.831-0.831,25.71-1.251,38.618c-0.239,7.303-0.477,14.626-0.706,21.958c-0.019,0.344-0.029,0.687-0.038,1.031
			l-266.411,2.243c-0.525-16.908-1.05-33.787-1.346-50.609c-0.086-4.812-0.153-9.614-0.191-14.416
			c-0.076-8.755-0.076-17.5,0.038-26.216c0.153-11.733,0.506-23.428,1.136-35.066c1.002-18.493,2.721-36.852,5.442-55.029
			c1.929-12.86,4.974-26.694,14.932-34.894c6.225-5.136,14.33-7.313,22.273-8.688c11.323-1.957,22.827-2.559,34.303-3.122
			c-2.234-2.721-4.182-5.652-5.776-8.783c-5.165-10.177-5.384-23.18,1.05-32.613c3.704-5.423,9.251-9.337,15.018-12.478
			c9.404-5.108,19.705-8.497,28.775-14.168c9.07-5.671,17.137-14.407,18.263-25.042c2.463,13.041,16.335,22.894,28.784,27.505
			c12.449,4.602,26.331,8.44,34.207,19.123c9.413,12.745,6.664,31.142-1.279,44.843c-0.22,0.382-0.458,0.754-0.687,1.127
			c12.029,1.451,24.039,3.351,36.012,5.356c4.182,0.697,8.401,1.423,12.383,2.95c12.583,4.821,21.223,17.251,24.966,30.255
			C385.024,216.495,384.623,230.242,384.184,243.761z"/>
		<path style="fill:#FADFAC;" d="M382.272,329.57c-0.41,12.831-0.831,25.71-1.251,38.618c-0.248,7.647-0.496,15.313-0.745,22.989
			l-266.411,2.243c-0.525-16.908-1.05-33.787-1.346-50.609c-0.239-13.586-0.325-27.133-0.153-40.632
			c0.153-11.733,0.506-23.428,1.136-35.066c44.575-0.468,89.8,7.8,133.649,17.309c14.874,3.217,29.882,6.673,44.766,10.635
			C323.452,303.44,354.414,314.075,382.272,329.57z"/>
		<path style="fill:#FADA9D;" d="M382.914,282.742c-0.506,15.552-1.012,31.162-1.527,46.828c-0.411,12.831-0.831,25.71-1.251,38.618
			c-0.248,7.647-0.496,15.313-0.745,22.989l-266.411,2.243c-0.525-16.908-1.05-33.787-1.346-50.609
			c31.677-10.96,64.013-20.039,96.559-28.297c13.013-3.303,26.064-6.473,39.114-9.576c14.531-3.456,29.09-6.836,43.726-9.881
			c25.051-5.222,50.284-9.461,75.794-11.418C372.174,283.229,377.539,282.923,382.914,282.742z"/>
		<path style="fill:#FCEAC0;" d="M379.43,390.146c-0.019,0.344-0.029,0.687-0.038,1.031l-266.411,2.243
			c-0.525-16.908-1.05-33.787-1.346-50.609c-0.086-4.812-0.153-9.614-0.191-14.416c0.009-1.337,0.019-2.673,0.038-4.01
			c32.527,0.506,64.777,5.184,96.712,12.335c43.888,9.814,87.165,24.288,129.697,38.933
			C351.753,380.418,365.615,385.239,379.43,390.146z"/>
	</g>
	<g>
		<g>
			<path style="fill:#FFFFFF;" d="M287.717,167.622c-2.485-1.25-4.066-3.856-4.416-6.119c-0.606,2.905-1.615,4.803-4.166,6.363
				c2.707,1.236,3.935,3.564,4.511,5.993C284.111,171.55,285.708,168.852,287.717,167.622z"/>
			<path style="fill:#FFFFFF;" d="M210.575,209.952c-3.307-1.664-5.412-5.133-5.878-8.145c-0.806,3.866-2.15,6.394-5.546,8.47
				c3.604,1.645,5.237,4.744,6.005,7.977C205.776,215.18,207.901,211.588,210.575,209.952z"/>
			<path style="fill:#FFFFFF;" d="M279.677,238.005c-3.968-1.996-6.493-6.158-7.053-9.773c-0.967,4.639-2.58,7.672-6.654,10.162
				c4.324,1.974,6.284,5.692,7.205,9.571C273.919,244.278,276.469,239.969,279.677,238.005z"/>
		</g>
	</g>
	<g>
		<g>
			<path style="fill:#274027;" d="M87.481,421.48c-1.442,0.208-2.89,0.303-4.354,0.266c-1.517-0.039-3-0.287-4.503-0.408
				c-2.797-0.227-5.608,0.4-8.005,1.764c-1.221,0.695-0.247,2.612,0.985,1.908c2.437-1.391,5.057-1.794,7.873-1.457
				c2.869,0.344,5.669,0.427,8.533,0.014C89.443,423.361,88.9,421.276,87.481,421.48z"/>
			<path style="fill:#274027;" d="M89.665,418.323c-2.353-0.008-4.575-0.693-6.808-1.306c-2.347-0.645-4.7-1.085-7.121-1.173
				c-1.4-0.051-1.656,1.999-0.237,2.052c2.403,0.09,4.716,0.532,7.042,1.186c2.263,0.636,4.562,1.32,6.946,1.33
				c0.606,0.003,1.157-0.314,1.207-0.924C90.738,418.972,90.272,418.325,89.665,418.323z"/>
			<path style="fill:#274027;" d="M92.171,412.273c-0.098,0.106-1.307-0.048-1.515-0.06c-0.576-0.034-1.15-0.076-1.724-0.122
				c-1.291-0.103-2.579-0.225-3.867-0.309c-2.492-0.163-5.002-0.176-7.433,0.311c-1.362,0.273-1.044,2.288,0.333,2.012
				c2.744-0.549,5.535-0.42,8.341-0.19c1.391,0.114,2.783,0.249,4.181,0.332c1.298,0.077,2.613,0.235,3.515-0.749
				C94.904,412.513,93.069,411.299,92.171,412.273z"/>
			<path style="fill:#274027;" d="M95.431,406.875c-0.575,0.28-1.204,0.135-1.832,0.045c-0.701-0.101-1.401-0.208-2.101-0.311
				c-1.3-0.189-2.6-0.368-3.903-0.485c-2.651-0.238-5.333-0.221-7.893,0.41c-0.565,0.139-0.988,0.551-0.898,1.124
				c0.077,0.485,0.674,0.978,1.237,0.839c2.704-0.667,5.482-0.614,8.275-0.304c1.409,0.156,2.815,0.371,4.224,0.582
				c1.276,0.191,2.66,0.52,3.842-0.057C97.603,408.122,96.653,406.28,95.431,406.875z"/>
			<path style="fill:#274027;" d="M97.397,401.579c-2.341,0.096-4.686,0.079-7.023-0.047c-1.148-0.062-2.292-0.15-3.433-0.263
				c-1.149-0.114-2.287-0.219-3.355,0.234c-1.241,0.526-0.368,2.315,0.88,1.785c0.923-0.392,2.074-0.102,3.057-0.012
				c1.148,0.104,2.299,0.182,3.453,0.234c2.277,0.102,4.56,0.096,6.84,0.005c0.588-0.024,0.965-0.631,0.859-1.116
				C98.551,401.832,97.984,401.555,97.397,401.579z"/>
			<path style="fill:#274027;" d="M100.857,397.125c-4.834-0.28-9.639-0.331-14.412-0.174c-0.577,0.019-0.951,0.617-0.868,1.084
				c0.099,0.559,0.659,0.818,1.231,0.8c4.612-0.148,9.259-0.075,13.928,0.202C102.129,399.119,102.254,397.206,100.857,397.125z"/>
			<path style="fill:#274027;" d="M103.317,392.49c-1.198,0.255-2.43,0.405-3.678,0.379c-1.149-0.024-2.29-0.183-3.434-0.238
				c-2.479-0.119-4.896,0.277-7.291,0.697c-1.326,0.233-0.965,2.089,0.372,1.854c2.405-0.421,4.819-0.831,7.309-0.65
				c2.447,0.177,4.769,0.328,7.162-0.181C105.078,394.07,104.643,392.208,103.317,392.49z"/>
			<path style="fill:#274027;" d="M103.724,389.567c-4.14,0.022-8.25-1.416-12.322-0.679c-1.205,0.218-0.859,2.038,0.355,1.818
				c3.907-0.706,7.902,0.728,11.882,0.71c0.527-0.002,0.996-0.294,1.019-0.832C104.677,390.125,104.252,389.564,103.724,389.567z"/>
			<path style="fill:#274027;" d="M107.763,385.819c-2.375-0.131-4.741-0.304-7.098-0.524c-2.212-0.207-4.592-0.674-6.643,0.233
				c-1.1,0.486-0.274,2.15,0.83,1.661c1.847-0.819,4.239-0.219,6.231-0.036c2.196,0.202,4.4,0.363,6.612,0.488
				C108.946,387.71,109.018,385.888,107.763,385.819z"/>
			<path style="fill:#274027;" d="M108.897,383.569c-2.205-0.549-4.413-1.035-6.622-1.452c-2.088-0.394-4.434-1.021-6.415-0.172
				c-1.097,0.47-0.269,2.105,0.831,1.633c0.853-0.366,1.781-0.297,2.708-0.165c1.005,0.143,2.008,0.339,3.009,0.532
				c1.979,0.382,3.955,0.825,5.929,1.321c0.513,0.129,1.048-0.042,1.209-0.532C109.686,384.307,109.412,383.697,108.897,383.569z"/>
			<path style="fill:#274027;" d="M113.321,379.345c-1.233,0.267-2.487,0.369-3.775,0.253c-1.237-0.111-2.399-0.457-3.588-0.792
				c-2.443-0.689-4.908-0.864-7.337-0.355c-1.17,0.245-0.803,1.982,0.379,1.735c1.251-0.262,2.518-0.357,3.817-0.233
				c1.239,0.118,2.408,0.47,3.61,0.81c2.437,0.69,4.915,0.863,7.342,0.338C114.953,380.846,114.507,379.089,113.321,379.345z"/>
			<path style="fill:#4B7351;" d="M89.997,419.695c-2.866,0.619-5.52-0.172-8.366-0.522c-2.883-0.355-5.79-0.383-8.659-0.133
				c-1.413,0.123-1.099,2.194,0.315,2.072c2.908-0.251,5.837-0.178,8.754,0.232c1.386,0.195,2.759,0.542,4.157,0.685
				c1.41,0.143,2.83,0.058,4.198-0.237C91.791,421.49,91.395,419.393,89.997,419.695z"/>
			<path style="fill:#4B7351;" d="M91.803,416.372c-2.638-0.733-5.258-1.466-7.867-2.185c-2.457-0.677-4.839-1.073-7.364-0.686
				c-1.384,0.212-1.065,2.237,0.329,2.024c2.357-0.361,4.516,0.085,6.8,0.725c2.442,0.684,4.897,1.372,7.366,2.064
				C92.454,418.701,93.201,416.76,91.803,416.372z"/>
			<path style="fill:#4B7351;" d="M94.688,409.743c-5.654,0.428-11.239-1.874-16.744-0.228c-1.326,0.397-0.452,2.245,0.867,1.85
				c2.575-0.771,5.335-0.491,8-0.156c2.752,0.346,5.507,0.75,8.291,0.541C96.522,411.645,96.094,409.637,94.688,409.743z"/>
			<path style="fill:#4B7351;" d="M97.432,405.017c-5.096-0.807-10.618-2.193-15.617-0.899c-0.56,0.145-0.983,0.542-0.89,1.114
				c0.078,0.475,0.679,0.974,1.237,0.829c2.421-0.626,4.91-0.559,7.415-0.257c2.57,0.311,5.137,0.777,7.716,1.19
				C98.699,407.219,98.829,405.238,97.432,405.017z"/>
			<path style="fill:#4B7351;" d="M99.445,400.473c-4.707-0.524-9.22-2.215-13.932-1.78c-1.364,0.126-1.005,2.024,0.36,1.899
				c4.504-0.413,8.939,1.312,13.444,1.821C100.719,402.571,100.844,400.629,99.445,400.473z"/>
			<path style="fill:#4B7351;" d="M102.575,395.54c-2.586-0.355-5.16-0.752-7.731-1.042c-2.581-0.291-5.125-0.326-7.603,0.316
				c-0.55,0.143-0.734,0.813-0.523,1.24c0.257,0.521,0.862,0.633,1.408,0.492c2.293-0.595,4.762-0.393,7.13-0.098
				c2.395,0.298,4.795,0.657,7.206,0.992C103.849,397.633,103.955,395.73,102.575,395.54z"/>
			<path style="fill:#4B7351;" d="M104.569,392.5c-2.209-0.605-4.404-1.286-6.623-1.77c-2.239-0.488-4.537-0.652-6.663,0.132
				c-1.242,0.458-0.347,2.161,0.896,1.702c1.817-0.672,3.858-0.404,5.747,0.061c2,0.493,3.987,1.084,5.989,1.637
				C105.251,394.632,105.913,392.869,104.569,392.5z"/>
			<path style="fill:#4B7351;" d="M105.668,388.188c-4.263,0.16-8.438-1.98-12.627-0.928c-0.495,0.124-0.865,0.522-0.762,1.043
				c0.089,0.451,0.623,0.888,1.123,0.763c2.035-0.511,4.124-0.201,6.2,0.188c2.157,0.404,4.289,0.841,6.487,0.76
				c0.526-0.019,0.847-0.605,0.742-1.058C106.705,388.415,106.193,388.168,105.668,388.188z"/>
			<path style="fill:#4B7351;" d="M107.972,385.316c-2.208-0.316-4.399-0.695-6.57-1.144c-1.05-0.217-2.091-0.463-3.132-0.702
				c-1.039-0.239-2.091-0.436-3.121-0.153c-0.487,0.134-0.858,0.507-0.751,1.026c0.089,0.434,0.626,0.882,1.119,0.747
				c0.98-0.269,1.949,0.018,2.929,0.248c1.025,0.241,2.056,0.468,3.092,0.681c2.105,0.434,4.229,0.803,6.368,1.113
				C109.155,387.314,109.216,385.494,107.972,385.316z"/>
			<path style="fill:#4B7351;" d="M111.095,382.447c-4.541-0.572-8.71-2.955-13.259-2.892c-0.513,0.007-0.96,0.282-0.998,0.793
				c-0.033,0.434,0.381,0.972,0.891,0.965c4.544-0.059,8.76,2.349,13.314,2.929C112.29,384.401,112.338,382.603,111.095,382.447z"/>
			<path style="fill:#4B7351;" d="M115.021,379.132c-2.407-0.275-4.635-1.283-6.876-2.093c-2.262-0.818-4.617-1.42-6.987-1.145
				c-1.195,0.139-0.809,1.854,0.388,1.716c2.271-0.263,4.53,0.5,6.67,1.307c2.2,0.829,4.399,1.713,6.767,1.987
				C116.23,381.047,116.263,379.274,115.021,379.132z"/>
			<g>
				<path style="fill:#274027;" d="M373.956,382.523c-1.663-0.18-3.32-0.057-5.017,0.17c-1.664,0.222-3.279,0.193-4.922,0.131
					c-1.431-0.054-1.777,1.804-0.344,1.858c1.698,0.065,3.394,0.098,5.116-0.118c1.656-0.208,3.206-0.36,4.833-0.183
					c0.591,0.064,1.192-0.411,1.277-0.884C374.995,382.961,374.548,382.587,373.956,382.523z"/>
				<path style="fill:#274027;" d="M381.207,385.485c-1.013-0.099-2.032-0.196-3.072-0.139c-1.115,0.06-2.142,0.295-3.211,0.641
					c-2.033,0.659-3.96,1.14-6.089,1.103c-1.437-0.025-1.782,1.842-0.34,1.867c2.189,0.038,4.324-0.333,6.429-1.034
					c0.937-0.312,1.847-0.626,2.837-0.708c1.049-0.086,2.1,0.034,3.119,0.133C382.296,387.487,382.615,385.623,381.207,385.485z"/>
				<path style="fill:#274027;" d="M390.009,389.407c-2.881-0.445-5.677,0.277-8.558,0.917c-3.022,0.671-6.082,1.116-9.149,1.351
					c-0.613,0.047-1.055,0.657-1.002,1.113c0.064,0.546,0.635,0.771,1.242,0.725c2.854-0.219,5.703-0.618,8.521-1.216
					c2.611-0.554,5.445-1.51,8.073-1.103c0.59,0.091,1.21-0.09,1.474-0.613C390.828,390.146,390.592,389.497,390.009,389.407z"/>
				<path style="fill:#274027;" d="M390.533,391.207c-1.112,0.883-3.079,1.064-4.477,1.298c-1.645,0.276-3.299,0.472-4.946,0.743
					c-3.018,0.496-6.023,1.296-8.573,2.941c-1.207,0.779,0.138,2.175,1.342,1.396c2.579-1.666,5.729-2.248,8.756-2.695
					c1.649-0.243,3.304-0.451,4.942-0.778c1.458-0.291,3.152-0.599,4.306-1.517C392.974,391.728,391.631,390.335,390.533,391.207z"
					/>
				<path style="fill:#274027;" d="M396.335,394.249c-2.665-1.003-5.709-0.305-8.49,0.554c-2.956,0.914-5.908,1.764-8.941,2.427
					c-1.434,0.313-1.192,2.163,0.247,1.848c2.834-0.62,5.634-1.371,8.394-2.24c2.589-0.815,5.394-1.744,7.92-0.793
					C396.737,396.524,397.6,394.725,396.335,394.249z"/>
				<path style="fill:#274027;" d="M400.587,397.346c-3.051-0.275-6.227-0.06-9.286,0.678c-2.87,0.693-5.805,2.338-8.784,2.263
					c-1.445-0.036-1.778,1.856-0.329,1.892c3.088,0.078,5.821-1.364,8.748-2.148c3.083-0.826,6.246-1.079,9.34-0.799
					C401.706,399.361,402.008,397.474,400.587,397.346z"/>
				<path style="fill:#274027;" d="M406.669,401.141c-6.396-1.387-12.761,2.039-19.22,1.66c-1.441-0.085-1.764,1.813-0.324,1.897
					c3.106,0.183,6.202-0.477,9.274-1.123c3.108-0.654,6.364-1.286,9.407-0.626C407.175,403.247,408.048,401.44,406.669,401.141z"/>
				<path style="fill:#274027;" d="M408.454,403.87c-1.561,0.242-2.947,0.995-4.459,1.409c-1.582,0.434-3.225,0.643-4.848,0.777
					c-3.258,0.268-6.509,0.219-9.766,0.742c-1.458,0.234-1.197,2.1,0.258,1.866c3.257-0.523,6.516-0.475,9.775-0.743
					c1.576-0.13,3.158-0.338,4.699-0.739c1.554-0.404,3.036-1.206,4.616-1.452C410.185,405.504,409.902,403.645,408.454,403.87z"/>
				<path style="fill:#274027;" d="M411.335,407.858c-2.744,1.687-6.184,2.004-9.351,2.22c-3.407,0.233-6.849,0.426-10.077,1.754
					c-1.363,0.561-0.529,2.272,0.834,1.711c3.331-1.373,6.96-1.382,10.463-1.662c3.33-0.266,6.661-0.86,9.507-2.611
					C413.937,408.517,412.553,407.11,411.335,407.858z"/>
				<path style="fill:#274027;" d="M416.96,410.87c-3.084-0.548-6.106,0.22-9.157,1.053c-3.194,0.872-6.425,1.497-9.718,1.696
					c-1.449,0.088-1.781,2.008-0.315,1.919c3.15-0.191,6.264-0.663,9.335-1.476c2.892-0.766,6.042-1.891,8.998-1.365
					C417.492,412.945,418.365,411.12,416.96,410.87z"/>
				<path style="fill:#274027;" d="M419.789,417.431c-2.611-1.155-5.816-0.522-8.737-0.366c-3.151,0.168-6.311,0.15-9.237-0.683
					c-1.348-0.384-2.227,1.453-0.875,1.838c2.79,0.795,5.796,0.935,8.809,0.816c1.484-0.058,2.97-0.171,4.454-0.276
					c1.402-0.099,2.973-0.249,4.214,0.3C419.658,419.609,421.045,417.986,419.789,417.431z"/>
				<path style="fill:#274027;" d="M425.231,422.895c-5.324-3.147-12.257-2.13-18.449-3.104c-0.599-0.094-1.227,0.093-1.491,0.633
					c-0.219,0.449,0.026,1.118,0.619,1.212c5.905,0.929,12.897-0.092,17.95,2.898C425.02,425.22,426.393,423.582,425.231,422.895z"
					/>
				<path style="fill:#4B7351;" d="M426.977,422.801c-2.698-0.728-5.608-0.361-8.415,0.238c-2.815,0.601-5.642,1.392-8.5,1.127
					c-1.447-0.134-1.746,1.806-0.305,1.94c2.744,0.254,5.495-0.368,8.203-0.973c2.697-0.603,5.541-1.189,8.165-0.481
					C427.489,425.019,428.346,423.17,426.977,422.801z"/>
				<path style="fill:#4B7351;" d="M422.605,419.254c-5.093-1.448-10.387,1.161-15.598,0.756c-1.449-0.112-1.753,1.819-0.307,1.931
					c2.57,0.2,5.154-0.302,7.716-0.743c2.459-0.424,4.996-0.767,7.334-0.101C423.104,421.483,423.961,419.64,422.605,419.254z"/>
				<path style="fill:#4B7351;" d="M416.02,414.636c-2.43-0.725-4.988-0.024-7.432,0.716c-2.526,0.764-5.017,1.174-7.619,1.022
					c-1.451-0.085-1.763,1.839-0.313,1.924c2.487,0.145,5.013-0.137,7.454-0.835c2.267-0.649,4.763-1.675,7.05-0.992
					C416.503,416.872,417.363,415.037,416.02,414.636z"/>
				<path style="fill:#4B7351;" d="M412.705,410.389c-0.063-0.456-0.674-0.906-1.266-0.737c-3.036,0.869-6.157,1.451-9.296,1.694
					c-2.627,0.204-5.335,0.102-7.631,1.6c-1.21,0.789,0.162,2.209,1.369,1.42c1.968-1.286,4.896-0.992,7.13-1.196
					c2.942-0.269,5.86-0.831,8.707-1.647C412.317,411.352,412.78,410.94,412.705,410.389z"/>
				<path style="fill:#4B7351;" d="M410.542,406.272c-2.656,0.031-5.2,0.745-7.76,1.462c-2.484,0.696-5.026,1.374-7.576,1.109
					c-1.431-0.149-1.741,1.761-0.317,1.909c5.268,0.548,10.134-2.515,15.353-2.577C411.691,408.158,412,406.255,410.542,406.272z"/>
				<path style="fill:#4B7351;" d="M406.661,401.972c-5.546,2.9-12.095,1.26-18.011,2.77c-1.419,0.362-1.173,2.228,0.257,1.862
					c6.147-1.57,12.802,0.095,18.597-2.939C408.772,403.001,407.94,401.304,406.661,401.972z"/>
				<path style="fill:#4B7351;" d="M402.298,398.858c-2.947,0.327-5.946,0.544-8.872,1.13c-1.323,0.265-2.653,0.621-3.902,1.125
					c-1.208,0.487-2.342,1.337-3.65,1.563c-1.452,0.251-1.197,2.109,0.254,1.858c1.386-0.24,2.485-0.965,3.73-1.52
					c1.222-0.545,2.513-0.909,3.83-1.173c2.929-0.587,5.93-0.805,8.88-1.133C404.024,400.546,403.742,398.698,402.298,398.858z"/>
				<path style="fill:#4B7351;" d="M396.603,394.676c-5.803,1.874-12.127,1.376-17.768,3.93c-1.328,0.601-0.516,2.292,0.817,1.688
					c5.591-2.534,11.993-2.066,17.782-3.938C398.826,395.906,397.983,394.23,396.603,394.676z"/>
				<path style="fill:#4B7351;" d="M393.613,392.013c-5.022-0.126-9.647,2.471-14.631,2.69c-0.608,0.027-1.186,0.351-1.283,0.895
					c-0.083,0.469,0.339,1.013,0.951,0.986c2.534-0.111,4.957-0.756,7.405-1.434c2.37-0.656,4.795-1.323,7.242-1.261
					C394.737,393.925,395.054,392.05,393.613,392.013z"/>
				<path style="fill:#4B7351;" d="M390.127,389.265c-1.189,0.525-2.415,0.923-3.706,1.158c-1.343,0.245-2.694,0.292-4.044,0.388
					c-2.568,0.183-5.08,0.771-7.446,1.812c-1.333,0.586-0.525,2.266,0.811,1.677c2.405-1.06,4.849-1.527,7.45-1.691
					c2.707-0.171,5.253-0.567,7.757-1.674C392.274,390.351,391.453,388.68,390.127,389.265z"/>
				<path style="fill:#4B7351;" d="M386.834,387.31c-2.38-0.152-4.837,0.004-7.229,0.497c-2.459,0.506-4.872,1.335-7.276,2.056
					c-0.589,0.177-0.85,0.844-0.649,1.259c0.239,0.494,0.865,0.591,1.457,0.413c2.22-0.666,4.444-1.431,6.715-1.899
					c2.221-0.457,4.451-0.602,6.661-0.46C387.941,389.268,388.259,387.401,386.834,387.31z"/>
				<path style="fill:#4B7351;" d="M380.95,383.511c-2.364,0.017-4.754,0.249-7.104,0.739c-2.163,0.451-4.366,1.3-6.57,1.151
					c-1.426-0.096-1.765,1.767-0.342,1.863c2.261,0.153,4.44-0.587,6.651-1.083c2.327-0.523,4.688-0.795,7.037-0.811
					C382.058,385.36,382.391,383.501,380.95,383.511z"/>
			</g>
		</g>
		<path style="fill:#2D472C;" d="M411.408,426.124c-36.603,1.795-77.102,1.948-113.734,1.041
			c-7.456-0.191-15.008-0.449-22.168-2.549c-3.217-0.945-6.406-2.282-9.767-2.32c-5.117-0.057-9.738,2.845-14.664,4.191
			c-4.602,1.251-9.442,1.136-14.216,1.012c-50.294-1.298-101.056-2.406-151.359-3.704c0.382-0.621,0.764-1.251,1.146-1.881
			c8.535-14.005,16.669-28.727,23.581-43.554c86.678,3.065,173.499,2.11,260.081-2.855c12.258,17.366,25.281,33.023,39.458,48.785
			C410.31,424.902,410.854,425.513,411.408,426.124z"/>
		<path style="fill:#4B7351;" d="M409.766,424.291c-36.174,1.719-76.004,1.862-112.092,0.964
			c-7.456-0.191-15.008-0.449-22.168-2.549c-3.217-0.945-6.406-2.282-9.767-2.32c-5.117-0.057-9.738,2.845-14.664,4.191
			c-4.602,1.251-9.442,1.136-14.216,1.012c-49.912-1.289-100.282-2.387-150.213-3.676c8.535-14.005,16.669-28.727,23.581-43.554
			c86.678,3.065,173.499,2.11,260.081-2.855C382.566,392.872,395.588,408.529,409.766,424.291z"/>
		<path style="fill:#ACCEB3;" d="M393.754,418.922c1,1.124,0.261,2.904-1.242,2.969c-30.559,1.302-72.689,1.385-102.175,0.652
			c-6.345-0.163-12.772-0.382-18.865-2.169c-2.738-0.804-5.452-1.942-8.311-1.974c-4.355-0.049-8.287,2.421-12.479,3.567
			c-3.916,1.064-8.035,0.967-12.098,0.861c-41.463-1.071-93.333-1.987-135.308-3.05c-1.367-0.035-2.174-1.527-1.47-2.699
			c6.482-10.793,12.646-23.957,17.986-35.295c0.303-0.643,0.948-1.041,1.658-1.017c73.271,2.547,167.1,1.74,240.256-2.415
			c0.609-0.035,1.188,0.249,1.541,0.747C372.786,392.532,382.87,406.689,393.754,418.922z"/>
		<path style="fill:#5A9463;" d="M380.13,416.352c0.907,1.019,0.237,2.633-1.126,2.691c-27.705,1.181-65.9,1.256-92.633,0.591
			c-5.753-0.147-11.579-0.346-17.104-1.967c-2.482-0.729-4.943-1.76-7.535-1.79c-3.948-0.044-7.513,2.195-11.314,3.234
			c-3.55,0.965-7.285,0.876-10.968,0.781c-37.591-0.971-79.843-1.801-117.898-2.765c-1.239-0.031-1.97-1.385-1.332-2.447
			c5.877-9.785,11.465-19.988,16.307-30.268c0.274-0.583,0.86-0.944,1.503-0.922c66.428,2.309,146.721,1.577,213.045-2.189
			c0.553-0.031,1.077,0.226,1.397,0.677C361.121,394.158,370.264,405.262,380.13,416.352z"/>
		<path style="fill:#ACCEB3;" d="M288.056,410.211c-5.026,0.531-10.08,0.77-15.134,0.692c-4.959-0.077-9.879-0.537-14.81-1.035
			c-4.858-0.491-9.755-0.931-14.637-0.551c-4.884,0.38-9.487,1.995-14.313,2.676c-4.726,0.666-9.543,0.505-14.295,0.279
			c-5.055-0.241-10.109-0.521-15.163-0.801c-9.691-0.537-19.518-0.722-29.061-2.631c-8.59-1.718-16.887-4.649-24.652-8.673
			c12.622-2.733,25.291-5.355,38.132-6.792c7.306-0.818,14.643-1.22,21.995-1.141c7.371,0.079,14.73,0.544,22.091,0.897
			c8.277,0.397,16.572,0.64,24.846,0.059c2.061-0.145,2.074-3.369,0-3.223c-14.857,1.044-29.699-0.602-44.549-0.917
			c-14.734-0.313-29.322,1.365-43.797,4.024c-8.117,1.491-16.159,3.358-24.247,4.998c-7.312,1.483,16.828,10.913,25.506,13.031
			c9.495,2.317,19.209,2.768,28.927,3.321c5.075,0.289,10.151,0.566,15.228,0.83c4.934,0.257,9.888,0.592,14.829,0.343
			c2.45-0.124,4.901-0.396,7.307-0.876c2.353-0.47,4.661-1.138,7.014-1.604c4.847-0.961,9.828-0.811,14.728-0.41
			c5.646,0.462,11.258,1.195,16.926,1.373c5.717,0.179,11.44-0.045,17.128-0.645c0.865-0.091,1.612-0.677,1.612-1.612
			C289.667,411.022,288.926,410.119,288.056,410.211z"/>
		<path style="opacity:0.3;fill:#5A9463;" d="M240.15,400.634c3.11,4.115,6.576,8.465,10.956,9.111
			c1.678,0.248,3.395-0.078,5.052,0.352c3.334,0.866,5.764,4.545,8.693,6.815c4.037,3.13,8.927,3.505,13.606,3.777
			c14.401,0.836,28.81,1.439,43.222,1.807c10.124,0.259,58.391,2.553,68.03-1.536c-10.123-11.721-61.728-18.68-75.048-21.393
			c-13.85-2.821-28.848-3.364-41.892-10.758c-5.098-2.89-9.483-8.237-15.044-9.695c-4.851-1.272-9.639,1.031-14.064,3.49
			C236.553,386.553,234.225,392.795,240.15,400.634z"/>
		<g>
			<g>
				<g>
					<path style="fill:#DE9281;" d="M286.556,345.286c-0.236-1.061-0.484-2.119-0.74-3.175c-0.254-1.048-1.3-1.231-2.043-0.85
						c-0.123,0.026-0.247,0.063-0.373,0.125c-3.722,1.842-7.894,2.189-11.989,2.14c-4.335-0.052-8.674-0.395-13.001-0.633
						c-4.6-0.253-9.21-1-13.816-1.032c-1.451-0.01-4.228-0.169-4.006,2.042c0.201,1.999,2.852,2.496,4.44,2.839
						c2.344,0.506,4.698,0.852,7.009,1.518c1.574,0.453,3.111,1.003,4.62,1.628c-0.975,0.378-2.042,0.591-3.014,0.941
						c-0.919,0.33-1.913,0.703-2.54,1.488c-0.683,0.856-0.682,2-0.621,3.046c0.066,1.151,0.414,2.187,0.61,3.304
						c0.095,0.543-0.171,0.835-0.296,1.355c-0.121,0.501-0.064,1.008,0.069,1.5c0.142,0.521,0.301,0.783,0.163,1.318
						c-0.124,0.477-0.342,0.885-0.359,1.393c-0.032,0.935,0.432,1.92,1.323,2.29c0.632,0.262,1.192,0.223,1.72-0.233
						c1.138-0.984,3.182-2.127,2.986-3.85c0.152-0.02,0.303-0.038,0.455-0.053c0.472-0.056,0.929-0.121,1.387-0.256
						c0.827-0.245,1.612-0.64,2.393-1c3.727-1.718,7.452-3.44,11.177-5.159c3.726-1.72,7.452-3.44,11.177-5.159
						c1.443-0.666,3.542-1.187,3.681-3.083C287.027,346.923,286.729,346.066,286.556,345.286z"/>
					<path style="fill:#CBE2D0;" d="M411.102,383.058c2.177-8.879,1.06-18.254,0.535-27.266c-0.315-5.356-0.63-10.712-0.945-16.068
						c-0.067-1.203-1.327-1.614-2.148-1.241c-1.842-4.153-2.835-8.659-4.716-12.803c-1.556-3.427-3.838-6.196-6.769-8.172
						c-1.699-1.155-3.618-2.053-5.728-2.645c-6.024-1.699-12.612-1.327-18.722-0.363c-6.855,1.079-13.433,3.389-19.572,6.616
						c-11.552,6.072-21.49,14.836-33.415,20.278c-12.249,5.595-25.634,8.039-38.646,11.16c-6.397,1.528-12.927,3.093-19.008,5.614
						c-2.807,1.165-5.528,2.74-7.533,5.06c-2.024,2.339-3.294,5.155-4.296,8.048c-1.107,3.15-2.272,6.482-2.52,9.833
						c-0.248,3.351,0.974,6.454,2.645,9.299c2.883,4.917,6.339,9.566,10.072,13.901c0.602,0.706,1.212,1.394,1.833,2.081
						c4.392,4.879,9.242,10.015,15.552,12.316c2.52,0.917,5.146,1.327,7.8,1.432c4.907,0.773,9.9,0.516,14.846,0.076
						c6.215-0.554,12.402-0.936,18.645-1.031c6.186-0.095,12.354-0.172,18.512,0.525c6.33,0.716,12.583,1.346,18.96,1.26
						c2.196-0.029,4.392-0.124,6.587-0.248c2.272,0.697,4.544,1.394,6.864,1.919c3.552,0.783,7.151,1.002,10.779,0.764
						c3.504-0.229,6.988-0.735,10.473-1.222c1.814-0.258,3.628-0.525,5.442-0.811c1.499-0.239,3.026-0.439,4.449-0.964
						c3.093-1.155,4.411-3.647,4.544-6.845c0.134-3.007-0.487-6.015-1.652-8.774c-0.878-2.091-2.119-4.01-3.618-5.69
						C405.956,395.564,409.536,389.416,411.102,383.058z"/>
					<path style="fill:#ACCEB3;" d="M400.352,399.097c1.499,1.68,2.74,3.599,3.618,5.69c1.165,2.759,1.785,5.766,1.652,8.774
						c-0.134,3.198-1.451,5.69-4.544,6.845c-1.423,0.525-2.95,0.726-4.449,0.964c-1.814,0.286-3.628,0.554-5.442,0.811
						c-3.485,0.487-6.969,0.993-10.473,1.222c-3.628,0.239-7.227,0.019-10.779-0.764c-2.32-0.525-4.592-1.222-6.864-1.919
						c-2.196,0.124-4.392,0.22-6.587,0.248c-6.377,0.086-12.631-0.544-18.96-1.26c-6.158-0.697-12.325-0.621-18.512-0.525
						c-6.244,0.095-12.43,0.477-18.645,1.031c-4.945,0.439-9.939,0.697-14.846-0.076c-2.654-0.105-5.28-0.516-7.8-1.432
						c-6.311-2.301-11.16-7.437-15.552-12.316c-0.621-0.687-1.232-1.375-1.833-2.081c-0.611-3.847-0.258-7.781,1.337-11.352
						c2.816-6.291,8.888-10.502,15.094-13.5c6.196-2.998,12.707-6.291,19.171-8.602c23.056-8.22,44.795-22.445,63.478-38.093
						c6.234-5.222,12.392-10.874,20.001-13.757c5.633-2.129,11.724-2.52,17.643-1.499c2.931,1.976,5.213,4.745,6.769,8.172
						c1.881,4.143,2.874,8.65,4.716,12.803c0.821-0.372,2.081,0.038,2.148,1.241c0.315,5.356,0.63,10.712,0.945,16.068
						c0.525,9.012,1.642,18.388-0.535,27.266C409.536,389.416,405.956,395.564,400.352,399.097z"/>
					<path style="fill:#ACCEB3;" d="M318.403,332.073c-1.049-4.763-2.177-9.509-3.378-14.236c-0.006-0.025-0.018-0.045-0.025-0.069
						c1.003-1.406-0.942-3.328-2.087-1.933c-2.325,2.833-5.035,5.323-8.123,7.304c-1.505,0.965-3.141,1.815-4.38,3.133
						c-1.168,1.243-1.954,2.774-3.17,3.983c-4.431,4.412-11.01,5.755-15.513,10.143c-0.413,0.402-0.587,1.218-0.233,1.72
						c1.822,2.584,3.269,5.378,4.269,8.379c0.226,0.677,0.986,1.306,1.749,1.022c8.608-3.203,17.053-6.843,25.274-10.939
						c1.081-0.539,2.159-1.085,3.232-1.639c0.755-0.39,1.576-0.75,2.167-1.38C319.601,336.052,318.788,333.823,318.403,332.073z"/>
					<path style="fill:#CBE2D0;" d="M387.356,306.602c-3.014-3.75-7.018-6.538-11.301-8.664c-2.24-1.112-4.559-2.061-6.9-2.938
						c-2.305-0.864-4.762-1.974-7.187-2.423c-2.806-0.52-4.811,1.29-6.901,2.869c-2.31,1.745-4.594,3.524-6.848,5.341
						c-4.6,3.708-9.076,7.568-13.418,11.574c-2.22,2.048-4.523,4.077-6.533,6.335c-1.873,2.105-3.296,4.458-3.509,7.319
						c-0.001,0.016,0.002,0.03,0.001,0.046c-6.702,4.712-13.372,9.476-20.137,14.096c-3.339,2.281-6.754,4.185-10.637,5.365
						c-3.835,1.165-7.764,2.003-11.345,3.869c-0.379,0.197-0.588,0.483-0.675,0.793c-0.267,0.302-0.395,0.723-0.239,1.236
						c1.569,5.158,3.236,10.287,5.009,15.379c0.886,2.546,1.798,5.083,2.736,7.611c0.394,1.062,0.613,2.502,1.75,2.97
						c1.104,0.454,2.492,0.486,3.661,0.388c2.463-0.206,4.818-1.076,7.151-1.834c2.582-0.839,5.157-1.702,7.724-2.584
						c5.135-1.765,10.243-3.61,15.331-5.507c10.106-3.768,20.135-7.741,30.161-11.718c4.439-1.761,8.745-3.629,12.293-6.914
						c3.08-2.851,5.463-6.414,7.406-10.11c2.349-4.467,4.128-9.21,5.978-13.897c2.267-5.743,4.534-11.485,6.8-17.228
						C387.922,307.489,387.651,306.968,387.356,306.602z"/>
					<path style="fill:#ACCEB3;" d="M292.056,361.004c-0.587-2.415-1.197-4.837-2.25-7.094c-0.084-0.18-0.178-0.366-0.27-0.551
						c-0.024-0.07-0.061-0.137-0.1-0.203c-0.914-1.78-2.226-3.595-4.183-3.956c-0.513-0.217-1.061-0.323-1.672-0.21
						c-0.966,0.178-1.749,1.024-1.982,1.93c-0.22,0.853-0.032,1.705,0.142,2.547c0.083,0.398,0.175,0.795,0.263,1.192
						c0.177,3.921,0.674,7.858,2.045,11.531c1.719,4.607,4.568,8.797,7.013,13.027c0.887,1.534,2.874,0.755,3.046-0.821
						C294.753,372.508,293.436,366.685,292.056,361.004z"/>
					<path style="fill:#ACCEB3;" d="M418.748,348.684c-2.702-12.374-7.236-24.269-11.429-36.191
						c-1.96-5.573-3.754-11.242-5.99-16.712c-1.779-4.352-4.125-8.625-7.991-11.457c-4.58-3.355-10.525-3.396-15.924-2.663
						c-5.88,0.799-11.561,2.769-16.925,5.266c-10.103,4.705-19.07,11.591-27.175,19.173c-10.025,9.378-18.86,19.918-28.341,29.825
						c-0.964,1.007-0.038,2.413,1.022,2.458c0.294,0.414,0.794,0.651,1.435,0.436c4.682-1.574,9.617-1.421,14.48-1.839
						c4.66-0.401,8.984-1.573,13.073-3.877c4.166-2.347,7.958-5.394,11.628-8.44c3.701-3.072,7.245-6.333,10.615-9.766
						c1.677-1.708,3.271-3.489,4.908-5.234c1.393-1.485,2.946-3.08,4.921-3.753c0.891-0.304,2.035-0.51,2.891-0.011
						c0.871,0.508,1.548,1.611,2.132,2.403c1.174,1.589,2.216,3.275,3.134,5.024c1.087,3.133,1.461,6.574,1.491,9.852
						c0.065,7.191-1.497,14.352-4.54,20.866c-0.555,1.189,0.667,2.766,1.953,1.953c6.31-3.987,13.667-5.866,21.116-5.405
						c0.204,0.013,0.383-0.022,0.544-0.082c1.493,1.682,2.991,3.368,4.916,4.575c2.3,1.443,5.05,2.07,7.627,2.821l8.679,2.527
						C418.072,350.745,418.97,349.699,418.748,348.684z"/>
					<path style="fill:#CBE2D0;" d="M428.84,354.938c-0.36-4.595-0.587-9.224-1.166-13.797c-0.567-4.488-2.095-8.497-3.882-12.622
						c-1.767-4.08-3.259-8.261-4.405-12.558c-1.02-3.822-1.765-7.709-2.253-11.631c0.006-0.022,0.015-0.04,0.02-0.064
						c1.839-8.958,0.748-18.038,0.195-27.066c-0.276-4.499-0.214-8.941-0.022-13.44c0.179-4.212,0.014-8.375-1.704-12.289
						c-1.485-3.381-3.992-6.426-4.654-10.129c-0.664-3.715,1.159-7.552-0.169-11.209c-0.675-1.861-2.081-2.952-3.377-4.357
						c-1.416-1.534-2.389-3.425-3.391-5.24c-2.305-4.174-4.609-8.348-6.914-12.521c-2.27-4.11-4.539-8.221-6.809-12.331
						c-1.038-2.746-2.121-5.475-3.261-8.181c-1.81-4.298-3.755-8.554-6.63-12.259c-2.831-3.647-6.519-6.644-10.217-9.373
						c-1.806-1.333-3.763-2.509-5.946-3.105c-2.28-0.623-4.688-0.557-7.017-0.312c-4.273,0.451-8.489,1.359-12.56,2.738
						c-8.193,2.776-15.783,7.31-22.03,13.303c-0.867,0.832-1.772,1.687-2.219,2.828c-0.426,1.088-0.356,2.257-0.325,3.402
						c0.076,2.809,0.121,5.621,0.232,8.43c0.189,4.756,1.418,9.948,6.349,11.806c0.35,0.132,0.655,0.117,0.91,0.013
						c6.48,5.712,10.612,13.824,11.243,22.466c-0.082,0.134-0.15,0.287-0.188,0.473c-1.716,8.455-4.287,16.726-7.734,24.637
						c-3.424,7.861-7.239,15.5-10.106,23.597c-2.832,7.999-5.052,16.199-6.994,24.455c-0.974,4.138-1.878,8.292-2.756,12.452
						c-0.431,2.042-0.856,4.085-1.279,6.128c-0.176,0.85-0.24,2.058-0.798,2.763c-0.51,0.644-1.439,0.893-2.148,1.26
						c-5.916,3.061-7.27,11.516-3.145,16.527c0.514,0.625,1.49,0.47,2.025,0c7.637-6.701,18.596-7.167,27.082-12.373
						c2.138-1.312,4.133-2.926,5.709-4.886c1.942-2.416,3.209-5.236,4.895-7.817c3.526-5.396,9.617-8.621,14.888-12.04
						c3.177-2.061,6.354-4.121,9.531-6.182c1.456-0.944,2.912-1.889,4.369-2.833c1.399-0.907,2.803-1.923,4.364-2.536
						c5.953-2.339,11.579,3.346,14.804,7.667c3.756,5.032,6.089,10.904,7.019,17.098c0.496,3.306,0.704,6.652,1.339,9.938
						c0.589,3.049,1.632,5.96,3.138,8.677c3.29,5.936,8.273,10.681,12.526,15.899c4.788,5.876,8.754,12.403,11.879,19.303
						c0.585,1.29,2.787,0.687,2.678-0.707C429.572,364.271,429.206,359.604,428.84,354.938z"/>
					<path style="fill:#F5B9A6;" d="M351.93,219.077c-0.716-1.871-1.384-3.762-2.129-5.623c-1.193-2.95-2.578-5.814-4.544-8.325
						c-0.315-0.411-0.649-0.802-1.003-1.193c-0.095-0.105-0.191-0.21-0.286-0.315c-5.499-5.833-13.5-8.191-19.581-13.251
						c-0.115-0.153-0.267-0.267-0.439-0.344c-1.232-0.897-2.788,9.958-0.305,13.309c1.031,1.394,2.96,2.482,3.103,4.344
						c0.172,2.1-0.506,4.411-0.792,6.482c-0.248,1.757,0.181,3.275,2.1,3.704c0.716,0.162,1.442,0.038,2.167,0.105
						c1.002,0.095,0.907,0.468,1.127,1.356c0.191,0.783,0.535,1.461,1.203,1.938c0.267,0.201,0.725,0.267,0.955,0.477
						c0.153,0.143,0.086,0.678,0.2,1.05c0.22,0.726,0.783,1.232,1.432,1.585c0.773,0.42,0.993,0.43,1.06,1.375
						c0.124,1.718,0.201,3.265,1.575,4.516c0.325,0.296,0.687,0.554,1.079,0.754c1.012,0.525,2.186,0.716,3.313,0.439
						c1.824-0.458,3.523-1.871,4.993-2.998c0.143-0.105,0.286-0.22,0.42-0.334c1.489-1.165,2.883-2.444,4.143-3.857
						c0.621-0.697,1.184-1.403,1.146-2.396C352.827,220.92,352.273,219.956,351.93,219.077z"/>
					<path style="fill:#DE9281;" d="M339.037,224.428c-0.031-0.076-0.062-0.153-0.093-0.229c-0.087-0.152-0.207-0.271-0.359-0.359
						c-0.076-0.031-0.153-0.062-0.229-0.093c-0.161-0.041-0.323-0.041-0.484,0c-0.211,0.053-0.423,0.106-0.634,0.159
						c-0.127,0.028-0.237,0.085-0.331,0.171c-0.11,0.07-0.196,0.163-0.257,0.281c-0.067,0.109-0.103,0.226-0.109,0.35
						c-0.026,0.121-0.021,0.242,0.016,0.363c0.031,0.076,0.062,0.153,0.093,0.229c0.088,0.152,0.207,0.271,0.359,0.359
						c0.076,0.031,0.153,0.062,0.229,0.093c0.161,0.041,0.323,0.041,0.484,0l0.634-0.159c0.127-0.028,0.237-0.085,0.331-0.171
						c0.11-0.07,0.195-0.163,0.257-0.281c0.067-0.109,0.103-0.226,0.109-0.35C339.079,224.67,339.074,224.549,339.037,224.428z"/>
					<path style="fill:#DE9281;" d="M341.824,201.234c-2.512-2.233-5.413-3.777-8.411-5.248c-3.096-1.519-6.214-3.063-8.522-5.701
						c-0.81-0.925-2.156,0.429-1.35,1.35c4.317,4.935,11.136,6.195,16.109,10.248c4.992,4.069,8.349,10.044,9.101,16.452
						c0.142,1.208,2.052,1.22,1.909,0C349.893,211.788,346.765,205.628,341.824,201.234z"/>
					<path style="fill:#F5B9A6;" d="M288.645,357.903c-0.837-2.345-1.918-4.589-3.071-6.793c-0.255-0.786-1.113-1.394-2.036-0.86
						c-3.636,2.1-7.769,2.861-11.764,3.988c-1.807,0.51-3.789,1.019-5.331,2.132c-0.75,0.541-1.206,1.19-1.762,1.917
						c-0.579,0.757-1.303,1.149-2.092,1.66c-3.358,2.174-5.764,5.386-8.66,8.083c-1.553,1.447-3.255,2.659-4.941,3.939
						c-0.667,0.506-1.264,1.088-1.438,1.948c-0.099,0.489,0.098,0.996-0.034,1.466c-0.113,0.403-0.491,0.758-0.759,1.06
						c-0.987,1.114-0.02,2.611,1.376,2.398c2.154-0.329,4.137-2,5.95-3.113c0.338-0.207,0.676-0.415,1.014-0.622
						c-0.027,0.118-0.043,0.241-0.045,0.369c-0.052,2.571,2.946,1.878,4.421,1.363c1.974-0.689,3.852-1.623,5.571-2.815
						c1.643-1.14,3.159-2.469,4.889-3.481c1.878-1.1,3.901-1.38,6.003-1.788c2.256-0.438,4.434-1.17,6.562-2.029
						c1.973-0.796,4.199-1.563,6-2.702C290.639,362.669,289.314,359.776,288.645,357.903z"/>
				</g>
				<path style="fill:#DE9281;" d="M334.815,213.5c-0.307-0.865-0.892-1.549-1.524-2.198c-0.349-0.358-1.005-0.378-1.35,0
					c-0.353,0.386-0.374,0.967,0,1.35c0.237,0.243,0.462,0.492,0.681,0.751c0.024,0.034,0.049,0.068,0.072,0.103
					c0.046,0.068,0.089,0.136,0.13,0.207c0.041,0.07,0.075,0.145,0.116,0.215c0.015,0.025,0.016,0.024,0.022,0.032
					c0.003,0.01,0,0.007,0.006,0.024c0.027,0.086,0.09,0.239,0.099,0.355c0,0.007,0,0.001,0.001,0.016
					c0.003,0.037,0.005,0.073,0.006,0.11c0,0.013,0.004,0.093,0.003,0.153c-0.002,0.011-0.002,0.011-0.007,0.04
					c-0.005,0.024-0.01,0.047-0.015,0.07c-0.007,0.03-0.013,0.057-0.017,0.08c-0.023,0.053-0.056,0.103-0.08,0.154
					c-0.006,0.013-0.002,0.008-0.005,0.016c-0.01,0.009-0.01,0.006-0.03,0.026c-0.022,0.024-0.046,0.047-0.07,0.07
					c-0.015,0.013-0.014,0.013-0.022,0.02c-0.02,0.013-0.04,0.026-0.061,0.038c-0.056,0.034-0.114,0.064-0.173,0.093
					c-0.015,0.007-0.022,0.011-0.032,0.016c-0.006,0.002-0.008,0.002-0.016,0.004c-0.267,0.077-0.529,0.145-0.804,0.192
					c-0.659,0.112-1.31,0.207-1.953,0.401c-0.478,0.144-0.837,0.661-0.681,1.166c0.148,0.48,0.655,0.835,1.166,0.681
					c1.475-0.445,3.299-0.282,4.281-1.69C335.047,215.294,335.096,214.293,334.815,213.5z"/>
				<path style="fill:#4B1927;" d="M336.888,203.285c-0.283-0.259-0.806-0.41-1.147-0.155c-0.616,0.46-1.272,0.865-1.962,1.205
					c-0.164,0.081-0.33,0.158-0.498,0.232c-0.079,0.035-0.159,0.069-0.239,0.102c-0.052,0.02-0.122,0.046-0.142,0.054
					c-0.366,0.138-0.737,0.257-1.114,0.36c-0.482,0.132-0.835,0.669-0.681,1.166c0.151,0.49,0.651,0.823,1.166,0.681
					c0.24-0.066,0.475-0.151,0.712-0.23c0.128,0.224,0.31,0.395,0.572,0.501c0.268,0.109,0.564,0.111,0.842,0.036
					c0.46-0.124,0.837-0.471,1.176-0.79c0.604-0.569,1.113-1.265,1.471-2.014C337.219,204.063,337.21,203.579,336.888,203.285z"/>
				<path style="fill:#4B1927;" d="M331.747,200.118c-0.153-0.496-0.649-0.815-1.166-0.682c-1.211,0.313-2.32,0.926-3.247,1.764
					c-0.371,0.335-0.368,1.014,0,1.35c0.398,0.364,0.953,0.359,1.35,0c0.102-0.092,0.209-0.178,0.316-0.264
					c0.413-0.303,0.857-0.557,1.327-0.76c0.242-0.093,0.486-0.178,0.737-0.243C331.55,201.159,331.899,200.609,331.747,200.118z"/>
				<path style="fill:#DE9281;" d="M352.865,221.875c0.038,0.993-0.525,1.699-1.146,2.396c-1.26,1.413-2.654,2.692-4.143,3.857
					c-0.745-4.363-1.375-8.745-1.423-13.156c-0.019-2.597,0.162-5.213-0.22-7.79c-0.086-0.544-0.391-1.279-0.678-2.053
					c1.967,2.511,3.351,5.375,4.544,8.325c0.745,1.862,1.413,3.752,2.129,5.623C352.273,219.956,352.827,220.92,352.865,221.875z"/>
			</g>
			<path style="fill:#ACCEB3;" d="M386.814,236.286c-0.117-0.206-0.352-0.401-0.588-0.452c-0.237-0.051-0.502-0.04-0.714,0.093
				c-0.228,0.144-0.362,0.335-0.452,0.588c-0.264,0.737-0.528,1.474-0.792,2.212c-0.077,0.214-0.015,0.523,0.093,0.714
				c0.117,0.206,0.352,0.401,0.588,0.452c0.237,0.051,0.502,0.04,0.714-0.093c0.228-0.143,0.362-0.335,0.452-0.588
				c0.264-0.737,0.528-1.474,0.792-2.212C386.984,236.786,386.923,236.476,386.814,236.286z"/>
			<path style="fill:#ACCEB3;" d="M385.911,266.477c-0.208-4.177-1.218-8.158-2.011-12.244c-0.765-3.943-1.091-8.183,0.801-11.871
				c0.559-1.089-1.098-2.041-1.661-0.943c-3.888,7.576,0.248,15.875,0.872,23.687c0.702,8.783-1.186,17.488-3.046,26.018
				c-0.261,1.197,1.584,1.69,1.847,0.484C384.511,283.369,386.334,274.962,385.911,266.477z"/>
			<path style="fill:#ACCEB3;" d="M378.336,238.329c-13.473,7.423-18.53,23.589-23.053,37.259
				c-1.488,4.496-2.866,9.028-4.145,13.588c-0.332,1.183,1.515,1.67,1.847,0.484c2.155-7.687,4.6-15.292,7.353-22.785
				c2.518-6.854,5.405-13.782,10.118-19.45c2.485-2.988,5.411-5.556,8.822-7.435C380.357,239.395,379.412,237.736,378.336,238.329z"
				/>
			<path style="fill:#ACCEB3;" d="M350.575,293.516c-0.469-0.101-1.076,0.155-1.166,0.682c-0.247,1.455-0.641,2.88-1.178,4.254
				c-0.182,0.467,0.218,1.066,0.682,1.166c0.553,0.12,0.971-0.182,1.166-0.681c0.537-1.375,0.932-2.799,1.178-4.254
				C351.339,294.191,351.109,293.632,350.575,293.516z"/>
			<path style="fill:#ACCEB3;" d="M352.332,262.782c-3.05,7.494-10.599,11.199-17.218,14.992c-1.483,0.85-3.376,1.806-4.902,3.056
				c-1.287-0.531-2.489-1.327-3.545-2.503c-0.822-0.915-2.17,0.438-1.35,1.35c1.04,1.157,2.198,2.01,3.438,2.617
				c-0.585,0.749-1.01,1.587-1.164,2.547c-0.245,1.524,0.409,2.903,1.149,4.189c0.404,0.703,0.84,1.421,1.011,2.138
				c-1.267,0.159-2.543,0.254-3.823,0.284c-1.228,0.029-1.232,1.938,0,1.909c1.136-0.027,2.266-0.114,3.39-0.237
				c-0.06,0.074-0.122,0.148-0.195,0.221c-1.294,1.316-3.003,2.052-4.211,3.502c-1.269,1.522-2.126,3.311-2.516,5.254
				c-0.241,1.199,1.604,1.694,1.847,0.484c0.359-1.787,1.132-3.445,2.374-4.792c1.101-1.194,2.561-1.89,3.737-2.988
				c0.604-0.564,1.042-1.248,1.264-1.999c3.476-0.589,6.866-1.632,10.089-3.119c1.117-0.516,0.165-2.172-0.943-1.661
				c-2.898,1.337-5.953,2.289-9.082,2.847c-0.307-1.387-1.226-2.519-1.823-3.783c-0.749-1.589-0.227-2.935,0.824-4.08
				c5.009,1.428,10.931-0.294,15.741-1.989c1.153-0.407,0.675-2.256-0.484-1.847c-4.035,1.423-9.05,3.06-13.437,2.311
				c1.36-0.924,2.89-1.672,3.932-2.265c3.434-1.956,6.933-3.818,10.071-6.239c3.179-2.453,5.96-5.499,7.489-9.256
				C354.449,262.604,352.796,261.644,352.332,262.782z"/>
			<path style="fill:#ACCEB3;" d="M375.001,202.273c-1.404,5.923-3.008,11.798-4.824,17.608c-0.896,2.868-1.842,5.721-2.839,8.556
				c-0.961,2.735-1.831,5.359-4.019,7.371c-1.792,1.648-3.899,2.925-5.518,4.762c-1.487,1.689-2.595,3.653-3.504,5.702
				c-1.892,4.265-3.013,9.022-5.897,12.779c-3.38,4.402-8.938,6.767-14.439,6.384c-1.228-0.086-1.221,1.824,0,1.909
				c4.905,0.342,9.804-1.348,13.52-4.558c3.793-3.276,5.501-7.947,7.236-12.499c0.87-2.282,1.789-4.568,3.124-6.625
				c1.416-2.183,3.383-3.691,5.391-5.291c2.15-1.714,3.722-3.585,4.752-6.155c1.12-2.796,2.048-5.686,2.985-8.548
				c2.253-6.884,4.209-13.863,5.88-20.911C377.131,201.564,375.286,201.073,375.001,202.273z"/>
			<path style="fill:#ACCEB3;" d="M377.79,194.993c-0.165-0.166-0.437-0.29-0.675-0.28c-0.247,0.01-0.503,0.092-0.675,0.28
				c-0.181,0.198-0.25,0.41-0.28,0.675c-0.005,0.049-0.012,0.098-0.018,0.148c-0.118,0.886-0.297,1.763-0.538,2.624
				c-0.135,0.481,0.183,1.058,0.681,1.166c0.512,0.111,1.022-0.167,1.166-0.682c0.299-1.068,0.494-2.155,0.617-3.256
				C378.095,195.441,377.944,195.147,377.79,194.993z"/>
			<path style="fill:#ACCEB3;" d="M361.011,187.294c-0.02-0.256-0.093-0.488-0.28-0.675c-0.165-0.165-0.437-0.29-0.675-0.28
				c-0.247,0.01-0.503,0.092-0.675,0.28c-0.163,0.179-0.299,0.425-0.28,0.675c0.045,0.584,0.029,1.169-0.037,1.751
				c-0.026,0.179-0.053,0.358-0.09,0.535c-0.05,0.244-0.032,0.493,0.093,0.714c0.117,0.206,0.352,0.401,0.588,0.452
				c0.483,0.104,1.059-0.158,1.166-0.681C361.008,189.155,361.082,188.22,361.011,187.294z"/>
			<path style="fill:#ACCEB3;" d="M359.719,211.219c-1.171,3.181-2.361,6.379-4.089,9.308c-0.832,1.412-1.787,2.74-2.912,3.934
				c1.535-3.893,2.837-7.878,3.803-11.984c1.102-4.684,1.777-9.453,2.451-14.213c0.17-1.202-1.675-1.702-1.847-0.484
				c-1.152,8.14-2.533,16.145-5.375,23.891c-2.738,7.46-6.423,14.537-10.379,21.414c-2.223,3.864-4.542,7.672-6.863,11.478
				c-0.639,1.049,1.02,1.993,1.661,0.943c5.109-8.378,10.279-16.889,14.35-25.856c0.328,0.047,0.662-0.081,0.845-0.487
				c0.687-1.523,2.003-2.551,3.092-3.772c1.138-1.276,2.126-2.687,2.979-4.167c1.731-3.003,2.937-6.276,4.131-9.519
				C361.991,210.552,360.141,210.073,359.719,211.219z"/>
			<path style="fill:#ACCEB3;" d="M344.022,199.712c-1.813-4.752-3.626-9.504-5.439-14.256c-0.434-1.139-2.285-0.663-1.847,0.484
				c1.813,4.752,3.626,9.504,5.439,14.256C342.609,201.335,344.46,200.86,344.022,199.712z"/>
			<path style="fill:#ACCEB3;" d="M336.48,180.742c-0.044-0.166-0.127-0.311-0.249-0.433c-0.045-0.035-0.08-0.079-0.119-0.12
				c-0.008-0.014-0.017-0.028-0.024-0.043c-0.015-0.052-0.034-0.103-0.041-0.157l0.014,0.109c-0.003-0.006-0.007-0.011-0.01-0.018
				c-0.009-0.088-0.015-0.177-0.056-0.257c-0.038-0.123-0.105-0.229-0.202-0.318c-0.089-0.096-0.195-0.164-0.318-0.202
				c-0.111-0.056-0.23-0.082-0.357-0.078c-0.081,0.01-0.161,0.021-0.242,0.031c-0.166,0.044-0.311,0.127-0.433,0.249
				c-0.052,0.068-0.104,0.136-0.155,0.204c-0.082,0.146-0.124,0.304-0.124,0.471c0.01,0.118,0.024,0.237,0.046,0.354
				c0.007,0.039,0.017,0.078,0.028,0.116c0.034,0.113,0.083,0.222,0.129,0.33c0.016,0.039,0.033,0.077,0.053,0.114
				c0.019,0.035,0.04,0.069,0.062,0.102c0.068,0.1,0.143,0.196,0.22,0.289c0.053,0.064,0.114,0.122,0.181,0.174
				c0.089,0.096,0.195,0.164,0.318,0.202c0.111,0.056,0.23,0.082,0.357,0.078c0.127,0.005,0.246-0.021,0.357-0.078
				c0.123-0.038,0.229-0.105,0.318-0.202c0.052-0.068,0.104-0.136,0.155-0.204c0.082-0.146,0.124-0.304,0.124-0.472
				C336.501,180.903,336.49,180.823,336.48,180.742z"/>
			<path style="fill:#ACCEB3;" d="M340.15,173.393c-0.835-0.902-2.184,0.449-1.35,1.35c3.933,4.249,6.464,9.608,7.319,15.329
				c0.182,1.216,2.027,0.719,1.847-0.484C347.063,183.542,344.299,177.876,340.15,173.393z"/>
			<path style="fill:#ACCEB3;" d="M348.205,194.563c-0.041-0.514-0.41-0.955-0.955-0.955c-0.484,0-0.996,0.438-0.955,0.955
				c0.228,2.839,0.211,5.69-0.05,8.527c-0.047,0.514,0.472,0.955,0.955,0.955c0.555,0,0.907-0.44,0.955-0.955
				C348.416,200.254,348.432,197.402,348.205,194.563z"/>
			<path style="fill:#ACCEB3;" d="M426.287,355.087c-0.005-0.006-0.009-0.012-0.013-0.018c0.044-0.162,0.066-0.333,0.042-0.51
				c-0.458-3.452-1.283-6.842-2.46-10.118c-0.174-0.485-0.636-0.82-1.166-0.682c-0.465,0.122-0.857,0.678-0.682,1.166
				c0.807,2.244,1.434,4.544,1.905,6.878c-2.647-3.787-4.973-7.716-6.246-12.256c-1.697-6.051-2.815-12.317-3.901-18.501
				c-0.213-1.213-2.058-0.718-1.847,0.484c1.11,6.325,2.232,12.759,4.023,18.933c1.698,5.849,5.097,10.731,8.683,15.568
				C425.35,357.006,427.017,356.072,426.287,355.087z"/>
			<path style="fill:#ACCEB3;" d="M407.859,240.477c-3.576,4.947-8.722,8.704-14.508,10.635c-1.162,0.388-0.683,2.237,0.484,1.847
				c6.313-2.106,11.788-6.149,15.685-11.539C410.238,240.427,408.574,239.489,407.859,240.477z"/>
			<path style="fill:#ACCEB3;" d="M410.791,250.102c-0.397-0.397-0.948-0.326-1.35,0c-2.546,2.064-5.63,3.376-8.861,3.881
				c-0.51,0.08-0.803,0.703-0.681,1.166c0.142,0.542,0.655,0.761,1.166,0.682c3.578-0.56,6.919-2.103,9.727-4.378
				C411.192,251.127,411.128,250.44,410.791,250.102z"/>
			<path style="fill:#ACCEB3;" d="M388.688,226.327c-1.645-0.314-3.316-0.453-4.99-0.334c-1.223,0.087-3.853,1.058-4.549-0.337
				c-0.55-1.102-2.208-0.153-1.661,0.943c0.819,1.642,2.649,1.794,4.268,1.556c1.833-0.27,3.615-0.346,5.429-0.121
				c-1.264,2.807-5.099,4.264-7.574,5.632l-11.642,6.437c-1.077,0.596-0.132,2.255,0.943,1.661
				c4.228-2.338,8.456-4.676,12.684-7.014c3.038-1.68,7.03-3.47,7.773-7.258C389.464,227.014,389.221,226.429,388.688,226.327z"/>
			<path style="fill:#ACCEB3;" d="M329.939,311.098c-2.028,2.833-4.555,5.331-7.425,7.308c-1.261,0.869-2.594,1.631-3.969,2.305
				c0.361-1.074,0.749-2.138,1.109-3.191c1.24-3.615,2.48-7.229,3.719-10.844c0.399-1.162-1.45-1.643-1.847-0.484l-3.86,11.253
				c-0.481,1.403-0.999,2.824-1.426,4.264c-1.054,0.331-2.158,0.435-3.114-0.174c-1.036-0.66-1.979,1.001-0.943,1.661
				c1.092,0.695,2.324,0.785,3.534,0.576c-0.332,1.572-0.492,3.168-0.292,4.794c0.148,1.206,2.059,1.219,1.909,0
				c-0.227-1.844,0.026-3.649,0.479-5.422c1.805-0.733,3.534-1.675,5.157-2.749c3.376-2.234,6.275-5.065,8.629-8.353
				C332.313,311.044,330.649,310.106,329.939,311.098z"/>
			<path style="fill:#ACCEB3;" d="M347.344,342.137c-3.456,5.542-9.098,9.02-14.934,11.636c-6.532,2.927-13.309,5.362-19.967,7.986
				c-1.145,0.451-0.304,2.166,0.833,1.719c6.922-2.727,14.002-5.222,20.757-8.345c5.847-2.703,11.437-6.382,14.907-11.946
				C349.588,342.146,347.996,341.09,347.344,342.137z"/>
			<path style="fill:#ACCEB3;" d="M297.542,349.466c-0.912-1.012-2.005-1.876-3.193-2.541c-0.435-0.244-1.066-0.102-1.302,0.359
				c-0.234,0.458-0.108,1.041,0.359,1.302c0.454,0.254,0.886,0.543,1.303,0.854c0.531,0.418,1.029,0.875,1.482,1.377
				c0.335,0.371,1.014,0.367,1.35,0C297.907,350.418,297.901,349.864,297.542,349.466z"/>
			<path style="fill:#ACCEB3;" d="M299.66,354.816c-1.23,0-1.231,1.909,0,1.909C300.89,356.726,300.891,354.816,299.66,354.816z"/>
			<path style="fill:#ACCEB3;" d="M301.678,359.779c-0.592-1.079-2.252-0.134-1.661,0.943c2.208,4.023,2.264,8.739,1.945,13.203
				c-0.088,1.228,1.822,1.221,1.909,0C304.215,369.122,304.048,364.097,301.678,359.779z"/>
			<path style="fill:#ACCEB3;" d="M309.649,364.267c-0.162-0.524-0.641-0.78-1.166-0.681c-1.717,0.322-3.398,0.807-5.023,1.448
				c-0.463,0.183-0.846,0.633-0.681,1.166c0.137,0.445,0.67,0.877,1.166,0.682c1.625-0.641,3.306-1.126,5.023-1.448
				C309.459,365.34,309.793,364.736,309.649,364.267z"/>
		</g>
	</g>
	<path style="fill:#FFFFFF;" d="M281.08,200.335c-9.09,21.26-43.92,26.16-56.57,2.76c-13.92-25.75,7.22-50.42,29.06-49.32
		c-11.72,6.7-18.98,22.08-10.41,37.94C251.03,206.275,269.12,207.785,281.08,200.335z"/>
</g>
</svg>
