<?xml version="1.0" encoding="utf-8"?>
<!-- Generator: Adobe Illustrator 27.5.0, SVG Export Plug-In . SVG Version: 6.00 Build 0)  -->
<svg version="1.1" xmlns="http://www.w3.org/2000/svg" xmlns:xlink="http://www.w3.org/1999/xlink" x="0px" y="0px"
	 viewBox="0 0 500 500" style="enable-background:new 0 0 500 500;" xml:space="preserve">
<g id="BACKGROUND">
	<rect transform="matrix(-1.836970e-16 1 -1 -1.836970e-16 500 5.684342e-14)" style="fill:#FFFAF5;" width="500" height="500"/>
</g>
<g id="OBJECTS">
	<g>
		<path style="fill:#FFF6CF;" d="M456.715,285.486c-1.328-1.472-2.652-2.88-3.97-4.238c-25.11-25.87-42.682-30.358-39.711-76.793
			c4.478-70.004-22.076-103.325-58.754-114.377c-39.658-11.95-80.717,27.062-112.752,15.346
			c-34.377-12.572-59.825-31.988-98.046-12.572c-36.397,18.489-36.729,76.905-54.075,97.545
			c-17.346,20.64-60.16,41.127-60.16,77.985c0,24.15,2.219,51.442,42.709,72.96c32.304,17.167,10.812,57.07,10.812,57.07
			c0.318,6.099,18.139,12.033,20.313,16.671h246.052c14.536-18.504,23.59-14.592,58.7-17.213
			C477,392.706,483.329,314.988,456.715,285.486z"/>
		<circle style="fill:#FFFAF5;" cx="211.7" cy="248.047" r="57.025"/>
		<g>
			<defs>
				<path id="SVGID_1_" d="M456.715,285.486c-1.328-1.472-2.652-2.88-3.97-4.238c-25.11-25.87-42.682-30.358-39.711-76.793
					c4.478-70.004-22.076-103.325-58.754-114.377c-39.658-11.95-80.717,27.062-112.752,15.346
					c-34.377-12.572-59.825-31.988-98.046-12.572c-36.397,18.489-36.729,76.905-54.075,97.545
					c-17.346,20.64-60.16,41.127-60.16,77.985c0,24.15,2.219,51.442,42.709,72.96c32.304,17.167,10.812,57.07,10.812,57.07
					c0.318,6.099,18.139,12.033,20.313,16.671h246.052c14.536-18.504,23.59-14.592,58.7-17.213
					C477,392.706,483.329,314.988,456.715,285.486z"/>
			</defs>
			<clipPath id="SVGID_00000081613778716047758200000009819704184848414387_">
				<use xlink:href="#SVGID_1_"  style="overflow:visible;"/>
			</clipPath>
			<g style="clip-path:url(#SVGID_00000081613778716047758200000009819704184848414387_);">
				<g>
					<path style="fill:#E89191;" d="M399.277,221.005c-1.064-5.318-12.926-5.836-20.169-12.765v-1.354
						c1.459-0.243,2.572-1.507,2.572-3.034c0-1.385-0.914-2.556-2.172-2.943c0.807-0.351,1.373-1.153,1.373-2.09
						c0-1.084-0.758-1.987-1.772-2.218v-8.145c2.617-0.255,4.662-2.46,4.662-5.144c0-2.684-2.045-4.889-4.662-5.144V33.143h-1.085
						v145.033c-2.583,0.288-4.592,2.476-4.592,5.136c0,2.66,2.009,4.848,4.592,5.136v8.175c-0.977,0.257-1.702,1.138-1.702,2.196
						c0,0.936,0.566,1.739,1.373,2.09c-1.258,0.387-2.173,1.558-2.173,2.943c0,1.503,1.077,2.753,2.502,3.023v1.43
						c-7.249,6.866-19.038,7.399-20.099,12.7c-1.088,5.441,3.7,6.312,3.7,6.312h-0.03v2.625h-0.16c-0.758,0-1.372,0.614-1.372,1.372
						v0.252c0,0.758,0.614,1.372,1.372,1.372h0.16v39.987h-0.16c-0.758,0-1.372,0.614-1.372,1.372v0.252
						c0,0.758,0.614,1.372,1.372,1.372h0.16v1.638l17.006,10.221l17.006-10.221v-1.638h0.16c0.758,0,1.372-0.614,1.372-1.372v-0.252
						c0-0.758-0.614-1.372-1.372-1.372h-0.16v-39.987h0.16c0.758,0,1.372-0.614,1.372-1.372v-0.252c0-0.758-0.614-1.372-1.372-1.372
						h-0.16v-2.625h-0.03C395.578,227.316,400.366,226.446,399.277,221.005z M368.485,265.464c-0.164,1.702-2.03,0.977-3.111,3.292
						c-1.081-2.315-2.947-1.59-3.111-3.292c-0.094-0.976,0.103-1.481,0.288-1.735v-21.793c-0.185-0.254-0.382-0.759-0.288-1.735
						c0.164-1.702,2.03-0.977,3.111-3.292c1.081,2.315,2.947,1.589,3.111,3.292c0.094,0.976-0.103,1.481-0.288,1.735v21.793
						C368.382,263.982,368.579,264.488,368.485,265.464z M372.133,265.464c-0.195-0.976,0.214-1.481,0.599-1.735v-21.793
						c-0.385-0.254-0.794-0.759-0.599-1.735c0.34-1.702,4.221-0.977,6.468-3.292c2.247,2.315,6.127,1.589,6.468,3.292
						c0.195,0.976-0.214,1.481-0.599,1.735v21.793c0.385,0.254,0.794,0.759,0.599,1.735c-0.34,1.702-4.221,0.977-6.468,3.292
						C376.354,266.44,372.474,267.166,372.133,265.464z M394.939,265.464c-0.164,1.702-2.03,0.977-3.111,3.292
						c-1.08-2.315-2.947-1.59-3.111-3.292c-0.094-0.976,0.103-1.481,0.288-1.735v-21.793c-0.185-0.254-0.382-0.759-0.288-1.735
						c0.164-1.702,2.03-0.977,3.111-3.292c1.081,2.315,2.947,1.589,3.111,3.292c0.094,0.976-0.103,1.481-0.288,1.735v21.793
						C394.836,263.982,395.033,264.488,394.939,265.464z"/>
					<path style="fill:#E89191;" d="M380.998,288.486c0,1.324-1.073,2.397-2.397,2.397s-2.397-1.073-2.397-2.397
						c0-1.324,1.073-2.397,2.397-2.397S380.998,287.163,380.998,288.486z"/>
					<path style="fill:#E89191;" d="M382.218,294.22c0,1.997-1.619,3.616-3.616,3.616c-1.997,0-3.616-1.619-3.616-3.616
						c0-1.997,1.619-3.617,3.616-3.617C380.598,290.603,382.218,292.223,382.218,294.22z"/>
					<path style="fill:#E89191;" d="M380.523,299.539c0,1.061-0.861,1.922-1.922,1.922s-1.922-0.861-1.922-1.922
						c0-1.061,0.86-1.922,1.922-1.922S380.523,298.477,380.523,299.539z"/>
				</g>
				<g>
					<path style="fill:#E89191;" d="M324.859,171.055c-1.064-5.318-12.926-5.836-20.169-12.765v-1.354
						c1.459-0.243,2.572-1.507,2.572-3.034c0-1.385-0.914-2.556-2.172-2.943c0.807-0.351,1.372-1.153,1.372-2.09
						c0-1.084-0.758-1.987-1.772-2.218v-8.145c2.617-0.255,4.662-2.46,4.662-5.144c0-2.684-2.045-4.889-4.662-5.144V-16.807h-1.085
						v145.033c-2.583,0.288-4.592,2.476-4.592,5.136c0,2.66,2.009,4.848,4.592,5.136v8.175c-0.977,0.257-1.702,1.138-1.702,2.196
						c0,0.936,0.565,1.739,1.373,2.09c-1.258,0.387-2.172,1.558-2.172,2.943c0,1.503,1.077,2.753,2.502,3.023v1.43
						c-7.249,6.866-19.038,7.399-20.099,12.7c-1.088,5.441,3.7,6.312,3.7,6.312h-0.03v2.625h-0.16c-0.758,0-1.372,0.614-1.372,1.372
						v0.252c0,0.758,0.614,1.372,1.372,1.372h0.16v39.987h-0.16c-0.758,0-1.372,0.614-1.372,1.372v0.252
						c0,0.758,0.614,1.372,1.372,1.372h0.16v1.638l17.006,10.221l17.006-10.221v-1.638h0.16c0.758,0,1.372-0.614,1.372-1.372v-0.252
						c0-0.758-0.614-1.372-1.372-1.372h-0.16v-39.987h0.16c0.758,0,1.372-0.614,1.372-1.372v-0.252c0-0.758-0.614-1.372-1.372-1.372
						h-0.16v-2.625h-0.03C321.159,177.367,325.947,176.496,324.859,171.055z M294.066,215.514c-0.164,1.702-2.03,0.977-3.111,3.292
						c-1.081-2.315-2.947-1.59-3.111-3.292c-0.094-0.976,0.103-1.481,0.288-1.735v-21.793c-0.185-0.254-0.382-0.759-0.288-1.735
						c0.164-1.702,2.03-0.977,3.111-3.292c1.081,2.315,2.947,1.589,3.111,3.292c0.094,0.976-0.103,1.481-0.288,1.735v21.793
						C293.963,214.033,294.16,214.538,294.066,215.514z M297.715,215.514c-0.195-0.976,0.214-1.481,0.599-1.735v-21.793
						c-0.385-0.254-0.794-0.759-0.599-1.735c0.34-1.702,4.221-0.977,6.468-3.292c2.247,2.315,6.127,1.589,6.468,3.292
						c0.195,0.976-0.214,1.481-0.599,1.735v21.793c0.384,0.254,0.794,0.759,0.599,1.735c-0.34,1.702-4.221,0.977-6.468,3.292
						C301.936,216.491,298.055,217.216,297.715,215.514z M320.52,215.514c-0.164,1.702-2.03,0.977-3.111,3.292
						c-1.081-2.315-2.947-1.59-3.111-3.292c-0.094-0.976,0.103-1.481,0.288-1.735v-21.793c-0.185-0.254-0.382-0.759-0.288-1.735
						c0.164-1.702,2.03-0.977,3.111-3.292c1.08,2.315,2.947,1.589,3.111,3.292c0.094,0.976-0.103,1.481-0.288,1.735v21.793
						C320.417,214.033,320.614,214.538,320.52,215.514z"/>
					<path style="fill:#E89191;" d="M306.579,238.537c0,1.324-1.073,2.396-2.397,2.396c-1.324,0-2.397-1.073-2.397-2.396
						c0-1.324,1.073-2.397,2.397-2.397C305.506,236.14,306.579,237.213,306.579,238.537z"/>
					<path style="fill:#E89191;" d="M307.799,244.27c0,1.997-1.619,3.616-3.616,3.616c-1.997,0-3.616-1.619-3.616-3.616
						s1.619-3.617,3.616-3.617C306.18,240.654,307.799,242.273,307.799,244.27z"/>
					<path style="fill:#E89191;" d="M306.104,249.589c0,1.061-0.861,1.922-1.922,1.922c-1.061,0-1.922-0.861-1.922-1.922
						c0-1.061,0.861-1.922,1.922-1.922C305.244,247.667,306.104,248.528,306.104,249.589z"/>
				</g>
			</g>
		</g>
	</g>
	<path style="fill:#F4E7B0;" d="M427,371c-27-13-50-30-82-29c-13,1-23-13-35-20c-2-1-6-1-8,0c-35,32-82,26-124,20c-23-4-41-20-62-29
		c-9-4-20-7-30-4c-12.703,3.557-22.826,12.017-33.251,19.482c5.183,4.454,11.498,8.761,19.207,12.859
		c32.304,17.167,10.812,57.07,10.812,57.07c0.318,6.099,18.139,12.033,20.313,16.671h246.052
		c14.536-18.504,23.59-14.592,58.7-17.213c23.999-1.792,40.427-12.322,50.544-26.538C447.471,373.552,436.856,375.312,427,371z"/>
	<g>
		<polygon style="fill:#D16969;" points="82.767,398.411 407.833,398.411 460.772,434.338 460.772,434.88 39.228,434.88 
			39.228,434.338 		"/>
		<polygon style="fill:#E89191;" points="82.767,397.869 407.833,397.869 460.772,434.338 39.228,434.338 		"/>
		<polygon style="fill:#D16969;" points="92.152,399.253 396.422,399.253 433.233,429.27 63.536,429.27 		"/>
		<path style="fill:#C95555;" d="M100.75,406.316c0,0-11.333,11-12.167,14.167c-0.833,3.167,9.193,2,16.68,2
			c7.487,0,106.41,1.667,139.198,2.333c32.788,0.667,63.455-0.667,72.455-5.333c9-4.667-0.586-14.415-15.384-16.581
			C286.735,400.737,100.75,406.316,100.75,406.316z"/>
	</g>
	<g>
		<path style="fill:#AA3333;" d="M169.013,403.456c0,0-42.166,4.862-53.098,0c-10.932-4.862-10.714-18.918-9.652-29.459
			s13.166-26.549,18.241-27.33c5.075-0.781,23.426,11.322,24.597,11.713C150.272,358.77,169.013,403.456,169.013,403.456z"/>
		<path style="fill:#D1864E;" d="M106.292,411.363c0,0-0.894,1.798,0.521,2.245c1.415,0.447,1.676-1.006,2.943-2.458
			c1.266-1.453,4.507-1.378,4.507-1.378s-3.793-3.329-4.582-3.149C108.893,406.802,106.292,411.363,106.292,411.363z"/>
		<path style="fill:#D89055;" d="M102.493,413.161c0,0,0.894,1.937,2.682,1.415c1.788-0.521,0.521-1.49,2.16-3.576
			c1.639-2.086,4.47-3.054,4.47-3.054s-5.143-2.561-7.375-1.324C102.198,407.86,102.493,413.161,102.493,413.161z"/>
		<path style="fill:#E09D61;" d="M98.598,412.751c0,0,0.058,3.352,2.628,3.352s1.341-1.229,2.347-4.135
			c1.006-2.905,3.799-4.358,5.476-4.582C106.255,405.376,99.881,407.387,98.598,412.751z"/>
		<path style="fill:#E5A86C;" d="M163.346,420.09c-0.781,0-15.923-0.743-25.947-1.585c-13.936-1.171-19.077-6.312-26.69-9.63
			c-7.613-3.319-10.997,1.041-10.997,3.969s0.195,4.88-4.685,4.295c-4.88-0.586-3.904-7.613,0-15.227
			c3.904-7.613,14.901-17.439,21.929-22.71c7.028-5.271,13.73-7.939,13.795,3.253c0.065,11.192,19.521,19.066,31.039,15.747
			C173.307,394.884,163.346,420.09,163.346,420.09z"/>
		<path style="fill:#E09D61;" d="M161.79,398.203c-11.518,3.319-30.974-4.555-31.039-15.747c-0.065-11.192-6.767-8.524-13.795-3.253
			c-5.195,3.896-12.553,10.281-17.617,16.422c5.73-2.813,11.879-3.516,17.532,0.253c10.728,6.258,21.455,5.364,31.289,8.046
			c6.044,2.014,5.529,9.577,2.247,15.49c6.7,0.404,12.466,0.677,12.94,0.677C163.346,420.09,173.307,394.884,161.79,398.203z"/>
		<path style="fill:#BC4646;" d="M297.853,359.811c0,0,16.919,19.615,8.589,43.645c-8.329,24.029-43.728,17.392-55.831,17.392
			c-12.103,0-20.302,1.681-37.871,0.84c-17.569-0.84-50.365-1.621-50.365-1.621c-6.637-23.035-7.418-38.262,0-53.684
			c7.418-15.422,10.151-19.326,37.871-21.278C227.967,343.153,297.853,359.811,297.853,359.811z"/>
		<path style="fill:#AA3333;" d="M297.83,359.805c-0.53-0.126-20.091-4.771-42.487-8.836c-0.004-0.001-0.01-0.001-0.014-0.002
			c-3.578-0.623-44.031-6.774-64.099-5.05c-1.874,0.217-3.588,0.459-5.173,0.727c-11.167,2.432-21.867,20.385-27.976,32.62
			c-1.172,6.067-1.249,12.435-0.358,19.529c0.839-1.006,7.807-8.754,25.97-12.303c19.444-3.799,46.263,13.856,72.858,16.091
			c-11.174-2.905-25.925-6.258-28.607-11.845c-2.682-5.587,17.656-2.458,26.595-1.117c8.94,1.341,13.41-0.447,20.114,2.235
			c6.705,2.682,10.504,4.155,13.186,9.565c0.223-5.765-10.057-13.984-18.997-15.462c9.387-0.584,23.01,3.216,25.138,6.791
			c-1.671-8.046-14.638-12.068-27.934-12.068c-13.296,0-3.605-7.772,9.876-4.557c13.481,3.216,19.363,5.897,23.239,1.651
			c2.464-2.7,3.914-7.714,2.659-12.169c-2.042-3.494-3.775-5.566-3.944-5.765C297.863,359.829,297.846,359.817,297.83,359.805z"/>
		<g>
			<path style="fill:#E5A86C;" d="M159.643,161.214l-2.538,4.685c0,0-7.874,12.981-11.387,15.665
				c-3.514,2.685,5.336,16.35,12.754,24.288c7.418,7.939,15.096,12.624,15.096,12.624s6.117-6.247,8.719-6.247
				c2.603,0,1.562-36.18,1.562-36.18L159.643,161.214z"/>
			<path style="fill:#DD965B;" d="M183.849,176.05l-24.206-14.836l-2.538,4.685c0,0-1.338,2.206-3.156,4.986
				c1.82,6.264,8.288,7.676,14.772,6.865c-2.483,13.038-1.941,29.088,5.504,40.077c1.644-1.595,5.977-5.598,8.063-5.598
				C184.89,212.23,183.849,176.05,183.849,176.05z"/>
			<path style="fill:#ECB67B;" d="M229.269,169.803c0,0-2.733,8.85-7.028,12.364c-3.253,3.253-1.497,11.452-1.399,18.285
				c-0.195,3.514-7.125,2.147-7.125,2.147s-1.432,3.969-1.822,5.531c-0.39,1.562-0.781,1.627-2.603,1.822
				c-1.822,0.195-4.555,0.651-4.88,0.781c3.384,0.195,3.579,0.651,3.514,1.627c-0.065,0.976-2.147,2.147-3.839,2.798
				c-1.692,0.651,0.195,4.62-2.473,7.028c-2.668,2.408-18.35,0.325-23.621-12.168c-5.271-12.494-4.343-18.537,3.318-34.875
				l-24.206-9.243c0,0,1.562-23.621,20.888-32.796S239.355,143.059,229.269,169.803z"/>
			<path style="fill:#DD965B;" d="M175.854,188.744c0,0,4.1,0.248,5.554-3.453c-1.364,4.229-3.536,4.413-5.849,4.554
				L175.854,188.744z"/>
			<path style="fill:#DD965B;" d="M213.419,195.704c0,0-3.017,1.546-3.408,3.334c-0.391,1.788,3.195,3.238,3.195,3.238
				s-1.381-1.338-1.506-2.847C211.575,197.92,213.419,195.704,213.419,195.704z"/>
			<path style="fill:#7A4313;" d="M208.706,184.51l2.028,1.728c0.675,0.558,1.353,1.108,2.071,1.555
				c0.72,0.448,1.459,0.797,2.161,0.483c0.712-0.295,1.246-1.052,1.809-1.749c-0.302,0.82-0.627,1.755-1.537,2.295
				c-0.441,0.274-1.023,0.33-1.521,0.219c-0.505-0.126-0.919-0.349-1.324-0.585C210.84,187.431,209.625,186.06,208.706,184.51z"/>
			<path style="fill:#7A4313;" d="M208.502,180.866c0,0,4.36-0.976,8.004-0.325c3.644,0.651,5.076,1.757,5.921,0.325
				C223.274,179.434,216.831,175.335,208.502,180.866z"/>
			<path style="fill:#70360B;" d="M219.248,165.596c0,0-6.767,7.071-14.446,7.331c-7.678,0.26-10.541,3.514-12.233,7.418
				c-1.692,3.904,2.386,7.939,1.388,14.186c-0.998,6.247,0.044,7.678,4.729,8.199c4.685,0.521,13.405-1.822,15.031-0.13
				c1.627,1.692,1.507,7.797-4.49,11.452c-4.685,2.733-2.082,7.028-4.165,11.062c-2.082,4.034-22.588-2.301-26.585-10.976
				c-3.998-8.675-2.978-14.62,0-19.867c2.978-5.248,7.064-13.405,5.503-19.131c-1.562-5.726-7.914-4.97-10.529-2.225
				c-2.615,2.745-10.684,2.55-14.198,1.379c-3.514-1.171-4.915-4.005-4.915-4.005s2.101-24.015,13.659-29.819
				C179.554,134.665,219.248,165.596,219.248,165.596z"/>
			<path style="fill:#5E2E0B;" d="M183.918,209.933c-7.858-9.604,5.592-20.914,0.394-32.264c0.1,5.421-3.273,12.086-5.835,16.601
				c-2.978,5.248-3.998,11.192,0,19.867c3.998,8.675,24.503,15.011,26.585,10.976c1.384-2.681,0.707-5.474,1.467-7.85
				C197.981,218.762,189.226,216.568,183.918,209.933z"/>
			<path style="fill:#5E2E0B;" d="M219.248,165.596c0,0-39.693-30.931-51.252-25.127c-3.009,1.511-5.372,4.261-7.229,7.496
				c13.919,11.038,29.991,19.166,47.566,24.373C214.438,170.602,219.248,165.596,219.248,165.596z"/>
			<path style="fill:#BC4646;" d="M227.491,174.391c0,0-18.654,0.228-39.998-12.526c-21.343-12.754-25.969-15.149-25.969-15.149
				s7.103-29.473,10.374-33.182c3.271-3.709,29.184,5.172,44.877,14.899c18.248,11.311,27.961,18.65,28.156,22.945
				C245.126,155.673,227.491,174.391,227.491,174.391z"/>
			<g>
				<path style="fill:#E89191;" d="M199.034,149.109c-16.91-10.105-28.684-17.433-32.855-20.047
					c-1.242,4.324-2.402,8.72-3.254,12.047c3.742,2.35,12.54,7.808,27.868,16.968c21.343,12.754,39.998,12.526,39.998,12.526
					s1.96-2.082,4.564-5.011c1.1-1.29,2.217-2.631,3.283-3.96C235.884,161.582,218.595,160.798,199.034,149.109z"/>
			</g>
			<path style="fill:#D15E5E;" d="M234.129,148.696c7.45,3.874,11.88,6.127,10.41,1.201c-1.977-4.426-11.461-11.359-27.764-21.464
				c-15.098-9.359-39.647-17.928-44.399-15.261c-1.089,1.383,9.339,6.043,22.493,14.069
				C208.055,135.287,226.679,144.822,234.129,148.696z"/>
			<path style="fill:#ECB67B;" d="M185.15,175.269c0,0,2.733-6.117-0.911-8.85c-3.644-2.733-10.281,1.477-11.973,10.499
				c-1.692,9.022,2.863,12.471,5.141,11.95s3.254-1.757,4.23-4.099C182.613,182.427,185.15,175.269,185.15,175.269z"/>
			<path style="fill:#CC894C;" d="M173.6,176.744c0,0,0.783-4.935,4.507-8.418c2.407-2.251,5.085-0.589,5.149,3.005
				c0.064,3.594-1.395,9.383-3.341,11.028c-1.946,1.645-3.313,0-3.249-1.253s1.88-3.218,2.937-3.147
				c0.594-2.411-1.343-4.125-2.065-3.932c1.08-0.752,3.421,0.655,3.31,2.143c0.824-3.533,1.555-5.428,0.647-6.93
				c-0.909-1.502-3.622-0.236-4.84,1.657C175.437,172.789,173.6,176.744,173.6,176.744z"/>
		</g>
		<path style="fill:#EABBA2;" d="M103.127,391.394c0,0-5.172-10.37-5.563-25.596c-0.39-15.227-11.322-12.103-14.055-28.111
			c-2.733-16.007,2.733-23.035,3.123-33.577c0.391-10.542-5.466-20.302-0.781-29.672c4.685-9.37-1.171-17.179,3.514-32.796
			c4.685-15.617,11.713-30.453,20.302-36.18c8.589-5.726,17.942-21.327,30.278-22.937c1.995,8.722,11.758,19.293,17.159,24.239
			c5.401,4.945,21.018,16.333,21.864,17.797c0.846,1.464,11.648,24.203,9.826,33.656c-1.822,9.453,0.26,13.097,2.343,19.604
			c2.082,6.507,4.425,27.59,4.165,35.138c-0.26,7.548,17.96,30.453,23.686,32.275c5.726,1.822,13.535,6.247,13.535,6.247
			s-45.29,6.767-58.824,19.782c-13.535,13.014-17.96,25.768-17.96,25.768s-21.343-26.289-23.165-36.18
			c-1.627,17.634,7.824,40.567,7.824,40.567S110.415,384.97,103.127,391.394z"/>
		<path style="fill:#E5AC93;" d="M191.657,361.513c-9.466-3.474-30.313-11.549-34.022-16.567c-4.828-6.531-1.728-40.253,6.854-49.49
			c8.582-9.238,9.595-19.965,9.893-29.799c0,0-5.369,15.549-8.344,16.389c4.47-15.197,7.748-35.759,2.974-45.592
			c3.272,23.541-8.636,43.208-8.636,43.208s-20.561,24.435-41.718,0c-21.157-24.435-12.873-53.304-12.873-53.304
			c-8.701,19.405-2.027,37.213,0,43.47c2.027,6.258-5.9-1.192-9.774-16.985c-0.894,8.642,2.384,21.157,8.344,32.779
			c5.96,11.622,8.94,24.733,6.258,23.243c-2.682-1.49-11.324-14.005-16.389-30.693c-0.894,16.985,14.303,39.036,16.985,50.658
			c2.682,11.622,0.894,13.409,5.662,22.051c4.768,8.642,10.132,1.192,19.071,11.92c6.9,8.28,25.326,11.812,33.382,12.993
			c1.34-1.494,2.793-3.01,4.374-4.531C177.632,367.481,184.25,364.227,191.657,361.513z"/>
		<path style="fill:#E59470;" d="M209.843,348.366c0,0-0.894-3.892-15.482-7.244c-24.869,3.799-41.62,21.679-41.62,21.679
			s-9.275-12.516-19.332-27.936c-16.091,10.504-16.091,28.383-14.527,42.463c-3.683-0.502-14.892-0.928-20.284-1.11
			c0.673,3.885,1.57,7.164,2.388,9.668c6.58-0.228,21.863-0.163,28.548,4.851c-9.462-30.171,3.428-44.107,3.428-44.107
			s14.75,30.921,22.573,34.944C169.391,349.168,209.843,348.366,209.843,348.366z"/>
		<path style="fill:#D8805D;" d="M167.336,351.377c-9.202,5.672-14.595,11.424-14.595,11.424s-9.275-12.516-19.332-27.936
			c-7.876,5.141-11.891,12.051-13.761,19.416c2.386,1.777,5.026,1.443,8.225,2.511c2.044-6.855,5.088-10.161,5.088-10.161
			s5.992,12.556,12.363,22.707c4.508,2.063,9.653,3.566,14.288,4.635c5.268-8.02,12.342-13.532,19.519-17.316
			C175.107,355.001,170.947,353.18,167.336,351.377z"/>
		<path style="fill:#E59470;" d="M184.055,290.166c-0.585,2.105,6.407,5.499,10.306,7.21c-0.827-7.803-2.065-15.934-3.224-19.555
			c-2.082-6.507-4.165-10.151-2.342-19.604c1.822-9.453-8.98-32.192-9.826-33.656c-0.846-1.464-16.463-12.852-21.864-17.797
			c-5.401-4.945-15.164-15.516-17.159-24.239c-7.354,0.96-13.647,6.891-19.35,12.739c-0.276,3.313,0.677,6.963,4.768,9.752
			c9.834,6.705,23.049,2.235,39.126,16.762c16.077,14.527,17.864,23.69,16.3,34.641C179.225,267.37,184.862,287.261,184.055,290.166
			z"/>
		<path style="fill:#ECB67B;" d="M317.895,353.955c-2.733-0.651-24.206-7.418-26.939-8.589s-8.329-2.082-14.706-5.206
			c-6.377-3.123-12.233-4.295-12.233-4.295s-17.718,20.898-7.799,21.349c9.831,0.447,12.813,3.318,17.172,7.301
			c2.183,1.994,6.174,3.947,9.209,4.637c0.291,1.577,2.412,4.185,6.537,5.756c5.466,2.082,8.329,2.342,9.37-2.993
			c0,0,4.295-2.473,2.473-7.418c3.644-5.986-3.644-10.932-3.644-10.932s10.021,3.449,15.682,4.099
			C318.676,358.314,320.498,355.386,317.895,353.955z"/>
		<path style="fill:#E5A86C;" d="M298.504,371.914c0,0,0.735-4.476-1.779-7.996c-2.514-3.52-5.14-3.52-5.196-4.414
			c-0.056-0.894,0.95-0.447,3.297,1.006C297.172,361.963,300.619,367.171,298.504,371.914z"/>
		<path style="fill:#E5A86C;" d="M300.977,364.496c0,0-1.346-5.215-4.084-7.227s-4.023-1.732-4.414-2.514
			c-0.391-0.782,0.615-1.006,2.514,0C296.893,355.761,301.094,359.71,300.977,364.496z"/>
		<path style="fill:#E5A86C;" d="M318.945,355.012c-0.858,3.204-5.079,2.198-9.537,1.066c-4.693-1.192-13.633-4.507-16.65-6.407
			c-3.017-1.9-5.084-0.168-1.676,0.67c3.408,0.838,7.887,4.609,7.887,4.609s8.354,2.581,14.015,3.232
			C317.453,358.696,319.549,356.462,318.945,355.012z"/>
		<path style="fill:#E5A86C;" d="M290.076,369.45c1.676,1.453,1.173,1.676,2.291,1.844c1.117,0.168,2.849-1.453,0.279-3.352
			c-2.57-1.9-5.811-2.458-9.275-1.558c-3.464,0.9-5.029-1.236-8.381-3.359c-3.352-2.123-7.934-4.805-5.029-12.069
			c2.169-5.422,0.726-10.976-0.145-13.444c-3.398-1.164-5.801-1.647-5.801-1.647s-1.009,1.191-2.404,3.001l-3.746,18.452
			c8.53,0.683,11.418,3.446,15.522,7.196c2.183,1.994,6.174,3.947,9.209,4.637c0.344-0.131,0.327-0.54,2.115-1.378
			C286.5,366.935,288.4,367.997,290.076,369.45z"/>
		<path style="fill:#EFC3AF;" d="M164.015,236.176c0,0,4.737,12.494,2.915,20.042c-1.822,7.548-0.52,18.74,2.082,24.987
			c2.603,6.247,4.379,16.138,10.649,19.782c6.27,3.644,7.831,9.37,8.352,11.192c0.521,1.822,5.987,2.863,13.014,4.685
			s14.576,7.288,16.919,8.069c2.342,0.781,42.426,8.264,47.892,10.411c1.757,14.641-8.004,29.477-10.737,31.039
			c-13.274,0-32.052-3.189-40.07-2.928c-8.018,0.26-5.65,1.9-18.689-0.26c-13.039-2.16-26.14,1.562-38.708-4.165
			c-12.568-5.726-27.144-11.713-30.267-21.343c-3.123-9.63-8.329-42.166-17.309-65.592s-1.952-47.892,20.302-53.619
			C152.615,212.75,164.015,236.176,164.015,236.176z"/>
		<path style="fill:#F4CEBE;" d="M148.159,227.216c0.596-0.149,12.814,6.109,15.048,16.836c2.235,10.728,2.235,24.435,0,27.415
			c-2.235,2.98-4.023,1.788-15.048-10.43c-11.025-12.218-13.26-2.831-10.132,2.086c3.129,4.917,7.599,12.664,17.879,18.475
			c10.281,5.811,16.389,13.625,21.604,19.477c5.215,5.852,9.387,9.428,7.003,11.961c-2.384,2.533-11.026,1.49-20.71-6.556
			c-9.685-8.046-11.92-11.622-17.879-21.306c-5.96-9.685-16.091-27.266-12.367-33.226c3.725-5.96,9.685-0.894,12.814-5.364
			c3.129-4.47-7.599-11.771-5.811-16.389C142.348,225.577,148.159,227.216,148.159,227.216z"/>
		<path style="fill:#F4CEBE;" d="M243.813,333.077c0,0-8.269,5.587-24.137,1.788c-15.868-3.799-26.372-0.234-41.569,1
			c-15.197,1.235-11.845-8.152-2.235-10.834c9.61-2.682,25.925-1.118,27.266-1.788c1.341-0.671-13.968-5.811-25.478-3.352
			c-11.51,2.458-25.478,2.589-31.065-0.661c-5.587-3.25-2.235-7.832,14.639-5.597c16.874,2.235,24.303,1.242,29.389,1.564
			s9.61,1.564,16.427,5.699S229.515,332.841,243.813,333.077z"/>
		<path style="fill:#E59470;" d="M232.311,364.74c4.858,0.506,10.035,1.039,14.941,1.356c9.721-10.931,10.767-27.923,10.86-32.784
			c-3.554-0.81-7.924-1.738-12.461-2.676C247.357,348.685,236.762,360.59,232.311,364.74z"/>
		<path style="fill:#EFC3AF;" d="M136.856,183.231l12.506-8.84c0,0,9.5,22.938,18.09,30.551c8.589,7.613,14.251,9.077,11.518,19.619
			c-9.37-2.635-23.296-13.659-31.234-22.899C139.796,192.422,136.856,183.231,136.856,183.231z"/>
	</g>
</g>
</svg>
