<svg width="480" height="33" viewBox="0 0 480 33" fill="none" xmlns="http://www.w3.org/2000/svg">
<path d="M7.188 2.928V29.93L10.592 30.206C10.7147 31.402 10.362 32 9.534 32H0.932V31.632C0.932 30.9573 1.13133 30.528 1.53 30.344C1.714 30.252 1.944 30.1907 2.22 30.16L4.52 30.022V3.02L1.162 2.744C1.03933 1.548 1.392 0.949999 2.22 0.949999H10.822V1.272C10.822 1.94667 10.6227 2.39133 10.224 2.606C10.04 2.698 9.81 2.75933 9.534 2.79L7.234 2.928H7.188ZM33.9521 32.69C32.1428 32.69 31.1614 31.4787 31.0081 29.056C28.7081 31.4787 26.2548 32.69 23.6481 32.69C21.0721 32.69 18.9408 31.7393 17.2541 29.838C15.5674 27.906 14.6781 25.0847 14.5861 21.374C14.4941 17.6633 15.4141 14.6733 17.3461 12.404C19.3088 10.1347 22.0074 9 25.4421 9C27.2208 9 29.0761 9.42933 31.0081 10.288V2.928L28.4321 2.652C27.8188 2.59067 27.5121 2.008 27.5121 0.903997L33.5381 0.0759997V30.344L36.4361 30.712C36.3748 32.0307 35.5468 32.69 33.9521 32.69ZM24.6141 11.162C22.1914 11.162 20.3668 12.082 19.1401 13.922C17.9441 15.762 17.3461 18.0467 17.3461 20.776C17.3461 23.5053 17.9288 25.7747 19.0941 27.584C20.2594 29.3933 22.0381 30.298 24.4301 30.298C25.6568 30.298 26.7148 30.068 27.6041 29.608C28.5241 29.1173 29.6588 28.32 31.0081 27.216V13.554C30.4254 13.002 29.5668 12.4653 28.4321 11.944C27.2974 11.4227 26.0248 11.162 24.6141 11.162ZM56.7293 19.672H42.1473C42.0859 20.408 42.0553 20.96 42.0553 21.328C42.0553 23.9653 42.6379 26.1427 43.8033 27.86C44.9686 29.5773 46.7473 30.436 49.1393 30.436C51.5313 30.436 53.7393 29.6233 55.7633 27.998C56.0699 28.2127 56.2233 28.5193 56.2233 28.918C56.2233 29.7153 55.3953 30.5433 53.7393 31.402C52.0833 32.2607 50.2739 32.69 48.3113 32.69C45.6126 32.69 43.4199 31.77 41.7333 29.93C40.0466 28.0593 39.2033 25.2227 39.2033 21.42C39.2033 17.6173 40.2153 14.5967 42.2393 12.358C44.2633 10.1193 46.6859 9 49.5073 9C50.8259 9 51.9759 9.26067 52.9573 9.782C53.9386 10.3033 54.6899 10.9933 55.2113 11.852C56.2233 13.5693 56.7293 15.4707 56.7293 17.556V19.672ZM53.8773 17.878C53.9386 15.8847 53.5399 14.2287 52.6813 12.91C51.8226 11.5913 50.5959 10.932 49.0013 10.932C47.4066 10.932 46.0113 11.576 44.8153 12.864C43.6499 14.1213 42.8526 15.7927 42.4233 17.878H53.8773ZM83.6921 32H75.5501V31.678C75.5501 31.0647 75.7494 30.6813 76.1481 30.528C76.3628 30.4053 77.3134 30.298 79.0001 30.206V18.154C79.0001 13.5847 77.2214 11.3 73.6641 11.3C72.3761 11.3 71.1801 11.5607 70.0761 12.082C69.0028 12.6033 67.7914 13.4467 66.4421 14.612V30.114L69.7081 30.39C69.8001 31.4633 69.4474 32 68.6501 32H60.4621V31.678C60.4621 31.0647 60.6614 30.6813 61.0601 30.528C61.2748 30.4053 62.2254 30.298 63.9121 30.206V11.622L61.3361 11.346C60.7228 11.2847 60.4161 10.748 60.4161 9.736L65.7061 9L66.3501 12.68H66.4881C69.0641 10.2267 71.6861 9 74.3541 9C76.3168 9 78.0034 9.70533 79.4141 11.116C80.8248 12.496 81.5301 14.6733 81.5301 17.648V30.114L84.7501 30.39C84.8728 31.4633 84.5201 32 83.6921 32ZM92.8698 11.53V25.284C92.8698 27.124 93.0538 28.4427 93.4218 29.24C93.8205 30.0373 94.5718 30.436 95.6758 30.436C96.8105 30.436 97.7305 30.3287 98.4358 30.114C99.1718 29.8687 100.107 29.3013 101.242 28.412C101.763 28.596 102.024 28.9487 102.024 29.47C102.024 30.2673 101.303 31.0187 99.8618 31.724C98.4205 32.3987 97.0558 32.736 95.7678 32.736C93.7745 32.736 92.3638 32.1533 91.5358 30.988C90.7385 29.8227 90.3398 28.1053 90.3398 25.836V11.53H87.1198C86.9972 10.3033 87.3498 9.69 88.1778 9.69H90.3398V4.354L92.8698 3.48V9.69H101.564C101.594 10.1807 101.502 10.794 101.288 11.53H92.8698ZM113.489 32H105.117V31.678C105.117 31.0647 105.316 30.6813 105.715 30.528C105.929 30.436 106.849 30.3287 108.475 30.206V11.622L105.899 11.392C105.285 11.3307 104.979 10.7633 104.979 9.69L111.005 9V30.114L114.547 30.39C114.639 31.4633 114.286 32 113.489 32ZM110.775 4.492C110.437 4.86 109.962 5.044 109.349 5.044C108.735 5.044 108.245 4.86 107.877 4.492C107.539 4.124 107.371 3.64867 107.371 3.066C107.371 2.48333 107.539 2.008 107.877 1.64C108.245 1.272 108.735 1.088 109.349 1.088C109.962 1.088 110.437 1.272 110.775 1.64C111.143 2.008 111.327 2.48333 111.327 3.066C111.327 3.64867 111.143 4.124 110.775 4.492ZM122.698 11.53V25.284C122.698 27.124 122.882 28.4427 123.25 29.24C123.649 30.0373 124.4 30.436 125.504 30.436C126.639 30.436 127.559 30.3287 128.264 30.114C129 29.8687 129.935 29.3013 131.07 28.412C131.591 28.596 131.852 28.9487 131.852 29.47C131.852 30.2673 131.131 31.0187 129.69 31.724C128.249 32.3987 126.884 32.736 125.596 32.736C123.603 32.736 122.192 32.1533 121.364 30.988C120.567 29.8227 120.168 28.1053 120.168 25.836V11.53H116.948C116.825 10.3033 117.178 9.69 118.006 9.69H120.168V4.354L122.698 3.48V9.69H131.392C131.423 10.1807 131.331 10.794 131.116 11.53H122.698ZM151.919 19.672H137.337C137.275 20.408 137.245 20.96 137.245 21.328C137.245 23.9653 137.827 26.1427 138.993 27.86C140.158 29.5773 141.937 30.436 144.329 30.436C146.721 30.436 148.929 29.6233 150.953 27.998C151.259 28.2127 151.413 28.5193 151.413 28.918C151.413 29.7153 150.585 30.5433 148.929 31.402C147.273 32.2607 145.463 32.69 143.501 32.69C140.802 32.69 138.609 31.77 136.923 29.93C135.236 28.0593 134.393 25.2227 134.393 21.42C134.393 17.6173 135.405 14.5967 137.429 12.358C139.453 10.1193 141.875 9 144.697 9C146.015 9 147.165 9.26067 148.147 9.782C149.128 10.3033 149.879 10.9933 150.401 11.852C151.413 13.5693 151.919 15.4707 151.919 17.556V19.672ZM149.067 17.878C149.128 15.8847 148.729 14.2287 147.871 12.91C147.012 11.5913 145.785 10.932 144.191 10.932C142.596 10.932 141.201 11.576 140.005 12.864C138.839 14.1213 138.042 15.7927 137.613 17.878H149.067ZM150.953 2.79L141.937 7.666C141.477 7.45133 141.078 7.05267 140.741 6.47L148.285 0.765999C148.806 0.796665 149.312 1.01133 149.803 1.41C150.293 1.80867 150.677 2.26867 150.953 2.79ZM182.654 30.482C183.727 30.482 184.57 30.0527 185.184 29.194C185.613 29.562 185.828 30.0373 185.828 30.62C185.828 31.172 185.567 31.6627 185.046 32.092C184.524 32.552 183.804 32.782 182.884 32.782C180.86 32.782 178.115 31.494 174.65 28.918C171.859 31.5247 168.547 32.828 164.714 32.828C161.616 32.828 159.255 32.092 157.63 30.62C156.004 29.148 155.192 27.2313 155.192 24.87C155.192 23.214 155.698 21.5733 156.71 19.948C157.752 18.3227 159.362 16.9273 161.54 15.762C159.27 12.726 158.136 10.104 158.136 7.896C158.136 5.688 158.78 3.986 160.068 2.79C161.356 1.56333 163.104 0.949999 165.312 0.949999C166.845 0.949999 168.286 1.502 169.636 2.606C171.016 3.71 171.706 5.25866 171.706 7.252C171.706 9.24533 171.031 11.0547 169.682 12.68C168.363 14.3053 166.799 15.4707 164.99 16.176C165.296 16.5747 165.818 17.1727 166.554 17.97C169.283 20.9447 171.982 23.582 174.65 25.882C176.183 23.8273 177.256 21.4047 177.87 18.614L175.248 18.338C175.125 17.2647 175.478 16.728 176.306 16.728H182.838C182.807 16.82 182.807 16.9427 182.838 17.096C182.868 17.2187 182.853 17.3567 182.792 17.51C182.761 17.6327 182.715 17.7553 182.654 17.878C182.5 18.154 182.132 18.3227 181.55 18.384L180.032 18.476C179.326 21.88 178.069 24.7627 176.26 27.124C179.112 29.3627 181.243 30.482 182.654 30.482ZM164.07 14.704C165.848 14.0293 167.152 12.9867 167.98 11.576C168.838 10.1653 169.268 8.724 169.268 7.252C169.268 5.78 168.823 4.70667 167.934 4.032C167.075 3.35733 166.201 3.02 165.312 3.02C163.656 3.02 162.429 3.44933 161.632 4.308C160.834 5.16667 160.436 6.25533 160.436 7.574C160.436 9.38333 161.57 11.7753 163.84 14.75L164.024 14.658L164.07 14.704ZM157.952 24.64C157.952 26.2347 158.534 27.6607 159.7 28.918C160.865 30.1753 162.797 30.804 165.496 30.804C168.225 30.804 170.74 29.746 173.04 27.63C170.678 25.6673 168.01 23.0913 165.036 19.902C164.422 19.258 163.656 18.384 162.736 17.28C161.202 18.108 160.022 19.1507 159.194 20.408C158.366 21.6347 157.952 23.0453 157.952 24.64ZM201.5 0.259997C203.953 0.259997 206.008 0.811998 207.664 1.916C209.32 3.02 210.148 4.38467 210.148 6.01C210.148 7.60467 209.335 8.41733 207.71 8.448C207.71 6.516 207.112 5.02866 205.916 3.986C204.751 2.91266 203.171 2.376 201.178 2.376C197.958 2.376 195.489 3.67933 193.772 6.286C192.085 8.89267 191.242 12.312 191.242 16.544C191.242 20.776 192.07 24.1187 193.726 26.572C195.382 28.9947 197.943 30.206 201.408 30.206C204.904 30.206 207.741 29.2707 209.918 27.4C210.286 27.584 210.47 27.8907 210.47 28.32C210.47 29.1787 209.581 30.1293 207.802 31.172C206.023 32.184 203.815 32.69 201.178 32.69C197.13 32.69 194.002 31.356 191.794 28.688C189.617 25.9893 188.451 22.2173 188.298 17.372C188.175 12.5267 189.31 8.46333 191.702 5.182C194.094 1.90066 197.36 0.259997 201.5 0.259997ZM237.512 32H229.186V31.678C229.186 31.0647 229.385 30.6813 229.784 30.528C229.999 30.436 230.903 30.3287 232.498 30.206V18.614C232.498 16.2527 231.992 14.4587 230.98 13.232C229.999 12.0053 228.711 11.392 227.116 11.392C225.521 11.392 224.218 11.6527 223.206 12.174C222.194 12.6953 221.105 13.4773 219.94 14.52V30.114L223.482 30.39C223.574 31.4633 223.221 32 222.424 32H214.052V31.678C214.052 31.0647 214.251 30.6813 214.65 30.528C214.865 30.436 215.785 30.3287 217.41 30.206V2.928L214.834 2.652C214.221 2.59067 213.914 2.008 213.914 0.903997L219.94 0.0759997V12.312C221.964 10.104 224.417 9 227.3 9C229.355 9 231.133 9.736 232.636 11.208C234.169 12.6493 234.951 14.98 234.982 18.2L235.028 30.114L238.57 30.39C238.662 31.4633 238.309 32 237.512 32ZM259.147 19.672H244.565C244.504 20.408 244.473 20.96 244.473 21.328C244.473 23.9653 245.056 26.1427 246.221 27.86C247.387 29.5773 249.165 30.436 251.557 30.436C253.949 30.436 256.157 29.6233 258.181 27.998C258.488 28.2127 258.641 28.5193 258.641 28.918C258.641 29.7153 257.813 30.5433 256.157 31.402C254.501 32.2607 252.692 32.69 250.729 32.69C248.031 32.69 245.838 31.77 244.151 29.93C242.465 28.0593 241.621 25.2227 241.621 21.42C241.621 17.6173 242.633 14.5967 244.657 12.358C246.681 10.1193 249.104 9 251.925 9C253.244 9 254.394 9.26067 255.375 9.782C256.357 10.3033 257.108 10.9933 257.629 11.852C258.641 13.5693 259.147 15.4707 259.147 17.556V19.672ZM256.295 17.878C256.357 15.8847 255.958 14.2287 255.099 12.91C254.241 11.5913 253.014 10.932 251.419 10.932C249.825 10.932 248.429 11.576 247.233 12.864C246.068 14.1213 245.271 15.7927 244.841 17.878H256.295ZM300.738 32H292.412V31.678C292.412 31.0647 292.611 30.6813 293.01 30.528C293.225 30.436 294.129 30.3287 295.724 30.206V18.66C295.724 16.2987 295.218 14.5047 294.206 13.278C293.225 12.0513 291.829 11.438 290.02 11.438C288.701 11.438 287.536 11.7293 286.524 12.312C285.543 12.8947 284.439 13.7687 283.212 14.934C283.488 15.762 283.626 16.866 283.626 18.246V30.114L287.168 30.39C287.291 31.4633 286.938 32 286.11 32H277.784V31.678C277.784 31.0647 277.983 30.6813 278.382 30.528C278.597 30.436 279.501 30.3287 281.096 30.206V18.66C281.096 16.3293 280.575 14.5507 279.532 13.324C278.489 12.0667 277.063 11.438 275.254 11.438C273.997 11.438 272.877 11.6987 271.896 12.22C270.945 12.7413 269.933 13.5233 268.86 14.566V30.114L272.402 30.39C272.494 31.4633 272.141 32 271.344 32H262.972V31.678C262.972 31.0647 263.171 30.6813 263.57 30.528C263.785 30.436 264.705 30.3287 266.33 30.206V11.484H264.214C263.294 11.484 262.834 10.9013 262.834 9.736L268.124 9L268.722 12.312H268.86C270.884 10.104 273.184 9 275.76 9C277.171 9 278.505 9.35267 279.762 10.058C281.019 10.7633 281.985 11.8673 282.66 13.37C283.304 12.542 283.917 11.852 284.5 11.3C285.083 10.748 285.911 10.2267 286.984 9.736C288.088 9.24533 289.269 9 290.526 9C292.581 9 294.375 9.736 295.908 11.208C297.472 12.68 298.254 15.026 298.254 18.246V30.114L301.796 30.39C301.919 31.4633 301.566 32 300.738 32ZM313.75 32H305.378V31.678C305.378 31.0647 305.578 30.6813 305.976 30.528C306.191 30.436 307.111 30.3287 308.736 30.206V11.622L306.16 11.392C305.547 11.3307 305.24 10.7633 305.24 9.69L311.266 9V30.114L314.808 30.39C314.9 31.4633 314.548 32 313.75 32ZM311.036 4.492C310.699 4.86 310.224 5.044 309.61 5.044C308.997 5.044 308.506 4.86 308.138 4.492C307.801 4.124 307.632 3.64867 307.632 3.066C307.632 2.48333 307.801 2.008 308.138 1.64C308.506 1.272 308.997 1.088 309.61 1.088C310.224 1.088 310.699 1.272 311.036 1.64C311.404 2.008 311.588 2.48333 311.588 3.066C311.588 3.64867 311.404 4.124 311.036 4.492ZM341.544 32H333.402V31.678C333.402 31.0647 333.601 30.6813 334 30.528C334.214 30.4053 335.165 30.298 336.852 30.206V18.154C336.852 13.5847 335.073 11.3 331.516 11.3C330.228 11.3 329.032 11.5607 327.928 12.082C326.854 12.6033 325.643 13.4467 324.294 14.612V30.114L327.56 30.39C327.652 31.4633 327.299 32 326.502 32H318.314V31.678C318.314 31.0647 318.513 30.6813 318.912 30.528C319.126 30.4053 320.077 30.298 321.764 30.206V11.622L319.188 11.346C318.574 11.2847 318.268 10.748 318.268 9.736L323.558 9L324.202 12.68H324.34C326.916 10.2267 329.538 9 332.206 9C334.168 9 335.855 9.70533 337.266 11.116C338.676 12.496 339.382 14.6733 339.382 17.648V30.114L342.602 30.39C342.724 31.4633 342.372 32 341.544 32ZM359.304 0.857998H368.642C374.162 0.857998 378.133 2.11533 380.556 4.63C383.009 7.114 384.236 10.9627 384.236 16.176C384.236 21.3587 382.917 25.2993 380.28 27.998C377.673 30.666 373.794 32 368.642 32H358.016V31.632C358.016 30.9573 358.215 30.528 358.614 30.344C358.798 30.252 359.028 30.1907 359.304 30.16L361.604 30.022V2.928L358.246 2.652C358.123 1.456 358.476 0.857998 359.304 0.857998ZM364.272 30.068H367.676C372.061 30.068 375.435 28.9487 377.796 26.71C380.188 24.4713 381.384 20.96 381.384 16.176C381.384 11.392 380.142 7.91133 377.658 5.734C375.205 3.55667 371.525 2.56 366.618 2.744L364.272 2.836V30.068ZM405.458 19.672H390.876C390.814 20.408 390.784 20.96 390.784 21.328C390.784 23.9653 391.366 26.1427 392.532 27.86C393.697 29.5773 395.476 30.436 397.868 30.436C400.26 30.436 402.468 29.6233 404.492 27.998C404.798 28.2127 404.952 28.5193 404.952 28.918C404.952 29.7153 404.124 30.5433 402.468 31.402C400.812 32.2607 399.002 32.69 397.04 32.69C394.341 32.69 392.148 31.77 390.462 29.93C388.775 28.0593 387.932 25.2227 387.932 21.42C387.932 17.6173 388.944 14.5967 390.968 12.358C392.992 10.1193 395.414 9 398.236 9C399.554 9 400.704 9.26067 401.686 9.782C402.667 10.3033 403.418 10.9933 403.94 11.852C404.952 13.5693 405.458 15.4707 405.458 17.556V19.672ZM402.606 17.878C402.667 15.8847 402.268 14.2287 401.41 12.91C400.551 11.5913 399.324 10.932 397.73 10.932C396.135 10.932 394.74 11.576 393.544 12.864C392.378 14.1213 391.581 15.7927 391.152 17.878H402.606ZM440.083 0.949999H446.799C446.799 0.949999 446.799 1.05733 446.799 1.272C446.799 2.192 446.37 2.698 445.511 2.79L444.637 2.928L433.873 32H431.941L421.959 3.02L419.475 2.744C419.353 1.548 419.705 0.949999 420.533 0.949999H428.537V1.272C428.537 1.94667 428.338 2.39133 427.939 2.606C427.755 2.698 427.525 2.75933 427.249 2.79L424.949 2.928H424.903L433.229 28.182L442.245 3.02L439.025 2.744C438.903 1.548 439.255 0.949999 440.083 0.949999ZM457.815 32H449.443V31.678C449.443 31.0647 449.642 30.6813 450.041 30.528C450.255 30.436 451.175 30.3287 452.801 30.206V11.622L450.225 11.392C449.611 11.3307 449.305 10.7633 449.305 9.69L455.331 9V30.114L458.873 30.39C458.965 31.4633 458.612 32 457.815 32ZM455.101 4.492C454.763 4.86 454.288 5.044 453.675 5.044C453.061 5.044 452.571 4.86 452.203 4.492C451.865 4.124 451.697 3.64867 451.697 3.066C451.697 2.48333 451.865 2.008 452.203 1.64C452.571 1.272 453.061 1.088 453.675 1.088C454.288 1.088 454.763 1.272 455.101 1.64C455.469 2.008 455.653 2.48333 455.653 3.066C455.653 3.64867 455.469 4.124 455.101 4.492ZM479.444 19.672H464.862C464.801 20.408 464.77 20.96 464.77 21.328C464.77 23.9653 465.353 26.1427 466.518 27.86C467.683 29.5773 469.462 30.436 471.854 30.436C474.246 30.436 476.454 29.6233 478.478 27.998C478.785 28.2127 478.938 28.5193 478.938 28.918C478.938 29.7153 478.11 30.5433 476.454 31.402C474.798 32.2607 472.989 32.69 471.026 32.69C468.327 32.69 466.135 31.77 464.448 29.93C462.761 28.0593 461.918 25.2227 461.918 21.42C461.918 17.6173 462.93 14.5967 464.954 12.358C466.978 10.1193 469.401 9 472.222 9C473.541 9 474.691 9.26067 475.672 9.782C476.653 10.3033 477.405 10.9933 477.926 11.852C478.938 13.5693 479.444 15.4707 479.444 17.556V19.672ZM476.592 17.878C476.653 15.8847 476.255 14.2287 475.396 12.91C474.537 11.5913 473.311 10.932 471.716 10.932C470.121 10.932 468.726 11.576 467.53 12.864C466.365 14.1213 465.567 15.7927 465.138 17.878H476.592Z" fill="#F1F1F1"/>
</svg>
