<svg width="500" height="489" viewBox="0 0 500 489" fill="none" xmlns="http://www.w3.org/2000/svg">
<path d="M456.715 285.486C455.387 284.014 454.063 282.606 452.745 281.248C427.635 255.378 410.063 250.89 413.034 204.455C417.512 134.451 390.958 101.13 354.28 90.078C314.622 78.128 273.563 117.14 241.528 105.424C207.151 92.852 181.703 73.436 143.482 92.852C107.085 111.341 106.753 169.757 89.4069 190.397C72.0609 211.037 29.2469 231.524 29.2469 268.382C29.2469 292.532 31.4659 319.824 71.9559 341.342C104.26 358.509 82.7679 398.412 82.7679 398.412C83.0859 404.511 100.907 410.445 103.081 415.083H349.133C363.669 396.579 372.723 400.491 407.833 397.87C477 392.706 483.329 314.988 456.715 285.486Z" fill="#CFDCFF"/>
<path d="M211.7 305.072C243.194 305.072 268.725 279.541 268.725 248.047C268.725 216.553 243.194 191.022 211.7 191.022C180.206 191.022 154.675 216.553 154.675 248.047C154.675 279.541 180.206 305.072 211.7 305.072Z" fill="#FAFF00"/>
<mask id="mask0_521_431" style="mask-type:luminance" maskUnits="userSpaceOnUse" x="29" y="84" width="443" height="332">
<path d="M456.715 285.486C455.387 284.014 454.063 282.606 452.745 281.248C427.635 255.378 410.063 250.89 413.034 204.455C417.512 134.451 390.958 101.13 354.28 90.078C314.622 78.128 273.563 117.14 241.528 105.424C207.151 92.852 181.703 73.436 143.482 92.852C107.085 111.341 106.753 169.757 89.4069 190.397C72.0609 211.037 29.2469 231.524 29.2469 268.382C29.2469 292.532 31.4659 319.824 71.9559 341.342C104.26 358.509 82.7679 398.412 82.7679 398.412C83.0859 404.511 100.907 410.445 103.081 415.083H349.133C363.669 396.579 372.723 400.491 407.833 397.87C477 392.706 483.329 314.988 456.715 285.486Z" fill="white"/>
</mask>
<g mask="url(#mask0_521_431)">
<path d="M399.277 221.005C398.213 215.687 386.351 215.169 379.108 208.24V206.886C380.567 206.643 381.68 205.379 381.68 203.852C381.68 202.467 380.766 201.296 379.508 200.909C380.315 200.558 380.881 199.756 380.881 198.819C380.881 197.735 380.123 196.832 379.109 196.601V188.456C381.726 188.201 383.771 185.996 383.771 183.312C383.771 180.628 381.726 178.423 379.109 178.168V33.1431H378.024V178.176C375.441 178.464 373.432 180.652 373.432 183.312C373.432 185.972 375.441 188.16 378.024 188.448V196.623C377.047 196.88 376.322 197.761 376.322 198.819C376.322 199.755 376.888 200.558 377.695 200.909C376.437 201.296 375.522 202.467 375.522 203.852C375.522 205.355 376.599 206.605 378.024 206.875V208.305C370.775 215.171 358.986 215.704 357.925 221.005C356.837 226.446 361.625 227.317 361.625 227.317H361.595V229.942H361.435C360.677 229.942 360.063 230.556 360.063 231.314V231.566C360.063 232.324 360.677 232.938 361.435 232.938H361.595V272.925H361.435C360.677 272.925 360.063 273.539 360.063 274.297V274.549C360.063 275.307 360.677 275.921 361.435 275.921H361.595V277.559L378.601 287.78L395.607 277.559V275.921H395.767C396.525 275.921 397.139 275.307 397.139 274.549V274.297C397.139 273.539 396.525 272.925 395.767 272.925H395.607V232.938H395.767C396.525 232.938 397.139 232.324 397.139 231.566V231.314C397.139 230.556 396.525 229.942 395.767 229.942H395.607V227.317H395.577C395.577 227.317 400.366 226.446 399.277 221.005ZM368.485 265.464C368.321 267.166 366.455 266.441 365.374 268.756C364.293 266.441 362.427 267.166 362.263 265.464C362.169 264.488 362.366 263.983 362.551 263.729V241.936C362.366 241.682 362.169 241.177 362.263 240.201C362.427 238.499 364.293 239.224 365.374 236.909C366.455 239.224 368.321 238.498 368.485 240.201C368.579 241.177 368.382 241.682 368.197 241.936V263.729C368.382 263.982 368.579 264.488 368.485 265.464ZM372.133 265.464C371.938 264.488 372.347 263.983 372.732 263.729V241.936C372.347 241.682 371.938 241.177 372.133 240.201C372.473 238.499 376.354 239.224 378.601 236.909C380.848 239.224 384.728 238.498 385.069 240.201C385.264 241.177 384.855 241.682 384.47 241.936V263.729C384.855 263.983 385.264 264.488 385.069 265.464C384.729 267.166 380.848 266.441 378.601 268.756C376.354 266.44 372.474 267.166 372.133 265.464ZM394.939 265.464C394.775 267.166 392.909 266.441 391.828 268.756C390.748 266.441 388.881 267.166 388.717 265.464C388.623 264.488 388.82 263.983 389.005 263.729V241.936C388.82 241.682 388.623 241.177 388.717 240.201C388.881 238.499 390.747 239.224 391.828 236.909C392.909 239.224 394.775 238.498 394.939 240.201C395.033 241.177 394.836 241.682 394.651 241.936V263.729C394.836 263.982 395.033 264.488 394.939 265.464Z" fill="#E89191"/>
<path d="M380.998 288.486C380.998 289.81 379.925 290.883 378.601 290.883C377.277 290.883 376.204 289.81 376.204 288.486C376.204 287.162 377.277 286.089 378.601 286.089C379.925 286.089 380.998 287.163 380.998 288.486Z" fill="#E89191"/>
<path d="M382.218 294.22C382.218 296.217 380.599 297.836 378.602 297.836C376.605 297.836 374.986 296.217 374.986 294.22C374.986 292.223 376.605 290.603 378.602 290.603C380.598 290.603 382.218 292.223 382.218 294.22Z" fill="#E89191"/>
<path d="M380.523 299.539C380.523 300.6 379.662 301.461 378.601 301.461C377.54 301.461 376.679 300.6 376.679 299.539C376.679 298.478 377.539 297.617 378.601 297.617C379.663 297.617 380.523 298.477 380.523 299.539Z" fill="#E89191"/>
<path d="M324.859 171.055C323.795 165.737 311.933 165.219 304.69 158.29V156.936C306.149 156.693 307.262 155.429 307.262 153.902C307.262 152.517 306.348 151.346 305.09 150.959C305.897 150.608 306.462 149.806 306.462 148.869C306.462 147.785 305.704 146.882 304.69 146.651V138.506C307.307 138.251 309.352 136.046 309.352 133.362C309.352 130.678 307.307 128.473 304.69 128.218V-16.8069H303.605V128.226C301.022 128.514 299.013 130.702 299.013 133.362C299.013 136.022 301.022 138.21 303.605 138.498V146.673C302.628 146.93 301.903 147.811 301.903 148.869C301.903 149.805 302.468 150.608 303.276 150.959C302.018 151.346 301.104 152.517 301.104 153.902C301.104 155.405 302.181 156.655 303.606 156.925V158.355C296.357 165.221 284.568 165.754 283.507 171.055C282.419 176.496 287.207 177.367 287.207 177.367H287.177V179.992H287.017C286.259 179.992 285.645 180.606 285.645 181.364V181.616C285.645 182.374 286.259 182.988 287.017 182.988H287.177V222.975H287.017C286.259 222.975 285.645 223.589 285.645 224.347V224.599C285.645 225.357 286.259 225.971 287.017 225.971H287.177V227.609L304.183 237.83L321.189 227.609V225.971H321.349C322.107 225.971 322.721 225.357 322.721 224.599V224.347C322.721 223.589 322.107 222.975 321.349 222.975H321.189V182.988H321.349C322.107 182.988 322.721 182.374 322.721 181.616V181.364C322.721 180.606 322.107 179.992 321.349 179.992H321.189V177.367H321.159C321.159 177.367 325.947 176.496 324.859 171.055ZM294.066 215.514C293.902 217.216 292.036 216.491 290.955 218.806C289.874 216.491 288.008 217.216 287.844 215.514C287.75 214.538 287.947 214.033 288.132 213.779V191.986C287.947 191.732 287.75 191.227 287.844 190.251C288.008 188.549 289.874 189.274 290.955 186.959C292.036 189.274 293.902 188.548 294.066 190.251C294.16 191.227 293.963 191.732 293.778 191.986V213.779C293.963 214.033 294.16 214.538 294.066 215.514ZM297.715 215.514C297.52 214.538 297.929 214.033 298.314 213.779V191.986C297.929 191.732 297.52 191.227 297.715 190.251C298.055 188.549 301.936 189.274 304.183 186.959C306.43 189.274 310.31 188.548 310.651 190.251C310.846 191.227 310.437 191.732 310.052 191.986V213.779C310.436 214.033 310.846 214.538 310.651 215.514C310.311 217.216 306.43 216.491 304.183 218.806C301.936 216.491 298.055 217.216 297.715 215.514ZM320.52 215.514C320.356 217.216 318.49 216.491 317.409 218.806C316.328 216.491 314.462 217.216 314.298 215.514C314.204 214.538 314.401 214.033 314.586 213.779V191.986C314.401 191.732 314.204 191.227 314.298 190.251C314.462 188.549 316.328 189.274 317.409 186.959C318.489 189.274 320.356 188.548 320.52 190.251C320.614 191.227 320.417 191.732 320.232 191.986V213.779C320.417 214.033 320.614 214.538 320.52 215.514Z" fill="#E89191"/>
<path d="M306.579 238.537C306.579 239.861 305.506 240.933 304.182 240.933C302.858 240.933 301.785 239.86 301.785 238.537C301.785 237.213 302.858 236.14 304.182 236.14C305.506 236.14 306.579 237.213 306.579 238.537Z" fill="#E89191"/>
<path d="M307.799 244.27C307.799 246.267 306.18 247.886 304.183 247.886C302.186 247.886 300.567 246.267 300.567 244.27C300.567 242.273 302.186 240.653 304.183 240.653C306.18 240.654 307.799 242.273 307.799 244.27Z" fill="#E89191"/>
<path d="M306.104 249.589C306.104 250.65 305.243 251.511 304.182 251.511C303.121 251.511 302.26 250.65 302.26 249.589C302.26 248.528 303.121 247.667 304.182 247.667C305.244 247.667 306.104 248.528 306.104 249.589Z" fill="#E89191"/>
</g>
<path d="M427 371C400 358 377 341 345 342C332 343 322 329 310 322C308 321 304 321 302 322C267 354 220 348 178 342C155 338 137 322 116 313C107 309 95.9999 306 85.9999 309C73.2969 312.557 63.1739 321.017 52.7489 328.482C57.9319 332.936 64.2469 337.243 71.9559 341.341C104.26 358.508 82.7679 398.411 82.7679 398.411C83.0859 404.51 100.907 410.444 103.081 415.082H349.133C363.669 396.578 372.723 400.49 407.833 397.869C431.832 396.077 448.26 385.547 458.377 371.331C447.471 373.552 436.856 375.312 427 371Z" fill="#F4E7B0"/>
<path d="M82.7669 398.411H407.833L460.772 434.338V434.88H39.2279V434.338L82.7669 398.411Z" fill="#D16969"/>
<path d="M82.7669 397.869H407.833L460.772 434.338H39.2279L82.7669 397.869Z" fill="#E89191"/>
<path d="M92.1519 399.253H396.422L433.233 429.27H63.5359L92.1519 399.253Z" fill="#D16969"/>
<path d="M169.013 403.456C169.013 403.456 126.847 408.318 115.915 403.456C104.983 398.594 105.201 384.538 106.263 373.997C107.325 363.456 119.429 347.448 124.504 346.667C129.579 345.886 147.93 357.989 149.101 358.38C150.272 358.77 169.013 403.456 169.013 403.456Z" fill="#AA3333"/>
<path d="M98.598 412.751C98.598 412.751 98.656 416.103 101.226 416.103C103.796 416.103 102.567 414.874 103.573 411.968C104.579 409.063 107.372 407.61 109.049 407.386C106.255 405.376 99.881 407.387 98.598 412.751Z" fill="#E09D61"/>
<path d="M163.346 420.09C162.565 420.09 147.423 419.347 137.399 418.505C123.463 417.334 118.322 412.193 110.709 408.875C103.096 405.556 99.712 409.916 99.712 412.844C99.712 415.772 99.907 417.724 95.027 417.139C90.147 416.553 91.123 409.526 95.027 401.912C98.931 394.299 109.928 384.473 116.956 379.202C123.984 373.931 130.686 371.263 130.751 382.455C130.816 393.647 150.272 401.521 161.79 398.202C173.307 394.884 163.346 420.09 163.346 420.09Z" fill="#E5A86C"/>
<path d="M161.79 398.203C150.272 401.522 130.816 393.648 130.751 382.456C130.686 371.264 123.984 373.932 116.956 379.203C111.761 383.099 104.403 389.484 99.339 395.625C105.069 392.812 111.218 392.109 116.871 395.878C127.599 402.136 138.326 401.242 148.16 403.924C154.204 405.938 153.689 413.501 150.407 419.414C157.107 419.818 162.873 420.091 163.347 420.091C163.347 420.091 173.307 394.884 161.79 398.203Z" fill="#E09D61"/>
<path d="M297.853 359.811C297.853 359.811 314.772 379.426 306.442 403.456C298.113 427.485 262.714 420.848 250.611 420.848C238.508 420.848 230.309 422.529 212.74 421.688C195.171 420.848 162.375 420.067 162.375 420.067C155.738 397.032 154.957 381.805 162.375 366.383C169.793 350.961 172.526 347.057 200.246 345.105C227.967 343.153 297.853 359.811 297.853 359.811Z" fill="#BC4646"/>
<path d="M297.83 359.805C297.3 359.679 277.739 355.034 255.343 350.969C255.339 350.968 255.333 350.968 255.329 350.967C251.751 350.344 211.298 344.193 191.23 345.917C189.356 346.134 187.642 346.376 186.057 346.644C174.89 349.076 164.19 367.029 158.081 379.264C156.909 385.331 156.832 391.699 157.723 398.793C158.562 397.787 165.53 390.039 183.693 386.49C203.137 382.691 229.956 400.346 256.551 402.581C245.377 399.676 230.626 396.323 227.944 390.736C225.262 385.149 245.6 388.278 254.539 389.619C263.479 390.96 267.949 389.172 274.653 391.854C281.358 394.536 285.157 396.009 287.839 401.419C288.062 395.654 277.782 387.435 268.842 385.957C278.229 385.373 291.852 389.173 293.98 392.748C292.309 384.702 279.342 380.68 266.046 380.68C252.75 380.68 262.441 372.908 275.922 376.123C289.403 379.339 295.285 382.02 299.161 377.774C301.625 375.074 303.075 370.06 301.82 365.605C299.778 362.111 298.045 360.039 297.876 359.84C297.863 359.829 297.846 359.817 297.83 359.805Z" fill="#AA3333"/>
<path d="M159.643 161.214L157.105 165.899C157.105 165.899 149.231 178.88 145.718 181.564C142.204 184.249 151.054 197.914 158.472 205.852C165.89 213.791 173.568 218.476 173.568 218.476C173.568 218.476 179.685 212.229 182.287 212.229C184.89 212.229 183.849 176.049 183.849 176.049L159.643 161.214Z" fill="#E5A86C"/>
<path d="M183.849 176.05L159.643 161.214L157.105 165.899C157.105 165.899 155.767 168.105 153.949 170.885C155.769 177.149 162.237 178.561 168.721 177.75C166.238 190.788 166.78 206.838 174.225 217.827C175.869 216.232 180.202 212.229 182.288 212.229C184.89 212.23 183.849 176.05 183.849 176.05Z" fill="#DD965B"/>
<path d="M229.269 169.803C229.269 169.803 226.536 178.653 222.241 182.167C218.988 185.42 220.744 193.619 220.842 200.452C220.647 203.966 213.717 202.599 213.717 202.599C213.717 202.599 212.285 206.568 211.895 208.13C211.505 209.692 211.114 209.757 209.292 209.952C207.47 210.147 204.737 210.603 204.412 210.733C207.796 210.928 207.991 211.384 207.926 212.36C207.861 213.336 205.779 214.507 204.087 215.158C202.395 215.809 204.282 219.778 201.614 222.186C198.946 224.594 183.264 222.511 177.993 210.018C172.722 197.524 173.65 191.481 181.311 175.143L157.105 165.9C157.105 165.9 158.667 142.279 177.993 133.104C197.319 123.929 239.355 143.059 229.269 169.803Z" fill="#ECB67B"/>
<path d="M175.854 188.744C175.854 188.744 179.954 188.992 181.408 185.291C180.044 189.52 177.872 189.704 175.559 189.845L175.854 188.744Z" fill="#DD965B"/>
<path d="M213.419 195.704C213.419 195.704 210.402 197.25 210.011 199.038C209.62 200.826 213.206 202.276 213.206 202.276C213.206 202.276 211.825 200.938 211.7 199.429C211.575 197.92 213.419 195.704 213.419 195.704Z" fill="#DD965B"/>
<path d="M208.706 184.51L210.734 186.238C211.409 186.796 212.087 187.346 212.805 187.793C213.525 188.241 214.264 188.59 214.966 188.276C215.678 187.981 216.212 187.224 216.775 186.527C216.473 187.347 216.148 188.282 215.238 188.822C214.797 189.096 214.215 189.152 213.717 189.041C213.212 188.915 212.798 188.692 212.393 188.456C210.84 187.431 209.625 186.06 208.706 184.51Z" fill="#7A4313"/>
<path d="M208.502 180.866C208.502 180.866 212.862 179.89 216.506 180.541C220.15 181.192 221.582 182.298 222.427 180.866C223.274 179.434 216.831 175.335 208.502 180.866Z" fill="#7A4313"/>
<path d="M219.248 165.596C219.248 165.596 212.481 172.667 204.802 172.927C197.124 173.187 194.261 176.441 192.569 180.345C190.877 184.249 194.955 188.284 193.957 194.531C192.959 200.778 194.001 202.209 198.686 202.73C203.371 203.251 212.091 200.908 213.717 202.6C215.344 204.292 215.224 210.397 209.227 214.052C204.542 216.785 207.145 221.08 205.062 225.114C202.98 229.148 182.474 222.813 178.477 214.138C174.479 205.463 175.499 199.518 178.477 194.271C181.455 189.023 185.541 180.866 183.98 175.14C182.418 169.414 176.066 170.17 173.451 172.915C170.836 175.66 162.767 175.465 159.253 174.294C155.739 173.123 154.338 170.289 154.338 170.289C154.338 170.289 156.439 146.274 167.997 140.47C179.554 134.665 219.248 165.596 219.248 165.596Z" fill="#70360B"/>
<path d="M183.918 209.933C176.06 200.329 189.51 189.019 184.312 177.669C184.412 183.09 181.039 189.755 178.477 194.27C175.499 199.518 174.479 205.462 178.477 214.137C182.475 222.812 202.98 229.148 205.062 225.113C206.446 222.432 205.769 219.639 206.529 217.263C197.981 218.762 189.226 216.568 183.918 209.933Z" fill="#5E2E0B"/>
<path d="M219.248 165.596C219.248 165.596 179.555 134.665 167.996 140.469C164.987 141.98 162.624 144.73 160.767 147.965C174.686 159.003 190.758 167.131 208.333 172.338C214.438 170.602 219.248 165.596 219.248 165.596Z" fill="#5E2E0B"/>
<path d="M227.491 174.391C227.491 174.391 208.837 174.619 187.493 161.865C166.15 149.111 161.524 146.716 161.524 146.716C161.524 146.716 168.627 117.243 171.898 113.534C175.169 109.825 201.082 118.706 216.775 128.433C235.023 139.744 244.736 147.083 244.931 151.378C245.126 155.673 227.491 174.391 227.491 174.391Z" fill="#BC4646"/>
<path d="M199.034 149.109C182.124 139.004 170.35 131.676 166.179 129.062C164.937 133.386 163.777 137.782 162.925 141.109C166.667 143.459 175.465 148.917 190.793 158.077C212.136 170.831 230.791 170.603 230.791 170.603C230.791 170.603 232.751 168.521 235.355 165.592C236.455 164.302 237.572 162.961 238.638 161.632C235.884 161.582 218.595 160.798 199.034 149.109Z" fill="#E89191"/>
<path d="M185.15 175.269C185.15 175.269 187.883 169.152 184.239 166.419C180.595 163.686 173.958 167.896 172.266 176.918C170.574 185.94 175.129 189.389 177.407 188.868C179.685 188.347 180.661 187.111 181.637 184.769C182.613 182.427 185.15 175.269 185.15 175.269Z" fill="#ECB67B"/>
<path d="M103.127 391.394C103.127 391.394 97.955 381.024 97.564 365.798C97.174 350.571 86.242 353.695 83.509 337.687C80.776 321.68 86.242 314.652 86.632 304.11C87.023 293.568 81.166 283.808 85.851 274.438C90.536 265.068 84.68 257.259 89.365 241.642C94.05 226.025 101.078 211.189 109.667 205.462C118.256 199.736 127.609 184.135 139.945 182.525C141.94 191.247 151.703 201.818 157.104 206.764C162.505 211.709 178.122 223.097 178.968 224.561C179.814 226.025 190.616 248.764 188.794 258.217C186.972 267.67 189.054 271.314 191.137 277.821C193.219 284.328 195.562 305.411 195.302 312.959C195.042 320.507 213.262 343.412 218.988 345.234C224.714 347.056 232.523 351.481 232.523 351.481C232.523 351.481 187.233 358.248 173.699 371.263C160.164 384.277 155.739 397.031 155.739 397.031C155.739 397.031 134.396 370.742 132.574 360.851C130.947 378.485 140.398 401.418 140.398 401.418C140.398 401.418 110.415 384.97 103.127 391.394Z" fill="#EABBA2"/>
<path d="M191.657 361.513C182.191 358.039 161.344 349.964 157.635 344.946C152.807 338.415 155.907 304.693 164.489 295.456C173.071 286.218 174.084 275.491 174.382 265.657C174.382 265.657 169.013 281.206 166.038 282.046C170.508 266.849 173.786 246.287 169.012 236.454C172.284 259.995 160.376 279.662 160.376 279.662C160.376 279.662 139.815 304.097 118.658 279.662C97.5009 255.227 105.785 226.358 105.785 226.358C97.0839 245.763 103.758 263.571 105.785 269.828C107.812 276.086 99.8849 268.636 96.0109 252.843C95.1169 261.485 98.3949 274 104.355 285.622C110.315 297.244 113.295 310.355 110.613 308.865C107.931 307.375 99.2889 294.86 94.2239 278.172C93.3299 295.157 108.527 317.208 111.209 328.83C113.891 340.452 112.103 342.239 116.871 350.881C121.639 359.523 127.003 352.073 135.942 362.801C142.842 371.081 161.268 374.613 169.324 375.794C170.664 374.3 172.117 372.784 173.698 371.263C177.632 367.481 184.25 364.227 191.657 361.513Z" fill="#E5AC93"/>
<path d="M209.843 348.366C209.843 348.366 208.949 344.474 194.361 341.122C169.492 344.921 152.741 362.801 152.741 362.801C152.741 362.801 143.466 350.285 133.409 334.865C117.318 345.369 117.318 363.248 118.882 377.328C115.199 376.826 103.99 376.4 98.598 376.218C99.271 380.103 100.168 383.382 100.986 385.886C107.566 385.658 122.849 385.723 129.534 390.737C120.072 360.566 132.962 346.63 132.962 346.63C132.962 346.63 147.712 377.551 155.535 381.574C169.391 349.168 209.843 348.366 209.843 348.366Z" fill="#E59470"/>
<path d="M184.055 290.166C183.47 292.271 190.462 295.665 194.361 297.376C193.534 289.573 192.296 281.442 191.137 277.821C189.055 271.314 186.972 267.67 188.795 258.217C190.617 248.764 179.815 226.025 178.969 224.561C178.123 223.097 162.506 211.709 157.105 206.764C151.704 201.819 141.941 191.248 139.946 182.525C132.592 183.485 126.299 189.416 120.596 195.264C120.32 198.577 121.273 202.227 125.364 205.016C135.198 211.721 148.413 207.251 164.49 221.778C180.567 236.305 182.354 245.468 180.79 256.419C179.225 267.37 184.862 287.261 184.055 290.166Z" fill="#E59470"/>
<path d="M317.895 353.955C315.162 353.304 293.689 346.537 290.956 345.366C288.223 344.195 282.627 343.284 276.25 340.16C269.873 337.037 264.017 335.865 264.017 335.865C264.017 335.865 246.299 356.763 256.218 357.214C266.049 357.661 269.031 360.532 273.39 364.515C275.573 366.509 279.564 368.462 282.599 369.152C282.89 370.729 285.011 373.337 289.136 374.908C294.602 376.99 297.465 377.25 298.506 371.915C298.506 371.915 302.801 369.442 300.979 364.497C304.623 358.511 297.335 353.565 297.335 353.565C297.335 353.565 307.356 357.014 313.017 357.664C318.676 358.314 320.498 355.386 317.895 353.955Z" fill="#ECB67B"/>
<path d="M298.504 371.914C298.504 371.914 299.239 367.438 296.725 363.918C294.211 360.398 291.585 360.398 291.529 359.504C291.473 358.61 292.479 359.057 294.826 360.51C297.172 361.963 300.619 367.171 298.504 371.914Z" fill="#E5A86C"/>
<path d="M300.977 364.496C300.977 364.496 299.631 359.281 296.893 357.269C294.155 355.257 292.87 355.537 292.479 354.755C292.088 353.973 293.094 353.749 294.993 354.755C296.893 355.761 301.094 359.71 300.977 364.496Z" fill="#E5A86C"/>
<path d="M318.945 355.012C318.087 358.216 313.866 357.21 309.408 356.078C304.715 354.886 295.775 351.571 292.758 349.671C289.741 347.771 287.674 349.503 291.082 350.341C294.49 351.179 298.969 354.95 298.969 354.95C298.969 354.95 307.323 357.531 312.984 358.182C317.453 358.696 319.549 356.462 318.945 355.012Z" fill="#E5A86C"/>
<path d="M290.076 369.45C291.752 370.903 291.249 371.126 292.367 371.294C293.484 371.462 295.216 369.841 292.646 367.942C290.076 366.042 286.835 365.484 283.371 366.384C279.907 367.284 278.342 365.148 274.99 363.025C271.638 360.902 267.056 358.22 269.961 350.956C272.13 345.534 270.687 339.98 269.816 337.512C266.418 336.348 264.015 335.865 264.015 335.865C264.015 335.865 263.006 337.056 261.611 338.866L257.865 357.318C266.395 358.001 269.283 360.764 273.387 364.514C275.57 366.508 279.561 368.461 282.596 369.151C282.94 369.02 282.923 368.611 284.711 367.773C286.5 366.935 288.4 367.997 290.076 369.45Z" fill="#E5A86C"/>
<path d="M164.015 236.176C164.015 236.176 168.752 248.67 166.93 256.218C165.108 263.766 166.41 274.958 169.012 281.205C171.615 287.452 173.391 297.343 179.661 300.987C185.931 304.631 187.492 310.357 188.013 312.179C188.534 314.001 194 315.042 201.027 316.864C208.054 318.686 215.603 324.152 217.946 324.933C220.288 325.714 260.372 333.197 265.838 335.344C267.595 349.985 257.834 364.821 255.101 366.383C241.827 366.383 223.049 363.194 215.031 363.455C207.013 363.715 209.381 365.355 196.342 363.195C183.303 361.035 170.202 364.757 157.634 359.03C145.066 353.304 130.49 347.317 127.367 337.687C124.244 328.057 119.038 295.521 110.058 272.095C101.078 248.669 108.106 224.203 130.36 218.476C152.615 212.75 164.015 236.176 164.015 236.176Z" fill="#EFC3AF"/>
<path d="M148.159 227.216C148.755 227.067 160.973 233.325 163.207 244.052C165.442 254.78 165.442 268.487 163.207 271.467C160.972 274.447 159.184 273.255 148.159 261.037C137.134 248.819 134.899 258.206 138.027 263.123C141.156 268.04 145.626 275.787 155.906 281.598C166.187 287.409 172.295 295.223 177.51 301.075C182.725 306.927 186.897 310.503 184.513 313.036C182.129 315.569 173.487 314.526 163.803 306.48C154.118 298.434 151.883 294.858 145.924 285.174C139.964 275.489 129.833 257.908 133.557 251.948C137.282 245.988 143.242 251.054 146.371 246.584C149.5 242.114 138.772 234.813 140.56 230.195C142.348 225.577 148.159 227.216 148.159 227.216Z" fill="#F4CEBE"/>
<path d="M243.813 333.077C243.813 333.077 235.544 338.664 219.676 334.865C203.808 331.066 193.304 334.631 178.107 335.865C162.91 337.1 166.262 327.713 175.872 325.031C185.482 322.349 201.797 323.913 203.138 323.243C204.479 322.572 189.17 317.432 177.66 319.891C166.15 322.349 152.182 322.48 146.595 319.23C141.008 315.98 144.36 311.398 161.234 313.633C178.108 315.868 185.537 314.875 190.623 315.197C195.709 315.519 200.233 316.761 207.05 320.896C213.867 325.031 229.515 332.841 243.813 333.077Z" fill="#F4CEBE"/>
<path d="M232.311 364.74C237.169 365.246 242.346 365.779 247.252 366.096C256.973 355.165 258.019 338.173 258.112 333.312C254.558 332.502 250.188 331.574 245.651 330.636C247.357 348.685 236.762 360.59 232.311 364.74Z" fill="#E59470"/>
<path d="M136.856 183.231L149.362 174.391C149.362 174.391 158.862 197.329 167.452 204.942C176.041 212.555 181.703 214.019 178.97 224.561C169.6 221.926 155.674 210.902 147.736 201.662C139.796 192.422 136.856 183.231 136.856 183.231Z" fill="#EFC3AF"/>
</svg>
