<svg width="274" height="322" viewBox="0 0 274 322" fill="none" xmlns="http://www.w3.org/2000/svg">
<path d="M273.184 171.761C272.764 184.716 272.334 197.71 271.914 210.742C271.408 226.294 270.902 241.904 270.387 257.57C269.976 270.401 269.556 283.28 269.136 296.188C268.897 303.491 268.659 310.814 268.43 318.146C268.411 318.49 268.401 318.833 268.392 319.177L1.98108 321.42C1.45608 304.512 0.931082 287.633 0.635082 270.811C0.549082 265.999 0.48208 261.197 0.44408 256.395C0.36808 247.64 0.368082 238.895 0.482082 230.179C0.635082 218.446 0.988076 206.751 1.61808 195.113C2.62008 176.62 4.33908 158.261 7.06008 140.084C8.98908 127.224 12.0341 113.39 21.9921 105.19C28.2171 100.054 36.3221 97.8769 44.2651 96.5019C55.5881 94.5449 67.0921 93.9429 78.5681 93.3799C76.3341 90.6589 74.3861 87.7279 72.7921 84.5969C67.6271 74.4199 67.4081 61.4169 73.8421 51.9839C77.5461 46.5609 83.0931 42.6469 88.8601 39.5059C98.2641 34.3979 108.565 31.0089 117.635 25.3379C126.705 19.6669 134.772 10.9309 135.898 0.295898C138.361 13.3369 152.233 23.1899 164.682 27.8009C177.131 32.4029 191.013 36.2409 198.889 46.9239C208.302 59.6689 205.553 78.0659 197.61 91.7669C197.39 92.1489 197.152 92.5209 196.923 92.8939C208.952 94.3449 220.962 96.2449 232.935 98.2499C237.117 98.9469 241.336 99.6729 245.318 101.2C257.901 106.021 266.541 118.451 270.284 131.455C274.024 144.495 273.623 158.242 273.184 171.761Z" fill="#020B5E"/>
<path d="M271.272 257.57C270.862 270.401 270.441 283.28 270.021 296.188C269.773 303.835 269.525 311.501 269.276 319.177L2.86511 321.42C2.34011 304.512 1.81511 287.633 1.51911 270.811C1.28011 257.225 1.19411 243.678 1.36611 230.179C1.51911 218.446 1.87211 206.751 2.50211 195.113C47.0771 194.645 92.3021 202.913 136.151 212.422C151.025 215.639 166.033 219.095 180.917 223.057C212.452 231.44 243.414 242.075 271.272 257.57Z" fill="#020B5E"/>
<path d="M271.914 210.742C271.408 226.294 270.902 241.904 270.387 257.57C269.976 270.401 269.556 283.28 269.136 296.188C268.888 303.835 268.64 311.501 268.391 319.177L1.98003 321.42C1.45503 304.512 0.930033 287.633 0.634033 270.811C32.311 259.851 64.647 250.772 97.193 242.514C110.206 239.211 123.257 236.041 136.307 232.938C150.838 229.482 165.397 226.102 180.033 223.057C205.084 217.835 230.317 213.596 255.827 211.639C261.174 211.229 266.539 210.923 271.914 210.742Z" fill="#020B5E"/>
<path d="M268.43 318.146C268.411 318.49 268.401 318.833 268.392 319.177L1.98109 321.42C1.45609 304.512 0.931094 287.633 0.635094 270.811C0.549094 265.999 0.482092 261.197 0.444092 256.395C0.453092 255.058 0.463094 253.722 0.482094 252.385C33.0091 252.891 65.2591 257.569 97.1941 264.72C141.082 274.534 184.359 289.008 226.891 303.653C240.753 308.418 254.615 313.239 268.43 318.146Z" fill="#020B5E"/>
</svg>
