<svg width="877" height="394" viewBox="0 0 877 394" fill="none" xmlns="http://www.w3.org/2000/svg">
<path d="M376.598 291.584L380.456 293.9L388.787 280.023L374.489 287.608L376.598 291.584ZM111.402 12L115.26 14.3161L123.59 0.43963L109.293 8.02479L111.402 12ZM374.489 287.608C347.197 302.088 316.063 310.292 283 310.292V319.292C317.569 319.292 350.147 310.711 378.707 295.559L374.489 287.608ZM283 310.292C175.028 310.292 87.5 222.763 87.5 114.792H78.5C78.5 227.734 170.058 319.292 283 319.292V310.292ZM87.5 114.792C87.5 78.0432 97.6351 43.6755 115.26 14.3161L107.544 9.68387C89.1023 40.4033 78.5 76.3663 78.5 114.792H87.5ZM9.5 188.792C9.5 113.882 51.6306 48.8043 113.511 15.9752L109.293 8.02479C44.5873 42.3528 0.5 110.42 0.5 188.792H9.5ZM205 384.292C97.0283 384.292 9.5 296.763 9.5 188.792H0.5C0.5 301.734 92.0578 393.292 205 393.292V384.292ZM372.74 289.267C338.559 346.206 276.225 384.292 205 384.292V393.292C279.515 393.292 344.716 353.436 380.456 293.9L372.74 289.267Z" fill="#f1f1f1"/>
<mask id="mask0_316_787" style="mask-type:alpha" maskUnits="userSpaceOnUse" x="5" y="12" width="372" height="377">
<mask id="path-2-inside-1_316_787" fill="white">
<path fill-rule="evenodd" clip-rule="evenodd" d="M376.598 291.584C348.672 306.399 316.816 314.792 283 314.792C172.543 314.792 83 225.249 83 114.792C83 77.2047 93.3687 42.0394 111.402 12C48.109 45.5785 5 112.151 5 188.792C5 299.249 94.5431 388.792 205 388.792C277.87 388.792 341.638 349.821 376.598 291.584Z"/>
</mask>
<path fill-rule="evenodd" clip-rule="evenodd" d="M376.598 291.584C348.672 306.399 316.816 314.792 283 314.792C172.543 314.792 83 225.249 83 114.792C83 77.2047 93.3687 42.0394 111.402 12C48.109 45.5785 5 112.151 5 188.792C5 299.249 94.5431 388.792 205 388.792C277.87 388.792 341.638 349.821 376.598 291.584Z" fill="#6C4242"/>
<path d="M376.598 291.584L377.456 292.098L379.307 289.015L376.13 290.7L376.598 291.584ZM111.402 12L112.259 12.5147L114.11 9.43103L110.933 11.1166L111.402 12ZM376.13 290.7C348.344 305.441 316.649 313.792 283 313.792V315.792C316.983 315.792 349 307.357 377.067 292.467L376.13 290.7ZM283 313.792C173.095 313.792 84 224.696 84 114.792H82C82 225.801 171.991 315.792 283 315.792V313.792ZM84 114.792C84 77.3911 94.3168 42.403 112.259 12.5147L110.544 11.4853C92.4206 41.6758 82 77.0184 82 114.792H84ZM6 188.792C6 112.535 48.8916 46.2954 111.87 12.8834L110.933 11.1166C47.3264 44.8617 4 111.766 4 188.792H6ZM205 387.792C95.0953 387.792 6 298.696 6 188.792H4C4 299.801 93.9908 389.792 205 389.792V387.792ZM375.741 291.069C340.953 349.018 277.504 387.792 205 387.792V389.792C278.235 389.792 342.322 350.624 377.456 292.098L375.741 291.069Z" fill="#f1f1f1" mask="url(#path-2-inside-1_316_787)"/>
</mask>
<g mask="url(#mask0_316_787)">
<rect x="-150" y="-27" width="579.543" height="510" stroke="#f1f1f1"/>
<path d="M318.466 -11.5455L332.954 11.6363L318.466 34.8181M313.636 -3.81821H342.613L357.102 -27M313.636 27.0908H342.613L357.102 50.2726M347.443 50.2726L361.931 27.0908H390.909M386.079 34.8181L371.59 11.6363L386.079 -11.5455M390.909 -3.81821H361.931L347.443 -27M332.954 -19.2727V1.3333L313.636 11.6363L332.954 21.9393V42.5454L352.272 32.2424L371.59 42.5454V21.9393L390.909 11.6363L371.59 1.3333V-19.2727L352.272 -8.96972L332.954 -19.2727Z" stroke="#f1f1f1" stroke-width="2"/>
<path d="M318.466 235.727L332.954 258.909L318.466 282.091M313.636 243.454H342.613L357.102 220.272M313.636 274.363H342.613L357.102 297.545M347.443 297.545L361.931 274.363H390.909M386.079 282.091L371.59 258.909L386.079 235.727M390.909 243.454H361.931L347.443 220.272M332.954 228V248.606L313.636 258.909L332.954 269.212V289.818L352.272 279.515L371.59 289.818V269.212L390.909 258.909L371.59 248.606V228L352.272 238.303L332.954 228Z" stroke="#f1f1f1" stroke-width="2"/>
<path d="M318.466 112.092L332.954 135.274L318.466 158.456M313.636 119.819H342.613L357.102 96.6377M313.636 150.729H342.613L357.102 173.91M347.443 173.91L361.931 150.729H390.909M386.079 158.456L371.59 135.274L386.079 112.092M390.909 119.819H361.931L347.443 96.6377M332.954 104.365V124.971L313.636 135.274L332.954 145.577V166.183L352.272 155.88L371.59 166.183V145.577L390.909 135.274L371.59 124.971V104.365L352.272 114.668L332.954 104.365Z" stroke="#f1f1f1" stroke-width="2"/>
<path d="M318.466 359.364L332.954 382.545L318.466 405.727M313.636 367.091H342.613L357.102 343.909M313.636 398H342.613L357.102 421.182M347.443 421.182L361.931 398H390.909M386.079 405.727L371.59 382.545L386.079 359.364M390.909 367.091H361.931L347.443 343.909M332.954 351.636V372.242L313.636 382.545L332.954 392.849V413.455L352.272 403.152L371.59 413.455V392.849L390.909 382.545L371.59 372.242V351.636L352.272 361.939L332.954 351.636Z" stroke="#f1f1f1" stroke-width="2"/>
<path d="M241.193 -11.5455L255.682 11.6363L241.193 34.8181M236.364 -3.81821H265.341L279.829 -27M236.364 27.0908H265.341L279.829 50.2726M270.17 50.2726L284.659 27.0908H313.636M308.807 34.8181L294.318 11.6363L308.807 -11.5455M313.636 -3.81821H284.659L270.17 -27M255.682 -19.2727V1.3333L236.364 11.6363L255.682 21.9393V42.5454L275 32.2424L294.318 42.5454V21.9393L313.636 11.6363L294.318 1.3333V-19.2727L275 -8.96972L255.682 -19.2727Z" stroke="#f1f1f1" stroke-width="2"/>
<path d="M241.193 235.727L255.682 258.909L241.193 282.091M236.364 243.454H265.341L279.829 220.272M236.364 274.363H265.341L279.829 297.545M270.17 297.545L284.659 274.363H313.636M308.807 282.091L294.318 258.909L308.807 235.727M313.636 243.454H284.659L270.17 220.272M255.682 228V248.606L236.364 258.909L255.682 269.212V289.818L275 279.515L294.318 289.818V269.212L313.636 258.909L294.318 248.606V228L275 238.303L255.682 228Z" stroke="#f1f1f1" stroke-width="2"/>
<path d="M241.193 112.092L255.682 135.274L241.193 158.456M236.364 119.819H265.341L279.829 96.6377M236.364 150.729H265.341L279.829 173.91M270.17 173.91L284.659 150.729H313.636M308.807 158.456L294.318 135.274L308.807 112.092M313.636 119.819H284.659L270.17 96.6377M255.682 104.365V124.971L236.364 135.274L255.682 145.577V166.183L275 155.88L294.318 166.183V145.577L313.636 135.274L294.318 124.971V104.365L275 114.668L255.682 104.365Z" stroke="#f1f1f1" stroke-width="2"/>
<path d="M241.193 359.364L255.682 382.545L241.193 405.727M236.364 367.091H265.341L279.829 343.909M236.364 398H265.341L279.829 421.182M270.17 421.182L284.659 398H313.636M308.807 405.727L294.318 382.545L308.807 359.364M313.636 367.091H284.659L270.17 343.909M255.682 351.636V372.242L236.364 382.545L255.682 392.849V413.455L275 403.152L294.318 413.455V392.849L313.636 382.545L294.318 372.242V351.636L275 361.939L255.682 351.636Z" stroke="#f1f1f1" stroke-width="2"/>
<path d="M163.92 -11.5455L178.409 11.6363L163.92 34.8181M159.091 -3.81821H188.068L202.557 -27M159.091 27.0908H188.068L202.557 50.2726M192.898 50.2726L207.386 27.0908H236.363M231.534 34.8181L217.045 11.6363L231.534 -11.5455M236.363 -3.81821H207.386L192.898 -27M178.409 -19.2727V1.3333L159.091 11.6363L178.409 21.9393V42.5454L197.727 32.2424L217.045 42.5454V21.9393L236.363 11.6363L217.045 1.3333V-19.2727L197.727 -8.96972L178.409 -19.2727Z" stroke="#f1f1f1" stroke-width="2"/>
<path d="M163.92 235.727L178.409 258.909L163.92 282.091M159.091 243.454H188.068L202.557 220.272M159.091 274.363H188.068L202.557 297.545M192.898 297.545L207.386 274.363H236.363M231.534 282.091L217.045 258.909L231.534 235.727M236.363 243.454H207.386L192.898 220.272M178.409 228V248.606L159.091 258.909L178.409 269.212V289.818L197.727 279.515L217.045 289.818V269.212L236.363 258.909L217.045 248.606V228L197.727 238.303L178.409 228Z" stroke="#f1f1f1" stroke-width="2"/>
<path d="M163.92 112.092L178.409 135.274L163.92 158.456M159.091 119.819H188.068L202.557 96.6377M159.091 150.729H188.068L202.557 173.91M192.898 173.91L207.386 150.729H236.363M231.534 158.456L217.045 135.274L231.534 112.092M236.363 119.819H207.386L192.898 96.6377M178.409 104.365V124.971L159.091 135.274L178.409 145.577V166.183L197.727 155.88L217.045 166.183V145.577L236.363 135.274L217.045 124.971V104.365L197.727 114.668L178.409 104.365Z" stroke="#f1f1f1" stroke-width="2"/>
<path d="M163.92 359.364L178.409 382.545L163.92 405.727M159.091 367.091H188.068L202.557 343.909M159.091 398H188.068L202.557 421.182M192.898 421.182L207.386 398H236.363M231.534 405.727L217.045 382.545L231.534 359.364M236.363 367.091H207.386L192.898 343.909M178.409 351.636V372.242L159.091 382.545L178.409 392.849V413.455L197.727 403.152L217.045 413.455V392.849L236.363 382.545L217.045 372.242V351.636L197.727 361.939L178.409 351.636Z" stroke="#f1f1f1" stroke-width="2"/>
<path d="M86.6469 -11.5455L101.136 11.6363L86.6469 34.8181M81.8174 -3.81821H110.795L125.283 -27M81.8174 27.0908H110.795L125.283 50.2726M115.624 50.2726L130.113 27.0908H159.09M154.261 34.8181L139.772 11.6363L154.261 -11.5455M159.09 -3.81821H130.113L115.624 -27M101.136 -19.2727V1.3333L81.8174 11.6363L101.136 21.9393V42.5454L120.454 32.2424L139.772 42.5454V21.9393L159.09 11.6363L139.772 1.3333V-19.2727L120.454 -8.96972L101.136 -19.2727Z" stroke="#f1f1f1" stroke-width="2"/>
<path d="M86.6469 235.727L101.136 258.909L86.6469 282.091M81.8174 243.454H110.795L125.283 220.272M81.8174 274.363H110.795L125.283 297.545M115.624 297.545L130.113 274.363H159.09M154.261 282.091L139.772 258.909L154.261 235.727M159.09 243.454H130.113L115.624 220.272M101.136 228V248.606L81.8174 258.909L101.136 269.212V289.818L120.454 279.515L139.772 289.818V269.212L159.09 258.909L139.772 248.606V228L120.454 238.303L101.136 228Z" stroke="#f1f1f1" stroke-width="2"/>
<path d="M86.6469 112.092L101.136 135.274L86.6469 158.456M81.8174 119.819H110.795L125.283 96.6377M81.8174 150.729H110.795L125.283 173.91M115.624 173.91L130.113 150.729H159.09M154.261 158.456L139.772 135.274L154.261 112.092M159.09 119.819H130.113L115.624 96.6377M101.136 104.365V124.971L81.8174 135.274L101.136 145.577V166.183L120.454 155.88L139.772 166.183V145.577L159.09 135.274L139.772 124.971V104.365L120.454 114.668L101.136 104.365Z" stroke="#f1f1f1" stroke-width="2"/>
<path d="M86.6469 359.364L101.136 382.545L86.6469 405.727M81.8174 367.091H110.795L125.283 343.909M81.8174 398H110.795L125.283 421.182M115.624 421.182L130.113 398H159.09M154.261 405.727L139.772 382.545L154.261 359.364M159.09 367.091H130.113L115.624 343.909M101.136 351.636V372.242L81.8174 382.545L101.136 392.849V413.455L120.454 403.152L139.772 413.455V392.849L159.09 382.545L139.772 372.242V351.636L120.454 361.939L101.136 351.636Z" stroke="#f1f1f1" stroke-width="2"/>
<path d="M125.284 50.2739L139.773 73.4557L125.284 96.6374M120.454 58.0011H149.432L163.92 34.8193M120.454 88.9102H149.432L163.92 112.092M154.261 112.092L168.75 88.9102H197.727M192.897 96.6374L178.409 73.4557L192.897 50.2739M197.727 58.0011H168.75L154.261 34.8193M139.773 42.5466V63.1526L120.454 73.4557L139.773 83.7587V104.365L159.091 94.0617L178.409 104.365V83.7587L197.727 73.4557L178.409 63.1526V42.5466L159.091 52.8496L139.773 42.5466Z" stroke="#f1f1f1" stroke-width="2"/>
<path d="M125.284 297.547L139.773 320.729L125.284 343.911M120.454 305.275H149.432L163.92 282.093M120.454 336.184H149.432L163.92 359.365M154.261 359.365L168.75 336.184H197.727M192.897 343.911L178.409 320.729L192.897 297.547M197.727 305.275H168.75L154.261 282.093M139.773 289.82V310.426L120.454 320.729L139.773 331.032V351.638L159.091 341.335L178.409 351.638V331.032L197.727 320.729L178.409 310.426V289.82L159.091 300.123L139.773 289.82Z" stroke="#f1f1f1" stroke-width="2"/>
<path d="M125.284 173.91L139.772 197.091L125.284 220.273M120.454 181.637H149.431L163.92 158.455M120.454 212.546H149.431L163.92 235.728M154.261 235.728L168.75 212.546H197.727M192.897 220.273L178.409 197.091L192.897 173.91M197.727 181.637H168.75L154.261 158.455M139.772 166.182V186.788L120.454 197.091L139.772 207.394V228L159.09 217.697L178.409 228V207.394L197.727 197.091L178.409 186.788V166.182L159.09 176.485L139.772 166.182Z" stroke="#f1f1f1" stroke-width="2"/>
<path d="M202.557 50.2739L217.045 73.4557L202.557 96.6374M197.727 58.0011H226.704L241.193 34.8193M197.727 88.9102H226.704L241.193 112.092M231.534 112.092L246.022 88.9102H275M270.17 96.6374L255.682 73.4557L270.17 50.2739M275 58.0011H246.022L231.534 34.8193M217.045 42.5466V63.1526L197.727 73.4557L217.045 83.7587V104.365L236.363 94.0617L255.682 104.365V83.7587L275 73.4557L255.682 63.1526V42.5466L236.363 52.8496L217.045 42.5466Z" stroke="#f1f1f1" stroke-width="2"/>
<path d="M202.557 297.547L217.045 320.729L202.557 343.911M197.727 305.275H226.704L241.193 282.093M197.727 336.184H226.704L241.193 359.365M231.534 359.365L246.022 336.184H275M270.17 343.911L255.682 320.729L270.17 297.547M275 305.275H246.022L231.534 282.093M217.045 289.82V310.426L197.727 320.729L217.045 331.032V351.638L236.363 341.335L255.682 351.638V331.032L275 320.729L255.682 310.426V289.82L236.363 300.123L217.045 289.82Z" stroke="#f1f1f1" stroke-width="2"/>
<path d="M202.557 173.91L217.045 197.091L202.557 220.273M197.727 181.637H226.704L241.193 158.455M197.727 212.546H226.704L241.193 235.728M231.534 235.728L246.022 212.546H275M270.17 220.273L255.682 197.091L270.17 173.91M275 181.637H246.022L231.534 158.455M217.045 166.182V186.788L197.727 197.091L217.045 207.394V228L236.363 217.697L255.682 228V207.394L275 197.091L255.682 186.788V166.182L236.363 176.485L217.045 166.182Z" stroke="#f1f1f1" stroke-width="2"/>
<path d="M279.829 50.2739L294.317 73.4557L279.829 96.6374M274.999 58.0011H303.976L318.465 34.8193M274.999 88.9102H303.976L318.465 112.092M308.806 112.092L323.294 88.9102H352.272M347.442 96.6374L332.954 73.4557L347.442 50.2739M352.272 58.0011H323.294L308.806 34.8193M294.317 42.5466V63.1526L274.999 73.4557L294.317 83.7587V104.365L313.635 94.0617L332.954 104.365V83.7587L352.272 73.4557L332.954 63.1526V42.5466L313.635 52.8496L294.317 42.5466Z" stroke="#f1f1f1" stroke-width="2"/>
<path d="M279.829 297.547L294.317 320.729L279.829 343.911M274.999 305.275H303.976L318.465 282.093M274.999 336.184H303.976L318.465 359.365M308.806 359.365L323.294 336.184H352.272M347.442 343.911L332.954 320.729L347.442 297.547M352.272 305.275H323.294L308.806 282.093M294.317 289.82V310.426L274.999 320.729L294.317 331.032V351.638L313.635 341.335L332.954 351.638V331.032L352.272 320.729L332.954 310.426V289.82L313.635 300.123L294.317 289.82Z" stroke="#f1f1f1" stroke-width="2"/>
<path d="M279.828 173.91L294.317 197.091L279.828 220.273M274.999 181.637H303.976L318.465 158.455M274.999 212.546H303.976L318.465 235.728M308.806 235.728L323.294 212.546H352.271M347.442 220.273L332.953 197.091L347.442 173.91M352.271 181.637H323.294L308.806 158.455M294.317 166.182V186.788L274.999 197.091L294.317 207.394V228L313.635 217.697L332.953 228V207.394L352.271 197.091L332.953 186.788V166.182L313.635 176.485L294.317 166.182Z" stroke="#f1f1f1" stroke-width="2"/>
<path d="M357.1 50.2739L371.589 73.4557L357.1 96.6374M352.271 58.0011H381.248L395.737 34.8193M352.271 88.9102H381.248L395.737 112.092M386.078 112.092L400.566 88.9102H429.543M424.714 96.6374L410.225 73.4557L424.714 50.2739M429.543 58.0011H400.566L386.078 34.8193M371.589 42.5466V63.1526L352.271 73.4557L371.589 83.7587V104.365L390.907 94.0617L410.225 104.365V83.7587L429.543 73.4557L410.225 63.1526V42.5466L390.907 52.8496L371.589 42.5466Z" stroke="#f1f1f1" stroke-width="2"/>
<path d="M357.1 297.547L371.589 320.729L357.1 343.911M352.271 305.275H381.248L395.737 282.093M352.271 336.184H381.248L395.737 359.365M386.078 359.365L400.566 336.184H429.543M424.714 343.911L410.225 320.729L424.714 297.547M429.543 305.275H400.566L386.078 282.093M371.589 289.82V310.426L352.271 320.729L371.589 331.032V351.638L390.907 341.335L410.225 351.638V331.032L429.543 320.729L410.225 310.426V289.82L390.907 300.123L371.589 289.82Z" stroke="#f1f1f1" stroke-width="2"/>
<path d="M357.1 173.91L371.589 197.091L357.1 220.273M352.271 181.637H381.248L395.737 158.455M352.271 212.546H381.248L395.737 235.728M386.078 235.728L400.566 212.546H429.543M424.714 220.273L410.225 197.091L424.714 173.91M429.543 181.637H400.566L386.078 158.455M371.589 166.182V186.788L352.271 197.091L371.589 207.394V228L390.907 217.697L410.225 228V207.394L429.543 197.091L410.225 186.788V166.182L390.907 176.485L371.589 166.182Z" stroke="#f1f1f1" stroke-width="2"/>
<path d="M9.37593 112.092L23.8646 135.274L9.37593 158.456M4.54639 119.819H33.5236L48.0123 96.6377M4.54639 150.729H33.5236L48.0123 173.91M38.3532 173.91L52.8418 150.729H81.8191M76.9895 158.456L62.5009 135.274L76.9895 112.092M81.8191 119.819H52.8418L38.3532 96.6377M23.8646 104.365V124.971L4.54639 135.274L23.8646 145.577V166.183L43.1827 155.88L62.5009 166.183V145.577L81.8191 135.274L62.5009 124.971V104.365L43.1827 114.668L23.8646 104.365Z" stroke="#f1f1f1" stroke-width="2"/>
<path d="M9.37593 359.364L23.8646 382.545L9.37593 405.727M4.54639 367.091H33.5236L48.0123 343.909M4.54639 398H33.5236L48.0123 421.182M38.3532 421.182L52.8418 398H81.8191M76.9895 405.727L62.5009 382.545L76.9895 359.364M81.8191 367.091H52.8418L38.3532 343.909M23.8646 351.636V372.242L4.54639 382.545L23.8646 392.849V413.455L43.1827 403.152L62.5009 413.455V392.849L81.8191 382.545L62.5009 372.242V351.636L43.1827 361.939L23.8646 351.636Z" stroke="#f1f1f1" stroke-width="2"/>
<path d="M9.37593 -11.5455L23.8646 11.6363L9.37593 34.8181M4.54639 -3.81821H33.5236L48.0123 -27M4.54639 27.0908H33.5236L48.0123 50.2726M38.3532 50.2726L52.8418 27.0908H81.8191M76.9895 34.8181L62.5009 11.6363L76.9895 -11.5455M81.8191 -3.81821H52.8418L38.3532 -27M23.8646 -19.2727V1.3333L4.54639 11.6363L23.8646 21.9393V42.5454L43.1827 32.2424L62.5009 42.5454V21.9393L81.8191 11.6363L62.5009 1.3333V-19.2727L43.1827 -8.96972L23.8646 -19.2727Z" stroke="#f1f1f1" stroke-width="2"/>
<path d="M9.37593 235.727L23.8646 258.909L9.37593 282.091M4.54639 243.454H33.5236L48.0123 220.272M4.54639 274.363H33.5236L48.0123 297.545M38.3532 297.545L52.8418 274.363H81.8191M76.9895 282.091L62.5009 258.909L76.9895 235.727M81.8191 243.454H52.8418L38.3532 220.272M23.8646 228V248.606L4.54639 258.909L23.8646 269.212V289.818L43.1827 279.515L62.5009 289.818V269.212L81.8191 258.909L62.5009 248.606V228L43.1827 238.303L23.8646 228Z" stroke="#f1f1f1" stroke-width="2"/>
<path d="M-29.262 50.2739L-14.7734 73.4557L-29.262 96.6374M-34.0916 58.0011H-5.1143L9.37432 34.8193M-34.0916 88.9102H-5.1143L9.37432 112.092M-0.28476 112.092L14.2039 88.9102H43.1811M38.3516 96.6374L23.8629 73.4557L38.3516 50.2739M43.1811 58.0011H14.2039L-0.28476 34.8193M-14.7734 42.5466V63.1526L-34.0916 73.4557L-14.7734 83.7587V104.365L4.54478 94.0617L23.8629 104.365V83.7587L43.1811 73.4557L23.8629 63.1526V42.5466L4.54478 52.8496L-14.7734 42.5466Z" stroke="#f1f1f1" stroke-width="2"/>
<path d="M-29.262 297.547L-14.7734 320.729L-29.262 343.911M-34.0916 305.275H-5.1143L9.37432 282.093M-34.0916 336.184H-5.1143L9.37432 359.365M-0.28476 359.365L14.2039 336.184H43.1811M38.3516 343.911L23.8629 320.729L38.3516 297.547M43.1811 305.275H14.2039L-0.28476 282.093M-14.7734 289.82V310.426L-34.0916 320.729L-14.7734 331.032V351.638L4.54478 341.335L23.8629 351.638V331.032L43.1811 320.729L23.8629 310.426V289.82L4.54478 300.123L-14.7734 289.82Z" stroke="#f1f1f1" stroke-width="2"/>
<path d="M-67.8985 112.092L-53.4099 135.274L-67.8985 158.456M-72.728 119.819H-43.7508L-29.2622 96.6377M-72.728 150.729H-43.7508L-29.2622 173.91M-38.9212 173.91L-24.4326 150.729H4.54464M-0.2849 158.456L-14.7735 135.274L-0.2849 112.092M4.54464 119.819H-24.4326L-38.9212 96.6377M-53.4099 104.365V124.971L-72.728 135.274L-53.4099 145.577V166.183L-34.0917 155.88L-14.7735 166.183V145.577L4.54464 135.274L-14.7735 124.971V104.365L-34.0917 114.668L-53.4099 104.365Z" stroke="#f1f1f1" stroke-width="2"/>
<path d="M-67.8985 359.364L-53.4099 382.545L-67.8985 405.727M-72.728 367.091H-43.7508L-29.2622 343.909M-72.728 398H-43.7508L-29.2622 421.182M-38.9212 421.182L-24.4326 398H4.54464M-0.2849 405.727L-14.7735 382.545L-0.2849 359.364M4.54464 367.091H-24.4326L-38.9212 343.909M-53.4099 351.636V372.242L-72.728 382.545L-53.4099 392.849V413.455L-34.0917 403.152L-14.7735 413.455V392.849L4.54464 382.545L-14.7735 372.242V351.636L-34.0917 361.939L-53.4099 351.636Z" stroke="#f1f1f1" stroke-width="2"/>
<path d="M-67.8985 -11.5455L-53.4099 11.6363L-67.8985 34.8181M-72.728 -3.81821H-43.7508L-29.2622 -27M-72.728 27.0908H-43.7508L-29.2622 50.2726M-38.9212 50.2726L-24.4326 27.0908H4.54464M-0.2849 34.8181L-14.7735 11.6363L-0.2849 -11.5455M4.54464 -3.81821H-24.4326L-38.9212 -27M-53.4099 -19.2727V1.3333L-72.728 11.6363L-53.4099 21.9393V42.5454L-34.0917 32.2424L-14.7735 42.5454V21.9393L4.54464 11.6363L-14.7735 1.3333V-19.2727L-34.0917 -8.96972L-53.4099 -19.2727Z" stroke="#f1f1f1" stroke-width="2"/>
<path d="M-67.8985 235.727L-53.4099 258.909L-67.8985 282.091M-72.728 243.454H-43.7508L-29.2622 220.272M-72.728 274.363H-43.7508L-29.2622 297.545M-38.9212 297.545L-24.4326 274.363H4.54464M-0.2849 282.091L-14.7735 258.909L-0.2849 235.727M4.54464 243.454H-24.4326L-38.9212 220.272M-53.4099 228V248.606L-72.728 258.909L-53.4099 269.212V289.818L-34.0917 279.515L-14.7735 289.818V269.212L4.54464 258.909L-14.7735 248.606V228L-34.0917 238.303L-53.4099 228Z" stroke="#f1f1f1" stroke-width="2"/>
<path d="M48.0107 173.91L62.4993 197.091L48.0107 220.273M43.1812 181.637H72.1584L86.647 158.455M43.1812 212.546H72.1584L86.647 235.728M76.9879 235.728L91.4766 212.546H120.454M115.624 220.273L101.136 197.091L115.624 173.91M120.454 181.637H91.4766L76.9879 158.455M62.4993 166.182V186.788L43.1812 197.091L62.4993 207.394V228L81.8175 217.697L101.136 228V207.394L120.454 197.091L101.136 186.788V166.182L81.8175 176.485L62.4993 166.182Z" stroke="#f1f1f1" stroke-width="2"/>
<path d="M-29.262 173.91L-14.7734 197.091L-29.262 220.273M-34.0916 181.637H-5.1143L9.37432 158.455M-34.0916 212.546H-5.1143L9.37432 235.728M-0.28476 235.728L14.2039 212.546H43.1811M38.3516 220.273L23.8629 197.091L38.3516 173.91M43.1811 181.637H14.2039L-0.28476 158.455M-14.7734 166.182V186.788L-34.0916 197.091L-14.7734 207.394V228L4.54478 217.697L23.8629 228V207.394L43.1811 197.091L23.8629 186.788V166.182L4.54478 176.485L-14.7734 166.182Z" stroke="#f1f1f1" stroke-width="2"/>
<path d="M48.0107 50.2739L62.4993 73.4557L48.0107 96.6374M43.1812 58.0011H72.1584L86.647 34.8193M43.1812 88.9102H72.1584L86.647 112.092M76.9879 112.092L91.4766 88.9102H120.454M115.624 96.6374L101.136 73.4557L115.624 50.2739M120.454 58.0011H91.4766L76.9879 34.8193M62.4993 42.5466V63.1526L43.1812 73.4557L62.4993 83.7587V104.365L81.8175 94.0617L101.136 104.365V83.7587L120.454 73.4557L101.136 63.1526V42.5466L81.8175 52.8496L62.4993 42.5466Z" stroke="#f1f1f1" stroke-width="2"/>
<path d="M48.0107 297.547L62.4993 320.729L48.0107 343.911M43.1812 305.275H72.1584L86.647 282.093M43.1812 336.184H72.1584L86.647 359.365M76.9879 359.365L91.4766 336.184H120.454M115.624 343.911L101.136 320.729L115.624 297.547M120.454 305.275H91.4766L76.9879 282.093M62.4993 289.82V310.426L43.1812 320.729L62.4993 331.032V351.638L81.8175 341.335L101.136 351.638V331.032L120.454 320.729L101.136 310.426V289.82L81.8175 300.123L62.4993 289.82Z" stroke="#f1f1f1" stroke-width="2"/>
</g>
<path d="M268.531 176.977L246.324 261H225.348L211.402 207.094C210.66 204.281 210.211 201.137 210.055 197.66H209.82C209.469 201.488 208.961 204.633 208.297 207.094L194 261H172.145L150.055 176.977H170.738L182.574 232.934C183.082 235.316 183.453 238.52 183.688 242.543H184.039C184.195 239.535 184.762 236.254 185.738 232.699L200.973 176.977H221.246L235.016 233.402C235.523 235.473 235.973 238.48 236.363 242.426H236.598C236.754 239.34 237.164 236.215 237.828 233.051L249.43 176.977H268.531ZM298.121 261H279.195V176.977H298.121V261ZM387.125 261H363.219L338.727 224.496C338.258 223.793 337.516 222.25 336.5 219.867H336.207V261H317.281V176.977H336.207V216.703H336.5C336.969 215.609 337.75 214.047 338.844 212.016L362.047 176.977H384.605L355.309 217.055L387.125 261ZM414.137 261H395.211V176.977H414.137V261ZM429.43 257.777V239.027C432.828 241.879 436.52 244.027 440.504 245.473C444.488 246.879 448.512 247.582 452.574 247.582C454.957 247.582 457.027 247.367 458.785 246.938C460.582 246.508 462.066 245.922 463.238 245.18C464.449 244.398 465.348 243.5 465.934 242.484C466.52 241.43 466.812 240.297 466.812 239.086C466.812 237.445 466.344 235.98 465.406 234.691C464.469 233.402 463.18 232.211 461.539 231.117C459.938 230.023 458.023 228.969 455.797 227.953C453.57 226.938 451.168 225.902 448.59 224.848C442.027 222.113 437.125 218.773 433.883 214.828C430.68 210.883 429.078 206.117 429.078 200.531C429.078 196.156 429.957 192.406 431.715 189.281C433.473 186.117 435.855 183.52 438.863 181.488C441.91 179.457 445.426 177.973 449.41 177.035C453.395 176.059 457.613 175.57 462.066 175.57C466.441 175.57 470.309 175.844 473.668 176.391C477.066 176.898 480.191 177.699 483.043 178.793V196.312C481.637 195.336 480.094 194.477 478.414 193.734C476.773 192.992 475.074 192.387 473.316 191.918C471.559 191.41 469.801 191.039 468.043 190.805C466.324 190.57 464.684 190.453 463.121 190.453C460.973 190.453 459.02 190.668 457.262 191.098C455.504 191.488 454.02 192.055 452.809 192.797C451.598 193.539 450.66 194.438 449.996 195.492C449.332 196.508 449 197.66 449 198.949C449 200.355 449.371 201.625 450.113 202.758C450.855 203.852 451.91 204.906 453.277 205.922C454.645 206.898 456.305 207.875 458.258 208.852C460.211 209.789 462.418 210.766 464.879 211.781C468.238 213.188 471.246 214.691 473.902 216.293C476.598 217.855 478.902 219.633 480.816 221.625C482.73 223.617 484.195 225.902 485.211 228.48C486.227 231.02 486.734 233.988 486.734 237.387C486.734 242.074 485.836 246.02 484.039 249.223C482.281 252.387 479.879 254.965 476.832 256.957C473.785 258.91 470.23 260.316 466.168 261.176C462.145 262.035 457.887 262.465 453.395 262.465C448.785 262.465 444.391 262.074 440.211 261.293C436.07 260.512 432.477 259.34 429.43 257.777ZM550.602 261H500.562V176.977H519.488V245.648H550.602V261ZM638.551 261H617.926L611.949 242.309H582.066L576.148 261H555.641L586.227 176.977H608.668L638.551 261ZM607.613 227.777L598.59 199.535C597.926 197.426 597.457 194.906 597.184 191.977H596.715C596.52 194.438 596.031 196.879 595.25 199.301L586.109 227.777H607.613ZM744.781 261H726.09V210.727C726.09 205.297 726.324 199.301 726.793 192.738H726.324C725.348 197.895 724.469 201.605 723.688 203.871L704 261H688.531L668.492 204.457C667.945 202.934 667.066 199.027 665.855 192.738H665.328C665.836 201.02 666.09 208.285 666.09 214.535V261H649.039V176.977H676.754L693.922 226.781C695.289 230.766 696.285 234.77 696.91 238.793H697.262C698.316 234.145 699.43 230.102 700.602 226.664L717.77 176.977H744.781V261ZM782.809 261H763.883V176.977H782.809V261ZM875.855 261H855.23L849.254 242.309H819.371L813.453 261H792.945L823.531 176.977H845.973L875.855 261ZM844.918 227.777L835.895 199.535C835.23 197.426 834.762 194.906 834.488 191.977H834.02C833.824 194.438 833.336 196.879 832.555 199.301L823.414 227.777H844.918Z" fill="#f1f1f1"/>
<path d="M766.941 133.067L766.418 133.409C764.129 134.909 762.158 136.844 760.618 139.105C759.077 141.366 757.997 143.908 757.439 146.586C756.312 151.995 757.379 157.631 760.407 162.253C763.435 166.874 768.175 170.104 773.584 171.231C776.262 171.79 779.024 171.815 781.712 171.305C784.4 170.796 786.962 169.762 789.25 168.263C794.478 164.838 796.299 161.155 797.724 156.486C789.851 165.379 776.571 164.116 770.863 155.403C765.155 146.689 769.302 134.01 780.599 130.345C778.256 129.86 775.84 129.85 773.493 130.318C771.147 130.785 768.918 131.72 766.941 133.067ZM779.577 135.249L780.959 143.061L774.854 147.808L782.762 148.854L785.189 155.98L788.482 148.842L796.342 148.674L790.604 143.716L792.978 135.935L786.187 139.636L779.577 135.249Z" fill="#f1f1f1"/>
<path d="M413.534 287.104V288.865L413.756 288.883C413.764 288.961 413.741 289 413.687 289H413.126V288.976C413.126 288.932 413.139 288.904 413.165 288.892C413.177 288.886 413.192 288.882 413.21 288.88L413.36 288.871V287.11L413.141 287.092C413.133 287.014 413.156 286.975 413.21 286.975H413.771V286.996C413.771 287.04 413.758 287.069 413.732 287.083C413.72 287.089 413.705 287.093 413.687 287.095L413.537 287.104H413.534ZM415.279 289.045C415.161 289.045 415.097 288.966 415.087 288.808C414.937 288.966 414.777 289.045 414.607 289.045C414.439 289.045 414.3 288.983 414.19 288.859C414.08 288.733 414.022 288.549 414.016 288.307C414.01 288.065 414.07 287.87 414.196 287.722C414.324 287.574 414.5 287.5 414.724 287.5C414.84 287.5 414.961 287.528 415.087 287.584V287.104L414.919 287.086C414.879 287.082 414.859 287.044 414.859 286.972L415.252 286.918V288.892L415.441 288.916C415.437 289.002 415.383 289.045 415.279 289.045ZM414.67 287.641C414.512 287.641 414.393 287.701 414.313 287.821C414.235 287.941 414.196 288.09 414.196 288.268C414.196 288.446 414.234 288.594 414.31 288.712C414.386 288.83 414.502 288.889 414.658 288.889C414.738 288.889 414.807 288.874 414.865 288.844C414.925 288.812 414.999 288.76 415.087 288.688V287.797C415.049 287.761 414.993 287.726 414.919 287.692C414.845 287.658 414.762 287.641 414.67 287.641ZM416.765 288.196H415.814C415.81 288.244 415.808 288.28 415.808 288.304C415.808 288.476 415.846 288.618 415.922 288.73C415.998 288.842 416.114 288.898 416.27 288.898C416.426 288.898 416.57 288.845 416.702 288.739C416.722 288.753 416.732 288.773 416.732 288.799C416.732 288.851 416.678 288.905 416.57 288.961C416.462 289.017 416.344 289.045 416.216 289.045C416.04 289.045 415.897 288.985 415.787 288.865C415.677 288.743 415.622 288.558 415.622 288.31C415.622 288.062 415.688 287.865 415.82 287.719C415.952 287.573 416.11 287.5 416.294 287.5C416.38 287.5 416.455 287.517 416.519 287.551C416.583 287.585 416.632 287.63 416.666 287.686C416.732 287.798 416.765 287.922 416.765 288.058V288.196ZM416.579 288.079C416.583 287.949 416.557 287.841 416.501 287.755C416.445 287.669 416.365 287.626 416.261 287.626C416.157 287.626 416.066 287.668 415.988 287.752C415.912 287.834 415.86 287.943 415.832 288.079H416.579ZM418.523 289H417.992V288.979C417.992 288.939 418.005 288.914 418.031 288.904C418.045 288.896 418.107 288.889 418.217 288.883V288.097C418.217 287.799 418.101 287.65 417.869 287.65C417.785 287.65 417.707 287.667 417.635 287.701C417.565 287.735 417.486 287.79 417.398 287.866V288.877L417.611 288.895C417.617 288.965 417.594 289 417.542 289H417.008V288.979C417.008 288.939 417.021 288.914 417.047 288.904C417.061 288.896 417.123 288.889 417.233 288.883V287.671L417.065 287.653C417.025 287.649 417.005 287.614 417.005 287.548L417.35 287.5L417.392 287.74H417.401C417.569 287.58 417.74 287.5 417.914 287.5C418.042 287.5 418.152 287.546 418.244 287.638C418.336 287.728 418.382 287.87 418.382 288.064V288.877L418.592 288.895C418.6 288.965 418.577 289 418.523 289ZM419.122 287.665V288.562C419.122 288.682 419.134 288.768 419.158 288.82C419.184 288.872 419.233 288.898 419.305 288.898C419.379 288.898 419.439 288.891 419.485 288.877C419.533 288.861 419.594 288.824 419.668 288.766C419.702 288.778 419.719 288.801 419.719 288.835C419.719 288.887 419.672 288.936 419.578 288.982C419.484 289.026 419.395 289.048 419.311 289.048C419.181 289.048 419.089 289.01 419.035 288.934C418.983 288.858 418.957 288.746 418.957 288.598V287.665H418.747C418.739 287.585 418.762 287.545 418.816 287.545H418.957V287.197L419.122 287.14V287.545H419.689C419.691 287.577 419.685 287.617 419.671 287.665H419.122ZM420.467 289H419.921V288.979C419.921 288.939 419.934 288.914 419.96 288.904C419.974 288.898 420.034 288.891 420.14 288.883V287.671L419.972 287.656C419.932 287.652 419.912 287.615 419.912 287.545L420.305 287.5V288.877L420.536 288.895C420.542 288.965 420.519 289 420.467 289ZM420.29 287.206C420.268 287.23 420.237 287.242 420.197 287.242C420.157 287.242 420.125 287.23 420.101 287.206C420.079 287.182 420.068 287.151 420.068 287.113C420.068 287.075 420.079 287.044 420.101 287.02C420.125 286.996 420.157 286.984 420.197 286.984C420.237 286.984 420.268 286.996 420.29 287.02C420.314 287.044 420.326 287.075 420.326 287.113C420.326 287.151 420.314 287.182 420.29 287.206ZM421.067 287.665V288.562C421.067 288.682 421.079 288.768 421.103 288.82C421.129 288.872 421.178 288.898 421.25 288.898C421.324 288.898 421.384 288.891 421.43 288.877C421.478 288.861 421.539 288.824 421.613 288.766C421.647 288.778 421.664 288.801 421.664 288.835C421.664 288.887 421.617 288.936 421.523 288.982C421.429 289.026 421.34 289.048 421.256 289.048C421.126 289.048 421.034 289.01 420.98 288.934C420.928 288.858 420.902 288.746 420.902 288.598V287.665H420.692C420.684 287.585 420.707 287.545 420.761 287.545H420.902V287.197L421.067 287.14V287.545H421.634C421.636 287.577 421.63 287.617 421.616 287.665H421.067ZM422.763 287.545H423.15C423.148 287.551 423.148 287.558 423.15 287.566C423.152 287.574 423.151 287.583 423.147 287.593C423.145 287.603 423.142 287.612 423.138 287.62C423.128 287.638 423.092 287.65 423.03 287.656L422.502 288.964C422.396 289.226 422.306 289.405 422.232 289.501C422.16 289.597 422.088 289.645 422.016 289.645C421.946 289.645 421.895 289.63 421.863 289.6C421.831 289.572 421.815 289.539 421.815 289.501C421.815 289.463 421.825 289.432 421.845 289.408C421.865 289.386 421.887 289.375 421.911 289.375C421.935 289.375 421.952 289.377 421.962 289.381C421.946 289.453 421.97 289.489 422.034 289.489C422.12 289.489 422.238 289.307 422.388 288.943L421.872 287.668L421.728 287.65C421.72 287.58 421.743 287.545 421.797 287.545H422.271V287.566C422.271 287.606 422.258 287.632 422.232 287.644C422.218 287.648 422.16 287.654 422.058 287.662L422.463 288.733L422.874 287.668L422.694 287.65C422.686 287.58 422.709 287.545 422.763 287.545ZM425.074 288.901C425.144 288.901 425.199 288.873 425.239 288.817C425.267 288.841 425.281 288.872 425.281 288.91C425.281 288.946 425.264 288.978 425.23 289.006C425.196 289.036 425.149 289.051 425.089 289.051C424.957 289.051 424.778 288.967 424.552 288.799C424.37 288.969 424.154 289.054 423.904 289.054C423.702 289.054 423.548 289.006 423.442 288.91C423.336 288.814 423.283 288.689 423.283 288.535C423.283 288.427 423.316 288.32 423.382 288.214C423.45 288.108 423.555 288.017 423.697 287.941C423.549 287.743 423.475 287.572 423.475 287.428C423.475 287.284 423.517 287.173 423.601 287.095C423.685 287.015 423.799 286.975 423.943 286.975C424.043 286.975 424.137 287.011 424.225 287.083C424.315 287.155 424.36 287.256 424.36 287.386C424.36 287.516 424.316 287.634 424.228 287.74C424.142 287.846 424.04 287.922 423.922 287.968C423.942 287.994 423.976 288.033 424.024 288.085C424.202 288.279 424.378 288.451 424.552 288.601C424.652 288.467 424.722 288.309 424.762 288.127L424.591 288.109C424.583 288.039 424.606 288.004 424.66 288.004H425.086C425.084 288.01 425.084 288.018 425.086 288.028C425.088 288.036 425.087 288.045 425.083 288.055C425.081 288.063 425.078 288.071 425.074 288.079C425.064 288.097 425.04 288.108 425.002 288.112L424.903 288.118C424.857 288.34 424.775 288.528 424.657 288.682C424.843 288.828 424.982 288.901 425.074 288.901ZM423.862 287.872C423.978 287.828 424.063 287.76 424.117 287.668C424.173 287.576 424.201 287.482 424.201 287.386C424.201 287.29 424.172 287.22 424.114 287.176C424.058 287.132 424.001 287.11 423.943 287.11C423.835 287.11 423.755 287.138 423.703 287.194C423.651 287.25 423.625 287.321 423.625 287.407C423.625 287.525 423.699 287.681 423.847 287.875L423.859 287.869L423.862 287.872ZM423.463 288.52C423.463 288.624 423.501 288.717 423.577 288.799C423.653 288.881 423.779 288.922 423.955 288.922C424.133 288.922 424.297 288.853 424.447 288.715C424.293 288.587 424.119 288.419 423.925 288.211C423.885 288.169 423.835 288.112 423.775 288.04C423.675 288.094 423.598 288.162 423.544 288.244C423.49 288.324 423.463 288.416 423.463 288.52ZM425.535 286.969H426.147C426.393 286.969 426.577 287.022 426.699 287.128C426.823 287.232 426.885 287.366 426.885 287.53C426.885 287.956 426.615 288.169 426.075 288.169C426.003 288.169 425.931 288.166 425.859 288.16V288.865L426.081 288.883C426.089 288.961 426.066 289 426.012 289H425.451C425.451 289 425.451 288.992 425.451 288.976C425.451 288.932 425.464 288.904 425.49 288.892C425.502 288.886 425.517 288.882 425.535 288.88L425.685 288.871V287.104L425.466 287.086C425.458 287.008 425.481 286.969 425.535 286.969ZM426.051 288.043C426.273 288.043 426.436 288.005 426.54 287.929C426.646 287.851 426.699 287.728 426.699 287.56C426.699 287.39 426.643 287.266 426.531 287.188C426.421 287.108 426.248 287.075 426.012 287.089L425.859 287.098V288.034C425.927 288.04 425.991 288.043 426.051 288.043ZM428.211 289.048C428.093 289.048 428.027 288.981 428.013 288.847C427.961 288.901 427.894 288.948 427.812 288.988C427.73 289.026 427.629 289.045 427.509 289.045C427.391 289.045 427.292 289.01 427.212 288.94C427.134 288.87 427.095 288.772 427.095 288.646C427.095 288.54 427.132 288.448 427.206 288.37C427.294 288.274 427.447 288.226 427.665 288.226C427.789 288.226 427.904 288.242 428.01 288.274V288.007C428.01 287.901 427.979 287.812 427.917 287.74C427.857 287.668 427.77 287.632 427.656 287.632C427.456 287.632 427.344 287.731 427.32 287.929C427.28 287.933 427.247 287.924 427.221 287.902C427.195 287.88 427.182 287.843 427.182 287.791C427.182 287.709 427.224 287.64 427.308 287.584C427.394 287.528 427.504 287.5 427.638 287.5C427.742 287.5 427.849 287.525 427.959 287.575C428.023 287.605 428.075 287.657 428.115 287.731C428.155 287.803 428.175 287.892 428.175 287.998V288.895L428.376 288.919C428.376 289.005 428.321 289.048 428.211 289.048ZM428.01 288.445C427.914 288.385 427.799 288.355 427.665 288.355C427.531 288.355 427.434 288.38 427.374 288.43C427.316 288.478 427.287 288.544 427.287 288.628C427.287 288.71 427.313 288.776 427.365 288.826C427.419 288.876 427.493 288.901 427.587 288.901C427.749 288.901 427.89 288.838 428.01 288.712V288.445ZM428.89 287.665V288.562C428.89 288.682 428.902 288.768 428.926 288.82C428.952 288.872 429.001 288.898 429.073 288.898C429.147 288.898 429.207 288.891 429.253 288.877C429.301 288.861 429.362 288.824 429.436 288.766C429.47 288.778 429.487 288.801 429.487 288.835C429.487 288.887 429.44 288.936 429.346 288.982C429.252 289.026 429.163 289.048 429.079 289.048C428.949 289.048 428.857 289.01 428.803 288.934C428.751 288.858 428.725 288.746 428.725 288.598V287.665H428.515C428.507 287.585 428.53 287.545 428.584 287.545H428.725V287.197L428.89 287.14V287.545H429.457C429.459 287.577 429.453 287.617 429.439 287.665H428.89ZM431.218 289H430.675V288.979C430.675 288.939 430.688 288.914 430.714 288.904C430.728 288.898 430.787 288.891 430.891 288.883V288.127C430.891 287.973 430.858 287.856 430.792 287.776C430.728 287.696 430.644 287.656 430.54 287.656C430.436 287.656 430.351 287.673 430.285 287.707C430.219 287.741 430.148 287.792 430.072 287.86V288.877L430.303 288.895C430.309 288.965 430.286 289 430.234 289H429.688V288.979C429.688 288.939 429.701 288.914 429.727 288.904C429.741 288.898 429.801 288.891 429.907 288.883V287.104L429.739 287.086C429.699 287.082 429.679 287.044 429.679 286.972L430.072 286.918V287.716C430.204 287.572 430.364 287.5 430.552 287.5C430.686 287.5 430.802 287.548 430.9 287.644C431 287.738 431.051 287.89 431.053 288.1L431.056 288.877L431.287 288.895C431.293 288.965 431.27 289 431.218 289ZM432.613 288.64C432.661 288.724 432.727 288.79 432.811 288.838C432.897 288.884 432.997 288.907 433.111 288.907C433.329 288.905 433.492 288.821 433.6 288.655C433.708 288.489 433.762 288.269 433.762 287.995C433.762 287.725 433.713 287.506 433.615 287.338C433.511 287.158 433.347 287.069 433.123 287.071C432.901 287.071 432.736 287.155 432.628 287.323C432.52 287.491 432.466 287.711 432.466 287.983C432.466 288.255 432.515 288.474 432.613 288.64ZM433.147 286.93C433.291 286.93 433.424 286.966 433.546 287.038C433.62 287.08 433.684 287.136 433.738 287.206C433.792 287.276 433.838 287.373 433.876 287.497C433.914 287.621 433.934 287.764 433.936 287.926C433.94 288.262 433.867 288.533 433.717 288.739C433.569 288.943 433.351 289.045 433.063 289.045C432.827 289.045 432.641 288.958 432.505 288.784C432.369 288.61 432.297 288.363 432.289 288.043C432.281 287.721 432.353 287.455 432.505 287.245C432.657 287.035 432.871 286.93 433.147 286.93ZM434.878 288.895C434.878 288.911 434.878 288.924 434.878 288.934C434.878 288.944 434.877 288.954 434.875 288.964C434.873 288.974 434.87 288.98 434.866 288.982C434.846 288.994 434.827 289 434.809 289H434.203V288.979C434.203 288.939 434.216 288.914 434.242 288.904C434.256 288.898 434.316 288.891 434.422 288.883V287.665H434.209C434.209 287.661 434.208 287.653 434.206 287.641C434.206 287.629 434.206 287.62 434.206 287.614C434.208 287.608 434.21 287.6 434.212 287.59C434.214 287.58 434.217 287.572 434.221 287.566C434.231 287.552 434.25 287.545 434.278 287.545H434.422V287.425C434.422 287.245 434.456 287.108 434.524 287.014C434.594 286.92 434.695 286.873 434.827 286.873C434.889 286.873 434.942 286.886 434.986 286.912C435.03 286.938 435.052 286.973 435.052 287.017C435.052 287.059 435.041 287.091 435.019 287.113C434.997 287.133 434.969 287.143 434.935 287.143C434.933 287.097 434.917 287.061 434.887 287.035C434.857 287.007 434.822 286.993 434.782 286.993C434.714 286.993 434.664 287.021 434.632 287.077C434.602 287.131 434.587 287.219 434.587 287.341V287.545H434.95C434.956 287.625 434.932 287.665 434.878 287.665H434.587V288.877L434.878 288.895ZM437.261 288.613V289H435.89V288.976C435.89 288.932 435.903 288.904 435.929 288.892C435.941 288.886 435.956 288.882 435.974 288.88L436.124 288.871V287.104L435.902 287.086C435.894 287.008 435.917 286.969 435.971 286.969H436.532V286.99C436.532 287.034 436.519 287.063 436.493 287.077C436.481 287.083 436.466 287.087 436.448 287.089L436.298 287.098V288.865L437.114 288.853L437.144 288.544C437.222 288.536 437.261 288.559 437.261 288.613ZM438.021 289H437.475V288.979C437.475 288.939 437.488 288.914 437.514 288.904C437.528 288.898 437.588 288.891 437.694 288.883V287.671L437.526 287.656C437.486 287.652 437.466 287.615 437.466 287.545L437.859 287.5V288.877L438.09 288.895C438.096 288.965 438.073 289 438.021 289ZM437.844 287.206C437.822 287.23 437.791 287.242 437.751 287.242C437.711 287.242 437.679 287.23 437.655 287.206C437.633 287.182 437.622 287.151 437.622 287.113C437.622 287.075 437.633 287.044 437.655 287.02C437.679 286.996 437.711 286.984 437.751 286.984C437.791 286.984 437.822 286.996 437.844 287.02C437.868 287.044 437.88 287.075 437.88 287.113C437.88 287.151 437.868 287.182 437.844 287.206ZM438.991 288.895C438.991 288.911 438.991 288.924 438.991 288.934C438.991 288.944 438.99 288.954 438.988 288.964C438.986 288.974 438.983 288.98 438.979 288.982C438.959 288.994 438.94 289 438.922 289H438.316V288.979C438.316 288.939 438.329 288.914 438.355 288.904C438.369 288.898 438.429 288.891 438.535 288.883V287.665H438.322C438.322 287.661 438.321 287.653 438.319 287.641C438.319 287.629 438.319 287.62 438.319 287.614C438.321 287.608 438.323 287.6 438.325 287.59C438.327 287.58 438.33 287.572 438.334 287.566C438.344 287.552 438.363 287.545 438.391 287.545H438.535V287.425C438.535 287.245 438.569 287.108 438.637 287.014C438.707 286.92 438.808 286.873 438.94 286.873C439.002 286.873 439.055 286.886 439.099 286.912C439.143 286.938 439.165 286.973 439.165 287.017C439.165 287.059 439.154 287.091 439.132 287.113C439.11 287.133 439.082 287.143 439.048 287.143C439.046 287.097 439.03 287.061 439 287.035C438.97 287.007 438.935 286.993 438.895 286.993C438.827 286.993 438.777 287.021 438.745 287.077C438.715 287.131 438.7 287.219 438.7 287.341V287.545H439.063C439.069 287.625 439.045 287.665 438.991 287.665H438.7V288.877L438.991 288.895ZM440.337 288.196H439.386C439.382 288.244 439.38 288.28 439.38 288.304C439.38 288.476 439.418 288.618 439.494 288.73C439.57 288.842 439.686 288.898 439.842 288.898C439.998 288.898 440.142 288.845 440.274 288.739C440.294 288.753 440.304 288.773 440.304 288.799C440.304 288.851 440.25 288.905 440.142 288.961C440.034 289.017 439.916 289.045 439.788 289.045C439.612 289.045 439.469 288.985 439.359 288.865C439.249 288.743 439.194 288.558 439.194 288.31C439.194 288.062 439.26 287.865 439.392 287.719C439.524 287.573 439.682 287.5 439.866 287.5C439.952 287.5 440.027 287.517 440.091 287.551C440.155 287.585 440.204 287.63 440.238 287.686C440.304 287.798 440.337 287.922 440.337 288.058V288.196ZM440.151 288.079C440.155 287.949 440.129 287.841 440.073 287.755C440.017 287.669 439.937 287.626 439.833 287.626C439.729 287.626 439.638 287.668 439.56 287.752C439.484 287.834 439.432 287.943 439.404 288.079H440.151Z" fill="#282828"/>
<path d="M428.9 288.4V317.75L432.6 318.05C432.733 319.35 432.35 320 431.45 320H422.1V319.6C422.1 318.867 422.317 318.4 422.75 318.2C422.95 318.1 423.2 318.033 423.5 318L426 317.85V288.5L422.35 288.2C422.217 286.9 422.6 286.25 423.5 286.25H432.85V286.6C432.85 287.333 432.633 287.817 432.2 288.05C432 288.15 431.75 288.217 431.45 288.25L428.95 288.4H428.9ZM457.991 320.75C456.025 320.75 454.958 319.433 454.791 316.8C452.291 319.433 449.625 320.75 446.791 320.75C443.991 320.75 441.675 319.717 439.841 317.65C438.008 315.55 437.041 312.483 436.941 308.45C436.841 304.417 437.841 301.167 439.941 298.7C442.075 296.233 445.008 295 448.741 295C450.675 295 452.691 295.467 454.791 296.4V288.4L451.991 288.1C451.325 288.033 450.991 287.4 450.991 286.2L457.541 285.3V318.2L460.691 318.6C460.625 320.033 459.725 320.75 457.991 320.75ZM447.841 297.35C445.208 297.35 443.225 298.35 441.891 300.35C440.591 302.35 439.941 304.833 439.941 307.8C439.941 310.767 440.575 313.233 441.841 315.2C443.108 317.167 445.041 318.15 447.641 318.15C448.975 318.15 450.125 317.9 451.091 317.4C452.091 316.867 453.325 316 454.791 314.8V299.95C454.158 299.35 453.225 298.767 451.991 298.2C450.758 297.633 449.375 297.35 447.841 297.35ZM482.749 306.6H466.899C466.833 307.4 466.799 308 466.799 308.4C466.799 311.267 467.433 313.633 468.699 315.5C469.966 317.367 471.899 318.3 474.499 318.3C477.099 318.3 479.499 317.417 481.699 315.65C482.033 315.883 482.199 316.217 482.199 316.65C482.199 317.517 481.299 318.417 479.499 319.35C477.699 320.283 475.733 320.75 473.599 320.75C470.666 320.75 468.283 319.75 466.449 317.75C464.616 315.717 463.699 312.633 463.699 308.5C463.699 304.367 464.799 301.083 466.999 298.65C469.199 296.217 471.833 295 474.899 295C476.333 295 477.583 295.283 478.649 295.85C479.716 296.417 480.533 297.167 481.099 298.1C482.199 299.967 482.749 302.033 482.749 304.3V306.6ZM479.649 304.65C479.716 302.483 479.283 300.683 478.349 299.25C477.416 297.817 476.083 297.1 474.349 297.1C472.616 297.1 471.099 297.8 469.799 299.2C468.533 300.567 467.666 302.383 467.199 304.65H479.649ZM512.057 320H503.207V319.65C503.207 318.983 503.423 318.567 503.857 318.4C504.09 318.267 505.123 318.15 506.957 318.05V304.95C506.957 299.983 505.023 297.5 501.157 297.5C499.757 297.5 498.457 297.783 497.257 298.35C496.09 298.917 494.773 299.833 493.307 301.1V317.95L496.857 318.25C496.957 319.417 496.573 320 495.707 320H486.807V319.65C486.807 318.983 487.023 318.567 487.457 318.4C487.69 318.267 488.723 318.15 490.557 318.05V297.85L487.757 297.55C487.09 297.483 486.757 296.9 486.757 295.8L492.507 295L493.207 299H493.357C496.157 296.333 499.007 295 501.907 295C504.04 295 505.873 295.767 507.407 297.3C508.94 298.8 509.707 301.167 509.707 304.4V317.95L513.207 318.25C513.34 319.417 512.957 320 512.057 320ZM522.032 297.75V312.7C522.032 314.7 522.232 316.133 522.632 317C523.066 317.867 523.882 318.3 525.082 318.3C526.316 318.3 527.316 318.183 528.082 317.95C528.882 317.683 529.899 317.067 531.132 316.1C531.699 316.3 531.982 316.683 531.982 317.25C531.982 318.117 531.199 318.933 529.632 319.7C528.066 320.433 526.582 320.8 525.182 320.8C523.016 320.8 521.482 320.167 520.582 318.9C519.716 317.633 519.282 315.767 519.282 313.3V297.75H515.782C515.649 296.417 516.032 295.75 516.932 295.75H519.282V289.95L522.032 289V295.75H531.482C531.516 296.283 531.416 296.95 531.182 297.75H522.032ZM544.444 320H535.344V319.65C535.344 318.983 535.561 318.567 535.994 318.4C536.227 318.3 537.227 318.183 538.994 318.05V297.85L536.194 297.6C535.527 297.533 535.194 296.917 535.194 295.75L541.744 295V317.95L545.594 318.25C545.694 319.417 545.311 320 544.444 320ZM541.494 290.1C541.127 290.5 540.611 290.7 539.944 290.7C539.277 290.7 538.744 290.5 538.344 290.1C537.977 289.7 537.794 289.183 537.794 288.55C537.794 287.917 537.977 287.4 538.344 287C538.744 286.6 539.277 286.4 539.944 286.4C540.611 286.4 541.127 286.6 541.494 287C541.894 287.4 542.094 287.917 542.094 288.55C542.094 289.183 541.894 289.7 541.494 290.1ZM554.454 297.75V312.7C554.454 314.7 554.654 316.133 555.054 317C555.488 317.867 556.304 318.3 557.504 318.3C558.738 318.3 559.738 318.183 560.504 317.95C561.304 317.683 562.321 317.067 563.554 316.1C564.121 316.3 564.404 316.683 564.404 317.25C564.404 318.117 563.621 318.933 562.054 319.7C560.488 320.433 559.004 320.8 557.604 320.8C555.438 320.8 553.904 320.167 553.004 318.9C552.138 317.633 551.704 315.767 551.704 313.3V297.75H548.204C548.071 296.417 548.454 295.75 549.354 295.75H551.704V289.95L554.454 289V295.75H563.904C563.938 296.283 563.838 296.95 563.604 297.75H554.454ZM582.716 295.75H589.166C589.133 295.85 589.133 295.967 589.166 296.1C589.199 296.233 589.183 296.383 589.116 296.55C589.083 296.717 589.033 296.867 588.966 297C588.799 297.3 588.199 297.5 587.166 297.6L578.366 319.4C576.599 323.767 575.099 326.75 573.866 328.35C572.666 329.95 571.466 330.75 570.266 330.75C569.099 330.75 568.249 330.5 567.716 330C567.183 329.533 566.916 328.983 566.916 328.35C566.916 327.717 567.083 327.2 567.416 326.8C567.749 326.433 568.116 326.25 568.516 326.25C568.916 326.25 569.199 326.283 569.366 326.35C569.099 327.55 569.499 328.15 570.566 328.15C571.999 328.15 573.966 325.117 576.466 319.05L567.866 297.8L565.466 297.5C565.333 296.333 565.716 295.75 566.616 295.75H574.516V296.1C574.516 296.767 574.299 297.2 573.866 297.4C573.633 297.467 572.666 297.567 570.966 297.7L577.716 315.55L584.566 297.8L581.566 297.5C581.433 296.333 581.816 295.75 582.716 295.75ZM621.235 318.35C622.401 318.35 623.318 317.883 623.985 316.95C624.451 317.35 624.685 317.867 624.685 318.5C624.685 319.1 624.401 319.633 623.835 320.1C623.268 320.6 622.485 320.85 621.485 320.85C619.285 320.85 616.301 319.45 612.535 316.65C609.501 319.483 605.901 320.9 601.735 320.9C598.368 320.9 595.801 320.1 594.035 318.5C592.268 316.9 591.385 314.817 591.385 312.25C591.385 310.45 591.935 308.667 593.035 306.9C594.168 305.133 595.918 303.617 598.285 302.35C595.818 299.05 594.585 296.2 594.585 293.8C594.585 291.4 595.285 289.55 596.685 288.25C598.085 286.917 599.985 286.25 602.385 286.25C604.051 286.25 605.618 286.85 607.085 288.05C608.585 289.25 609.335 290.933 609.335 293.1C609.335 295.267 608.601 297.233 607.135 299C605.701 300.767 604.001 302.033 602.035 302.8C602.368 303.233 602.935 303.883 603.735 304.75C606.701 307.983 609.635 310.85 612.535 313.35C614.201 311.117 615.368 308.483 616.035 305.45L613.185 305.15C613.051 303.983 613.435 303.4 614.335 303.4H621.435C621.401 303.5 621.401 303.633 621.435 303.8C621.468 303.933 621.451 304.083 621.385 304.25C621.351 304.383 621.301 304.517 621.235 304.65C621.068 304.95 620.668 305.133 620.035 305.2L618.385 305.3C617.618 309 616.251 312.133 614.285 314.7C617.385 317.133 619.701 318.35 621.235 318.35ZM601.035 301.2C602.968 300.467 604.385 299.333 605.285 297.8C606.218 296.267 606.685 294.7 606.685 293.1C606.685 291.5 606.201 290.333 605.235 289.6C604.301 288.867 603.351 288.5 602.385 288.5C600.585 288.5 599.251 288.967 598.385 289.9C597.518 290.833 597.085 292.017 597.085 293.45C597.085 295.417 598.318 298.017 600.785 301.25L600.985 301.15L601.035 301.2ZM594.385 312C594.385 313.733 595.018 315.283 596.285 316.65C597.551 318.017 599.651 318.7 602.585 318.7C605.551 318.7 608.285 317.55 610.785 315.25C608.218 313.117 605.318 310.317 602.085 306.85C601.418 306.15 600.585 305.2 599.585 304C597.918 304.9 596.635 306.033 595.735 307.4C594.835 308.733 594.385 310.267 594.385 312ZM628.92 286.15H639.12C643.22 286.15 646.287 287.033 648.32 288.8C650.387 290.533 651.42 292.767 651.42 295.5C651.42 302.6 646.92 306.15 637.92 306.15C636.72 306.15 635.52 306.1 634.32 306V317.75L638.02 318.05C638.153 319.35 637.77 320 636.87 320H627.52C627.52 320 627.52 319.867 627.52 319.6C627.52 318.867 627.737 318.4 628.17 318.2C628.37 318.1 628.62 318.033 628.92 318L631.42 317.85V288.4L627.77 288.1C627.637 286.8 628.02 286.15 628.92 286.15ZM637.52 304.05C641.22 304.05 643.937 303.417 645.67 302.15C647.437 300.85 648.32 298.8 648.32 296C648.32 293.167 647.387 291.1 645.52 289.8C643.687 288.467 640.803 287.917 636.87 288.15L634.32 288.3V303.9C635.453 304 636.52 304.05 637.52 304.05ZM673.522 320.8C671.555 320.8 670.455 319.683 670.222 317.45C669.355 318.35 668.239 319.133 666.872 319.8C665.505 320.433 663.822 320.75 661.822 320.75C659.855 320.75 658.205 320.167 656.872 319C655.572 317.833 654.922 316.2 654.922 314.1C654.922 312.333 655.539 310.8 656.772 309.5C658.239 307.9 660.789 307.1 664.422 307.1C666.489 307.1 668.405 307.367 670.172 307.9V303.45C670.172 301.683 669.655 300.2 668.622 299C667.622 297.8 666.172 297.2 664.272 297.2C660.939 297.2 659.072 298.85 658.672 302.15C658.005 302.217 657.455 302.067 657.022 301.7C656.589 301.333 656.372 300.717 656.372 299.85C656.372 298.483 657.072 297.333 658.472 296.4C659.905 295.467 661.739 295 663.972 295C665.705 295 667.489 295.417 669.322 296.25C670.389 296.75 671.255 297.617 671.922 298.85C672.589 300.05 672.922 301.533 672.922 303.3V318.25L676.272 318.65C676.272 320.083 675.355 320.8 673.522 320.8ZM670.172 310.75C668.572 309.75 666.655 309.25 664.422 309.25C662.189 309.25 660.572 309.667 659.572 310.5C658.605 311.3 658.122 312.4 658.122 313.8C658.122 315.167 658.555 316.267 659.422 317.1C660.322 317.933 661.555 318.35 663.122 318.35C665.822 318.35 668.172 317.3 670.172 315.2V310.75ZM684.825 297.75V312.7C684.825 314.7 685.025 316.133 685.425 317C685.859 317.867 686.675 318.3 687.875 318.3C689.109 318.3 690.109 318.183 690.875 317.95C691.675 317.683 692.692 317.067 693.925 316.1C694.492 316.3 694.775 316.683 694.775 317.25C694.775 318.117 693.992 318.933 692.425 319.7C690.859 320.433 689.375 320.8 687.975 320.8C685.809 320.8 684.275 320.167 683.375 318.9C682.509 317.633 682.075 315.767 682.075 313.3V297.75H678.575C678.442 296.417 678.825 295.75 679.725 295.75H682.075V289.95L684.825 289V295.75H694.275C694.309 296.283 694.209 296.95 693.975 297.75H684.825ZM723.637 320H714.587V319.65C714.587 318.983 714.804 318.567 715.237 318.4C715.47 318.3 716.454 318.183 718.187 318.05V305.45C718.187 302.883 717.637 300.933 716.537 299.6C715.47 298.267 714.07 297.6 712.337 297.6C710.604 297.6 709.187 297.883 708.087 298.45C706.987 299.017 705.804 299.867 704.537 301V317.95L708.387 318.25C708.487 319.417 708.104 320 707.237 320H698.137V319.65C698.137 318.983 698.354 318.567 698.787 318.4C699.02 318.3 700.02 318.183 701.787 318.05V288.4L698.987 288.1C698.32 288.033 697.987 287.4 697.987 286.2L704.537 285.3V298.6C706.737 296.2 709.404 295 712.537 295C714.77 295 716.704 295.8 718.337 297.4C720.004 298.967 720.854 301.5 720.887 305L720.937 317.95L724.787 318.25C724.887 319.417 724.504 320 723.637 320ZM746.882 314C747.682 315.4 748.782 316.5 750.182 317.3C751.616 318.067 753.282 318.45 755.182 318.45C758.816 318.417 761.532 317.017 763.332 314.25C765.132 311.483 766.032 307.817 766.032 303.25C766.032 298.75 765.216 295.1 763.582 292.3C761.849 289.3 759.116 287.817 755.382 287.85C751.682 287.85 748.932 289.25 747.132 292.05C745.332 294.85 744.432 298.517 744.432 303.05C744.432 307.583 745.249 311.233 746.882 314ZM755.782 285.5C758.182 285.5 760.399 286.1 762.432 287.3C763.666 288 764.732 288.933 765.632 290.1C766.532 291.267 767.299 292.883 767.932 294.95C768.566 297.017 768.899 299.4 768.932 302.1C768.999 307.7 767.782 312.217 765.282 315.65C762.816 319.05 759.182 320.75 754.382 320.75C750.449 320.75 747.349 319.3 745.082 316.4C742.816 313.5 741.616 309.383 741.482 304.05C741.349 298.683 742.549 294.25 745.082 290.75C747.616 287.25 751.182 285.5 755.782 285.5ZM784.628 318.25C784.628 318.517 784.628 318.733 784.628 318.9C784.628 319.067 784.611 319.233 784.578 319.4C784.544 319.567 784.494 319.667 784.428 319.7C784.094 319.9 783.778 320 783.478 320H773.378V319.65C773.378 318.983 773.594 318.567 774.028 318.4C774.261 318.3 775.261 318.183 777.028 318.05V297.75H773.478C773.478 297.683 773.461 297.55 773.428 297.35C773.428 297.15 773.428 297 773.428 296.9C773.461 296.8 773.494 296.667 773.528 296.5C773.561 296.333 773.611 296.2 773.678 296.1C773.844 295.867 774.161 295.75 774.628 295.75H777.028V293.75C777.028 290.75 777.594 288.467 778.728 286.9C779.894 285.333 781.578 284.55 783.778 284.55C784.811 284.55 785.694 284.767 786.428 285.2C787.161 285.633 787.528 286.217 787.528 286.95C787.528 287.65 787.344 288.183 786.978 288.55C786.611 288.883 786.144 289.05 785.578 289.05C785.544 288.283 785.278 287.683 784.778 287.25C784.278 286.783 783.694 286.55 783.028 286.55C781.894 286.55 781.061 287.017 780.528 287.95C780.028 288.85 779.778 290.317 779.778 292.35V295.75H785.828C785.928 297.083 785.528 297.75 784.628 297.75H779.778V317.95L784.628 318.25ZM824.345 313.55V320H801.495V319.6C801.495 318.867 801.711 318.4 802.145 318.2C802.345 318.1 802.595 318.033 802.895 318L805.395 317.85V288.4L801.695 288.1C801.561 286.8 801.945 286.15 802.845 286.15H812.195V286.5C812.195 287.233 811.978 287.717 811.545 287.95C811.345 288.05 811.095 288.117 810.795 288.15L808.295 288.3V317.75L821.895 317.55L822.395 312.4C823.695 312.267 824.345 312.65 824.345 313.55ZM837.022 320H827.922V319.65C827.922 318.983 828.139 318.567 828.572 318.4C828.806 318.3 829.806 318.183 831.572 318.05V297.85L828.772 297.6C828.106 297.533 827.772 296.917 827.772 295.75L834.322 295V317.95L838.172 318.25C838.272 319.417 837.889 320 837.022 320ZM834.072 290.1C833.706 290.5 833.189 290.7 832.522 290.7C831.856 290.7 831.322 290.5 830.922 290.1C830.556 289.7 830.372 289.183 830.372 288.55C830.372 287.917 830.556 287.4 830.922 287C831.322 286.6 831.856 286.4 832.522 286.4C833.189 286.4 833.706 286.6 834.072 287C834.472 287.4 834.672 287.917 834.672 288.55C834.672 289.183 834.472 289.7 834.072 290.1ZM853.182 318.25C853.182 318.517 853.182 318.733 853.182 318.9C853.182 319.067 853.166 319.233 853.132 319.4C853.099 319.567 853.049 319.667 852.982 319.7C852.649 319.9 852.332 320 852.032 320H841.932V319.65C841.932 318.983 842.149 318.567 842.582 318.4C842.816 318.3 843.816 318.183 845.582 318.05V297.75H842.032C842.032 297.683 842.016 297.55 841.982 297.35C841.982 297.15 841.982 297 841.982 296.9C842.016 296.8 842.049 296.667 842.082 296.5C842.116 296.333 842.166 296.2 842.232 296.1C842.399 295.867 842.716 295.75 843.182 295.75H845.582V293.75C845.582 290.75 846.149 288.467 847.282 286.9C848.449 285.333 850.132 284.55 852.332 284.55C853.366 284.55 854.249 284.767 854.982 285.2C855.716 285.633 856.082 286.217 856.082 286.95C856.082 287.65 855.899 288.183 855.532 288.55C855.166 288.883 854.699 289.05 854.132 289.05C854.099 288.283 853.832 287.683 853.332 287.25C852.832 286.783 852.249 286.55 851.582 286.55C850.449 286.55 849.616 287.017 849.082 287.95C848.582 288.85 848.332 290.317 848.332 292.35V295.75H854.382C854.482 297.083 854.082 297.75 853.182 297.75H848.332V317.95L853.182 318.25ZM875.62 306.6H859.77C859.704 307.4 859.67 308 859.67 308.4C859.67 311.267 860.304 313.633 861.57 315.5C862.837 317.367 864.77 318.3 867.37 318.3C869.97 318.3 872.37 317.417 874.57 315.65C874.904 315.883 875.07 316.217 875.07 316.65C875.07 317.517 874.17 318.417 872.37 319.35C870.57 320.283 868.604 320.75 866.47 320.75C863.537 320.75 861.154 319.75 859.32 317.75C857.487 315.717 856.57 312.633 856.57 308.5C856.57 304.367 857.67 301.083 859.87 298.65C862.07 296.217 864.704 295 867.77 295C869.204 295 870.454 295.283 871.52 295.85C872.587 296.417 873.404 297.167 873.97 298.1C875.07 299.967 875.62 302.033 875.62 304.3V306.6ZM872.52 304.65C872.587 302.483 872.154 300.683 871.22 299.25C870.287 297.817 868.954 297.1 867.22 297.1C865.487 297.1 863.97 297.8 862.67 299.2C861.404 300.567 860.537 302.383 860.07 304.65H872.52Z" fill="#f1f1f1"/>
</svg>
