<?xml version="1.0" standalone="no"?>
<!DOCTYPE svg PUBLIC "-//W3C//DTD SVG 20010904//EN"
 "http://www.w3.org/TR/2001/REC-SVG-20010904/DTD/svg10.dtd">
<svg version="1.0" xmlns="http://www.w3.org/2000/svg"
 width="612.000000pt" height="408.000000pt" viewBox="0 0 612.000000 408.000000"
 preserveAspectRatio="xMidYMid meet">

<g transform="translate(0.000000,408.000000) scale(0.100000,-0.100000)"
fill="#000000" stroke="none">
<path d="M3535 3487 c-64 -64 -54 -154 22 -202 25 -16 32 -27 33 -52 0 -32 2
-33 40 -33 38 0 40 2 40 30 0 23 10 41 40 69 37 35 40 42 40 90 0 86 -46 131
-136 131 -39 0 -51 -5 -79 -33z m164 -21 c36 -36 37 -103 2 -140 -20 -21 -34
-26 -72 -26 -62 0 -77 6 -94 41 -25 48 -19 87 20 126 32 32 40 35 77 30 26 -3
51 -15 67 -31z"/>
<path d="M3485 3083 c-42 -4 -85 -21 -85 -34 0 -8 470 0 479 7 2 2 -11 10 -30
17 -33 13 -269 20 -364 10z"/>
<path d="M3920 3033 c0 -9 -67 -12 -235 -12 -222 -1 -237 -2 -282 -24 -63 -29
-118 -76 -172 -145 -49 -63 -71 -130 -71 -215 1 -104 32 -195 97 -285 l16 -23
-91 2 c-94 2 -95 1 -197 -55 -28 -15 -75 -58 -75 -68 0 -4 11 -8 25 -8 20 0
25 -5 25 -23 0 -15 9 -29 24 -36 13 -7 29 -24 35 -38 11 -23 14 -24 107 -22
l96 1 29 40 c16 22 26 46 22 52 -4 7 -2 7 8 -1 8 -7 34 -11 57 -10 51 2 69
-12 53 -41 -15 -27 8 -44 23 -17 19 32 45 55 58 50 31 -10 157 189 158 248 0
20 16 44 61 90 l60 62 -10 61 c-20 114 37 223 125 240 36 7 92 -15 137 -54 23
-20 47 -104 47 -164 0 -52 24 -111 59 -142 25 -23 54 -105 57 -166 15 -233 15
-268 5 -308 -15 -53 -41 -70 -133 -87 -40 -7 -64 -14 -53 -14 11 -1 31 -8 43
-16 20 -15 24 -14 44 5 35 33 92 27 129 -12 55 -59 57 -65 51 -170 -2 -54 -8
-98 -13 -98 -5 0 -9 14 -9 32 l0 31 -22 -21 c-42 -38 -71 -42 -334 -42 -219 0
-254 2 -254 15 0 19 -11 19 -36 0 -13 -10 -45 -14 -101 -15 -83 0 -83 0 -83
26 0 34 -64 125 -68 98 -2 -11 -7 -34 -12 -52 -6 -23 -5 -30 2 -25 8 4 9 0 5
-11 -4 -10 -7 -23 -7 -29 0 -7 -4 -6 -10 3 -5 8 -10 47 -10 87 0 39 -4 74 -9
77 -5 3 -6 -34 -3 -84 6 -112 -12 -123 -22 -13 -6 76 -26 126 -57 146 -26 16
-67 0 -85 -35 -22 -42 -31 -153 -14 -173 11 -13 -20 -15 -283 -15 l-295 0 -13
121 -12 121 -54 -7 c-62 -8 -70 2 -56 62 7 31 14 38 51 51 36 12 42 18 42 41
0 25 9 31 153 91 83 35 155 66 159 69 4 3 -1 36 -10 74 -18 77 -17 76 -121 52
l-64 -16 -101 104 c-81 83 -110 106 -145 116 -23 7 -50 15 -60 18 -11 4 -8 -3
9 -21 25 -27 25 -28 5 -42 -11 -8 -31 -14 -45 -12 -14 1 -31 -1 -38 -6 -25
-15 -122 28 -122 55 0 11 -4 19 -8 19 -20 0 -75 -34 -119 -74 l-48 -44 0 -183
c0 -119 5 -206 14 -246 13 -59 8 -150 -15 -305 l-6 -38 -169 0 -170 0 -14 34
c-16 39 -46 60 -97 70 -45 8 -120 -3 -111 -17 4 -6 1 -7 -6 -2 -23 13 -61 -34
-61 -77 0 -41 9 -68 78 -227 44 -104 49 -136 25 -197 -5 -13 -3 -15 7 -9 8 5
11 4 6 -3 -4 -6 -14 -8 -23 -5 -13 5 -15 1 -11 -23 8 -49 12 -58 32 -76 17
-16 16 -17 -26 -12 -33 4 -48 2 -57 -10 -21 -26 -9 -37 23 -21 37 20 49 19 70
-4 16 -17 16 -19 -4 -24 -21 -5 -37 -33 -26 -44 3 -4 22 1 42 10 l35 17 50
-47 c81 -76 113 -121 99 -138 -7 -8 -10 -22 -6 -30 4 -12 -1 -15 -25 -13 -30
2 -35 10 -41 68 -5 42 -33 31 -33 -13 0 -20 4 -37 9 -37 6 0 0 -7 -12 -16 -24
-16 -30 -44 -9 -44 7 0 18 9 25 21 9 14 19 18 35 14 39 -11 157 -69 157 -77 0
-4 -37 -8 -82 -8 -239 -1 -338 -4 -338 -11 0 -4 11 -21 25 -37 86 -102 310
-170 625 -187 134 -8 411 8 625 35 321 41 722 45 985 10 306 -40 736 -54 910
-30 197 27 339 82 420 165 27 28 39 45 30 46 -8 1 -19 2 -25 4 -5 1 -74 3
-152 3 -79 1 -143 6 -143 11 0 5 22 19 49 32 39 19 50 30 54 52 2 17 -2 35
-11 44 -14 14 -7 24 71 100 l86 85 30 -18 c24 -14 34 -15 42 -7 16 16 -6 43
-34 43 -19 0 -20 1 -2 20 22 24 43 25 73 4 30 -21 49 -8 25 18 -13 15 -26 19
-51 14 -34 -5 -34 -5 -18 19 18 27 22 100 6 110 -21 13 -29 76 -16 116 9 27
10 37 2 33 -6 -3 -3 1 8 10 11 9 15 20 10 28 -4 7 -4 10 1 6 9 -9 44 62 67
137 24 75 30 107 19 101 -5 -3 -7 2 -4 12 12 47 -83 91 -165 76 -65 -11 -132
-71 -132 -118 0 -8 -17 -33 -38 -56 -22 -22 -38 -41 -36 -42 1 -2 -8 -4 -21
-4 -20 -2 -68 -30 -101 -59 -6 -6 -23 -30 -39 -55 -34 -54 -45 -155 -24 -216
13 -37 20 -156 9 -149 -3 2 -13 -16 -23 -38 l-18 -42 68 65 c37 36 69 68 71
73 6 12 29 8 51 -10 l22 -18 -38 -90 c-20 -49 -49 -133 -64 -185 l-26 -95
-149 -3 -149 -2 35 18 c19 10 45 24 57 32 18 12 26 12 46 1 17 -9 30 -10 43
-3 11 6 31 13 47 17 21 4 27 11 27 31 0 25 -4 28 -51 38 -24 5 -26 9 -27 78
-1 40 -4 84 -6 98 -8 44 -36 432 -36 503 l0 47 50 0 50 0 0 40 0 40 -74 0
c-58 0 -75 3 -80 16 -3 9 -6 123 -6 255 l0 239 34 0 c41 0 54 15 27 29 -11 6
-18 19 -17 28 2 14 15 19 57 23 50 5 54 7 54 30 0 24 -3 25 -68 28 -55 2 -78
9 -116 32 -27 17 -54 30 -62 30 -7 0 1 14 18 33 18 17 44 58 58 89 59 129 23
252 -114 389 -42 41 -105 95 -141 119 -36 23 -71 50 -77 58 -7 9 -13 11 -13 5z
m-2463 -1309 c-3 -3 -12 -4 -19 -1 -8 3 -5 6 6 6 11 1 17 -2 13 -5z m3443 2
c0 -2 -7 -7 -16 -10 -8 -3 -12 -2 -9 4 6 10 25 14 25 6z m-3195 -213 c-1 -21
-3 -50 -4 -65 -1 -40 -13 -35 -40 20 -46 89 -47 82 3 82 l45 0 -4 -37z m211
-30 c-4 -38 -10 -88 -13 -112 -3 -24 -2 -42 3 -39 5 3 17 3 26 -1 15 -5 19
-24 22 -126 3 -66 8 -189 12 -272 l7 -153 98 0 c55 0 99 1 99 3 0 1 3 81 6
177 4 96 9 218 13 270 6 92 7 95 30 95 29 0 28 2 60 -190 13 -71 32 -176 43
-232 l21 -103 99 0 100 0 -6 33 c-3 17 -10 91 -16 162 -6 72 -15 168 -20 215
-16 139 -15 144 23 155 18 6 32 16 31 25 0 8 -4 48 -8 88 l-7 72 280 0 281 -1
0 -335 0 -336 83 4 82 3 3 333 c1 210 6 332 12 332 6 0 10 -122 10 -337 0
-185 3 -334 6 -330 3 3 5 154 5 336 -2 299 0 330 14 325 14 -6 16 -42 13 -333
l-3 -326 38 0 37 0 0 333 0 332 30 0 30 0 0 -332 0 -333 122 3 c67 2 128 8
134 13 8 6 35 6 78 -1 40 -6 73 -7 84 -2 32 17 113 21 119 6 8 -22 43 -17 43
6 0 25 20 26 27 1 4 -15 16 -20 53 -23 26 -1 46 0 43 5 -2 4 1 7 6 7 6 0 11
-6 11 -12 0 -9 4 -8 10 2 8 12 10 12 10 1 0 -11 3 -11 15 -1 13 11 15 61 16
334 1 195 5 303 10 276 4 -25 8 -170 8 -322 1 -155 5 -279 10 -282 5 -4 17 -3
26 0 15 6 17 19 12 113 -7 119 6 80 18 -56 l7 -83 -165 0 -164 0 -7 -31 c-3
-17 -6 -44 -6 -59 0 -24 -6 -30 -36 -40 -19 -7 -46 -9 -60 -6 -21 6 -24 11
-18 29 4 12 8 40 8 62 1 33 -2 40 -19 40 -25 0 -33 -18 -34 -72 -1 -41 -2 -43
-41 -53 -46 -12 -84 -5 -77 15 3 7 9 33 12 59 7 44 6 46 -16 46 -130 2 -680
-2 -699 -5 -14 -2 -28 -4 -32 -4 -5 -1 -8 -9 -8 -20 0 -15 -10 -19 -51 -23
-59 -6 -79 -20 -63 -46 8 -12 27 -18 72 -20 42 -2 75 -10 103 -26 l41 -24 -40
-3 c-21 -2 -126 -4 -233 -4 -189 0 -195 1 -226 24 -27 20 -35 22 -48 11 -14
-12 -35 -11 -92 6 -20 5 -23 3 -23 -20 l0 -27 -87 7 c-53 4 -101 14 -122 25
-26 14 -38 15 -57 7 -17 -8 -34 -8 -63 0 -49 15 -48 15 -54 -8 -5 -18 -14 -20
-105 -20 l-99 0 -13 48 c-6 26 -25 85 -41 131 -27 78 -28 87 -18 147 6 35 15
64 19 64 4 0 29 -20 54 -43 25 -24 48 -42 51 -39 3 3 5 -1 5 -8 0 -7 2 -11 5
-8 3 3 -2 22 -11 44 -11 27 -15 57 -11 99 4 58 3 62 -35 112 l-40 52 16 124
c9 67 16 126 16 130 0 4 25 7 56 7 l56 0 -6 -67z m2144 50 c-1 -24 -58 -87
-104 -112 -34 -19 -43 -20 -108 -10 -39 6 -88 17 -108 24 -21 7 -67 16 -104
20 -72 8 -70 5 -45 73 8 22 9 22 239 22 212 0 230 -1 230 -17z m-2389 -383 c5
0 9 -11 9 -25 0 -35 -13 -31 -33 10 -21 44 -21 51 -1 31 8 -9 20 -16 25 -16z
m2991 -22 c-19 -29 -20 -30 -27 -9 -5 16 0 27 17 41 30 24 35 8 10 -32z
m-3029 5 c6 -16 16 -31 22 -35 12 -9 20 -153 10 -214 l-6 -44 -70 72 c-38 40
-69 76 -69 79 0 4 9 9 20 12 23 6 28 45 7 53 -7 2 -14 20 -15 39 -2 28 2 36
25 48 43 23 62 20 76 -10z m3102 17 c3 -5 21 -10 38 -10 18 0 28 -4 22 -8 -5
-4 -11 -20 -12 -37 -1 -16 -9 -35 -18 -41 -17 -13 -11 -40 11 -48 23 -9 16
-31 -18 -63 -42 -38 -155 -165 -191 -215 -34 -45 -52 -50 -43 -10 26 107 87
273 142 385 27 54 53 73 69 47z m185 -23 c0 -2 -9 -12 -20 -22 -24 -21 -27
-14 -4 9 15 15 24 20 24 13z m-61 -87 c-23 -22 -43 -40 -46 -40 -2 0 -3 10 -1
21 2 13 18 30 38 40 52 28 54 23 9 -21z m-3381 14 c12 -8 22 -24 22 -35 0 -19
-1 -19 -24 -2 -33 24 -51 53 -33 53 7 0 23 -7 35 -16z m2109 -6 c-3 -8 -6 -5
-6 6 -1 11 2 17 5 13 3 -3 4 -12 1 -19z m-1822 -238 c38 -132 32 -153 -24 -74
-31 45 -32 49 -25 111 4 37 10 61 15 56 5 -5 20 -47 34 -93z m-108 -27 c-3
-10 -5 -4 -5 12 0 17 2 24 5 18 2 -7 2 -21 0 -30z m3013 13 c0 -23 -11 -46
-22 -46 -5 0 -21 -9 -35 -20 -14 -11 -30 -20 -36 -20 -6 0 -4 6 5 13 8 6 27
29 43 50 29 39 45 47 45 23z m-2946 -62 c4 -10 1 -14 -6 -12 -15 5 -23 28 -10
28 5 0 13 -7 16 -16z m2463 -40 c-3 -3 -12 -4 -19 -1 -8 3 -5 6 6 6 11 1 17
-2 13 -5z m-604 -11 c-13 -2 -33 -2 -45 0 -13 2 -3 4 22 4 25 0 35 -2 23 -4z"/>
<path d="M2301 2786 l-33 -12 28 -14 c16 -8 33 -16 38 -19 5 -2 6 3 3 12 -3 9
-1 18 6 20 8 3 9 8 2 15 -7 6 -21 6 -44 -2z"/>
<path d="M2127 2740 c-3 -11 3 -30 14 -44 12 -16 19 -40 19 -70 0 -57 26 -78
101 -79 58 -1 79 16 79 65 0 37 -30 53 -72 39 -72 -25 -103 -5 -86 56 11 39 7
46 -26 50 -17 2 -25 -2 -29 -17z m161 -122 c-2 -5 -8 -9 -13 -9 -5 0 -11 4
-13 9 -1 5 4 9 13 9 9 0 14 -4 13 -9z"/>
<path d="M2210 2750 c0 -5 4 -10 9 -10 6 0 13 5 16 10 3 6 -1 10 -9 10 -9 0
-16 -4 -16 -10z"/>
<path d="M2300 2709 c0 -5 5 -7 10 -4 6 3 10 8 10 11 0 2 -4 4 -10 4 -5 0 -10
-5 -10 -11z"/>
<path d="M3775 2690 c-3 -5 1 -10 10 -10 9 0 13 5 10 10 -3 6 -8 10 -10 10 -2
0 -7 -4 -10 -10z"/>
<path d="M3868 2683 c7 -3 16 -2 19 1 4 3 -2 6 -13 5 -11 0 -14 -3 -6 -6z"/>
<path d="M3800 2555 c0 -8 8 -11 20 -8 11 3 20 7 20 8 0 1 -9 5 -20 8 -12 3
-20 0 -20 -8z"/>
<path d="M3962 2333 c-6 -16 -13 -53 -17 -83 -3 -30 -12 -62 -18 -70 -7 -9
-47 -34 -89 -55 -42 -22 -75 -41 -74 -42 3 -3 228 46 232 50 2 1 -2 40 -7 87
-6 47 -8 97 -5 113 3 15 2 27 -3 27 -5 0 -13 -12 -19 -27z"/>
<path d="M3646 2217 c-6 -26 -27 -50 -79 -91 -30 -24 -35 -34 -30 -55 10 -43
44 -53 96 -28 26 12 27 14 27 105 0 93 -3 110 -14 69z"/>
<path d="M3451 2106 c-12 -14 -18 -82 -9 -91 13 -13 35 7 30 27 -4 18 -2 20
27 13 36 -8 41 6 15 43 -17 25 -46 29 -63 8z"/>
<path d="M2553 2013 c-24 -9 -13 -33 24 -48 32 -14 38 -14 60 0 28 18 28 24 6
41 -18 13 -66 17 -90 7z"/>
<path d="M3210 1931 c0 -5 7 -12 16 -15 14 -5 15 -4 4 9 -14 17 -20 19 -20 6z"/>
<path d="M3740 1900 c-34 -6 -33 -6 18 -13 52 -8 72 -4 72 13 0 9 -34 9 -90 0z"/>
<path d="M3590 1851 c0 -5 5 -22 11 -38 6 -15 14 -48 18 -73 l7 -45 13 60 c6
33 14 70 17 83 4 19 0 22 -31 22 -19 0 -35 -4 -35 -9z"/>
<path d="M2695 1810 c-3 -5 -17 -10 -31 -10 -14 0 -24 -6 -24 -14 0 -9 -8 -12
-25 -8 -17 3 -27 -1 -31 -12 -7 -18 13 -49 27 -40 5 3 9 1 9 -4 0 -6 14 -24
30 -42 17 -18 30 -27 30 -22 0 6 -11 22 -25 36 -14 14 -25 28 -25 31 0 3 50 5
110 5 88 0 110 -3 110 -14 0 -8 -6 -17 -12 -19 -10 -4 -10 -6 -1 -6 24 -2 54
43 51 74 -3 27 -6 30 -35 27 -18 -2 -33 1 -33 7 0 5 -17 10 -38 9 -22 0 -48 3
-60 6 -11 4 -23 2 -27 -4z"/>
<path d="M3312 1750 c0 -14 2 -19 5 -12 2 6 2 18 0 25 -3 6 -5 1 -5 -13z"/>
<path d="M3058 1723 c-24 -6 -23 -18 2 -20 11 -1 20 4 20 13 0 8 -1 13 -2 13
-2 -1 -11 -3 -20 -6z"/>
<path d="M1313 1161 c3 -14 -2 -21 -16 -25 -12 -3 -18 -8 -15 -12 15 -14 46 7
44 31 0 14 -5 25 -10 25 -4 0 -6 -9 -3 -19z"/>
<path d="M4991 1164 c0 -11 3 -14 6 -6 3 7 2 16 -1 19 -3 4 -6 -2 -5 -13z"/>
<path d="M5000 1130 c20 -13 33 -13 25 0 -3 6 -14 10 -23 10 -15 0 -15 -2 -2
-10z"/>
<path d="M1422 908 c-15 -15 -16 -45 -1 -53 7 -5 3 -15 -11 -30 -12 -13 -20
-31 -18 -42 3 -15 8 -13 33 15 23 26 29 41 26 70 -3 44 -13 56 -29 40z"/>
<path d="M4865 876 c5 -27 3 -36 -12 -45 -17 -10 -16 -10 4 -11 12 0 27 -9 33
-20 10 -19 40 -28 40 -12 -1 13 -27 42 -39 42 -8 0 -9 5 -1 19 17 33 12 61
-10 61 -18 0 -20 -4 -15 -34z"/>
<path d="M1334 874 c4 -9 1 -23 -5 -31 -16 -19 -2 -30 16 -12 15 15 10 59 -7
59 -6 0 -7 -7 -4 -16z"/>
<path d="M4958 866 c-3 -16 2 -27 15 -36 17 -10 19 -10 13 5 -3 9 -6 25 -6 36
0 27 -17 24 -22 -5z"/>
<path d="M4768 839 c-2 -36 -7 -44 -27 -49 -14 -3 -26 -11 -29 -18 -3 -10 2
-10 22 -1 23 11 29 9 51 -11 20 -19 28 -21 38 -11 9 10 7 16 -12 32 l-23 19
23 9 c17 7 19 10 7 10 -10 1 -18 11 -20 28 -5 45 -26 39 -30 -8z"/>
</g>
</svg>
