<svg xmlns="http://www.w3.org/2000/svg" enable-background="new 0 0 2000 2000" viewBox="0 0 2000 2000"><path fill="#e0e8f5" fill-rule="evenodd" d="M1062.66,579.85c-175.06,0-248.81,125.25-375.19,222.62c-167.26,128.87-334.52,44.97-361.3,480.38
		c-23.84,387.53,273.6,41.96,692.97,180.78c419.37,138.82,846.48,194.72,719.74-254.42
		C1612.14,760.06,1469.41,579.85,1062.66,579.85z" clip-rule="evenodd"/><path fill="#c4d1eb" fill-rule="evenodd" d="M1562.86,1522.76c-101.5,0-183.79,11.39-183.79,25.45c0,14.06,82.28,25.45,183.79,25.45
		c101.5,0,183.78-11.39,183.78-25.45C1746.64,1534.15,1664.36,1522.76,1562.86,1522.76z" clip-rule="evenodd"/><path fill="#c4d1eb" fill-rule="evenodd" d="M1259.53,1522.76c-124.73,0-225.84,11.39-225.84,25.45c0,14.06,101.11,25.45,225.84,25.45
		c124.72,0,225.83-11.39,225.83-25.45C1485.36,1534.15,1384.25,1522.76,1259.53,1522.76z" clip-rule="evenodd"/><path fill="#c4d1eb" fill-rule="evenodd" d="M521.49,1542.03c-101.5,0-183.79,11.39-183.79,25.45c0,14.06,82.29,25.45,183.79,25.45
		s183.79-11.39,183.79-25.45C705.28,1553.42,622.99,1542.03,521.49,1542.03z" clip-rule="evenodd"/><ellipse cx="769.79" cy="1553.72" fill="#c4d1eb" fill-rule="evenodd" clip-rule="evenodd" rx="183.79" ry="25.45"/><path fill="#c4d1eb" fill-rule="evenodd" d="M512.9,817.76c19.33,92.95,86.99,217.85,151.58,345.39c35.63,72.64,63.6,121.27,83.93,145.87
		c13.27-3.47,19.2-12.76,17.82-27.87c-39.32-59.4-65.55-102.86-78.69-130.37c119.38,1.03,160.06-58.92,122.06-179.85
		c-27.43,47.15-95.9,115.62-99.69,93.03c5.28-51.3,38.27-89.48,99.67-120.77c-14.66-32.94-34.57-67.9-59.73-104.87
		c-39.63,114.25-69.03,160.65-88.23,139.24c-15.91-35.07,6.56-85.36,67.42-150.87c-19.83-34.03-47.66-66.49-83.5-97.37
		c-17.58,97.62-35.02,147.01-52.31,148.2c-19.72-13.21-10.98-66.88,26.2-160.99c-17.88-13.13-38-24.21-60.33-33.25
		c-6.05,73.88-15.71,107.76-28.99,101.63c-11.48-10.46-7.85-42.73,10.91-96.84c-40.69-15.54-67.08,5.3-104.95-44.99
		c-2.39,54.96-26.9,89.99-53.38,115.82c86.34,43.92,118.96,71.35,97.85,82.27c-30.76,7.59-71.14-8.5-121.14-48.25
		c-1,31.91-2.38,62.74-4.14,92.49c53.68,26.13,156.8,18.54,139.96,54.58c-15.82,25.1-68.49,15.66-158.01-28.32
		c15,32.33,21.27,62.79,18.81,91.4c26.54,24,182.34-22.65,170.32,46.9c-14.79,29.47-71.01,22.4-168.65-21.22
		c6,51.8,27.58,93.93,64.72,126.39c65.44,16.24,166.79-48.02,151.43,17.79c-12.55,23.68-66.86,24.96-162.94,3.83
		c101.11,102.47,182.3,103.81,243.55,4C580.63,1021.54,521.65,922.36,512.9,817.76z" clip-rule="evenodd"/><polygon fill="#c4d1eb" fill-rule="evenodd" points="1303.59 404.55 1463.42 531.34 1395.23 580.54" clip-rule="evenodd"/><polygon fill="#c4d1eb" fill-rule="evenodd" points="1497.67 508.77 1309.01 406.56 1554.41 497.38" clip-rule="evenodd"/><polygon fill="#9db2d9" fill-rule="evenodd" points="1497.67 508.77 1468.81 590.9 1463.42 531.34 1303.59 404.55 1309.01 406.56" clip-rule="evenodd"/><polygon fill="#859ac6" fill-rule="evenodd" points="1468.81 590.9 1433.21 553.14 1463.42 531.34" clip-rule="evenodd"/><path fill="#859ac6" fill-rule="evenodd" d="M1511.23,558.19c-4.43-2.53-7.73,3.97-3.83,6.2c2.03,1.27,4.05,2.54,6.05,3.87c4.66,2.66,7.68-3.98,4-6.09
		C1515.39,560.81,1513.32,559.5,1511.23,558.19L1511.23,558.19z M1303.27,935.4c1.15,4.59,8.24,2.91,7.06-1.81
		c-0.61-2.31-1.14-4.62-1.66-6.94c-1.24-4.96-8.21-2.84-7.12,1.53C1302.09,930.59,1302.65,932.99,1303.27,935.4L1303.27,935.4z
		 M1298.49,905.96c0,4.34,7.28,4.89,7.28-0.37c-0.13-2.36-0.22-4.71-0.22-7.07c0-4.83-7.28-4.79-7.28-0.04
		C1298.28,900.98,1298.36,903.46,1298.49,905.96L1298.49,905.96z M1300.33,876.08c-0.62,4.94,6,5.97,7.15,1.38
		c0.43-2.29,0.95-4.61,1.54-6.86c1.21-4.8-5.91-6.37-7.04-1.87C1301.34,871.14,1300.78,873.63,1300.33,876.08L1300.33,876.08z
		 M1309.82,847.58c-2.15,3.73,3.88,7.86,6.51,3.25c0.97-1.97,2.14-4.38,3.31-6.21c2.43-4.26-3.96-7.75-6.28-3.68
		C1312.09,843.01,1310.89,845.41,1309.82,847.58L1309.82,847.58z M1326.33,822.58c-3.17,3.81,2.54,8.33,5.51,4.76
		c1.55-1.8,3.11-3.53,4.73-5.25c3.29-3.3-1.73-8.57-5.23-5.07C1329.61,818.86,1327.97,820.68,1326.33,822.58L1326.33,822.58z
		 M1347.97,802.08c-3.96,3.29,1.02,8.61,4.44,5.76c1.86-1.45,3.79-2.88,5.73-4.23c3.97-2.84-0.35-8.71-4.18-5.97
		C1351.93,799.08,1349.93,800.54,1347.97,802.08L1347.97,802.08z M1372.92,785.95c-4.4,2.52-0.51,8.68,3.43,6.43
		c2.11-1.13,4.21-2.21,6.36-3.28c4.66-2.65,0.48-8.64-3.21-6.54C1377.29,783.66,1375.1,784.78,1372.92,785.95L1372.92,785.95z
		 M1399.9,773.76c-4.53,1.7-1.93,8.5,2.53,6.83l6.76-2.41c4.77-1.79,1.89-8.48-2.33-6.9
		C1404.52,772.08,1402.21,772.91,1399.9,773.76L1399.9,773.76z M1428.12,765.08c-4.69,1.18-2.89,8.23,1.74,7.08l6.99-1.61
		c4.96-1.24,2.83-8.22-1.52-7.14L1428.12,765.08L1428.12,765.08z M1457.14,759.63c-4.72,0.58-3.88,7.82,0.94,7.22l7.14-0.85
		c4.94-0.62,3.83-7.82-0.75-7.24C1462.01,759.02,1459.58,759.31,1457.14,759.63L1457.14,759.63z M1486.41,757.26
		c-4.84,0.61-4.41,7.27,0.43,7.27c2.45-0.14,4.89-0.28,7.33-0.47c5.19-0.65,3.77-7.81-0.55-7.26L1486.41,757.26L1486.41,757.26z
		 M1515.16,754.66c-4.69,0.59-3.88,7.83,0.95,7.22c2.44-0.31,4.86-0.66,7.29-1.03c4.52-0.56,3.9-7.83-1.1-7.2
		C1519.93,754.01,1517.55,754.35,1515.16,754.66L1515.16,754.66z M1543.4,749.56c-4.64,1.15-2.89,8.22,1.78,7.05
		c2.4-0.58,4.81-1.18,7.18-1.87c4.32-1.09,2.96-8.24-2.04-6.99C1548.07,748.42,1545.7,748.99,1543.4,749.56L1543.4,749.56z
		 M1570.4,740.58c-4.23,1.82-1.59,8.6,3,6.64c2.31-1.03,4.55-2.16,6.79-3.33c4.29-2.46,0.53-8.69-3.5-6.39
		C1574.75,738.6,1572.44,739.67,1570.4,740.58L1570.4,740.58z M1593.53,725.44c-3.34,3.34,1.74,8.56,5.19,5.11
		c1.85-1.85,3.55-3.75,5.15-5.82c2.78-3.33-2.45-8.41-5.82-4.36C1596.67,722.16,1595.13,723.84,1593.53,725.44L1593.53,725.44z
		 M1606.48,702.18c-1.07,4.27,5.87,6.5,7.14,1.45c0.5-2.61,0.83-5.1,1-7.76c0-5.26-7.28-4.71-7.28-0.37
		C1607.2,697.79,1606.92,699.92,1606.48,702.18L1606.48,702.18z M1604.85,675.09c1.09,4.37,8.24,2.95,7-2
		c-0.67-2.42-1.47-4.83-2.34-7.19c-1.69-4.52-8.5-1.93-6.83,2.53C1603.49,670.62,1604.24,672.85,1604.85,675.09L1604.85,675.09z
		 M1593.55,649.32c2.32,4.08,8.72,0.57,6.29-3.67c-1-2.01-2.68-4.43-3.91-6.37c-2.11-3.7-8.75-0.65-6.1,3.99
		C1590.93,644.84,1592.7,647.63,1593.55,649.32L1593.55,649.32z M1577.22,625.89c3.16,3.79,8.65-0.99,5.66-4.57
		c-1.53-1.93-3.13-3.82-4.73-5.68c-2.98-3.57-8.69,0.95-5.52,4.75C1574.18,622.2,1575.73,624.04,1577.22,625.89L1577.22,625.89z
		 M1557.93,604.62c3.35,3.36,8.56-1.74,5.12-5.18c-1.7-1.69-3.51-3.54-5.3-5.13c-3.19-3.19-8.58,1.72-4.99,5.31
		C1554.5,601.28,1556.23,602.93,1557.93,604.62L1557.93,604.62z M1536.57,585.36c3.6,3,8.36-2.51,4.59-5.66l-5.75-4.6
		c-3.45-2.87-8.4,2.48-4.46,5.75C1532.82,582.23,1534.75,583.88,1536.57,585.36z" clip-rule="evenodd"/><polygon fill="#c4d1eb" fill-rule="evenodd" points="745.12 424.2 599.7 483.81 639.63 534.81" clip-rule="evenodd"/><polygon fill="#c4d1eb" fill-rule="evenodd" points="579.19 459.78 740.68 424.52 539.64 439.21" clip-rule="evenodd"/><polygon fill="#9db2d9" fill-rule="evenodd" points="579.19 459.78 582.96 526.72 599.7 483.81 745.12 424.2 740.68 424.52" clip-rule="evenodd"/><polygon fill="#859ac6" fill-rule="evenodd" points="582.96 526.72 617.39 506.4 599.7 483.81" clip-rule="evenodd"/><path fill="#859ac6" fill-rule="evenodd" d="M545.58,521.77c4.73-0.59,3.66-7.49-0.73-6.93l-6.96,0.75c-4.66,0.58-3.68,7.49,0.78,6.93L545.58,521.77
		L545.58,521.77z M307.15,799c-3.09,0-4.62,3.79-2.52,5.89c0.52,0.62,1.56,1.08,2.52,1.08l4.51-0.02c4.51,0,4.61-6.98-0.07-6.98
		L307.15,799L307.15,799z M332.34,798.37c-4.1,0-4.69,6.97,0.39,6.97l7.03-0.44c5-0.62,3.62-7.47-0.52-6.95L332.34,798.37
		L332.34,798.37z M359.78,795.77c-4.33,0.54-3.73,7.49,1.05,6.9L359.78,795.77L359.78,795.77z M386.43,789.89
		c-4.17,1.56-2.5,7.8,2.18,6.63c2.29-0.74,4.54-1.53,6.79-2.41c4.25-1.82,1.72-8.09-2.6-6.47
		C390.71,788.47,388.57,789.21,386.43,789.89L386.43,789.89z M410.09,777.99c-3.64,3.03,0.96,8.28,4.38,5.42
		c1.97-1.61,3.78-3.29,5.49-5.19c3.1-3.71-2.44-7.96-5.23-4.62C413.3,775.21,411.74,776.62,410.09,777.99L410.09,777.99z
		 M423.14,756.84c-0.62,4.96,6.35,5.34,6.87,1.19c0.45-2.5,0.72-4.9,0.82-7.44c0-4.81-6.98-4.56-6.98-0.17
		C423.78,752.6,423.53,754.7,423.14,756.84L423.14,756.84z M421.26,730.76c1.06,4.25,7.89,2.81,6.73-1.84
		c-0.62-2.28-1.29-4.65-2.07-6.88c-1.71-4.56-8.12-1.81-6.6,2.24C420.04,726.41,420.68,728.59,421.26,730.76L421.26,730.76z
		 M411.64,705.21c1.73,4.02,8.24,1.52,6.34-2.91c-0.98-2.12-1.99-4.28-3.03-6.38c-2.55-4.47-8.28-0.45-6.26,3.07
		C409.71,701.04,410.69,703.14,411.64,705.21L411.64,705.21z M399.2,680.47c2.42,4.23,8.3,0.49,6.16-3.26l-3.27-6.17
		c-2.41-4.22-8.31-0.49-6.16,3.28C397.05,676.31,398.13,678.43,399.2,680.47L399.2,680.47z M386.21,655.69
		c2.52,4.42,8.28,0.46,6.24-3.11l-3.05-6.2c-2.38-4.18-8.07-1.13-6.3,3L386.21,655.69L386.21,655.69z M374.89,629.66
		c1.57,4.18,7.8,2.5,6.63-2.17c-0.7-2.16-1.34-4.26-1.91-6.46c-1.11-4.44-7.89-2.78-6.76,1.7
		C373.45,625.09,374.13,627.35,374.89,629.66L374.89,629.66z M371.39,600.7c-0.57,4.55,6.35,5.42,6.92,0.86
		c0.25-2.15,0.66-4.32,1.19-6.42c1.13-4.51-5.66-6.13-6.76-1.73C372.13,595.82,371.68,598.24,371.39,600.7L371.39,600.7z
		 M382.11,573.39c-2.72,3.81,3.01,7.77,5.63,4.11c1.3-1.8,2.66-3.5,4.14-5.16c3.17-3.79-2.45-7.93-5.17-4.67
		C385.07,569.44,383.53,571.43,382.11,573.39L382.11,573.39z M403.17,553.5c-3.6,2.58-0.32,8.2,3.89,5.79
		c1.88-1.26,3.77-2.46,5.73-3.62c3.86-2.2,0.56-8.35-3.57-6C407.17,550.89,405.16,552.16,403.17,553.5L403.17,553.5z M428.38,540.12
		c-4.29,1.84-1.47,8.22,2.7,6.44c2.1-0.89,4.22-1.74,6.36-2.55c4.27-1.6,1.86-8.15-2.47-6.52
		C432.75,538.34,430.55,539.2,428.38,540.12L428.38,540.12z M455.1,530.82c-4.18,1.05-2.82,7.89,1.92,6.71l6.65-1.83
		c4.36-1.09,2.79-7.89-1.77-6.75L455.1,530.82L455.1,530.82z M482.45,524.14c-4.81,1.21-2.7,7.85,1.4,6.83l6.8-1.34
		c4.43-1.11,3.38-7.44-1.31-6.86L482.45,524.14L482.45,524.14z M510.11,519.23c-4.35,0.54-3.74,7.5,1.03,6.9l6.87-1
		c4.41-0.55,3.73-7.5-0.97-6.91L510.11,519.23z" clip-rule="evenodd"/><path fill="#b0c2e4" fill-rule="evenodd" d="M795.11,472.93h355.7c34.29,0,62.29,28,62.29,62.29v770.9c0,34.29-28,62.29-62.29,62.29h-355.7
			c-34.29,0-62.29-28-62.29-62.29v-770.9C732.82,500.93,760.82,472.93,795.11,472.93z" clip-rule="evenodd"/><path fill="#fff" fill-rule="evenodd" d="M795.11,489.55h355.7c25.12,0,45.67,20.55,45.67,45.67v770.9c0,25.12-20.55,45.68-45.67,45.68h-355.7
			c-25.12,0-45.67-20.56-45.67-45.68v-770.9C749.44,510.1,769.99,489.55,795.11,489.55z" clip-rule="evenodd"/><path fill="#c4d1eb" fill-rule="evenodd" d="M795.11,508.28c116.65,0,239.05,0,355.7,0c14.82,0,26.94,12.12,26.94,26.94v770.9
			c0,14.82-12.12,26.94-26.94,26.94h-355.7c-14.82,0-26.94-12.12-26.94-26.94v-770.9C768.17,520.4,780.29,508.28,795.11,508.28z" clip-rule="evenodd"/><path fill="#fff" fill-rule="evenodd" d="M830.84,541.19h284.27h6.34v6.34c0,7.08,2.9,13.54,7.55,18.16l0.02,0.02c4.63,4.64,11.08,7.55,18.16,7.55
			h6.34v6.34v682.15v6.33h-6.34c-7.06,0-13.52,2.92-18.16,7.55c-4.66,4.66-7.56,11.11-7.56,18.19v6.33h-6.34H830.84h-6.34v-6.33
			c0-7.06-2.91-13.53-7.54-18.19l-0.01-0.02c-4.66-4.62-11.13-7.53-18.19-7.53h-6.33v-6.33V579.59v-6.34h6.33
			c7.07,0,13.53-2.9,18.19-7.56c4.63-4.64,7.55-11.09,7.55-18.16v-6.34H830.84L830.84,541.19z M1109.3,553.86H836.66
			c-1.35,8.04-5.24,15.25-10.76,20.77c-5.55,5.54-12.76,9.43-20.79,10.79v670.5c8.02,1.34,15.24,5.24,20.77,10.76l0.02,0.02
			c5.52,5.54,9.41,12.76,10.76,20.77h272.62c1.35-8.04,5.23-15.26,10.78-20.79c5.52-5.52,12.74-9.42,20.77-10.76V585.4
			c-8.02-1.37-15.24-5.24-20.75-10.77l-0.02-0.01C1114.53,569.1,1110.65,561.87,1109.3,553.86z" clip-rule="evenodd"/><path fill="#fff" fill-rule="evenodd" d="M879.11,676.07h190.75c4.41,0,8.01,3.61,8.01,8.03v0.02c0,4.41-3.6,8.01-8.01,8.01H879.11
			c-4.42,0-8.02-3.6-8.02-8.01v-0.02C871.09,679.68,874.69,676.07,879.11,676.07z" clip-rule="evenodd"/><path fill="#fff" fill-rule="evenodd" d="M846.1,707.91h256.75c4.42,0,8.02,3.61,8.02,8.03v0.02c0,4.41-3.6,8.01-8.02,8.01H846.1
			c-4.42,0-8.01-3.6-8.01-8.01v-0.02C838.09,711.51,841.68,707.91,846.1,707.91z" clip-rule="evenodd"/><path fill="#fff" fill-rule="evenodd" d="M846.1,745.96h256.75c4.42,0,8.02,3.6,8.02,8.03v0.02c0,4.41-3.6,8.01-8.02,8.01H846.1
			c-4.42,0-8.01-3.6-8.01-8.01v-0.02C838.09,749.56,841.68,745.96,846.1,745.96z" clip-rule="evenodd"/><path fill="#fff" fill-rule="evenodd" d="M846.1,784.02h256.75c4.42,0,8.02,3.6,8.02,8.02v0.02c0,4.41-3.6,8.02-8.02,8.02H846.1
			c-4.42,0-8.01-3.6-8.01-8.02v-0.02C838.09,787.62,841.68,784.02,846.1,784.02z" clip-rule="evenodd"/><path fill="#fff" fill-rule="evenodd" d="M846.1,822.07h256.75c4.42,0,8.02,3.6,8.02,8.02v0.02c0,4.41-3.6,8.02-8.02,8.02H846.1
			c-4.42,0-8.01-3.61-8.01-8.02v-0.02C838.09,825.68,841.68,822.07,846.1,822.07z" clip-rule="evenodd"/><path fill="#fff" fill-rule="evenodd" d="M846.1,860.13h256.75c4.42,0,8.02,3.6,8.02,8.02v0.02c0,4.41-3.6,8.02-8.02,8.02H846.1
			c-4.42,0-8.01-3.61-8.01-8.02v-0.02C838.09,863.73,841.68,860.13,846.1,860.13z" clip-rule="evenodd"/><path fill="#fff" fill-rule="evenodd" d="M878.97,971.49l1.29-3.83h2.54l-1.59,3.83c-0.24,0.58-0.72,1.1-1.6,1.1h-1.93
			C878.4,972.59,878.78,972.07,878.97,971.49L878.97,971.49z M878.93,967.66h-2.65l-0.81,3.83c-0.11,0.58-0.36,1.1-0.8,1.1h2.01
			c0.62,0,0.96-0.52,1.13-1.09L878.93,967.66L878.93,967.66z M874.95,967.66l-0.64,3.83c-0.09,0.58-0.28,1.1-0.64,1.1h-2.01
			c0.18,0,0.27-0.52,0.32-1.09l0.32-3.84H874.95L874.95,967.66z M867.05,967.66h-2.67l0.64,3.83c0.09,0.58,0.29,1.1,0.64,1.1h2.01
			c-0.17,0-0.27-0.52-0.32-1.09L867.05,967.66L867.05,967.66z M859.07,967.66h-2.54l1.59,3.83c0.24,0.58,0.72,1.1,1.59,1.1h1.93
			c-0.7,0-1.09-0.52-1.29-1.09L859.07,967.66L859.07,967.66z M861.53,971.49l-1.13-3.83h2.66l0.81,3.83c0.12,0.58,0.36,1.1,0.8,1.1
			h-2.01C862.03,972.59,861.69,972.07,861.53,971.49L861.53,971.49L861.53,971.49z M869.67,898.75
			c11.48,13.68,28.01,8.75,20.89,27.38h-41.77C841.65,907.51,858.18,912.43,869.67,898.75L869.67,898.75L869.67,898.75z
			 M852.27,927.53h34.79c1.11,0,2.01,0.9,2.01,2c0,1.1-0.91,2-2.01,2h-34.79c-1.1,0-2-0.91-2-2
			C850.26,928.44,851.17,927.53,852.27,927.53L852.27,927.53L852.27,927.53z M869.67,936c-2.17,0-3.95,1.77-3.95,3.94v1.33
			c0.76,0,1.39,0.62,1.39,1.39c0,0.76-0.63,1.38-1.39,1.38v13.62h7.89v-13.62c-0.76,0-1.39-0.62-1.39-1.38
			c0-0.77,0.62-1.39,1.39-1.39v-1.33C873.61,937.76,871.83,936,869.67,936L869.67,936L869.67,936z M862.83,939.93
			c0-2.17-1.78-3.94-3.95-3.94c-2.17,0-3.95,1.77-3.95,3.94v1.33c0.77,0,1.39,0.62,1.39,1.39c0,0.76-0.62,1.38-1.39,1.38v13.62h7.9
			v-13.62c-0.77,0-1.39-0.62-1.39-1.38c0-0.77,0.62-1.39,1.39-1.39V939.93L862.83,939.93z M880.45,936c-2.17,0-3.94,1.77-3.94,3.94
			v1.33c0.77,0,1.38,0.62,1.38,1.39c0,0.76-0.62,1.38-1.38,1.38v13.62h7.89v-13.62c-0.76,0-1.39-0.62-1.39-1.38
			c0-0.77,0.63-1.39,1.39-1.39v-1.33C884.4,937.76,882.63,936,880.45,936L880.45,936L880.45,936z M854.27,932.95h30.78
			c1.25,0,2.27,1.01,2.27,2.26v23.37c0,1.24-1.02,2.27-2.27,2.27h-30.78c-1.24,0-2.27-1.03-2.27-2.27v-23.37
			C852.01,933.96,853.03,932.95,854.27,932.95L854.27,932.95L854.27,932.95z M855.67,962.25h27.99c1.1-0.01,2,0.9,2,2
			c0,1.1-0.9,2.01-2,2.01h-27.99c-1.1,0-2-0.9-2-2.01C853.67,963.15,854.57,962.24,855.67,962.25L855.67,962.25L855.67,962.25z
			 M862,974h15.34c0,4.24-3.44,7.68-7.67,7.68C865.43,981.68,862,978.24,862,974L862,974L862,974z M868.37,967.66h2.6l-0.17,3.83
			c-0.02,0.58-0.07,1.1-0.16,1.1h-1.96c-0.09,0-0.14-0.52-0.16-1.09L868.37,967.66z" clip-rule="evenodd"/><path fill="#fff" fill-rule="evenodd" d="M921.28,916.98h179.66c4.42,0,8.02,3.6,8.02,8.02v0.02c0,4.41-3.6,8.01-8.02,8.01H921.28
			c-4.41,0-8.02-3.6-8.02-8.01V925C913.27,920.58,916.88,916.98,921.28,916.98z" clip-rule="evenodd"/><path fill="#fff" fill-rule="evenodd" d="M921.28,948.17h179.66c4.42,0,8.02,3.6,8.02,8.02v0.02c0,4.41-3.6,8.02-8.02,8.02H921.28
			c-4.41,0-8.02-3.61-8.02-8.02v-0.02C913.27,951.77,916.88,948.17,921.28,948.17z" clip-rule="evenodd"/><path fill="#fff" fill-rule="evenodd" d="M878.97,1086.55l1.29-3.83h2.54l-1.59,3.83c-0.24,0.58-0.72,1.1-1.6,1.1h-1.93
			C878.4,1087.66,878.78,1087.13,878.97,1086.55L878.97,1086.55z M878.93,1082.73h-2.65l-0.81,3.83c-0.11,0.58-0.36,1.1-0.8,1.1
			h2.01c0.62,0,0.96-0.52,1.13-1.09L878.93,1082.73L878.93,1082.73z M874.95,1082.73l-0.64,3.83c-0.09,0.58-0.28,1.1-0.64,1.1h-2.01
			c0.18,0,0.27-0.52,0.32-1.09l0.32-3.84H874.95L874.95,1082.73z M867.05,1082.73h-2.67l0.64,3.83c0.09,0.58,0.29,1.1,0.64,1.1h2.01
			c-0.17,0-0.27-0.52-0.32-1.09L867.05,1082.73L867.05,1082.73z M859.07,1082.73h-2.54l1.59,3.83c0.24,0.58,0.72,1.1,1.59,1.1h1.93
			c-0.7,0-1.09-0.52-1.29-1.09L859.07,1082.73L859.07,1082.73z M861.53,1086.55l-1.13-3.83h2.66l0.81,3.83
			c0.12,0.58,0.36,1.1,0.8,1.1h-2.01C862.03,1087.66,861.69,1087.13,861.53,1086.55L861.53,1086.55L861.53,1086.55z M869.67,1013.81
			c11.48,13.69,28.01,8.76,20.89,27.38h-41.77C841.65,1022.57,858.18,1027.5,869.67,1013.81L869.67,1013.81L869.67,1013.81z
			 M852.27,1042.6h34.79c1.11,0,2.01,0.9,2.01,2c0,1.1-0.91,2.01-2.01,2.01h-34.79c-1.1,0-2-0.91-2-2.01
			C850.26,1043.5,851.17,1042.6,852.27,1042.6L852.27,1042.6L852.27,1042.6z M869.67,1051.06c-2.17,0-3.95,1.77-3.95,3.94v1.33
			c0.76,0,1.39,0.62,1.39,1.39c0,0.76-0.63,1.38-1.39,1.38v13.61h7.89v-13.61c-0.76,0-1.39-0.62-1.39-1.38
			c0-0.77,0.62-1.39,1.39-1.39V1055C873.61,1052.83,871.83,1051.06,869.67,1051.06L869.67,1051.06L869.67,1051.06z M862.83,1055
			c0-2.17-1.78-3.94-3.95-3.94c-2.17,0-3.95,1.77-3.95,3.94v1.33c0.77,0,1.39,0.62,1.39,1.39c0,0.76-0.62,1.38-1.39,1.38v13.61h7.9
			v-13.61c-0.77,0-1.39-0.62-1.39-1.38c0-0.77,0.62-1.39,1.39-1.39V1055L862.83,1055z M880.45,1051.06c-2.17,0-3.94,1.77-3.94,3.94
			v1.33c0.77,0,1.38,0.62,1.38,1.39c0,0.76-0.62,1.38-1.38,1.38v13.61h7.89v-13.61c-0.76,0-1.39-0.62-1.39-1.38
			c0-0.77,0.63-1.39,1.39-1.39V1055C884.4,1052.83,882.63,1051.06,880.45,1051.06L880.45,1051.06L880.45,1051.06z M854.27,1048.01
			h30.78c1.25,0,2.27,1.01,2.27,2.26v23.37c0,1.24-1.02,2.27-2.27,2.27h-30.78c-1.24,0-2.27-1.02-2.27-2.27v-23.37
			C852.01,1049.03,853.03,1048.01,854.27,1048.01L854.27,1048.01L854.27,1048.01z M855.67,1077.31h27.99c1.1,0,2,0.91,2,2.01
			c0,1.1-0.9,2-2,2h-27.99c-1.1,0-2-0.9-2-2C853.67,1078.21,854.57,1077.31,855.67,1077.31L855.67,1077.31L855.67,1077.31z
			 M862,1089.06h15.34c0,4.24-3.44,7.68-7.67,7.68C865.43,1096.74,862,1093.31,862,1089.06L862,1089.06L862,1089.06z
			 M868.37,1082.73h2.6l-0.17,3.83c-0.02,0.58-0.07,1.1-0.16,1.1h-1.96c-0.09,0-0.14-0.52-0.16-1.09L868.37,1082.73z" clip-rule="evenodd"/><path fill="#fff" fill-rule="evenodd" d="M921.28,1063.23h179.66c4.42,0,8.02,3.6,8.02,8.02v0.02c0,4.41-3.6,8.02-8.02,8.02H921.28
			c-4.41,0-8.02-3.61-8.02-8.02v-0.02C913.27,1066.83,916.88,1063.23,921.28,1063.23z" clip-rule="evenodd"/><path fill="#fff" fill-rule="evenodd" d="M921.28,1023.34h179.66c4.42,0,8.02,3.6,8.02,8.03v0.01c0,4.42-3.6,8.02-8.02,8.02H921.28
			c-4.41,0-8.02-3.6-8.02-8.02v-0.01C913.27,1026.94,916.88,1023.34,921.28,1023.34z" clip-rule="evenodd"/><path fill="#fff" fill-rule="evenodd" d="M878.97,1191.53l1.29-3.84h2.54l-1.59,3.84c-0.24,0.57-0.72,1.1-1.6,1.1h-1.93
			C878.4,1192.63,878.78,1192.1,878.97,1191.53L878.97,1191.53z M878.93,1187.69h-2.65l-0.81,3.84c-0.11,0.57-0.36,1.1-0.8,1.1h2.01
			c0.62,0,0.96-0.53,1.13-1.1L878.93,1187.69L878.93,1187.69z M874.95,1187.69l-0.64,3.84c-0.09,0.57-0.28,1.1-0.64,1.1h-2.01
			c0.18,0,0.27-0.53,0.32-1.1l0.32-3.84H874.95L874.95,1187.69z M867.05,1187.69h-2.67l0.64,3.84c0.09,0.57,0.29,1.1,0.64,1.1h2.01
			c-0.17,0-0.27-0.53-0.32-1.1L867.05,1187.69L867.05,1187.69z M859.07,1187.69h-2.54l1.59,3.84c0.24,0.57,0.72,1.1,1.59,1.1h1.93
			c-0.7,0-1.09-0.53-1.29-1.1L859.07,1187.69L859.07,1187.69z M861.53,1191.53l-1.13-3.84h2.66l0.81,3.84
			c0.12,0.57,0.36,1.1,0.8,1.1h-2.01C862.03,1192.63,861.69,1192.1,861.53,1191.53L861.53,1191.53L861.53,1191.53z M869.67,1118.78
			c11.48,13.69,28.01,8.75,20.89,27.37h-41.77C841.65,1127.53,858.18,1132.47,869.67,1118.78L869.67,1118.78L869.67,1118.78z
			 M852.27,1147.56h34.79c1.11,0,2.01,0.9,2.01,2s-0.91,2-2.01,2h-34.79c-1.1,0-2-0.9-2-2
			C850.26,1148.47,851.17,1147.56,852.27,1147.56L852.27,1147.56L852.27,1147.56z M869.67,1156.02c-2.17,0-3.95,1.78-3.95,3.95v1.32
			c0.76,0,1.39,0.62,1.39,1.39c0,0.76-0.63,1.39-1.39,1.39v13.61h7.89v-13.61c-0.76,0-1.39-0.62-1.39-1.39
			c0-0.77,0.62-1.39,1.39-1.39v-1.32C873.61,1157.8,871.83,1156.02,869.67,1156.02L869.67,1156.02L869.67,1156.02z M862.83,1159.97
			c0-2.17-1.78-3.95-3.95-3.95c-2.17,0-3.95,1.78-3.95,3.95v1.32c0.77,0,1.39,0.62,1.39,1.39c0,0.76-0.62,1.39-1.39,1.39v13.61h7.9
			v-13.61c-0.77,0-1.39-0.62-1.39-1.39c0-0.77,0.62-1.39,1.39-1.39V1159.97L862.83,1159.97z M880.45,1156.02
			c-2.17,0-3.94,1.78-3.94,3.95v1.32c0.77,0,1.38,0.62,1.38,1.39c0,0.76-0.62,1.39-1.38,1.39v13.61h7.89v-13.61
			c-0.76,0-1.39-0.62-1.39-1.39c0-0.77,0.63-1.39,1.39-1.39v-1.32C884.4,1157.8,882.63,1156.02,880.45,1156.02L880.45,1156.02
			L880.45,1156.02z M854.27,1152.98h30.78c1.25,0,2.27,1.02,2.27,2.26v23.38c0,1.24-1.02,2.26-2.27,2.26h-30.78
			c-1.24,0-2.27-1.02-2.27-2.26v-23.38C852.01,1154,853.03,1152.98,854.27,1152.98L854.27,1152.98L854.27,1152.98z M855.67,1182.28
			h27.99c1.1,0,2,0.9,2,2c0,1.1-0.9,2.01-2,2.01h-27.99c-1.1,0-2-0.9-2-2.01C853.67,1183.18,854.57,1182.28,855.67,1182.28
			L855.67,1182.28L855.67,1182.28z M862,1194.03h15.34c0,4.23-3.44,7.67-7.67,7.67C865.43,1201.7,862,1198.27,862,1194.03
			L862,1194.03L862,1194.03z M868.37,1187.69h2.6l-0.17,3.84c-0.02,0.57-0.07,1.1-0.16,1.1h-1.96c-0.09,0-0.14-0.53-0.16-1.1
			L868.37,1187.69z" clip-rule="evenodd"/><path fill="#fff" fill-rule="evenodd" d="M921.28,1168.19h179.66c4.42,0,8.02,3.6,8.02,8.03v0.02c0,4.41-3.6,8.01-8.02,8.01H921.28
			c-4.41,0-8.02-3.6-8.02-8.01v-0.02C913.27,1171.8,916.88,1168.19,921.28,1168.19z" clip-rule="evenodd"/><path fill="#fff" fill-rule="evenodd" d="M921.28,1128.31h179.66c4.42,0,8.02,3.6,8.02,8.02v0.02c0,4.41-3.6,8.01-8.02,8.01H921.28
			c-4.41,0-8.02-3.6-8.02-8.01v-0.02C913.27,1131.92,916.88,1128.31,921.28,1128.31z" clip-rule="evenodd"/><path fill="#fff" fill-rule="evenodd" d="M902.48,1218.62h32.98c13.24,0,24.07,10.83,24.07,24.06v0.02c0,13.23-10.83,24.06-24.07,24.06h-32.98
			c-13.24,0-24.06-10.83-24.06-24.06v-0.02C878.42,1229.45,889.24,1218.62,902.48,1218.62z" clip-rule="evenodd"/><path fill="#fff" fill-rule="evenodd" d="M1011.59,1218.62h32.98c13.24,0,24.06,10.83,24.06,24.06v0.02c0,13.23-10.82,24.06-24.06,24.06h-32.98
			c-13.24,0-24.06-10.83-24.06-24.06v-0.02C987.53,1229.45,998.35,1218.62,1011.59,1218.62z" clip-rule="evenodd"/><path fill="#fff" fill-rule="evenodd" d="M935.9,620.24h74.56c1.57,0,2.85,1.59,2.85,3.55l0,0c0,1.96-1.28,3.56-2.85,3.56H935.9
			c-1.57,0-2.86-1.59-2.86-3.56l0,0C933.04,621.84,934.33,620.24,935.9,620.24L935.9,620.24z M973.18,561.75
			c1.02,6.39,1.52,12.68,1.27,18.84c19.54,4.19,43.01,17.15,31.94,37.57h-66.42c-11.06-20.42,12.36-33.39,31.94-37.57
			C971.65,574.43,972.16,568.13,973.18,561.75L973.18,561.75L973.18,561.75z M932.1,629.43h82.14c1.77,0,3.22,1.8,3.22,4.01v26.88
			h-4.21v-14.86c0-3.69-2.44-6.72-5.41-6.72c-2.97,0-5.41,3.03-5.41,6.72v14.86h-4.2v-14.86c0-3.69-2.43-6.72-5.41-6.72
			c-2.98,0-5.41,3.03-5.41,6.72v14.86h-4.45v-13.55c0-6.69-4.41-12.16-9.8-12.16c-5.4,0-9.8,5.48-9.8,12.16v13.55h-4.45v-14.86
			c0-3.69-2.43-6.72-5.41-6.72c-2.97,0-5.41,3.03-5.41,6.72v14.86h-4.2v-14.86c0-3.69-2.44-6.72-5.41-6.72
			c-2.98,0-5.41,3.03-5.41,6.72v14.86h-4.21v-26.88C928.88,631.24,930.33,629.43,932.1,629.43L932.1,629.43z" clip-rule="evenodd"/><path fill="#b0c2e4" fill-rule="evenodd" d="M321.4,787.02l3.45-10.32h6.86l-4.29,10.32c-0.64,1.54-1.93,2.96-4.29,2.96h-5.19
		C319.85,789.98,320.89,788.57,321.4,787.02L321.4,787.02z M321.28,776.7h-7.15l-2.15,10.32c-0.32,1.54-0.96,2.96-2.15,2.96h5.41
		c1.67,0,2.57-1.41,3.02-2.96L321.28,776.7L321.28,776.7z M310.56,776.7l-1.71,10.32c-0.26,1.54-0.78,2.96-1.73,2.96h-5.41
		c0.47,0,0.73-1.41,0.85-2.96l0.86-10.32H310.56L310.56,776.7z M289.29,776.7h-7.14l1.72,10.32c0.26,1.54,0.77,2.96,1.73,2.96h5.41
		c-0.48,0-0.74-1.41-0.86-2.96L289.29,776.7L289.29,776.7z M267.85,776.7H261l4.28,10.32c0.65,1.54,1.93,2.96,4.29,2.96h5.19
		c-1.9,0-2.93-1.41-3.45-2.96L267.85,776.7L267.85,776.7z M274.44,787.02l-3.02-10.32h7.15l2.15,10.32
		c0.33,1.54,0.97,2.96,2.15,2.96h-5.41C275.81,789.98,274.89,788.57,274.44,787.02L274.44,787.02L274.44,787.02z M296.35,591.28
		c30.89,36.83,75.37,23.56,56.21,73.67H240.15C220.99,614.84,265.46,628.11,296.35,591.28L296.35,591.28L296.35,591.28z
		 M249.53,668.72h93.64c2.97,0,5.4,2.43,5.4,5.4c0,2.97-2.45,5.4-5.4,5.4h-93.64c-2.95,0-5.4-2.45-5.4-5.4
		S246.56,668.72,249.53,668.72L249.53,668.72L249.53,668.72z M296.35,691.48c-5.84,0-10.62,4.78-10.62,10.62v3.56
		c2.06,0,3.73,1.67,3.73,3.73c0,2.06-1.67,3.73-3.73,3.73v36.62h21.24v-36.62c-2.06,0-3.73-1.67-3.73-3.73
		c0-2.06,1.67-3.73,3.73-3.73v-3.56C306.97,696.26,302.19,691.48,296.35,691.48L296.35,691.48L296.35,691.48z M277.94,702.1
		c0-5.84-4.77-10.62-10.61-10.62c-5.85,0-10.62,4.78-10.62,10.62v3.56c2.06,0,3.73,1.67,3.73,3.73c0,2.06-1.67,3.73-3.73,3.73v36.62
		h21.23v-36.62c-2.06,0-3.72-1.67-3.72-3.73c0-2.06,1.67-3.73,3.72-3.73V702.1L277.94,702.1z M325.38,691.48
		c-5.85,0-10.62,4.78-10.62,10.62v3.56c2.07,0,3.73,1.67,3.73,3.73c0,2.06-1.66,3.73-3.73,3.73v36.62H336v-36.62
		c-2.06,0-3.73-1.67-3.73-3.73c0-2.06,1.67-3.73,3.73-3.73v-3.56C336,696.26,331.22,691.48,325.38,691.48L325.38,691.48
		L325.38,691.48z M254.93,683.3h82.85c3.35,0,6.08,2.73,6.08,6.07v62.9c0,3.35-2.74,6.08-6.08,6.08h-82.85
		c-3.34,0-6.08-2.74-6.08-6.08v-62.9C248.85,686.04,251.59,683.3,254.93,683.3L254.93,683.3L254.93,683.3z M258.7,762.13H334
		c2.98,0,5.41,2.43,5.41,5.4c0,2.98-2.44,5.41-5.41,5.41h-75.3c-2.97,0-5.4-2.44-5.4-5.41C253.31,764.56,255.73,762.13,258.7,762.13
		L258.7,762.13L258.7,762.13z M275.71,793.76H317c0,11.4-9.25,20.64-20.65,20.64C284.95,814.41,275.71,805.17,275.71,793.76
		L275.71,793.76L275.71,793.76z M292.86,776.7h6.98l-0.42,10.32c-0.07,1.54-0.19,2.96-0.43,2.96h-5.28c-0.24,0-0.36-1.41-0.43-2.96
		L292.86,776.7z" clip-rule="evenodd"/><path fill="#b0c2e4" fill-rule="evenodd" d="M1345.56,733.83l3.45-10.32h6.85l-4.29,10.32c-0.64,1.55-1.93,2.96-4.29,2.96h-5.19
		C1344.01,736.79,1345.05,735.38,1345.56,733.83L1345.56,733.83z M1345.44,723.52h-7.15l-2.15,10.32c-0.32,1.55-0.96,2.96-2.15,2.96
		h5.41c1.67,0,2.57-1.41,3.02-2.96L1345.44,723.52L1345.44,723.52z M1334.72,723.52l-1.72,10.32c-0.25,1.55-0.77,2.96-1.72,2.96
		h-5.41c0.47,0,0.73-1.41,0.85-2.96l0.86-10.32H1334.72L1334.72,723.52z M1313.45,723.52h-7.14l1.72,10.32
		c0.26,1.55,0.77,2.96,1.73,2.96h5.41c-0.47,0-0.73-1.41-0.85-2.96L1313.45,723.52L1313.45,723.52z M1292.01,723.52h-6.85
		l4.29,10.32c0.65,1.55,1.93,2.96,4.29,2.96h5.19c-1.9,0-2.93-1.41-3.45-2.96L1292.01,723.52L1292.01,723.52z M1298.6,733.83
		l-3.02-10.32h7.15l2.15,10.32c0.32,1.55,0.97,2.96,2.15,2.96h-5.41C1299.97,736.79,1299.06,735.38,1298.6,733.83L1298.6,733.83
		L1298.6,733.83z M1320.51,538.09c30.89,36.83,75.37,23.56,56.21,73.67h-112.41C1245.16,561.65,1289.63,574.92,1320.51,538.09
		L1320.51,538.09L1320.51,538.09z M1273.69,615.53h93.64c2.97,0,5.4,2.43,5.4,5.4c0,2.97-2.45,5.4-5.4,5.4h-93.64
		c-2.95,0-5.4-2.45-5.4-5.4C1268.3,617.98,1270.73,615.53,1273.69,615.53L1273.69,615.53L1273.69,615.53z M1320.51,638.29
		c-5.84,0-10.62,4.78-10.62,10.62v3.56c2.07,0,3.73,1.67,3.73,3.73c0,2.05-1.67,3.73-3.73,3.73v36.62h21.24v-36.62
		c-2.06,0-3.73-1.67-3.73-3.73c0-2.06,1.67-3.73,3.73-3.73v-3.56C1331.14,643.07,1326.35,638.29,1320.51,638.29L1320.51,638.29
		L1320.51,638.29z M1302.1,648.91c0-5.84-4.77-10.62-10.61-10.62c-5.85,0-10.62,4.78-10.62,10.62v3.56c2.06,0,3.73,1.67,3.73,3.73
		c0,2.05-1.67,3.73-3.73,3.73v36.62h21.23v-36.62c-2.06,0-3.73-1.67-3.73-3.73c0-2.06,1.67-3.73,3.73-3.73V648.91L1302.1,648.91z
		 M1349.55,638.29c-5.85,0-10.62,4.78-10.62,10.62v3.56c2.07,0,3.72,1.67,3.72,3.73c0,2.05-1.66,3.73-3.72,3.73v36.62h21.23v-36.62
		c-2.05,0-3.73-1.67-3.73-3.73c0-2.06,1.67-3.73,3.73-3.73v-3.56C1360.16,643.07,1355.38,638.29,1349.55,638.29L1349.55,638.29
		L1349.55,638.29z M1279.09,630.11h82.85c3.35,0,6.08,2.73,6.08,6.07v62.9c0,3.35-2.74,6.08-6.08,6.08h-82.85
		c-3.34,0-6.08-2.74-6.08-6.08v-62.9C1273.01,632.84,1275.75,630.11,1279.09,630.11L1279.09,630.11L1279.09,630.11z M1282.86,708.94
		h75.3c2.98,0,5.41,2.43,5.41,5.4c0,2.97-2.44,5.4-5.41,5.4h-75.3c-2.97,0-5.4-2.43-5.4-5.4
		C1277.47,711.37,1279.9,708.94,1282.86,708.94L1282.86,708.94L1282.86,708.94z M1299.87,740.58h41.29
		c0,11.4-9.25,20.64-20.65,20.64S1299.87,751.97,1299.87,740.58L1299.87,740.58L1299.87,740.58z M1317.02,723.52h6.98l-0.42,10.32
		c-0.07,1.55-0.19,2.96-0.43,2.96h-5.28c-0.23,0-0.36-1.41-0.43-2.96L1317.02,723.52z" clip-rule="evenodd"/><path fill="#f9af79" fill-rule="evenodd" d="M856.37,1108.76c-12.5-3.51-12.81-1.23-14.4-1.75c-1.87-0.59-17.15-20.83-17.15-20.83s-45.47-59.36-47.8-62.67
		l-14.94-77.26l-42.5,0.07c0,0,18.61,83.44,20.38,87.53c1.79,4.16,73.62,76.47,79.71,83.04c0,0,4,10.8,6.75,17.44
		c2.76,6.64,8.55,11.52,9.63,13.21c0.16,0.26,4.14,5.79,11.04,11.12c5.94,4.63,2.76-2.6,2.76-2.6s-9.24-10.6-8.17-11.25
		c0.81-0.52,5.48,5.6,11.99,10.73c1.68,1.37,3.34,2.67,4.88,3.84c4.03,3.13,7.4,1.43,3.78-2.54c-1.27-1.43-3.46-3.71-5.27-5.08
		c-1.96-1.49-3.21-3.51-4.63-5c-2.83-3.06-4.94-5.21-4.73-5.28c0.26-0.06,0.18-1.1,2,0.26c2.2,1.63,5.98,6.19,9.43,8.27
		c1.96,1.23,5.87,4.03,5.87,4.03s6.82,2.99,7.17,2.66c1.93-1.88-1.98-5.27-4.89-6.57c-1.33-1.76-5.54-4.55-5.54-4.55
		s-7-7.68-5.8-8.79c0.51-0.45,5.44,3.71,11,6.97c5.16,2.99,10.98,5.21,11.85,4.22c1.48-1.62-3.83-5.66-3.83-5.66
		s-3.89-2.54-5.1-3.51c-1.42-1.11-5.39-4.89-5.39-4.89s-13.11-13.61-11.9-14.52c1.22-0.97,5.23-2.27,6.38-1.75
		c1.14,0.52,2.59,2.66,3.74,3.18c1.14,0.59,3.2,0.26,4.14-1.1c0.93-1.37-3.35-6.19-3.35-6.19S859.98,1109.74,856.37,1108.76z" clip-rule="evenodd"/><path fill="#f9af79" fill-rule="evenodd" d="M786.69,1452.92l1.85,71.71c-0.52,3.44-2.62,11.84-2.59,14.91c0.11,11.58,51.44-10.35,39.84-15.36
		c-1.05-0.46-6.57-3.91-6.95-7.88c-0.59-6.06-5.16-63.26-5.16-63.26L786.69,1452.92z" clip-rule="evenodd"/><path fill="#0e2952" fill-rule="evenodd" d="M825.65,1524.05c0,0-12.07,3.7-18.26,4.62c-6.18,0.98-14.43-6.38-18.79-4.36c-4.81,2.27-4.09,24.08-4.09,24.08
		s64.63,3.18,82.81-2.93C874.53,1543.11,850.47,1532.05,825.65,1524.05z" clip-rule="evenodd"/><path fill="#f9af79" fill-rule="evenodd" d="M677.92,1453.02l-2.89,75.38c-0.52,3.38-2.62,11.78-2.59,14.91c0.11,11.58,51.43-10.41,39.83-15.43
		c-1.05-0.46-8.22-6.51-8.6-10.41c-0.6-6.12,1.22-64.32,1.22-64.32L677.92,1453.02z" clip-rule="evenodd"/><path fill="#0e2952" fill-rule="evenodd" d="M712.15,1527.75c0,0-12.07,3.72-18.26,4.69c-6.19,0.91-14.44-6.44-18.8-4.43c-4.8,2.28-4.79,22.26-4.79,22.26
		s69.1,4.29,85.29-0.58C762.86,1547.54,736.96,1535.82,712.15,1527.75z" clip-rule="evenodd"/><path fill="#20386f" fill-rule="evenodd" d="M753.98,1115.14l21.89,9.18l48.08,218.41L823.82,1465l-53.79,1.94c0,0-1.55-102.22-1.67-113.35
		c-0.11-11.12-81.14-193.87-81.14-193.87L753.98,1115.14z" clip-rule="evenodd"/><path fill="#20386f" fill-rule="evenodd" d="M737.29,1127.38c0,0-14.32,168.76-14.03,197.19c0.29,28.44-1.01,143.51-1.01,143.51l-62.41-0.65l7.2-120.07
		c-6.58-83.12-18.71-161.34-13.62-192.45c0.81-5.01,2.32-18.09,5.47-21.41C682.76,1108.31,737.29,1127.38,737.29,1127.38z" clip-rule="evenodd"/><path fill="#466fb5" fill-rule="evenodd" d="M784.93,1018.05l55.93,83.99l-25.42,17.46l-63.06-74.61c0,0-18.72-93.42-18.91-112.43
		c-0.24-23.04-7.62-56.95-4.87-56.36c7.73,1.75,21.11,8.65,27.38,17.24C777.67,922.88,784.93,1018.05,784.93,1018.05z" clip-rule="evenodd"/><path fill="#6d96ce" fill-rule="evenodd" d="M674.05,875.77c0,0-25.38,3.84-32.01,8.79c-7.47,5.6-15.71,18.09-15.71,18.09s32.71,147.15,33.03,172.01
		c0.24,19.13-6.09,66.39-6.09,66.39s94.35,5,129.92-9.5c0,0-11.85-55.91-12-70.68c-0.15-14.71-15.02-148.45-18.18-157.75
		c-2.87-8.47-8.12-23.63-25.39-27.27C710.36,872.25,674.05,875.77,674.05,875.77z" clip-rule="evenodd"/><path fill="#f9af79" fill-rule="evenodd" d="M680.58,836l-5.86,41.27c0,0,23.47,48.81,37.14,44.38c11.47-3.65,3.96-46.99,3.96-46.99
		s-6.52-23.24-4.76-34.95C712.82,828.06,680.58,836,680.58,836z" clip-rule="evenodd"/><path fill="#f27458" fill-rule="evenodd" d="M711.06,839.71c1.76-11.65-30.48-3.71-30.48-3.71l-0.48,3.45c0.96,2.27,2.14,4.17,3.56,5.67
		c7.3,7.68,18.63,12.16,28.39,12.43C711,851.3,710.34,844.53,711.06,839.71z" clip-rule="evenodd"/><path fill="#f9af79" fill-rule="evenodd" d="M674.69,777.82c-0.92-0.33-6.84,46.98,5.46,59.81c12.29,12.88,36.02,16.92,44.42,6.57
		c9.27-11.38,8.29-62.15-10.75-75.36C694.77,755.7,674.69,777.82,674.69,777.82z" clip-rule="evenodd"/><path fill="#20386f" fill-rule="evenodd" d="M710.9,764.91c-8.45,3.95-29.45-8.36-31.95-5.57c-6.62,0.84-15.61,4.55-24.75,19.97
		c-11.27,18.94-2.6,39.7,10.84,49.86c13.43,10.08,13.4,22,13.4,22l2.01-6.25c1.51-4.62,2.09-9.57,1.52-14.39
		c-0.34-2.92-1-6.11-2.24-8.65c-3.28-6.84,6.76-11.46,9.54-17.18c2.14-4.44,2.14-14.45,5.49-21.67l4.05-5.6
		c0,0,13.76-1.2,23.04,0.76C723.31,773.96,713.44,763.01,710.9,764.91z" clip-rule="evenodd"/><path fill="#223f81" fill-rule="evenodd" d="M734.55,983.66l56.5-11.21c2.59-0.51,4.79,1.25,4.89,3.92l3.2,82.56c0.1,2.67-1.93,5.27-4.52,5.79
		l-56.5,11.21c-2.59,0.51-4.8-1.25-4.9-3.92l-3.2-82.56C729.93,986.78,731.96,984.18,734.55,983.66z" clip-rule="evenodd"/><path fill="#f9af79" fill-rule="evenodd" d="M605.89,1019.56c-2.49,12.55-3.24,23.96-0.05,38.89c8.15,10.74,38.68,3.12,117.42-13.78
		c2.96,2.47,8.96,4.78,17.84,3.22c8.21-2.45,8.5-4.64,17.41-13.84c1.94-6.94,1.24-12.13-2.12-15.59
		c-10.19,6.65-15.56,10.19-27.35,11.11c2.78-8.22,3.01-13.47,0.7-15.71c-3.88,3.41-6.28,8.38-7.19,14.91
		c-62.68,0.16-79.16,1.28-87.29,6.03c0.73-3.96,1.36-7.45,1.93-10.46C627.3,1021.47,619.29,1019.91,605.89,1019.56z" clip-rule="evenodd"/><path fill="#f9af79" fill-rule="evenodd" d="M688.74,813.36c0.16,5.73-2.43,10.48-5.78,10.61c-3.35,0.06-6.2-4.55-6.34-10.28
		c-0.16-5.79,2.43-10.54,5.78-10.61C685.74,803.01,688.58,807.57,688.74,813.36z" clip-rule="evenodd"/><path fill="#466fb5" fill-rule="evenodd" d="M646.7,882.21c0,0-14.85,3.58-30.04,21.03c-27.19,16.8-20.29,176.11-1.78,174.74l118.06-27.09l-15.07-25.12
		l-72.81,1.47l1.64-55.41C666.8,940.83,671.64,903.83,646.7,882.21z" clip-rule="evenodd"/><path fill="#6d96ce" fill-rule="evenodd" d="M658.94,825.1c10.23-15.45,31.12-45.32,63.93-46c-2.28-20.36-34.8-33.4-56.33-19.01
		C642.49,776.15,642.59,809.92,658.94,825.1z" clip-rule="evenodd"/><path fill="#20386f" fill-rule="evenodd" d="M680.29,838.71c2.11-2.31-8.12-13.92-3.58-13.19c9.52,1.53,8.56-11.21,8.62-20.83c0-0.65,2.6-0.63,2.59-1.3
		c3.36,7.64,1.42,29.98,8.14,37.11c6.67,4.64,17.71,8.9,25.31,5.75c3.22-1.34,2.64-6.93,6.02-9.67c-1.57,2.45,1.73,25.17-0.02,26.95
		c-9.58,9.66-26.91-11.03-41.98-20.88C681.99,840.03,680.29,838.71,680.29,838.71z" clip-rule="evenodd"/><path fill="#466fb5" fill-rule="evenodd" d="M705.98,920.83c2.8,1.1,6.2,2.19,9.09-1.84l4.57,37.1l-7.97-2.42L705.98,920.83L705.98,920.83z M714.65,941.63
		c-0.94,0-1.7,0.84-1.7,1.88c0,1.05,0.77,1.89,1.7,1.89c0.93,0,1.69-0.84,1.69-1.89C716.35,942.48,715.58,941.63,714.65,941.63
		L714.65,941.63z M712.67,927c-0.94,0-1.7,0.84-1.7,1.88c0,1.05,0.77,1.89,1.7,1.89c0.93,0,1.69-0.84,1.69-1.89
		C714.36,927.84,713.59,927,712.67,927z" clip-rule="evenodd"/><path fill="#f48661" fill-rule="evenodd" d="M637.68,1181.33c-4.16,4.18-8.95,6.17-14.74,5.4C628.61,1190.33,635.81,1186.67,637.68,1181.33z" clip-rule="evenodd"/><path fill="#20386f" fill-rule="evenodd" d="M539.81,860.75c9.52,42.58,19.75,81.56,4.41,85.79c0.44,21.67-11.15,43.14-30.33,52.4
			c-4.61,2.26-11.81,5.34-12.72,6.31c1.22-1.16-15.57,68.69-63.42,49.27c-68.68-27.76,16.23-133.23,16.85-198.4
			c0.22-24.63,14.03-53.1,38.71-53.59C524.08,801.93,534.59,837.4,539.81,860.75z" clip-rule="evenodd"/><path fill="#f9af79" fill-rule="evenodd" d="M642.53,1174.77c0,0-3.19-3.34-4.16-4.56c-1.13-1.41-4.2-5.85-4.2-5.85s-9.92-16.01-8.64-16.59
			c1.27-0.64,4.55,1.22,5.52,2c0.97,0.77,2.18,1.6,3.14,2.38c0.97,0.77,2.39,0.7,3.47-0.32c1.07-1.1-2.1-5.08-3.47-6.17
			c-4.29-3.6-17.7-10.93-19.08-11.77c-1.65-0.96-13.6-31.76-18.56-41.99l0,0c-7.62-16.97-14.57-34.78-15.36-36.58l-9.58-78.62
			l-31.11-7.97c0,0,9.35,87.37,10.34,91.68c0.47,2.05,21.25,40.11,21.26,40.11c11.46,18.14,21.59,34.07,23.44,37.16
			c0,0,2.98,10.8,4.46,17.74c1.48,6.94,5.72,12.73,6.45,14.66c0.09,0.26,2.24,6.94,7.76,13.57c4.74,5.78,2.95-1.81,2.95-1.81
			s-6.83-12.28-5.75-12.6c0.83-0.26,4.16,6.62,9.35,13.05c1.34,1.6,2.66,3.28,3.9,4.75c3.23,3.86,6.6,3.09,3.89-1.54
			c-0.95-1.61-2.61-4.3-4.05-6.04c-1.58-1.87-2.4-4.05-3.49-5.85c-2.11-3.54-3.72-6.05-3.52-6.11c0.26,0,0.35-0.96,1.81,0.77
			c1.78,2.06,4.55,7.2,7.37,10.03c1.62,1.6,4.79,5.2,4.79,5.2s5.75,5.14,6.15,4.89c2.08-1.28-0.95-6.17-3.45-8.04
			c-0.92-1.99-4.37-5.66-4.37-5.66s-5.23-8.94-3.95-9.65c1.05-0.64,17.85,18.27,19.84,16.85
			C647.32,1180.69,642.53,1174.77,642.53,1174.77z" clip-rule="evenodd"/><path fill="#f27458" fill-rule="evenodd" d="M611.39,1146.94c0,0,9.14,5.15,13.99,0.89c0,0-1.8,3.41-5.82,3.48
			C615.55,1151.31,611.39,1146.94,611.39,1146.94z" clip-rule="evenodd"/><path fill="#f9af79" fill-rule="evenodd" d="M511.22,1185.7l18.14,161.56c0,0-8.86,34.13-7.79,43.9c1.07,9.65,19.71,137.01,19.71,137.01l-0.85,7
			l-0.46,20.7l69.68,0.51c0,0-14.68-6.55-35.24-19.54c-1.51-0.9-5-3.98-5.86-10.09c-5.5-39.22,5.36-170.12,5.36-170.12l8.55-170.43
			L511.22,1185.7z" clip-rule="evenodd"/><path fill="#f9af79" fill-rule="evenodd" d="M456.31,1215.47c-3.9,0.96-9.9,139.64-13.15,145.81c-20.51,38.96-25.38,157.38-25.38,157.38l-8.47,16.59
			l1.93,15.94c0,0,15.31,8.81,26.06,2.9l-1.66-16.01l-1.27-21.41l51.76-147.54l28.31-150.51L456.31,1215.47z" clip-rule="evenodd"/><path fill="#20386f" fill-rule="evenodd" d="M591.66,1521.5l-0.28-326.54c0.42-27.07-8.61-52.98-19.7-77.61l-23.49-39.4
			c-7.56,2.37-11.74-19.93-19.69-19.04c-6,0.65-10.11,2.06-15.66,2.38c-10.49,0.64-16.87,21.09-28.11,19.8
			c-0.05,0.65-2.24,5.86-2.39,6.31c-5.38,14.46-23.9,27.32-31.22,70.2c-8.32,48.73-45.39,302.91-82.83,351.23
			C447.78,1512.32,545.05,1532.94,591.66,1521.5z" clip-rule="evenodd"/><path fill="#0e2952" fill-rule="evenodd" d="M539.62,1561.22h71.94c2.66-0.26,3.31-2.44,2.38-3.79c-1.9-2.7-10.29-4.76-19.72-9.13
			c-16.55,1.74-51.19-9.33-53.8-13.12C538.92,1542.83,538.17,1560.9,539.62,1561.22z" clip-rule="evenodd"/><path fill="#0e2952" fill-rule="evenodd" d="M409.35,1535.18c0,0,6.39,18.13,13.29,17.55c6.91-0.51,12.95-14.72,12.95-14.72s2.59,11.97,1.39,18.59
			c-1.21,6.62-11.05,13.43-17.79,10.41C412.46,1564.12,403.31,1548.75,409.35,1535.18z" clip-rule="evenodd"/><path fill="#466fb5" fill-rule="evenodd" d="M549.65,1069.7c3.58-0.44,33.89,68.42,43.4,70.79c12.05,3.01,29.44-3.11,24.97-10.54
			c-25.53-42.46-31.49-67.18-33.34-78.07c0,0-12.04-91.84-25.6-119.16c-5.21-10.47-11.1-16.2-18.15-18
			C540.39,914.59,549.65,1069.7,549.65,1069.7z" clip-rule="evenodd"/><path fill="#6d96ce" fill-rule="evenodd" d="M560.47,965.06c-2.04-7.33-6.58-16.91-9.16-23.6c-4.39-11.25-5.7-21.73-9.58-26.23
			c-2.1-2.44-28.92-2.06-32.23-2.38c-1.34-0.19-6.73,0.19-11.91,0.52v-0.07c-2.34,0.29-20.74,1.74-31.12,3.23
			c-2.53,3.94-4.95,15.44-5.21,27.55c-0.32,15.2,2.64,31.43,4.75,38.53c0.43,1.09-44.68,232.29-44.68,232.29
			s156.95-6.85,170.06-13.09c9.7-22-39.76-187.38-34.93-206.47C558.24,988.26,563.73,976.82,560.47,965.06z" clip-rule="evenodd"/><path fill="#f9af79" fill-rule="evenodd" d="M493.91,883.34c0,0,4.19,22.76,3.35,31.7c-0.84,9,3.2,37.93,21.28,38c18.1,0.13,5.8-30.02,4.1-38.83
			c-1.7-8.75-4.47-42.69-4.47-42.69L493.91,883.34z" clip-rule="evenodd"/><path fill="#f27458" fill-rule="evenodd" d="M519.3,884.37c-0.28-7.46-1.64-13.37-1.64-13.37l-23.75,12.34c0,0,0.85,4.69,1.72,10.61
			C506.25,896.2,514.68,891.25,519.3,884.37z" clip-rule="evenodd"/><path fill="#f9af79" fill-rule="evenodd" d="M493.39,817.31c0,0-4.63,8.97-9.22,17.97c-14.08,27.78,5,60.23,23.77,58.01
			c13.85-1.64,21.5-22.63,20.42-37.47C526.97,836.35,518.71,824.23,493.39,817.31z" clip-rule="evenodd"/><path fill="#466fb5" fill-rule="evenodd" d="M493.39,817.31c0,0-6.99,12.47-10.63,20.97c10.21-2.9,23.61-9.2,35.14-8.5
			C512.5,824.48,504.63,820.38,493.39,817.31z" clip-rule="evenodd"/><path fill="#466fb5" fill-rule="evenodd" d="M488.72,987.05l-1.02,1.41c0.45,4.43-1.95,7.83-6.33,8.93l-55.61,78.31l66.87,46.1
			c3.82,2.63,9.06,1.74,11.73-2l53.68-75.6c2.47-3.48,1.6-8.3-1.92-10.67L488.72,987.05z" clip-rule="evenodd"/><path fill="#eff8f7" fill-rule="evenodd" d="M481.36,997.39L481.36,997.39l63.97,44.11c3.69,2.58,8.13,2.64,9.89,0.2c0.88-1.22,0.91-2.9,0.26-4.57
			c-0.63-1.6-1.96-3.27-3.83-4.56l-63.96-44.09l0,0C488.09,992.83,485.65,996.24,481.36,997.39z" clip-rule="evenodd"/><path fill="#f9af79" fill-rule="evenodd" d="M415.86,1000.74c4.47,2.44,11.42,6.11,17.4,8.81c2.86,1.22,7.42,3.02,10.15,4.05
				c-6.57,12.21-12.8,24.82-11.99,27.38c0.71,2.32,59.42,45.52,59.42,45.52l11.73-1.54c0,0,20.67,2.32,21.15,4.75
				c0.5,2.32-8.72,1.74-9.95,2.07c-0.67,0.19-2.06,0.64-3.2,1.41c1.86,0.83,4.31,1.99,6.66,2.89c-6.9,3.92-11.71,9.84-14.19,16.71
				c-5.75-1.34-13.7-4.56-23.77-11.77c-13.68-6.75-82.39-45.39-83.41-52.71C395.26,1043.94,405.73,1021.31,415.86,1000.74z" clip-rule="evenodd"/><path fill="#f9af79" fill-rule="evenodd" d="M524.66,1091.2c0,0,2.63,4.95,1.76,8.67c-0.88,3.73-1.81,4.76-2.76,8.11c-0.95,3.4-1.04,4.18-4.49,7.13
				c-3.44,2.96-19.98-3.41-19.98-3.41l11.37-18.51l6.54,2.44c0,0,4.15-0.45,5.25-1.6C523.49,1092.8,524.66,1091.2,524.66,1091.2z" clip-rule="evenodd"/><path fill="#6d96ce" fill-rule="evenodd" d="M466.36,916.55c-3.08,0.45-5.44,0.89-6.45,1.32c-21.78,21.08-63.23,106.74-71.71,140.82
			c0,0,84.01,54.39,93.36,47.53c5.42-3.96,3.09-21.96,5.13-24.96l-1.85-0.16l-0.65-3.43c-12.1-9.61-48.82-36.72-48.82-36.72
			s20.62-44.2,26.47-51.97l2.71-5.86c0.11-0.07,0.49-0.43,0.83-0.62l0.39-0.73c-2.09-7.48-4.82-23.06-4.51-37.69
			c0.26-11.99,2.62-23.37,5.13-27.42L466.36,916.55z" clip-rule="evenodd"/><path fill="#20386f" fill-rule="evenodd" d="M507.18,891.18c13.28-6.11,22.21-21.71,20.85-38.7c5.57,25.19,60.09,109.6,56.18,138.87
			c-2.18,16.24-10.58,7.78-27.75,3.98c-19.06-4.21-33.23-4.74-39.92,10.9l-27.82-19.19l-1.03,1.42c0.46,4.43-1.95,7.84-6.33,8.93
			l-12.99,18.29c-17.24-11.8-30.89-14.8-40.96-9.03c-9.04,4.12-24.99,14.44-35.93,41.03c-12.22-6.39-2.53-15.83-6.31-24.3
			c-2.21-21.76,7.56-47.2,29.28-76.3c30.08-51.56,49.84-79.04,62.19-80.9C481,881.93,491.81,889.94,507.18,891.18z" clip-rule="evenodd"/><path fill="#9db2d9" fill-rule="evenodd" d="M745.26,782.54c0-17.5,0-35,0-52.5c0-9.67,7.85-17.5,17.51-17.5c33.38,0,66.76,0,100.14,0
		c9.67,0,17.5,7.84,17.5,17.5c0,17.5,0,35,0,52.5c0,9.67-7.84,17.5-17.5,17.5c-20.07,0-40.14,0-60.21,0l-74.05,35.72l43.64-35.72
		c-3.17,0-6.35,0-9.53,0C753.11,800.03,745.26,792.2,745.26,782.54z" clip-rule="evenodd"/><path fill="#fff" fill-rule="evenodd" d="M752.75,777.89c0-15.11,0-30.19,0-45.3c0-8.36,6.97-15.12,15.57-15.12c29.73,0,59.44,0,89.17,0
		c8.62,0,15.58,6.76,15.58,15.12c0,15.11,0,30.19,0,45.3c0,8.35-6.97,15.12-15.58,15.12c-17.88,0-35.74,0-53.61,0l-54.21,30.35
		l38.54-30.35c-2.83,0-17.06,0-19.9,0C759.72,793.01,752.75,786.24,752.75,777.89z" clip-rule="evenodd"/><g><rect width="56.92" height="19.66" x="1285.29" y="942.52" fill="#b0c2e4" fill-rule="evenodd" clip-rule="evenodd"/><path fill="#fff" fill-rule="evenodd" d="M1297.69,781.23l-26.23,0.09c-1.99,0.01-3.6,1.63-3.6,3.61v26.23c0,1.99,1.62,3.6,3.6,3.59l26.23-0.09
			c1.98-0.01,3.6-1.63,3.6-3.61v-26.24C1301.29,782.84,1299.67,781.23,1297.69,781.23z" clip-rule="evenodd"/><path fill="#c4d1eb" fill-rule="evenodd" d="M1341.69,931.58c3.43-1.6,5.69-4.55,5.69-9.01v-1.39c0.67-38.51,34.52-49.3,37.25-91.91
			c0.21-3.19,0.18-6.31-0.07-9.36c-5.3-32.31-36.01-54.01-70.52-54.01c-39.32,0-73.71,28.16-71.19,68.12
			c2.6,41.33,34.85,51.8,35.49,89.16c0,4.04,4.32,8.71,8.01,8.38H1341.69z" clip-rule="evenodd"/><path fill="#9db2d9" fill-rule="evenodd" d="M1283.25,966.73c0.43,4.33,4.1,7.73,8.53,7.73h6.56l2.56,4.17c1.47,2.39,2.32,2.56,5.15,2.56h15.43
			c2.81,0,3.67-0.15,5.15-2.56l2.55-4.17h6.57c4.36,0,8-3.32,8.5-7.57v-2.99c-0.23-0.98-1.11-1.72-2.16-1.72h-56.65
			c-1.05,0-1.94,0.75-2.17,1.74c-0.02,0.09,0.04,0.28-0.01,0.31V966.73L1283.25,966.73z M1341.28,947.01h-55.05
			c-1.67,0-3.03,1.36-3.03,3.03v4.69c0,1.67,1.36,3.03,3.03,3.03h55.05c1.67,0,3.02-1.36,3.02-3.03v-4.69
			C1344.3,948.38,1342.94,947.01,1341.28,947.01L1341.28,947.01z M1341.16,931.58h-54.8c-1.74,0-3.15,1.41-3.15,3.15v4.88
			c0,1.74,1.41,3.15,3.15,3.15h54.8c1.73,0,3.14-1.41,3.14-3.15v-4.88C1344.3,932.99,1342.88,931.58,1341.16,931.58z" clip-rule="evenodd"/><path fill="#fff" fill-rule="evenodd" d="M1322.45,931.58l5.83-70.49h8.44c3.65,0,6.96-1.49,9.36-3.9l-0.01-0.01c2.4-2.4,3.9-5.71,3.9-9.35
			c0-3.65-1.49-6.96-3.89-9.35c-2.41-2.4-5.72-3.9-9.36-3.9c-3.6,0-6.73,1.44-9.05,3.77c-2.36,2.36-3.88,5.64-4.19,9.22l-0.66,7.56
			h-25.83l-0.66-7.56c-0.31-3.57-1.83-6.86-4.19-9.22c-2.33-2.32-5.45-3.77-9.05-3.77c-3.64,0-6.94,1.5-9.35,3.9l0,0
			c-2.4,2.39-3.89,5.71-3.89,9.35c0,3.65,1.48,6.97,3.89,9.36c2.4,2.4,5.71,3.9,9.35,3.9h8.45l5.82,70.49h5.94l-5.8-70.49h24.79
			l-5.8,70.49H1322.45L1322.45,931.58z M1328.79,855.13l0.62-7.04c0.19-2.18,1.09-4.15,2.47-5.53c1.25-1.25,2.93-2.03,4.84-2.03
			c2,0,3.83,0.82,5.15,2.15c1.32,1.32,2.14,3.15,2.14,5.15c0,2.01-0.81,3.84-2.13,5.15h-0.01c-1.33,1.33-3.15,2.15-5.15,2.15
			H1328.79L1328.79,855.13z M1291.02,855.13h-7.93c-2.01,0-3.83-0.82-5.15-2.15c-1.33-1.32-2.15-3.14-2.15-5.15
			c0-2,0.82-3.83,2.15-5.15v-0.02c1.31-1.31,3.14-2.13,5.15-2.13c1.92,0,3.59,0.78,4.84,2.03c1.39,1.39,2.28,3.36,2.47,5.53
			L1291.02,855.13z" clip-rule="evenodd"/><polygon fill="#859ac6" fill-rule="evenodd" points="1138.28 1445.75 1142.33 1519.3 1104.82 1521.38 1014.56 1458.35 1014.32 1452.58" clip-rule="evenodd"/><polygon fill="#9db2d9" fill-rule="evenodd" points="1109.37 1517.63 1104.82 1521.38 1014.56 1458.35 1014.32 1452.58" clip-rule="evenodd"/><path fill="#fff" fill-rule="evenodd" d="M1022.79,1447.36c-0.11,2.14-0.29,4.28-0.5,6.43c0,0,75.02,48.22,88.67,59.72c0,0,13.6-22.2,1.99-61.39
			c0,0-87.27-59.29-94.96-63.46c0,0,2,8.26,3.51,20.87c0.09,0.65,0.16,1.31,0.23,2c1.11,9.79,1.84,21.9,1.14,34.64
			C1022.85,1446.57,1022.83,1446.96,1022.79,1447.36z" clip-rule="evenodd"/><path fill="#e0e8f5" fill-rule="evenodd" d="M1017.99,1388.66c0.02,0.01,0.03,0.02,0.05,0.03c0.96,0.67,1.93,1.34,2.89,2.02
			c13.08,9.15,26.07,16.77,39.15,25.91c14.2,9.93,24.66,16.77,38.86,26.69c1.09,0.76,7.95,5.68,11.89,13.02
			c6.3,17.21,5.81,40.31-1.06,56.19c-4.16-3.32-11.85-8.73-21.01-14.99c0.87,0.19,1.74,0.36,2.61,0.47
			c1.09,0.15,2.13,0.22,3.12,0.22c3.06,0,5.64-0.69,7.76-1.93c0.16,0.09,0.31,0.18,0.47,0.27c3.52,2,5.94,3.25,5.94,3.25
			s-2.2-1.58-5.58-3.83c-0.05-0.04-0.1-0.08-0.17-0.11c5.15-3.46,7.29-10.41,6.85-18.53c-1.17-21.44-16.69-32.68-33.27-43.13
			c-10.17-6.42-21.89-13.11-31.74-19.97c-8.42-5.84-18.32-12.51-25.44-19.26c-0.07-0.37-0.14-0.73-0.21-1.07
			C1018.45,1390.56,1017.99,1388.66,1017.99,1388.66z" clip-rule="evenodd"/><path fill="#e0e8f5" fill-rule="evenodd" d="M1102.9,1495.88c0.06,0.03,0.11,0.08,0.17,0.11c3.38,2.25,5.58,3.83,5.58,3.83s-2.41-1.25-5.94-3.25
			c-0.16-0.09-0.31-0.17-0.47-0.27C1102.46,1496.17,1102.68,1496.03,1102.9,1495.88z" clip-rule="evenodd"/><path fill="#859ac6" fill-rule="evenodd" d="M1012.63,1384.91l-0.27-4.86l292.6-9.72l90.18,61.48c0,0-284.01,25.12-284.31,24.57
			c-3.93-7.37-10.81-12.3-11.9-13.07c-14.2-9.92-24.65-16.77-38.86-26.69c-13.08-9.14-26.07-16.76-39.15-25.91
			C1018.16,1388.78,1015.4,1386.84,1012.63,1384.91z" clip-rule="evenodd"/><path fill="#9db2d9" fill-rule="evenodd" d="M1100.13,1439.5c18.82,16.77,19.78,62.16,4.51,81.88c0,0,286.94-15.8,287.7-15.84
			c10.52-0.58,14.11-19.43,15.13-27.16c1.53-11.51,0.68-55.84-19.65-54.72L1100.13,1439.5z" clip-rule="evenodd"/><path fill="#528d97" fill-rule="evenodd" d="M1109.76,1512.53L1109.76,1512.53c-0.61,1.4-1.27,2.74-1.97,4.02l0,0
			C1108.49,1515.27,1109.16,1513.92,1109.76,1512.53z" clip-rule="evenodd"/><path fill="#5f9fab" fill-rule="evenodd" d="M1107.79,1516.54L1107.79,1516.54c-0.68,1.23-1.41,2.4-2.18,3.5
			C1106.39,1518.95,1107.12,1517.78,1107.79,1516.54z" clip-rule="evenodd"/><path fill="#dace90" fill-rule="evenodd" d="M1110.82,1456.33c0,0.02,0.01,0.03,0.02,0.05h0.01c6.28,17.2,5.79,40.29-1.09,56.15l0,0
			C1116.63,1496.65,1117.12,1473.54,1110.82,1456.33z" clip-rule="evenodd"/><path fill="#528d97" fill-rule="evenodd" d="M1109.79,1453.73c0.01,0.01,0.02,0.02,0.03,0.03c0.35,0.85,0.7,1.73,1.03,2.61h-0.01
			c-0.01-0.02-0.02-0.03-0.02-0.05C1110.49,1455.45,1110.15,1454.58,1109.79,1453.73z" clip-rule="evenodd"/><path fill="#859ac6" fill-rule="evenodd" d="M1109.82,1453.77c4.79,5.95,8.69,12.6,11.25,19.84c2.46,6.99,3.22,13.85,4.31,21.09
			c0.56,3.69,1.27,8.79,4.62,11.17c4.15,2.94,26.21,4.06,40.82,4.06c4.62,0,8.5-0.11,10.83-0.31c19.41-1.7,38.7-2.13,59.06-3.25
			c40.64-2.25,76.93-2.53,117.4-6.81c13.18-1.4,29.32-2.59,38.31-13.79c3.63-4.51,6.32-9.59,8.01-15.14
			c1.53-5.06,1.85-10.4,2.78-15.6c0.63,5.64,0.81,11.15,0.74,15.64c-0.05,3.16-0.23,5.81-0.47,7.64c-0.01,0.03-0.01,0.05-0.01,0.09
			c-1.03,7.73-4.62,26.58-15.13,27.16c-0.76,0.04-287.7,15.84-287.7,15.84l0,0c0.05-0.07,0.1-0.15,0.16-0.21
			c0.02-0.04,0.04-0.06,0.06-0.09c0.03-0.04,0.07-0.08,0.09-0.13c0.02-0.03,0.05-0.06,0.08-0.09c0.02-0.04,0.05-0.07,0.08-0.1
			c0.02-0.04,0.05-0.08,0.08-0.11c0.02-0.02,0.03-0.04,0.05-0.05c0.07-0.09,0.14-0.19,0.2-0.29c0.02-0.02,0.03-0.03,0.04-0.05
			c0.03-0.05,0.07-0.1,0.1-0.16c0.02-0.02,0.02-0.03,0.03-0.05c0.77-1.1,1.5-2.27,2.18-3.5c0.7-1.28,1.36-2.62,1.97-4.02l0,0
			c6.87-15.86,7.37-38.95,1.09-56.15C1110.53,1455.49,1110.18,1454.62,1109.82,1453.77z" clip-rule="evenodd"/><path fill="#859ac6" fill-rule="evenodd" d="M1324.97,1427.13l9.45-0.53c5.59,11,8.75,23.51,9.4,35.73c0.75,14.5,0.17,31.78-4.88,46.15l-9.36,0.51
			C1336.67,1485.76,1338.37,1450.17,1324.97,1427.13z" clip-rule="evenodd"/><path fill="#859ac6" fill-rule="evenodd" d="M1307.22,1428.1l9.44-0.52c5.59,11,8.76,23.51,9.4,35.72c0.77,14.51,0.17,31.78-4.87,46.15l-9.37,0.52
			C1318.92,1486.74,1320.61,1451.15,1307.22,1428.1z" clip-rule="evenodd"/><path fill="#859ac6" fill-rule="evenodd" d="M1154.48,1436.51l49.16-2.71c5.58,11,8.52,23.39,9.4,35.73c1.02,14.48,1.08,32.12-4.89,46.15l-49.07,2.7
			C1166.17,1495.15,1167.87,1459.56,1154.48,1436.51z" clip-rule="evenodd"/><polygon fill="#b0c2e4" fill-rule="evenodd" points="1012.36 1380.05 1304.62 1363.95 1394.79 1425.45 1102.54 1441.54" clip-rule="evenodd"/><polygon fill="#859ac6" fill-rule="evenodd" points="1242.44 1378.61 1288.29 1376.08 1348 1416.79 1302.14 1419.32" clip-rule="evenodd"/><path fill="#b0c2e4" fill-rule="evenodd" d="M1136.64,1349.93c10.14,17.75,9.41,55.21,2.42,74.49c0,0,230.52-12.91,231.12-12.95
			c6.43-0.36,11.43-14.88,12.21-22.23c1.16-10.93,0.1-53.08-16.5-52.16L1136.64,1349.93z" clip-rule="evenodd"/><path fill="#9db2d9" fill-rule="evenodd" d="M1368.08,1342.4c0,0,8.11,5.77,8.94,32.42c0.4,12.93-0.72,23.32-7.22,29.78c-0.71,0.72,0.33,5.87,0.39,6.88
			l-254.05,14.24l-89.17-62.49l-0.23-5.08L1368.08,1342.4z" clip-rule="evenodd"/><polygon fill="#b0c2e4" fill-rule="evenodd" points="1026.74 1358.15 1115.62 1419.34 1369.8 1404.59 1370.19 1411.47 1116.14 1425.71 1026.97 1363.22" clip-rule="evenodd"/><path fill="#fff" fill-rule="evenodd" d="M1041.07,1356.55c-0.09,1.87-0.24,3.75-0.43,5.65c0,0,65.92,42.28,77.93,52.37c0,0,9.24-26.84,0.56-58.72
			c0,0-75.56-47.2-82.32-50.86c0,0,1.77,7.26,3.1,18.33c0.07,0.56,0.14,1.15,0.2,1.75c0.98,8.59,1.63,19.23,1.03,30.41
			C1041.13,1355.84,1041.1,1356.2,1041.07,1356.55z" clip-rule="evenodd"/><path fill="#fff" fill-rule="evenodd" d="M1121.58,1397.18c-0.56,6.5-1.58,12.53-3.01,17.39c0,0,234.18-13.12,234.82-13.15
			c8.81-0.49,11.83-15.54,12.7-21.71c1.29-9.19,0.64-44.55-16.36-43.6l-234.81,13.15c2.08,3.62,3.68,8.24,4.83,13.43
			c0.28,1.26,0.53,2.57,0.75,3.89c1.5,8.69,1.87,18.53,1.3,27.67C1121.74,1395.22,1121.67,1396.21,1121.58,1397.18z" clip-rule="evenodd"/><path fill="#edeadd" fill-rule="evenodd" d="M1037.53,1308.31L1037.53,1308.31c0.26,1.28,0.56,2.88,0.89,4.77h-0.01
			C1038.08,1311.18,1037.78,1309.58,1037.53,1308.31z" clip-rule="evenodd"/><path fill="#e0e8f5" fill-rule="evenodd" d="M1037.53,1308.31c0.69,0.48,1.36,0.96,2.03,1.42c1.44,1,3.44,2.34,5.85,3.95c0.02,0.53,0.05,1.02,0.08,1.48
			l0,0c0.01,0.02,0.01,0.04,0.01,0.07c0,0.03,0,0.05,0,0.07c0,0.03,0.01,0.04,0.01,0.06c0,0.02,0.01,0.05,0.01,0.08
			c0,0.02,0,0.03,0,0.04c0,0.04,0,0.09,0.01,0.12c0,0.01,0,0.02,0,0.04c0.03,0.38,0.06,0.75,0.1,1.07c0,0.01,0,0.02,0.01,0.02
			c0,0.03,0.01,0.08,0.01,0.11l0,0c0.04,0.31,0.08,0.65,0.12,1.01c-3.68-2.44-6.39-4.21-7.33-4.76
			C1038.09,1311.19,1037.79,1309.58,1037.53,1308.31L1037.53,1308.31z M1080.94,1341.24c2.41,0.17,4.96,0.36,7.66,0.56
			c9.8,6.38,18.34,11.97,22.66,14.99c0.02,0.02,0.17,0.02,0.43,0.02c0.88,0,3.07-0.09,6.39-0.24c0.62,1.93,1.18,3.97,1.66,6.11
			c0,0.01,0,0.01,0,0.02c0.24,1.07,1.22,7.83,1.6,10.51c-7.02-14.94-27.67-23.79-40.27-31.9
			C1081.03,1341.3,1080.99,1341.26,1080.94,1341.24z" clip-rule="evenodd"/><path fill="#e0e8f5" fill-rule="evenodd" d="M1360.78,1343.01c0.14,0.22,0.26,0.44,0.38,0.68c0.13,0.21,0.24,0.43,0.35,0.66
			c0.11,0.22,0.21,0.46,0.34,0.69c0.1,0.24,0.22,0.47,0.33,0.72c0.09,0.22,0.19,0.47,0.28,0.71c0.1,0.25,0.21,0.5,0.31,0.75
			c0.17,0.44,0.34,0.89,0.48,1.35c3.66,10.79,3.6,25.52,2.84,31.06c0,0.03-0.01,0.04-0.01,0.07l0,0
			c-0.87,6.17-3.89,21.22-12.7,21.71l0,0c-0.14,0.01-11.89,0.67-30.06,1.68c6.02-1.65,11.22-5.53,14.96-10.62l23.49-1.5
			c0.28-0.01,0.48-0.25,0.46-0.52c-0.02-0.26-0.24-0.46-0.49-0.46c-0.01,0-0.02,0-0.02,0l-22.46,1.07
			c6.08-9.27,7.47-21.88,0.64-32.13c3.46-0.25,6.4-0.51,8.65-0.69c3.16-0.28,4.96-0.43,4.96-0.43s-1.81-0.02-4.98-0.04
			c-0.69,0-1.46,0.01-2.28,0.01c-0.48,0-0.97,0-1.49,0c-0.24,0-0.49,0-0.73,0c-1.51,0-3.17,0-4.96,0.02
			c-4.5-5.9-10.92-7.19-17.83-7.19c-3.62,0-7.38,0.36-11.08,0.59c-2.2,0.15-4.42,0.28-6.62,0.4l8.63-5.79
			C1333.86,1344.56,1351.45,1343.55,1360.78,1343.01z" clip-rule="evenodd"/><path fill="#b0c2e4" fill-rule="evenodd" d="M1032.27,1304.64l-0.24-4.28l256.81-11.71l78.93,48.35l0.32,5.59c0,0-255.86,14.87-256.82,14.21
			c-12.48-8.71-60.22-39.04-71.71-47.06C1037.12,1308.03,1034.7,1306.33,1032.27,1304.64z" clip-rule="evenodd"/><polygon fill="#9db2d9" fill-rule="evenodd" points="1032.03 1300.36 1288.52 1283.06 1367.77 1336.99 1111.11 1351.37" clip-rule="evenodd"/><polygon fill="#e7e4de" fill-rule="evenodd" points="1103.9 1299.32 1259.59 1290.6 1278.28 1303.75 1124.89 1312.34" clip-rule="evenodd"/><polygon fill="#9db2d9" fill-rule="evenodd" points="1268.95 1293.9 1264.49 1354.72 1295.51 1357 1371.17 1306.2 1371.46 1301.43" clip-rule="evenodd"/><polygon fill="#b0c2e4" fill-rule="evenodd" points="1291.8 1353.83 1295.51 1357 1371.17 1306.2 1371.46 1301.43" clip-rule="evenodd"/><path fill="#fff" fill-rule="evenodd" d="M1364.54,1296.98c0.06,1.76,0.17,3.54,0.31,5.34c0,0-62.83,38.77-74.31,48.09c0,0-10.92-18.58-0.71-50.85
			c0,0,73.13-47.77,79.56-51.1c0,0-1.79,6.81-3.23,17.22c-0.07,0.54-0.16,1.07-0.22,1.65c-1.07,8.09-1.85,18.1-1.48,28.66
			C1364.5,1296.32,1364.51,1296.65,1364.54,1296.98z" clip-rule="evenodd"/><path fill="#e0e8f5" fill-rule="evenodd" d="M1369.4,1248.47c-0.02,0.03-0.07,0.26-0.17,0.64c-0.2,0.82-0.56,2.39-1.01,4.57c-1.84,1.68-3.9,3.35-6.07,5
			c0.24-1.14,0.42-2.19,0.51-3.12c0.09-0.76,0.16-1.7,0.21-2.78c1.35-0.87,2.71-1.76,4.06-2.67c0.81-0.54,1.62-1.09,2.42-1.63
			C1369.37,1248.48,1369.38,1248.47,1369.4,1248.47L1369.4,1248.47z M1336.23,1275.89c-5.37,3.2-10.88,6.33-15.94,9.4
			c-13.88,8.41-26.91,17.48-28.2,35.2c-0.49,6.73,1.18,12.5,5.39,15.45c-0.05,0.03-0.09,0.06-0.15,0.09
			c-2.82,1.81-4.67,3.08-4.67,3.08s2.01-1,4.96-2.6c0.13-0.07,0.26-0.15,0.39-0.22c1.8,1.1,4.03,1.72,6.71,1.72
			c0.72,0,1.48-0.04,2.27-0.14c0.73-0.08,1.45-0.21,2.18-0.35c-7.68,5.02-14.13,9.4-17.61,12.08c-5.46-13.24-5.5-32.38-0.04-46.51
			c3.38-6.02,9.12-9.99,10.04-10.6c9-6.05,16.2-10.67,24.32-16.02C1329.68,1276.25,1333.15,1276.06,1336.23,1275.89z" clip-rule="evenodd"/><path fill="#9db2d9" fill-rule="evenodd" d="M1373.89,1245.44l0.28-4.02l-242.05-12.49l-75.59,49.55c0,0,234.72,25.09,234.97,24.64
			c3.36-6.04,9.13-10.01,10.05-10.63c11.9-8,20.66-13.51,32.56-21.51c10.97-7.38,21.84-13.47,32.81-20.85
			C1369.25,1248.56,1371.58,1247,1373.89,1245.44z" clip-rule="evenodd"/><path fill="#c4d1eb" fill-rule="evenodd" d="M1300.64,1289.3c-15.83,13.59-17.33,51.15-4.97,67.71c0,0-237.29-17.42-237.91-17.48
			c-8.7-0.63-11.38-16.28-12.12-22.7c-1.08-9.55,0.29-46.24,17.1-45L1300.64,1289.3z" clip-rule="evenodd"/><path fill="#dace90" fill-rule="evenodd" d="M1291.52,1303.08c-5.46,14.14-5.42,33.28,0.04,46.51h-0.01c-5.45-13.23-5.5-32.35-0.04-46.49h0.01
			C1291.52,1303.1,1291.52,1303.09,1291.52,1303.08z" clip-rule="evenodd"/><path fill="#dace97" fill-rule="evenodd" d="M1045.48,1315.16L1045.48,1315.16L1045.48,1315.16L1045.48,1315.16z M1045.49,1315.23c0,0.03,0,0.05,0,0.07
			C1045.49,1315.28,1045.49,1315.26,1045.49,1315.23L1045.49,1315.23z M1045.5,1315.36c0,0.02,0.01,0.05,0.01,0.08
			C1045.51,1315.41,1045.5,1315.39,1045.5,1315.36L1045.5,1315.36z M1045.51,1315.48c0,0.04,0,0.09,0.01,0.12
			C1045.51,1315.56,1045.51,1315.52,1045.51,1315.48L1045.51,1315.48z M1045.52,1315.63c0.03,0.38,0.06,0.75,0.1,1.07
			C1045.58,1316.38,1045.54,1316.01,1045.52,1315.63L1045.52,1315.63z M1045.62,1316.72c0,0.03,0.01,0.08,0.01,0.11
			C1045.63,1316.8,1045.62,1316.75,1045.62,1316.72z" clip-rule="evenodd"/><path fill="#b0c2e4" fill-rule="evenodd" d="M1046.21,1297.5c0.68,4.31,0.86,8.75,2.07,12.96c1.3,4.62,3.44,8.86,6.39,12.65
			c7.27,9.41,20.61,10.63,31.5,11.98c33.45,4.17,63.49,4.95,97.09,7.43c16.84,1.24,32.81,1.88,48.84,3.59
			c2.67,0.28,7.86,0.46,13.74,0.46c11.65,0,26.02-0.71,29.07-2.79c2.79-1.91,3.47-6.12,4-9.17c1-5.99,1.74-11.64,3.88-17.39
			c2.24-5.97,5.56-11.41,9.62-16.28c-0.31,0.71-0.61,1.43-0.89,2.16c-5.46,14.14-5.41,33.26,0.04,46.49
			c0.01,0.01,0.01,0.01,0.01,0.01c0.48,1.16,1,2.28,1.56,3.35c0.55,1.04,1.14,2.02,1.76,2.95c0,0.01,0.01,0.01,0.01,0.01
			c0.04,0.05,0.07,0.1,0.1,0.16c0,0,0,0,0,0.01c0.07,0.09,0.14,0.2,0.22,0.3c0,0,0,0,0,0.01c0.03,0.03,0.05,0.07,0.08,0.1
			c0.02,0.02,0.03,0.05,0.05,0.07c0.02,0.03,0.04,0.06,0.07,0.09c0.02,0.03,0.04,0.06,0.07,0.09c0.02,0.03,0.03,0.05,0.05,0.08
			c0.04,0.05,0.09,0.11,0.13,0.17l0,0c0,0-237.29-17.42-237.91-17.48c-8.7-0.63-11.38-16.28-12.12-22.7l0,0
			c0-0.03-0.01-0.08-0.01-0.11c-0.01,0-0.01-0.01-0.01-0.02c-0.04-0.32-0.07-0.68-0.1-1.07c0-0.02,0-0.03,0-0.04
			c-0.01-0.03-0.01-0.08-0.01-0.12c0-0.01,0-0.02,0-0.04c0-0.02-0.01-0.05-0.01-0.08c0-0.02-0.01-0.03-0.01-0.06
			c0-0.02,0-0.04,0-0.07c0-0.02,0-0.05-0.01-0.07l0,0C1045.21,1311.11,1045.3,1304.42,1046.21,1297.5z" clip-rule="evenodd"/><path fill="#9db2d9" fill-rule="evenodd" d="M1100.02,1274.56l-7.82-0.57c-4.78,9.02-7.6,19.32-8.31,29.43c-0.85,11.99-0.62,26.3,3.34,38.28l7.73,0.56
			C1089.45,1322.93,1088.58,1293.45,1100.02,1274.56z" clip-rule="evenodd"/><path fill="#9db2d9" fill-rule="evenodd" d="M1114.7,1275.65l-7.82-0.57c-4.78,9.01-7.59,19.31-8.31,29.42c-0.85,11.99-0.62,26.3,3.33,38.28l7.75,0.57
			C1104.13,1324,1103.27,1294.53,1114.7,1275.65z" clip-rule="evenodd"/><path fill="#9db2d9" fill-rule="evenodd" d="M1129.38,1276.72l-7.82-0.57c-4.78,9.02-7.59,19.31-8.3,29.43c-0.86,11.98-0.63,26.3,3.32,38.27l7.75,0.57
			C1118.81,1325.09,1117.95,1295.6,1129.38,1276.72z" clip-rule="evenodd"/><path fill="#9db2d9" fill-rule="evenodd" d="M1255.69,1286l-40.65-2.98c-4.8,9.02-7.41,19.24-8.32,29.43c-1.07,11.97-1.39,26.57,3.33,38.27l40.58,2.98
			C1245.12,1334.37,1244.24,1304.88,1255.69,1286z" clip-rule="evenodd"/><polygon fill="#9db2d9" fill-rule="evenodd" points="1374.18 1241.42 1132.51 1223.66 1056.94 1273.2 1298.61 1290.95" clip-rule="evenodd"/><polygon fill="#ecb362" fill-rule="evenodd" points="1183.76 1236.74 1145.84 1233.96 1095.79 1266.75 1133.72 1269.54" clip-rule="evenodd"/><path fill="#b0c2e4" fill-rule="evenodd" d="M1147.6,1220.97c8.86,15.53,8.17,48.33,2.05,65.2c0,0,201.79-11.11,202.32-11.14
			c5.63-0.31,10.02-13.02,10.7-19.46c1.03-9.56,0.13-46.45-14.41-45.66L1147.6,1220.97z" clip-rule="evenodd"/><path fill="#9db2d9" fill-rule="evenodd" d="M1350.17,1214.56c0,0,7.1,5.06,7.79,28.37c0.35,11.32-0.63,20.41-6.32,26.06c-0.63,0.62,0.28,5.13,0.33,6.02
			l-222.39,12.24l-77.99-54.77l-0.2-4.43L1350.17,1214.56z" clip-rule="evenodd"/><polygon fill="#b0c2e4" fill-rule="evenodd" points="1051.39 1228.07 1129.13 1281.69 1351.64 1269 1351.97 1275.02 1129.58 1287.27 1051.59 1232.5" clip-rule="evenodd"/><path fill="#fff" fill-rule="evenodd" d="M1063.94,1226.68c-0.09,1.64-0.21,3.28-0.39,4.94c0,0,57.68,37.07,68.17,45.91c0,0,8.1-23.48,0.53-51.39
			c0,0-66.09-41.37-72-44.58c0,0,1.54,6.35,2.7,16.04c0.06,0.51,0.12,1.02,0.17,1.54c0.86,7.52,1.41,16.83,0.88,26.62
			C1063.99,1226.05,1063.97,1226.36,1063.94,1226.68z" clip-rule="evenodd"/><path fill="#fff" fill-rule="evenodd" d="M1134.37,1262.3c-0.49,5.69-1.39,10.97-2.65,15.22c0,0,205-11.29,205.55-11.31c7.7-0.43,10.37-13.61,11.13-19
			c1.14-8.04,0.62-38.99-14.28-38.17l-205.54,11.32c1.82,3.17,3.2,7.23,4.21,11.75c0.25,1.11,0.47,2.25,0.66,3.42
			c1.31,7.6,1.63,16.2,1.1,24.21C1134.51,1260.6,1134.45,1261.45,1134.37,1262.3z" clip-rule="evenodd"/><path fill="#edeadd" fill-rule="evenodd" d="M1334.66,1209.02c0.06,0,0.12,0,0.19,0c-0.05,0-0.1,0-0.16,0c-0.19,0-0.38,0.01-0.58,0.02l-205.54,11.32l0,0
			l142.53-7.85l63.01-3.46C1334.29,1209.03,1334.47,1209.02,1334.66,1209.02L1334.66,1209.02z M1339.05,1210.11l0.02,0.01
			c0.1,0.06,0.19,0.11,0.28,0.16C1339.25,1210.22,1339.14,1210.17,1339.05,1210.11z" clip-rule="evenodd"/><path fill="#e0e8f5" fill-rule="evenodd" d="M1334.69,1209.02c0.05,0,0.1,0,0.16,0c0.17,0.01,0.34,0.02,0.5,0.03l0.38,0.04c0.28,0.03,0.54,0.07,0.81,0.12
			l0.4,0.09c0.26,0.06,0.5,0.13,0.75,0.21l0.36,0.13c0.28,0.11,0.57,0.25,0.86,0.4l0.14,0.07c0.09,0.05,0.2,0.1,0.29,0.17
			c0.23,0.14,0.44,0.28,0.66,0.43l0.32,0.25c0.2,0.15,0.38,0.3,0.58,0.47l0.34,0.32l0.5,0.51l0.33,0.36
			c0.17,0.2,0.33,0.41,0.49,0.62l0.27,0.35c0.22,0.31,0.44,0.63,0.65,0.98l0.3,0.49c0.12,0.2,0.23,0.4,0.35,0.61
			c0.1,0.2,0.2,0.39,0.29,0.58c0.1,0.2,0.2,0.41,0.31,0.61c0.09,0.2,0.19,0.42,0.28,0.62c0.09,0.21,0.17,0.42,0.27,0.63
			c0.08,0.22,0.17,0.43,0.26,0.65c0.14,0.39,0.29,0.79,0.42,1.19c1.03,3.01,1.72,6.39,2.16,9.73c0.94,7.18,0.76,14.24,0.29,17.51
			l0,0c-0.77,5.4-3.43,18.58-11.13,19l0,0c-0.02,0-0.18,0.01-0.5,0.02h-0.01c-0.03,0-0.09,0-0.13,0.01h-0.01
			c-2.48,0.14-12,0.66-25.68,1.41c5.27-1.44,9.83-4.84,13.11-9.29l20.57-1.29c0.23-0.02,0.42-0.22,0.4-0.46
			c-0.01-0.23-0.2-0.4-0.43-0.4c-0.01,0-0.02,0-0.02,0l-19.66,0.93c5.34-8.11,6.57-19.16,0.59-28.12c3.04-0.22,5.6-0.45,7.58-0.59
			c2.77-0.24,4.35-0.39,4.35-0.39s-1.58-0.02-4.36-0.03c-0.57,0-1.2,0.01-1.87,0.01c-0.48,0-0.97,0-1.5-0.01c-0.66,0-1.36,0-2.09,0
			c-0.89,0-1.83,0-2.81,0.01c-3.95-5.17-9.57-6.3-15.64-6.3c-3.16,0-6.43,0.3-9.65,0.51c-13.09,0.83-26.19,1.22-39.27,1.91
			c-7.47,0.4-14.93,0.71-22.39,1.08c-18.66,0.91-37.33,1.81-55.99,2.72c-3.53,0.17-7.09,0.43-10.63,0.52
			c-8.54,0.2-15.2,1.05-20.51,2.58c-3.08,0.19-5.96,0.36-8.51,0.51c-3.57,0.22-6.51,0.4-8.53,0.52c-0.39-1.94-0.85-3.93-1.39-5.93
			c0,0-0.51-0.32-1.45-0.91c-0.66-1.78-1.4-3.42-2.23-4.87l205.54-11.32C1334.31,1209.03,1334.5,1209.02,1334.69,1209.02
			L1334.69,1209.02z M1142.16,1234.71c-3.24,0.29-5.95,0.54-7.91,0.73c0.32,2.01,0.57,3.96,0.77,5.88
			C1136.98,1238.7,1139.28,1236.51,1142.16,1234.71z" clip-rule="evenodd"/><path fill="#b0c2e4" fill-rule="evenodd" d="M1056.27,1181.24l-0.21-3.75l224.79-10.04l69.06,42.38l0.27,4.89c0,0-223.97,12.82-224.81,12.22
			c-10.91-7.63-52.67-34.21-62.72-41.24C1060.53,1184.2,1058.39,1182.72,1056.27,1181.24z" clip-rule="evenodd"/><polygon fill="#c4d1eb" fill-rule="evenodd" points="1056.06 1177.49 1280.59 1162.55 1349.91 1209.83 1125.24 1222.2" clip-rule="evenodd"/><polygon fill="#e7e4de" fill-rule="evenodd" points="1118.97 1176.64 1255.26 1169.13 1271.61 1180.66 1137.35 1188.06" clip-rule="evenodd"/><path fill="#b0c2e4" fill-rule="evenodd" d="M1186.51,1181.07c0.65-6.67-2.93-22.9-8.01-27.26c10.76-1.55,21.61-2.47,32.43-3.46
			c28.02-2.56,56.08-4.67,84.15-6.66c13.64-0.95,27.28-1.86,40.92-2.72c5.68-0.35,11.35-0.68,17.02-0.99
			c3.58-0.21,3.68,0.79,3.17,4.1c-0.61,3.86-0.96,7.75-1.09,11.65c-0.17,5.27,0.16,10.5,0.79,15.73c0.51,4.16-0.41,8.56,2.73,11.97
			c3.51,3.8,7.76,4.63,13.87,6.53c3.92,1.22,1.15,4.02-2.87,4.67c-12.76,2.08-26.38,3.74-41.87,5.08
			c-22.37,1.93-44.78,3.32-67.18,4.96c-21.09,1.56-42.34,5.29-63.44,6.85c-9.36,0.69-18.71,1.39-28.08,2.07
			C1180.53,1205.33,1185.1,1195.21,1186.51,1181.07z" clip-rule="evenodd"/><path fill="#9db2d9" fill-rule="evenodd" d="M1031.71,1187.22l140.45,28.94l195.34-21.67l-145.08-57.7c-5.76,1.34-11.52,2.68-17.29,4.03
			c-6.39,1.49-12.79,2.98-19.19,4.47c-7.04,1.65-13.58-0.62-20.64-1.93c-41.77-7.73-84.09-11.83-126.33-15.91
			c-0.81-0.08-1.76-0.12-2.35,0.45c-0.39,0.39-0.53,0.97-0.64,1.51c-2.19,10.44-3.42,19.09-5,29.64
			C1030.39,1162.95,1026.66,1186.34,1031.71,1187.22z" clip-rule="evenodd"/><path fill="#fff" fill-rule="evenodd" d="M1366.19,1190.87c-28.08,3.02-77.5,6.94-101.42,9.3c-30.4,2.98-57.41,6.99-88.05,9.09
			c-1.38,0.11-2.76,0.43-4.17,0.31c-1.04-0.12-2.05-0.51-3.08-0.69c-17.03-3.03-83.02-16.12-99.69-19.08
			c-9.77-1.74-18.56-4.64-29.13-6.55c-0.95-0.15-1.84-0.76-2.51-1.44l-0.38-0.46c-0.73-1.05-0.75-2.41-0.71-3.7
			c0.14-6.89,1.59-13.2,2.39-19.92c0.95-7.92,2.28-15.86,4.97-23.4c0.35-0.94,0.7-1.92,1.27-2.73c1.31-1.8,3.6-2.66,5.82-2.73
			c4.52-0.17,9.58,1.71,14.1,2.33c5.29,0.69,10.58,1.4,15.88,2.12c23.32,3.15,46.67,6.3,69.88,10.08
			c6.97,1.15,13.96,2.31,20.88,3.77c3.03,0.63,6.07,1.71,9.12,2.01c8.33,0.77,16.89-0.33,25.2-1.12
			c53.75-5.09,101.85-8.45,155.86-9.3c-2.52,5.59-4.01,12.87-4.31,19.82c-0.03,0.74-0.05,1.46-0.06,2.18
			c-0.04,2.75,0.13,5.4,0.51,7.83l0.08,0.46c0.12,0.75,0.22,1.47,0.38,2.15C1360.35,1178.73,1362.19,1183.51,1366.19,1190.87z" clip-rule="evenodd"/><path fill="#9db2d9" fill-rule="evenodd" d="M1037.75,1129.28l141.47,24.65l189.28-13.99c1.6-0.11,1.72-2.42,0.13-2.7l-141.97-24.75l-188.77,13.95
			C1036.23,1126.57,1036.1,1128.99,1037.75,1129.28z" clip-rule="evenodd"/><path fill="#b0c2e4" fill-rule="evenodd" d="M1388.48,1150.31l-141.69,5.07l-196.38-41.97l153.85-39.22l185.1,70.86
			C1392.11,1146.11,1391.44,1150.2,1388.48,1150.31z" clip-rule="evenodd"/><path fill="#fff" fill-rule="evenodd" d="M1384.48,1146.11c-43.1,1.56-87.84,3.79-129.87,4.15c-4.44,0.03-13.98,1.19-18.19-2.49
			c-3.9-3.39-8.6-12.03-9-17.2c-0.69-9.34,1.65-19.14,7.16-28.46c1.43-2.41,3.12-4.81,5-6.87c1.52-1.65,3.59-2.95,5.83-3.26
			c23.91-3.3,137.88-1.49,138.2-2.01c-2.39,4.02-4.59,7.7-6.34,11.53c-0.26,0.53-0.51,1.08-0.73,1.63c-1.08,2.53-1.97,5.16-2.6,8.05
			c-0.13,0.54-0.24,1.1-0.36,1.67c-0.21,1.27-0.4,2.6-0.53,3.96c-0.46,4.74,0.24,9.82,1.93,14.64c0.17,0.54,0.36,1.07,0.57,1.6
			c0.91,2.31,2.07,4.56,3.43,6.65c0.34,0.52,0.71,1.06,1.08,1.56C1381.39,1143.02,1382.86,1144.67,1384.48,1146.11z" clip-rule="evenodd"/><path fill="#b0c2e4" fill-rule="evenodd" d="M1233.78,1122.95c0.26-6.7,6.02-22.28,11.65-25.92c-34.37-9.84-193.29-42.97-197.11-41.94
			c-3.96,1.07-6.6,4.29-7.74,6.81c-7.01,15.42-4.75,44.18,9.82,51.5l196.38,41.97C1236.55,1145.63,1233.24,1137.15,1233.78,1122.95z
			" clip-rule="evenodd"/><path fill="#9db2d9" fill-rule="evenodd" d="M1080.26,1074.71c52.72,10.58,105.23,22.19,157.96,32.7c2.08-4.62,4.65-8.73,7.21-10.38
			c-34.37-9.84-193.29-42.97-197.11-41.94c-3.96,1.07-6.6,4.29-7.74,6.81c-0.67,1.48-1.26,3.08-1.76,4.77
			C1052.66,1069.27,1066.46,1071.94,1080.26,1074.71z" clip-rule="evenodd"/><path fill="#b0c2e4" fill-rule="evenodd" d="M1388.2,1091.93l-143.5,5.15l-196.38-41.97l155.04-5.55l185.08,39.55
			C1390.1,1089.45,1389.89,1091.87,1388.2,1091.93z" clip-rule="evenodd"/><path fill="#f6cd6c" fill-rule="evenodd" d="M1235.38,1064.29l-84.46,3.03l-32.49-7.16c-0.62-0.13-0.54-1.02,0.09-1.05l87.05-3.11l29.95,6.64
			C1236.49,1062.83,1236.37,1064.25,1235.38,1064.29z" clip-rule="evenodd"/><path fill="#b0c2e4" fill-rule="evenodd" d="M1037.31,1065.98l139.68,24.34l200.27-14.8l-147.05-59.83l-193.03,44.96
			C1034.28,1061.32,1034.4,1065.47,1037.31,1065.98z" clip-rule="evenodd"/><path fill="#fff" fill-rule="evenodd" d="M1041.84,1062.37c42.49,7.42,86.51,15.73,128.09,21.81c4.4,0.63,13.69,3.08,18.35,0.01
			c4.33-2.83,10.17-10.74,11.25-15.81c1.97-9.16,0.99-19.19-3.2-29.17c-1.09-2.58-2.42-5.19-4.02-7.49
			c-1.28-1.84-3.16-3.41-5.33-4.02c-23.25-6.54-136.4-20.29-136.65-20.85c1.84,4.3,3.5,8.25,4.72,12.3
			c0.18,0.55,0.36,1.14,0.49,1.72c0.74,2.65,1.25,5.38,1.49,8.33c0.04,0.55,0.07,1.12,0.12,1.69c0.05,1.29,0.04,2.63-0.01,4
			c-0.2,4.75-1.59,9.69-3.92,14.24c-0.23,0.51-0.5,1.02-0.78,1.5c-1.22,2.17-2.67,4.23-4.3,6.12c-0.41,0.47-0.86,0.95-1.28,1.4
			C1045.33,1059.73,1043.65,1061.17,1041.84,1062.37z" clip-rule="evenodd"/><path fill="#c4d1eb" fill-rule="evenodd" d="M1194.29,1059.97c0.66-6.66-2.92-22.89-8-27.26c35.38-5.06,197.33-16.21,200.98-14.66
			c3.77,1.59,5.95,5.15,6.74,7.8c4.84,16.23-1.32,44.42-16.76,49.68l-200.27,14.8C1188.47,1082.06,1192.89,1074.11,1194.29,1059.97z
			" clip-rule="evenodd"/><path fill="#b0c2e4" fill-rule="evenodd" d="M1352.96,1033.11c-53.67,3.3-107.28,7.64-160.94,10.87c-1.44-4.86-3.43-9.28-5.73-11.27
			c35.38-5.06,197.33-16.21,200.98-14.66c3.77,1.59,5.95,5.15,6.74,7.8c0.46,1.55,0.82,3.22,1.09,4.96
			C1381.05,1031.48,1367,1032.24,1352.96,1033.11z" clip-rule="evenodd"/><path fill="#c4d1eb" fill-rule="evenodd" d="M1045.54,1008.19l141.46,24.65l200.27-14.79l-152.84-26.64l-188.76,13.94
			C1044,1005.47,1043.89,1007.89,1045.54,1008.19z" clip-rule="evenodd"/><path fill="#b0c2e4" fill-rule="evenodd" d="M1200.71,1001.64l83.25,14.51l33.17-2.65c0.62-0.05,0.66-0.95,0.04-1.06l-85.81-14.96l-30.57,2.5
			C1199.81,1000.05,1199.74,1001.47,1200.71,1001.64z" clip-rule="evenodd"/></g><g><path fill="#20386f" fill-rule="evenodd" d="M1510.47,857.63c5-13.58,10.09-27.16,25.36-35.84c12.35-6.99,25.91-6.89,37.94-1.07
			c34.07,16.51,18.76,46.57,40.88,78.25c19.63,28,47.28,32.5,32.44,79.65c-5.34,16.95-16.86,33.73-34.46,45.73
			c-84.29,57.49-146.24-37.5-146.48-59.6C1465.96,948.33,1507.25,866.37,1510.47,857.63z" clip-rule="evenodd"/><path fill="#233761" fill-rule="evenodd" d="M1588.92,1026.49c2.44-2.03,35.57-30.8,50.33-43.64c0,0-14.74-11.06-23.88,5.06
			C1606.26,1004.03,1588.92,1026.49,1588.92,1026.49z" clip-rule="evenodd"/><path fill="#233761" fill-rule="evenodd" d="M1536.49,1028.6c0,0,3.6,12.57,21.22,34.52C1578.08,1062.82,1536.49,1028.6,1536.49,1028.6z" clip-rule="evenodd"/><path fill="#223f81" fill-rule="evenodd" d="M1450.95,1364.05c5.6,14.34,34.34,43.88,63.94,71.77c35.36,33.3,71.97,64.27,71.97,64.27
			s16.74,5.1,9.44-19.51c0,0-40.37-74.16-57.7-96.05c-4.95-6.26-10.06-11.97-14.85-16.93c-11.98-12.44-21.92-20.22-21.92-20.22
			s2.27-3.65,5.96-9.95c18.02-30.85,69.73-125.33,53.75-167.27c-19.22-50.52-67.01-73.27-67.01-73.27s-15.17,63.92-27.95,129.65
			C1454.81,1287,1445.06,1348.98,1450.95,1364.05z" clip-rule="evenodd"/><path fill="#20386f" fill-rule="evenodd" d="M1466.59,1226.53c8.79,40.48,24.04,97.73,41.21,110.89c18.02-30.85,69.73-125.33,53.75-167.27
			c-19.22-50.52-67.01-73.27-67.01-73.27S1479.37,1160.8,1466.59,1226.53z" clip-rule="evenodd"/><path fill="#20386f" fill-rule="evenodd" d="M1514.89,1435.81c35.36,33.3,71.97,64.27,71.97,64.27s16.74,5.1,9.44-19.51c0,0-40.37-74.16-57.7-96.05
			c-4.95-6.26-10.06-11.97-14.85-16.93C1524.32,1386.52,1523.79,1418.63,1514.89,1435.81z" clip-rule="evenodd"/><path fill="#223f81" fill-rule="evenodd" d="M1506.59,1122.22l3.34-12.31c23.51,10.17,92.65-4.71,92.65-4.71s20.6,24.42,9.99,73.94
			c-5.17,24.19-23.49,127.45-30.98,157.7c-2.73,10.97-4.83,18.73-5.68,21.85l-0.02,0.04c-0.26,0.95-0.04,1.9,0.31,2.83
			c3.19,7.88,5.6,15.96,7.33,24.12c17.11,80.12-29.75,168.64-29.75,168.64l-8.01-4.72c0,0-3.12-106.79-11.42-154.98
			c-1.41-8.18-2.98-14.69-4.7-18.67c-5.01-11.66-8.53-30-11-51.56c-4.63-40.74-5.47-92.95-5.2-133.14
			C1512.69,1191.15,1506.59,1122.22,1506.59,1122.22z" clip-rule="evenodd"/><path fill="#f9af79" fill-rule="evenodd" d="M1612.69,1135.28c9.55-14.47-23.25-73.57-22.07-79.16c2.29-10.98,7.69-23.14,12.97-34.07
			c5.31-10.93,10.5-20.65,12.35-26.73c-1.7-2.37-3.38-4.61-4.92-6.7c-2.35-3.23-4.39-6.2-5.7-8.97c-1.47-3.02-2.08-5.84-1.39-8.56
			c0.54-2.06,1.27-4.11,2.15-6.13c0.4-0.94,0.84-1.88,1.31-2.8c4.88-9.79,12.18-17.75,12.18-17.75
			c-11.55-7.39-29.75-11.16-29.92-10.62c-1.35-0.44-2.54-0.77-3.51-1.01c-0.66-0.17-1.34-0.34-2.03-0.49
			c-2.28-0.55-4.59-1.03-6.59-1.4c-4.13-4.15-9.1-19.58-7.61-42.28l-2,0.25l-33.65,4.55c0,0,0.11,10.52-0.45,20.37
			c-0.47,7.7-1.34,15-3.04,16.61c-2.61,0.21-4.18,0.36-4.18,0.36l-0.02,0.04l-0.04,0.07c-1.9,0.16-3.65,0.32-5.24,0.51
			c0,0-0.13,0.01-0.37,0.02c-2.97,0.35-5.42,0.71-7.42,1.08l-0.4,0.08c-5.75,1.05-7.7,2.04-7.7,2.04v0.11
			c0.28,10.6-16.82,29.14-15.64,53.12c0.05,0.91,8.76,63.75,8.71,64.68c-0.69,17.9-9.47,68.3-9.47,68.3
			C1481.01,1136.37,1607.55,1150.16,1612.69,1135.28z" clip-rule="evenodd"/><path fill="#ed9760" fill-rule="evenodd" d="M1534.26,893.43c0,0,0.11,10.51-0.47,20.36c18.64,0.62,29.5-15.73,34.11-24.9L1534.26,893.43z" clip-rule="evenodd"/><path fill="#f9af79" fill-rule="evenodd" d="M1527.48,902.39c0,0,15.34,1.2,28.25-3.48c5.52-2.47,10.24-5.91,14.18-10.29h0.01
			c-0.32-26.75-10.39-44.87-30.18-54.37c-17.34,11.34-24.88,26.29-22.62,44.84l0.01,0.07v0.02c0.23,1.55,0.48,3.07,0.76,4.55
			l0.01,0.05l0.04,0.17C1520.66,893.55,1523.85,899.69,1527.48,902.39z" clip-rule="evenodd"/><path fill="#0e2952" fill-rule="evenodd" d="M1501.27,1556.84h68.23c0,0,2.54-10.88-1.93-18.3c-3.97-6.54-1.52-10.99,0.2-16.57
			c-3.1,1.27-6.79,3.28-11.19,3.04c-3.41-0.21-8.73-2.69-11.89-4.53c-2.94,3.34-13.78,18.56-17.7,21.38
			C1522.52,1545.06,1502.63,1543.93,1501.27,1556.84z" clip-rule="evenodd"/><path fill="#0e2952" fill-rule="evenodd" d="M1602.67,1555.23l25.68-63.22c0,0-9.12-6.46-17.66-5.08c-7.57,1.21-10.45-1.62-14.38-6.37
			c0.02,3.34-0.43,7.48-2.32,11.44c-1.47,3.09-4.23,5.84-7.12,8.07c2,3.99,10.47,20.99,11.59,25.69
			C1599.76,1531.11,1591.23,1549.1,1602.67,1555.23z" clip-rule="evenodd"/><path fill="#6d96ce" fill-rule="evenodd" d="M1498.48,1052.5c2.08-69.59,3.98,2.81-4.48,12.55c-99.45,29.95-6.4-128.84-33.43-46.47
			c0.31-7.66,21.03-81.43,48.55-85.12c1.31-0.36,2.67-0.65,3.97-0.92c0.12-0.01,0.26-0.05,0.41-0.08c3.37-0.62,6.37-0.96,7.4-1.05
			c0.25-0.03,0.38-0.05,0.38-0.05s-8.21,23.32-8.04,26.04c0.16,2.74,26.52,3.65,43.84,3.87c17.2,0.24,26.88-28.52,27.03-28.96
			c0.69,0.15,1.36,0.3,2.03,0.49c0.97,0.24,23.96,3.75,33.43,11.64c0,0-7.31,7.95-12.18,17.74c-0.47,0.92-0.91,1.86-1.31,2.82
			c-0.88,2-1.61,4.06-2.15,6.11c-0.69,2.71-0.08,5.53,1.38,8.56c1.32,2.77,3.36,5.74,5.71,8.97c1.54,2.09,3.22,4.33,4.92,6.7
			c-0.63,2.09-1.67,4.62-2.95,7.46v0.02c-2.48,5.43-5.91,12.09-9.4,19.26c-5.27,10.93-10.69,23.11-12.97,34.09
			c61.02,96.49,17.44,182.5,30.44,221.48c16.14,48.42,56.75,106.69,101.35,166.26c-159.12-77.45-236.51,108.89-304.31,81.4
			c0,0,40.82-76.61,31.08-177.13C1436.45,1216.84,1498.09,1062.55,1498.48,1052.5z" clip-rule="evenodd"/><path fill="#20386f" fill-rule="evenodd" d="M1533.39,902.51c-16.42,2.72-28.2,2.45-36.92-3.05c-12.23,55.31-22.23,97.38-30,126.23
			c19.88,41.02,57.48,53.26,112.78,36.7c22.2-15.66,35.92-34.23,48.74-26.89c8.94,4.91,0.82,3.77,2.5,16.69
			c7.7,59.42,28.2-17.08,53.51,18.41c2.72-26.91-9.35-58.34-36.21-94.31c-37.17-63.73-63.4-96.74-78.67-99.04
			C1563.75,896.72,1552.4,900.99,1533.39,902.51z" clip-rule="evenodd"/><path fill="#f9af79" fill-rule="evenodd" d="M1567.48,931.43c-0.07,10.53-1.86,10.1-1.8,11.46c0.01,1.58,12.21,19.28,12.21,19.28s35.55,52.3,37.56,55.05
			l5.25,3.23l-6.46,32.04c-8.02-5.35-14.06-9.46-14.89-10.24c-2.74-2.56-42.46-78.79-46.19-85.41c0,0-7.38-6.26-11.88-10.33
			c-4.5-4.09-6.91-9.92-8.02-11.27c-0.13-0.19-3.52-4.87-6.06-11.71c-2.27-5.9,2.57-1.33,2.57-1.33s6.13,10.21,6.84,9.59
			c0.58-0.48-3.1-5.84-5.63-12.34c-0.66-1.67-1.26-3.32-1.83-4.83c-1.49-3.99,0.52-6.06,2.79-2.12c0.79,1.39,2.03,3.73,2.69,5.52
			c0.74,1.94,2.03,3.5,2.87,5.03c1.68,3.05,2.91,5.3,2.98,5.16c0.1-0.19,0.88,0.2,0.23-1.61c-0.75-2.16-3.4-6.38-4.28-9.66
			c-0.51-1.85-1.76-5.63-1.76-5.63s-1.39-6.39-1.02-6.54c1.84-0.92,4.16,3.39,4.48,5.96c1.11,1.56,2.31,5.58,2.31,5.58
			s4.34,7.61,5.43,7.03c0.93-0.47-5.87-20.67-3.97-21.46c1.59-0.63,3.92,5.35,3.92,5.35s1.11,3.73,1.59,4.94
			c0.55,1.41,2.55,5.55,2.55,5.55s7.55,14.02,8.56,13.38c1.01-0.62,2.87-3.3,2.7-4.33c-0.17-1.03-1.48-2.77-1.6-3.77
			c-0.17-1.03,0.52-2.52,1.76-2.82c1.29-0.28,4,4.39,4,4.39S1567.52,928.39,1567.48,931.43z" clip-rule="evenodd"/><path fill="#f9af79" fill-rule="evenodd" d="M1485.56,937.71c2.1,10.32,3.78,9.54,3.98,10.9c0.3,1.55-8.23,21.28-8.23,21.28s-24.72,58.2-26.16,61.29
			l-4.53,4.19l12.55,30.17c6.83-6.8,11.96-12,12.64-12.93c2.19-3.04,26.36-85.53,28.75-92.75c0,0,6.02-7.57,9.65-12.43
			c3.62-4.89,4.86-11.07,5.68-12.62c0.09-0.22,2.52-5.46,3.68-12.66c1.07-6.23-2.77-0.8-2.77-0.8s-4.04,11.19-4.86,10.73
			c-0.66-0.36,1.91-6.33,3.13-13.21c0.32-1.77,0.6-3.49,0.86-5.08c0.69-4.21-1.69-5.85-3.15-1.55c-0.51,1.53-1.28,4.06-1.57,5.94
			c-0.35,2.06-1.32,3.83-1.84,5.49c-1.07,3.32-1.82,5.77-1.92,5.65c-0.13-0.17-0.82,0.36-0.54-1.53c0.31-2.27,2.1-6.92,2.32-10.31
			c0.14-1.91,0.64-5.86,0.64-5.86s0.11-6.54-0.27-6.62c-1.99-0.54-3.43,4.13-3.24,6.72c-0.79,1.74-1.19,5.92-1.19,5.92
			s-2.78,8.3-3.97,7.95c-1-0.29,1.75-21.41-0.26-21.83c-1.68-0.31-2.8,6.01-2.8,6.01s-0.37,3.87-0.61,5.16
			c-0.27,1.49-1.43,5.94-1.43,5.94s-4.68,15.22-5.8,14.79c-1.1-0.43-3.44-2.68-3.48-3.72c-0.03-1.05,0.91-3.01,0.84-4.02
			c-0.03-1.05-1-2.37-2.28-2.43c-1.32-0.02-3.06,5.09-3.06,5.09S1484.92,934.73,1485.56,937.71z" clip-rule="evenodd"/><path fill="#6d96ce" fill-rule="evenodd" d="M1483.43,957.04c-44.3,74.29-49.53,110.52-15.69,108.67c9.2-0.54,22.45-35.04,39.76-103.47
			C1491.45,958.77,1483.43,957.04,1483.43,957.04z" clip-rule="evenodd"/><path fill="#6d96ce" fill-rule="evenodd" d="M1574.42,949.93c56.87,65.18,68.49,99.88,34.86,104.12c-9.15,1.1-28.35-30.47-57.61-94.7
			C1566.83,953.07,1574.42,949.93,1574.42,949.93z" clip-rule="evenodd"/></g><g><path fill="#20386f" fill-rule="evenodd" d="M1366.6,1077.83c-8.93,13.99-4.1,12.65-8.44,19.64c-4.33,6.98-6.43,26.86-7.92,37.58
			c-57.94,149.99,159.34,133.02,77.8-56.14C1420.99,1053.04,1375.84,1048.88,1366.6,1077.83z" clip-rule="evenodd"/><path fill="#f9af79" fill-rule="evenodd" d="M1327.94,1104.06c0,0,5.13-2.45,9.81-11.1c3.01-5.56,11.92-12.68,8.21-13.84c-3.7-1.15-9.4,8.23-10.46,5.55
			c-1.07-2.69,9.55-23.03,6.19-24.07c-3.36-1.05-12.17,18.73-13.12,16.33c-0.95-2.41,9-19.69,4.25-21.15
			c-4.76-1.48-9.9,21.27-12.44,20.47c-2.56-0.79,1.16-18.15-2.67-19.32c-3.82-1.2-3.29,21.46-4.66,20.8
			c-0.73-0.35-4.14-11.33-6.2-10.49c-2.36,0.92,3.98,23.44,1.16,28.41c-2.81,4.96-25.35,66.67-17.65,74.37
			c8.41,8.41,61.84,27.67,73.02,24.36c11.18-3.32,17.6-14.37,14.9-21.16c-2.68-6.79-55.51-22.06-56.37-24.2
			C1321.05,1146.87,1327.94,1104.06,1327.94,1104.06z" clip-rule="evenodd"/><path fill="#f48d80" fill-rule="evenodd" d="M1323.66,1084.56c-1.62-0.06-3.22,0.31-4.74,0.86c-0.23,0.16-5.31,1.63-7.49,7.24
			C1313.86,1089.8,1316.54,1086.62,1323.66,1084.56z" clip-rule="evenodd"/><path fill="#f9af79" fill-rule="evenodd" d="M1282.41,1457.22c0,0-10.32,42.16-18.04,48.78c-7.7,6.62-32.82,19.28-26.24,20.62
			c6.57,1.37,55.22,2.5,53.88-5.6c-1.34-8.11-2.73-13.29-2.73-13.29l12.87-30.1L1282.41,1457.22z" clip-rule="evenodd"/><path fill="#1d2b5b" fill-rule="evenodd" d="M1235.21,1528.64c11.86,1.18,46.51,2.41,56.62,1.13c0,0,1.87-0.37,0.54-8.49c-0.33-1.98-0.66-3.79-0.97-5.38
			c-9.15,2.4-29.09-2.72-36.99-3.77c-8.58,4.1-18.25,10.23-21.37,10.75C1228.53,1523.61,1228.53,1527.96,1235.21,1528.64z" clip-rule="evenodd"/><path fill="#f9af79" fill-rule="evenodd" d="M1395.86,1492.56c0,0,1.08,10.66,1.08,15.37c0,4.7-4.37,17.95-2.33,19.99c2.02,2.02,59.96,1.77,59.96-0.14
			c0-1.9-10.24-7.69-24.16-11.68c-13.91-3.96-18.64-19.38-15.03-28.23L1395.86,1492.56z" clip-rule="evenodd"/><path fill="#1d2b5b" fill-rule="evenodd" d="M1455.51,1527.92c0-1.79-9.5-7.25-21.8-11.02c-13.11,4.45-31.33,0.79-38.15-0.51
			c-2.08,5.46-2.76,10.64-1.69,11.72C1395.9,1530.13,1455.51,1529.81,1455.51,1527.92z" clip-rule="evenodd"/><path fill="#223f81" fill-rule="evenodd" d="M1332.98,1314.36l-10.4,9.22c0,0-11.71,31.67-12.38,33.76c-0.94,2.91-38.84,125.03-38.84,125.03l26.4,9.49
			c0,0,26.18-50.99,30.51-68.7c4.35-17.71,47.72-91.82,47.72-91.82L1332.98,1314.36z" clip-rule="evenodd"/><path fill="#223f81" fill-rule="evenodd" d="M1378.87,1333.15l12.67,161.87h29.27c0,0,10.49-121.15,6.87-163.67L1378.87,1333.15z" clip-rule="evenodd"/><path fill="#6d96ce" fill-rule="evenodd" d="M1430.21,1170.13c0,0-18.6-4.89-39.77-6.06c-10.95-0.62-25.66,1.72-25.66,1.72l-38.38-8.08
			c-8.4-1.77,0.93-29.47,2.92-45.44c1.02-8.1-26.28-10.37-30.44-6.71c-3.68,3.24-18.41,70.14-18.95,71.72
			c-2.67,7.87,68.79,35.07,67.49,43.08c-3.97,24.59-25.67,103.38-25.67,103.38c-7.82,15.12-50.58,97.53-47.42,120.35
			c5.41,39.18,120.58,32.66,113.23,24.71c-37.62-40.66-38.86-100.2-38.11-97.95c10.81,32.14,12.47,103.81,107.61,117.16
			c2.25,0.31-19.13-64.19-20.26-104.83c-1.08-38.82,12.21-22.24-6.61-88.28V1184.9V1170.13z" clip-rule="evenodd"/><path fill="#f9af79" fill-rule="evenodd" d="M1380.09,1143.26c0,0,0.57,19.18-1.23,20.99c-1.81,1.8-4.31,4.79-1.66,9.36c2.64,4.58,14.15,1.67,19.51-0.95
			c5.15-2.51,8.47-7.2,8.47-7.2l-2.68-30.4L1380.09,1143.26z" clip-rule="evenodd"/><path fill="#e78f51" fill-rule="evenodd" d="M1387.74,1151.21c3.69-1.31,10.15-3.8,15.14-11.9l-0.38-4.26l-22.41,8.2c0,0,0.14,4.68,0.06,9.63
			C1383.3,1152.76,1385.99,1151.82,1387.74,1151.21z" clip-rule="evenodd"/><path fill="#f9af79" fill-rule="evenodd" d="M1384.67,1076.5c0,0-10.85-0.24-16.4,8.2c-5.54,8.42-11.56,32.54-2.4,49.16
			c9.15,16.62,20.83,12.52,25.67,10.85c4.82-1.7,14.33-5.43,19.15-20.98C1415.51,1108.18,1412.03,1073.24,1384.67,1076.5z" clip-rule="evenodd"/><path fill="#f9af79" fill-rule="evenodd" d="M1430.21,1170.13c0,0-5.07,5.07-10.48,24.33c-5.42,19.26-8.19,64.35-12.89,69.04
			c-4.7,4.7-35.42,29.16-40.96,28.33c-5.55-0.85-17.96-15.31-21.82-15.31c-3.84,0-3.37,3.5-1.44,5.43c1.93,1.93,4.28,4.15,3.13,5.3
			c-1.14,1.14-1.14,1.14-1.14,1.14s-17.17-4.51-20.06-2.84c-2.89,1.69,2.78,5.66,2.78,8.56c0,2.88-0.7,2.82-0.36,6.02
			c0.35,3.18,1.14,5.73,2.66,7.21c1.51,1.52,20.48,7,39.03,4.48c18.55-2.54,41.21-11.45,57.96-32.17
			c16.76-20.72,13.4-85.87,13.02-92.36C1438.64,1170.85,1430.21,1170.13,1430.21,1170.13z" clip-rule="evenodd"/><path fill="#20386f" fill-rule="evenodd" d="M1410.7,1123.73c14.61,11.52,11.85,24.69,30.81,40.22c22.14,18.15,2.74,97.69,4.12,105.97
			c-21.95-0.93-26.78-3.87-47.19,2.7c-5.66,1.82-11.28,2.42-16.89,0.93c-25.81-6.86-51.31-57.93-81.64-36.52
			c0.59-35.02-3.1-102.7,25.51-89.56c34.34,15.76,33.85-20.1,35.87-38.41c0.86,11.53,5.41,31.21,20.82,34.75
			C1387.6,1143.5,1403.05,1134.33,1410.7,1123.73z" clip-rule="evenodd"/><path fill="#6d96ce" fill-rule="evenodd" d="M1439.94,1194.8c17.54,69.11-6.01,111.03-70.66,125.74c-2.98-25.48-3.4-37.43-1.27-35.83
			c33.43-19.15,52.71-42.46,62.84-60.59C1439.46,1208.7,1441.46,1197.01,1439.94,1194.8z" clip-rule="evenodd"/><path fill="#008bcc" fill-rule="evenodd" d="M1442.09,1204.16c15.24,66.23-8.69,106.54-71.82,120.9l-0.53-4.63
			C1431.07,1306.3,1455.19,1267.54,1442.09,1204.16L1442.09,1204.16z M1441.34,1200.65c-0.05-0.39-0.12-0.73-0.22-0.99
			L1441.34,1200.65z" clip-rule="evenodd"/></g></svg>