<svg width="890" height="394" viewBox="0 0 890 394" fill="none" xmlns="http://www.w3.org/2000/svg">
<path d="M376.598 291.584L380.456 293.9L388.787 280.023L374.489 287.608L376.598 291.584ZM111.402 12L115.26 14.3161L123.59 0.439629L109.293 8.02479L111.402 12ZM374.489 287.608C347.197 302.088 316.063 310.292 283 310.292V319.292C317.569 319.292 350.147 310.711 378.707 295.559L374.489 287.608ZM283 310.292C175.028 310.292 87.5 222.763 87.5 114.792H78.5C78.5 227.734 170.058 319.292 283 319.292V310.292ZM87.5 114.792C87.5 78.0432 97.6351 43.6755 115.26 14.3161L107.544 9.68387C89.1023 40.4033 78.5 76.3663 78.5 114.792H87.5ZM9.5 188.792C9.5 113.882 51.6306 48.8043 113.511 15.9752L109.293 8.02479C44.5873 42.3528 0.5 110.42 0.5 188.792H9.5ZM205 384.292C97.0283 384.292 9.5 296.763 9.5 188.792H0.5C0.5 301.734 92.0578 393.292 205 393.292V384.292ZM372.74 289.267C338.559 346.206 276.225 384.292 205 384.292V393.292C279.515 393.292 344.716 353.436 380.456 293.9L372.74 289.267Z" fill="#F1F1F1"/>
<mask id="mask0_439_1124" style="mask-type:alpha" maskUnits="userSpaceOnUse" x="5" y="12" width="372" height="377">
<mask id="path-2-inside-1_439_1124" fill="white">
<path fill-rule="evenodd" clip-rule="evenodd" d="M376.598 291.584C348.672 306.399 316.816 314.792 283 314.792C172.543 314.792 83 225.249 83 114.792C83 77.2047 93.3687 42.0394 111.402 12C48.109 45.5785 5 112.151 5 188.792C5 299.249 94.5431 388.792 205 388.792C277.87 388.792 341.638 349.821 376.598 291.584Z"/>
</mask>
<path fill-rule="evenodd" clip-rule="evenodd" d="M376.598 291.584C348.672 306.399 316.816 314.792 283 314.792C172.543 314.792 83 225.249 83 114.792C83 77.2047 93.3687 42.0394 111.402 12C48.109 45.5785 5 112.151 5 188.792C5 299.249 94.5431 388.792 205 388.792C277.87 388.792 341.638 349.821 376.598 291.584Z" fill="#6C4242"/>
<path d="M376.598 291.584L377.456 292.098L379.307 289.015L376.13 290.7L376.598 291.584ZM111.402 12L112.259 12.5147L114.11 9.43103L110.933 11.1166L111.402 12ZM376.13 290.7C348.344 305.441 316.649 313.792 283 313.792V315.792C316.983 315.792 349 307.357 377.067 292.467L376.13 290.7ZM283 313.792C173.095 313.792 84 224.696 84 114.792H82C82 225.801 171.991 315.792 283 315.792V313.792ZM84 114.792C84 77.3911 94.3168 42.403 112.259 12.5147L110.544 11.4853C92.4206 41.6758 82 77.0184 82 114.792H84ZM6 188.792C6 112.535 48.8916 46.2954 111.87 12.8834L110.933 11.1166C47.3264 44.8617 4 111.766 4 188.792H6ZM205 387.792C95.0953 387.792 6 298.696 6 188.792H4C4 299.801 93.9908 389.792 205 389.792V387.792ZM375.741 291.069C340.953 349.018 277.504 387.792 205 387.792V389.792C278.235 389.792 342.322 350.624 377.456 292.098L375.741 291.069Z" fill="black" mask="url(#path-2-inside-1_439_1124)"/>
</mask>
<g mask="url(#mask0_439_1124)">
<rect x="-150" y="-27" width="579.543" height="510" stroke="#F1F1F1"/>
<path d="M318.466 -11.5455L332.954 11.6363L318.466 34.8181M313.636 -3.81821H342.613L357.102 -27M313.636 27.0908H342.613L357.102 50.2726M347.443 50.2726L361.931 27.0908H390.909M386.079 34.8181L371.59 11.6363L386.079 -11.5455M390.909 -3.81821H361.931L347.443 -27M332.954 -19.2727V1.3333L313.636 11.6363L332.954 21.9393V42.5454L352.272 32.2424L371.59 42.5454V21.9393L390.909 11.6363L371.59 1.3333V-19.2727L352.272 -8.96972L332.954 -19.2727Z" stroke="#F1F1F1" stroke-width="2"/>
<path d="M318.466 235.727L332.954 258.909L318.466 282.09M313.636 243.454H342.613L357.102 220.272M313.636 274.363H342.613L357.102 297.545M347.443 297.545L361.931 274.363H390.909M386.079 282.09L371.59 258.909L386.079 235.727M390.909 243.454H361.931L347.443 220.272M332.954 228V248.606L313.636 258.909L332.954 269.212V289.818L352.272 279.515L371.59 289.818V269.212L390.909 258.909L371.59 248.606V228L352.272 238.303L332.954 228Z" stroke="#F1F1F1" stroke-width="2"/>
<path d="M318.466 112.092L332.954 135.274L318.466 158.456M313.636 119.819H342.613L357.102 96.6376M313.636 150.728H342.613L357.102 173.91M347.443 173.91L361.931 150.728H390.909M386.079 158.456L371.59 135.274L386.079 112.092M390.909 119.819H361.931L347.443 96.6376M332.954 104.365V124.971L313.636 135.274L332.954 145.577V166.183L352.272 155.88L371.59 166.183V145.577L390.909 135.274L371.59 124.971V104.365L352.272 114.668L332.954 104.365Z" stroke="#F1F1F1" stroke-width="2"/>
<path d="M318.466 359.364L332.954 382.546L318.466 405.728M313.636 367.091H342.613L357.102 343.909M313.636 398H342.613L357.102 421.182M347.443 421.182L361.931 398H390.909M386.079 405.728L371.59 382.546L386.079 359.364M390.909 367.091H361.931L347.443 343.909M332.954 351.637V372.243L313.636 382.546L332.954 392.849V413.455L352.272 403.152L371.59 413.455V392.849L390.909 382.546L371.59 372.243V351.637L352.272 361.94L332.954 351.637Z" stroke="#F1F1F1" stroke-width="2"/>
<path d="M241.193 -11.5455L255.682 11.6363L241.193 34.8181M236.364 -3.81821H265.341L279.829 -27M236.364 27.0908H265.341L279.829 50.2726M270.17 50.2726L284.659 27.0908H313.636M308.807 34.8181L294.318 11.6363L308.807 -11.5455M313.636 -3.81821H284.659L270.17 -27M255.682 -19.2727V1.3333L236.364 11.6363L255.682 21.9393V42.5454L275 32.2424L294.318 42.5454V21.9393L313.636 11.6363L294.318 1.3333V-19.2727L275 -8.96972L255.682 -19.2727Z" stroke="#F1F1F1" stroke-width="2"/>
<path d="M241.193 235.727L255.682 258.909L241.193 282.09M236.364 243.454H265.341L279.829 220.272M236.364 274.363H265.341L279.829 297.545M270.17 297.545L284.659 274.363H313.636M308.807 282.09L294.318 258.909L308.807 235.727M313.636 243.454H284.659L270.17 220.272M255.682 228V248.606L236.364 258.909L255.682 269.212V289.818L275 279.515L294.318 289.818V269.212L313.636 258.909L294.318 248.606V228L275 238.303L255.682 228Z" stroke="#F1F1F1" stroke-width="2"/>
<path d="M241.193 112.092L255.682 135.274L241.193 158.456M236.364 119.819H265.341L279.829 96.6376M236.364 150.728H265.341L279.829 173.91M270.17 173.91L284.659 150.728H313.636M308.807 158.456L294.318 135.274L308.807 112.092M313.636 119.819H284.659L270.17 96.6376M255.682 104.365V124.971L236.364 135.274L255.682 145.577V166.183L275 155.88L294.318 166.183V145.577L313.636 135.274L294.318 124.971V104.365L275 114.668L255.682 104.365Z" stroke="#F1F1F1" stroke-width="2"/>
<path d="M241.193 359.364L255.682 382.546L241.193 405.728M236.364 367.091H265.341L279.829 343.909M236.364 398H265.341L279.829 421.182M270.17 421.182L284.659 398H313.636M308.807 405.728L294.318 382.546L308.807 359.364M313.636 367.091H284.659L270.17 343.909M255.682 351.637V372.243L236.364 382.546L255.682 392.849V413.455L275 403.152L294.318 413.455V392.849L313.636 382.546L294.318 372.243V351.637L275 361.94L255.682 351.637Z" stroke="#F1F1F1" stroke-width="2"/>
<path d="M163.92 -11.5455L178.409 11.6363L163.92 34.8181M159.091 -3.81821H188.068L202.557 -27M159.091 27.0908H188.068L202.557 50.2726M192.898 50.2726L207.386 27.0908H236.363M231.534 34.8181L217.045 11.6363L231.534 -11.5455M236.363 -3.81821H207.386L192.898 -27M178.409 -19.2727V1.3333L159.091 11.6363L178.409 21.9393V42.5454L197.727 32.2424L217.045 42.5454V21.9393L236.363 11.6363L217.045 1.3333V-19.2727L197.727 -8.96972L178.409 -19.2727Z" stroke="#F1F1F1" stroke-width="2"/>
<path d="M163.92 235.727L178.409 258.909L163.92 282.091M159.091 243.454H188.068L202.557 220.272M159.091 274.363H188.068L202.557 297.545M192.898 297.545L207.386 274.363H236.363M231.534 282.091L217.045 258.909L231.534 235.727M236.363 243.454H207.386L192.898 220.272M178.409 228V248.606L159.091 258.909L178.409 269.212V289.818L197.727 279.515L217.045 289.818V269.212L236.363 258.909L217.045 248.606V228L197.727 238.303L178.409 228Z" stroke="#F1F1F1" stroke-width="2"/>
<path d="M163.92 112.092L178.409 135.274L163.92 158.456M159.091 119.819H188.068L202.557 96.6375M159.091 150.728H188.068L202.557 173.91M192.898 173.91L207.386 150.728H236.363M231.534 158.456L217.045 135.274L231.534 112.092M236.363 119.819H207.386L192.898 96.6375M178.409 104.365V124.971L159.091 135.274L178.409 145.577V166.183L197.727 155.88L217.045 166.183V145.577L236.363 135.274L217.045 124.971V104.365L197.727 114.668L178.409 104.365Z" stroke="#F1F1F1" stroke-width="2"/>
<path d="M163.92 359.364L178.409 382.546L163.92 405.728M159.091 367.091H188.068L202.557 343.909M159.091 398H188.068L202.557 421.182M192.898 421.182L207.386 398H236.363M231.534 405.728L217.045 382.546L231.534 359.364M236.363 367.091H207.386L192.898 343.909M178.409 351.637V372.243L159.091 382.546L178.409 392.849V413.455L197.727 403.152L217.045 413.455V392.849L236.363 382.546L217.045 372.243V351.637L197.727 361.94L178.409 351.637Z" stroke="#F1F1F1" stroke-width="2"/>
<path d="M86.6469 -11.5455L101.136 11.6363L86.6469 34.8181M81.8174 -3.81821H110.795L125.283 -27M81.8174 27.0908H110.795L125.283 50.2726M115.624 50.2726L130.113 27.0908H159.09M154.261 34.8181L139.772 11.6363L154.261 -11.5455M159.09 -3.81821H130.113L115.624 -27M101.136 -19.2727V1.3333L81.8174 11.6363L101.136 21.9393V42.5454L120.454 32.2424L139.772 42.5454V21.9393L159.09 11.6363L139.772 1.3333V-19.2727L120.454 -8.96972L101.136 -19.2727Z" stroke="#F1F1F1" stroke-width="2"/>
<path d="M86.6469 235.727L101.136 258.909L86.6469 282.091M81.8174 243.454H110.795L125.283 220.272M81.8174 274.363H110.795L125.283 297.545M115.624 297.545L130.113 274.363H159.09M154.261 282.091L139.772 258.909L154.261 235.727M159.09 243.454H130.113L115.624 220.272M101.136 228V248.606L81.8174 258.909L101.136 269.212V289.818L120.454 279.515L139.772 289.818V269.212L159.09 258.909L139.772 248.606V228L120.454 238.303L101.136 228Z" stroke="#F1F1F1" stroke-width="2"/>
<path d="M86.6469 112.092L101.136 135.274L86.6469 158.456M81.8174 119.819H110.795L125.283 96.6375M81.8174 150.728H110.795L125.283 173.91M115.624 173.91L130.113 150.728H159.09M154.261 158.456L139.772 135.274L154.261 112.092M159.09 119.819H130.113L115.624 96.6375M101.136 104.365V124.971L81.8174 135.274L101.136 145.577V166.183L120.454 155.88L139.772 166.183V145.577L159.09 135.274L139.772 124.971V104.365L120.454 114.668L101.136 104.365Z" stroke="#F1F1F1" stroke-width="2"/>
<path d="M86.6469 359.364L101.136 382.546L86.6469 405.728M81.8174 367.091H110.795L125.283 343.909M81.8174 398H110.795L125.283 421.182M115.624 421.182L130.113 398H159.09M154.261 405.728L139.772 382.546L154.261 359.364M159.09 367.091H130.113L115.624 343.909M101.136 351.637V372.243L81.8174 382.546L101.136 392.849V413.455L120.454 403.152L139.772 413.455V392.849L159.09 382.546L139.772 372.243V351.637L120.454 361.94L101.136 351.637Z" stroke="#F1F1F1" stroke-width="2"/>
<path d="M125.284 50.2742L139.773 73.456L125.284 96.6378M120.454 58.0015H149.432L163.92 34.8197M120.454 88.9105H149.432L163.92 112.092M154.261 112.092L168.75 88.9105H197.727M192.897 96.6378L178.409 73.456L192.897 50.2742M197.727 58.0015H168.75L154.261 34.8197M139.773 42.547V63.153L120.454 73.456L139.773 83.759V104.365L159.091 94.0621L178.409 104.365V83.759L197.727 73.456L178.409 63.153V42.547L159.091 52.85L139.773 42.547Z" stroke="#F1F1F1" stroke-width="2"/>
<path d="M125.284 297.547L139.773 320.729L125.284 343.911M120.454 305.274H149.432L163.92 282.093M120.454 336.183H149.432L163.92 359.365M154.261 359.365L168.75 336.183H197.727M192.897 343.911L178.409 320.729L192.897 297.547M197.727 305.274H168.75L154.261 282.093M139.773 289.82V310.426L120.454 320.729L139.773 331.032V351.638L159.091 341.335L178.409 351.638V331.032L197.727 320.729L178.409 310.426V289.82L159.091 300.123L139.773 289.82Z" stroke="#F1F1F1" stroke-width="2"/>
<path d="M125.284 173.909L139.772 197.091L125.284 220.273M120.454 181.637H149.431L163.92 158.455M120.454 212.546H149.431L163.92 235.728M154.261 235.728L168.75 212.546H197.727M192.897 220.273L178.409 197.091L192.897 173.909M197.727 181.637H168.75L154.261 158.455M139.772 166.182V186.788L120.454 197.091L139.772 207.394V228L159.09 217.697L178.409 228V207.394L197.727 197.091L178.409 186.788V166.182L159.09 176.485L139.772 166.182Z" stroke="#F1F1F1" stroke-width="2"/>
<path d="M202.557 50.2743L217.045 73.4561L202.557 96.6379M197.727 58.0016H226.704L241.193 34.8198M197.727 88.9106H226.704L241.193 112.092M231.534 112.092L246.022 88.9106H275M270.17 96.6379L255.682 73.4561L270.17 50.2743M275 58.0016H246.022L231.534 34.8198M217.045 42.5471V63.1531L197.727 73.4561L217.045 83.7591V104.365L236.363 94.0622L255.682 104.365V83.7591L275 73.4561L255.682 63.1531V42.5471L236.363 52.8501L217.045 42.5471Z" stroke="#F1F1F1" stroke-width="2"/>
<path d="M202.557 297.547L217.045 320.729L202.557 343.911M197.727 305.274H226.704L241.193 282.093M197.727 336.183H226.704L241.193 359.365M231.534 359.365L246.022 336.183H275M270.17 343.911L255.682 320.729L270.17 297.547M275 305.274H246.022L231.534 282.093M217.045 289.82V310.426L197.727 320.729L217.045 331.032V351.638L236.363 341.335L255.682 351.638V331.032L275 320.729L255.682 310.426V289.82L236.363 300.123L217.045 289.82Z" stroke="#F1F1F1" stroke-width="2"/>
<path d="M202.557 173.909L217.045 197.091L202.557 220.273M197.727 181.637H226.704L241.193 158.455M197.727 212.546H226.704L241.193 235.728M231.534 235.728L246.022 212.546H275M270.17 220.273L255.682 197.091L270.17 173.909M275 181.637H246.022L231.534 158.455M217.045 166.182V186.788L197.727 197.091L217.045 207.394V228L236.363 217.697L255.682 228V207.394L275 197.091L255.682 186.788V166.182L236.363 176.485L217.045 166.182Z" stroke="#F1F1F1" stroke-width="2"/>
<path d="M279.829 50.2742L294.317 73.456L279.829 96.6378M274.999 58.0015H303.976L318.465 34.8197M274.999 88.9105H303.976L318.465 112.092M308.806 112.092L323.294 88.9105H352.272M347.442 96.6378L332.954 73.456L347.442 50.2742M352.272 58.0015H323.294L308.806 34.8197M294.317 42.547V63.153L274.999 73.456L294.317 83.759V104.365L313.635 94.0621L332.954 104.365V83.759L352.272 73.456L332.954 63.153V42.547L313.635 52.85L294.317 42.547Z" stroke="#F1F1F1" stroke-width="2"/>
<path d="M279.829 297.547L294.317 320.729L279.829 343.911M274.999 305.274H303.976L318.465 282.093M274.999 336.183H303.976L318.465 359.365M308.806 359.365L323.294 336.183H352.272M347.442 343.911L332.954 320.729L347.442 297.547M352.272 305.274H323.294L308.806 282.093M294.317 289.82V310.426L274.999 320.729L294.317 331.032V351.638L313.635 341.335L332.954 351.638V331.032L352.272 320.729L332.954 310.426V289.82L313.635 300.123L294.317 289.82Z" stroke="#F1F1F1" stroke-width="2"/>
<path d="M279.828 173.909L294.317 197.091L279.828 220.273M274.999 181.637H303.976L318.465 158.455M274.999 212.546H303.976L318.465 235.728M308.806 235.728L323.294 212.546H352.271M347.442 220.273L332.953 197.091L347.442 173.909M352.271 181.637H323.294L308.806 158.455M294.317 166.182V186.788L274.999 197.091L294.317 207.394V228L313.635 217.697L332.953 228V207.394L352.271 197.091L332.953 186.788V166.182L313.635 176.485L294.317 166.182Z" stroke="#F1F1F1" stroke-width="2"/>
<path d="M357.1 50.2743L371.589 73.4561L357.1 96.6379M352.271 58.0016H381.248L395.737 34.8198M352.271 88.9106H381.248L395.737 112.092M386.078 112.092L400.566 88.9106H429.543M424.714 96.6379L410.225 73.4561L424.714 50.2743M429.543 58.0016H400.566L386.078 34.8198M371.589 42.5471V63.1531L352.271 73.4561L371.589 83.7591V104.365L390.907 94.0622L410.225 104.365V83.7591L429.543 73.4561L410.225 63.1531V42.5471L390.907 52.8501L371.589 42.5471Z" stroke="#F1F1F1" stroke-width="2"/>
<path d="M357.1 297.547L371.589 320.729L357.1 343.911M352.271 305.274H381.248L395.737 282.093M352.271 336.183H381.248L395.737 359.365M386.078 359.365L400.566 336.183H429.543M424.714 343.911L410.225 320.729L424.714 297.547M429.543 305.274H400.566L386.078 282.093M371.589 289.82V310.426L352.271 320.729L371.589 331.032V351.638L390.907 341.335L410.225 351.638V331.032L429.543 320.729L410.225 310.426V289.82L390.907 300.123L371.589 289.82Z" stroke="#F1F1F1" stroke-width="2"/>
<path d="M357.1 173.909L371.589 197.091L357.1 220.273M352.271 181.637H381.248L395.737 158.455M352.271 212.546H381.248L395.737 235.728M386.078 235.728L400.566 212.546H429.543M424.714 220.273L410.225 197.091L424.714 173.909M429.543 181.637H400.566L386.078 158.455M371.589 166.182V186.788L352.271 197.091L371.589 207.394V228L390.907 217.697L410.225 228V207.394L429.543 197.091L410.225 186.788V166.182L390.907 176.485L371.589 166.182Z" stroke="#F1F1F1" stroke-width="2"/>
<path d="M9.37593 112.092L23.8646 135.274L9.37593 158.456M4.54639 119.819H33.5236L48.0123 96.6375M4.54639 150.728H33.5236L48.0123 173.91M38.3532 173.91L52.8418 150.728H81.8191M76.9895 158.456L62.5009 135.274L76.9895 112.092M81.8191 119.819H52.8418L38.3532 96.6375M23.8646 104.365V124.971L4.54639 135.274L23.8646 145.577V166.183L43.1827 155.88L62.5009 166.183V145.577L81.8191 135.274L62.5009 124.971V104.365L43.1827 114.668L23.8646 104.365Z" stroke="#F1F1F1" stroke-width="2"/>
<path d="M9.37593 359.364L23.8646 382.546L9.37593 405.728M4.54639 367.091H33.5236L48.0123 343.909M4.54639 398H33.5236L48.0123 421.182M38.3532 421.182L52.8418 398H81.8191M76.9895 405.728L62.5009 382.546L76.9895 359.364M81.8191 367.091H52.8418L38.3532 343.909M23.8646 351.637V372.243L4.54639 382.546L23.8646 392.849V413.455L43.1827 403.152L62.5009 413.455V392.849L81.8191 382.546L62.5009 372.243V351.637L43.1827 361.94L23.8646 351.637Z" stroke="#F1F1F1" stroke-width="2"/>
<path d="M9.37593 -11.5455L23.8646 11.6363L9.37593 34.8181M4.54639 -3.81821H33.5236L48.0123 -27M4.54639 27.0908H33.5236L48.0123 50.2726M38.3532 50.2726L52.8418 27.0908H81.8191M76.9895 34.8181L62.5009 11.6363L76.9895 -11.5455M81.8191 -3.81821H52.8418L38.3532 -27M23.8646 -19.2727V1.3333L4.54639 11.6363L23.8646 21.9393V42.5454L43.1827 32.2424L62.5009 42.5454V21.9393L81.8191 11.6363L62.5009 1.3333V-19.2727L43.1827 -8.96972L23.8646 -19.2727Z" stroke="#F1F1F1" stroke-width="2"/>
<path d="M9.37593 235.727L23.8646 258.909L9.37593 282.091M4.54639 243.454H33.5236L48.0123 220.272M4.54639 274.363H33.5236L48.0123 297.545M38.3532 297.545L52.8418 274.363H81.8191M76.9895 282.091L62.5009 258.909L76.9895 235.727M81.8191 243.454H52.8418L38.3532 220.272M23.8646 228V248.606L4.54639 258.909L23.8646 269.212V289.818L43.1827 279.515L62.5009 289.818V269.212L81.8191 258.909L62.5009 248.606V228L43.1827 238.303L23.8646 228Z" stroke="#F1F1F1" stroke-width="2"/>
<path d="M-29.262 50.2742L-14.7734 73.456L-29.262 96.6378M-34.0916 58.0015H-5.1143L9.37432 34.8197M-34.0916 88.9105H-5.1143L9.37432 112.092M-0.28476 112.092L14.2039 88.9105H43.1811M38.3516 96.6378L23.8629 73.456L38.3516 50.2742M43.1811 58.0015H14.2039L-0.28476 34.8197M-14.7734 42.547V63.153L-34.0916 73.456L-14.7734 83.759V104.365L4.54478 94.0621L23.8629 104.365V83.759L43.1811 73.456L23.8629 63.153V42.547L4.54478 52.85L-14.7734 42.547Z" stroke="#F1F1F1" stroke-width="2"/>
<path d="M-29.262 297.547L-14.7734 320.729L-29.262 343.911M-34.0916 305.274H-5.1143L9.37432 282.093M-34.0916 336.183H-5.1143L9.37432 359.365M-0.28476 359.365L14.2039 336.183H43.1811M38.3516 343.911L23.8629 320.729L38.3516 297.547M43.1811 305.274H14.2039L-0.28476 282.093M-14.7734 289.82V310.426L-34.0916 320.729L-14.7734 331.032V351.638L4.54478 341.335L23.8629 351.638V331.032L43.1811 320.729L23.8629 310.426V289.82L4.54478 300.123L-14.7734 289.82Z" stroke="#F1F1F1" stroke-width="2"/>
<path d="M-67.8985 112.092L-53.4099 135.274L-67.8985 158.456M-72.728 119.819H-43.7508L-29.2622 96.6375M-72.728 150.728H-43.7508L-29.2622 173.91M-38.9212 173.91L-24.4326 150.728H4.54464M-0.2849 158.456L-14.7735 135.274L-0.2849 112.092M4.54464 119.819H-24.4326L-38.9212 96.6375M-53.4099 104.365V124.971L-72.728 135.274L-53.4099 145.577V166.183L-34.0917 155.88L-14.7735 166.183V145.577L4.54464 135.274L-14.7735 124.971V104.365L-34.0917 114.668L-53.4099 104.365Z" stroke="#F1F1F1" stroke-width="2"/>
<path d="M-67.8985 359.364L-53.4099 382.546L-67.8985 405.728M-72.728 367.091H-43.7508L-29.2622 343.909M-72.728 398H-43.7508L-29.2622 421.182M-38.9212 421.182L-24.4326 398H4.54464M-0.2849 405.728L-14.7735 382.546L-0.2849 359.364M4.54464 367.091H-24.4326L-38.9212 343.909M-53.4099 351.637V372.243L-72.728 382.546L-53.4099 392.849V413.455L-34.0917 403.152L-14.7735 413.455V392.849L4.54464 382.546L-14.7735 372.243V351.637L-34.0917 361.94L-53.4099 351.637Z" stroke="#F1F1F1" stroke-width="2"/>
<path d="M-67.8985 -11.5455L-53.4099 11.6363L-67.8985 34.8181M-72.728 -3.81821H-43.7508L-29.2622 -27M-72.728 27.0908H-43.7508L-29.2622 50.2726M-38.9212 50.2726L-24.4326 27.0908H4.54464M-0.2849 34.8181L-14.7735 11.6363L-0.2849 -11.5455M4.54464 -3.81821H-24.4326L-38.9212 -27M-53.4099 -19.2727V1.3333L-72.728 11.6363L-53.4099 21.9393V42.5454L-34.0917 32.2424L-14.7735 42.5454V21.9393L4.54464 11.6363L-14.7735 1.3333V-19.2727L-34.0917 -8.96972L-53.4099 -19.2727Z" stroke="#F1F1F1" stroke-width="2"/>
<path d="M-67.8985 235.727L-53.4099 258.909L-67.8985 282.091M-72.728 243.454H-43.7508L-29.2622 220.272M-72.728 274.363H-43.7508L-29.2622 297.545M-38.9212 297.545L-24.4326 274.363H4.54464M-0.2849 282.091L-14.7735 258.909L-0.2849 235.727M4.54464 243.454H-24.4326L-38.9212 220.272M-53.4099 228V248.606L-72.728 258.909L-53.4099 269.212V289.818L-34.0917 279.515L-14.7735 289.818V269.212L4.54464 258.909L-14.7735 248.606V228L-34.0917 238.303L-53.4099 228Z" stroke="#F1F1F1" stroke-width="2"/>
<path d="M48.0107 173.909L62.4993 197.091L48.0107 220.273M43.1812 181.637H72.1584L86.647 158.455M43.1812 212.546H72.1584L86.647 235.728M76.9879 235.728L91.4766 212.546H120.454M115.624 220.273L101.136 197.091L115.624 173.909M120.454 181.637H91.4766L76.9879 158.455M62.4993 166.182V186.788L43.1812 197.091L62.4993 207.394V228L81.8175 217.697L101.136 228V207.394L120.454 197.091L101.136 186.788V166.182L81.8175 176.485L62.4993 166.182Z" stroke="#F1F1F1" stroke-width="2"/>
<path d="M-29.262 173.909L-14.7734 197.091L-29.262 220.273M-34.0916 181.637H-5.1143L9.37432 158.455M-34.0916 212.546H-5.1143L9.37432 235.728M-0.28476 235.728L14.2039 212.546H43.1811M38.3516 220.273L23.8629 197.091L38.3516 173.909M43.1811 181.637H14.2039L-0.28476 158.455M-14.7734 166.182V186.788L-34.0916 197.091L-14.7734 207.394V228L4.54478 217.697L23.8629 228V207.394L43.1811 197.091L23.8629 186.788V166.182L4.54478 176.485L-14.7734 166.182Z" stroke="#F1F1F1" stroke-width="2"/>
<path d="M48.0107 50.2742L62.4993 73.456L48.0107 96.6378M43.1812 58.0015H72.1584L86.647 34.8197M43.1812 88.9105H72.1584L86.647 112.092M76.9879 112.092L91.4766 88.9105H120.454M115.624 96.6378L101.136 73.456L115.624 50.2742M120.454 58.0015H91.4766L76.9879 34.8197M62.4993 42.547V63.153L43.1812 73.456L62.4993 83.759V104.365L81.8175 94.0621L101.136 104.365V83.759L120.454 73.456L101.136 63.153V42.547L81.8175 52.85L62.4993 42.547Z" stroke="#F1F1F1" stroke-width="2"/>
<path d="M48.0107 297.547L62.4993 320.729L48.0107 343.911M43.1812 305.274H72.1584L86.647 282.093M43.1812 336.183H72.1584L86.647 359.365M76.9879 359.365L91.4766 336.183H120.454M115.624 343.911L101.136 320.729L115.624 297.547M120.454 305.274H91.4766L76.9879 282.093M62.4993 289.82V310.426L43.1812 320.729L62.4993 331.032V351.638L81.8175 341.335L101.136 351.638V331.032L120.454 320.729L101.136 310.426V289.82L81.8175 300.123L62.4993 289.82Z" stroke="#F1F1F1" stroke-width="2"/>
</g>
<path d="M263.53 163.44L238.7 256H223.62L206.59 199.84L189.56 256H174.48L149.78 163.44H168.63L182.93 221.81L197.1 173.58C198.66 166.387 201.953 162.79 206.98 162.79C209.493 162.79 211.4 163.743 212.7 165.65C214 167.47 215.17 170.113 216.21 173.58L230.25 221.81L244.68 163.44H263.53ZM293.133 256H275.063V163.44H293.133V256ZM356.403 206.99L388.253 256H367.193L345.353 221.03L332.743 237.93V256H314.673V163.44H332.743V215.18L367.713 163.44H385.913L356.403 206.99ZM419.198 256H401.128V163.44H419.198V256ZM503.137 228.7C503.137 237.453 499.931 244.343 493.517 249.37C487.104 254.31 478.914 256.78 468.947 256.78C461.061 256.78 453.434 254.613 446.067 250.28C442.427 248.027 439.437 244.863 437.097 240.79C434.757 236.63 433.587 231.907 433.587 226.62L449.967 225.84C449.967 230.52 451.961 234.16 455.947 236.76C459.934 239.36 464.354 240.66 469.207 240.66C480.041 240.66 485.457 236.847 485.457 229.22C485.457 222.98 481.774 219.297 474.407 218.17L459.327 216.61C451.787 215.483 445.807 212.797 441.387 208.55C436.967 204.303 434.757 198.193 434.757 190.22C434.757 182.247 437.921 175.66 444.247 170.46C450.574 165.26 458.547 162.66 468.167 162.66C477.874 162.66 485.674 165.13 491.567 170.07C497.461 174.923 500.407 181.207 500.407 188.92L484.287 189.7C482.814 182.16 477.744 178.39 469.077 178.39C463.791 178.39 459.631 179.517 456.597 181.77C453.651 184.023 452.177 186.71 452.177 189.83C452.177 192.863 453.261 195.29 455.427 197.11C457.594 198.843 460.281 199.927 463.487 200.36L478.307 201.92C494.861 204.173 503.137 213.1 503.137 228.7ZM574.614 256H547.054C536.654 256 529.114 254.007 524.434 250.02C519.841 245.947 517.544 239.36 517.544 230.26V163.44H535.614V230.26C535.614 233.9 536.437 236.413 538.084 237.8C539.731 239.187 542.721 239.88 547.054 239.88H574.614V256ZM659.219 256H640.369L635.169 240.01H604.099L599.029 256H580.179L609.819 171.24C611.119 168.293 612.549 166.257 614.109 165.13C615.755 164.003 617.749 163.44 620.089 163.44C622.429 163.44 624.292 163.96 625.679 165C627.152 166.04 628.452 168.12 629.579 171.24L659.219 256ZM631.009 224.8L620.089 188.14L608.649 224.8H631.009ZM740.299 200.75L723.659 235.85C721.232 240.53 718.199 242.87 714.559 242.87C711.006 242.87 708.016 240.4 705.589 235.46L688.689 200.75V256H670.619V163.44H688.429L714.559 216.87L740.559 163.44H758.369V256H740.299V200.75ZM795.36 256H777.29V163.44H795.36V256ZM887.099 256H868.249L863.049 240.01H831.979L826.909 256H808.059L837.699 171.24C838.999 168.293 840.429 166.257 841.989 165.13C843.636 164.003 845.629 163.44 847.969 163.44C850.309 163.44 852.173 163.96 853.559 165C855.033 166.04 856.333 168.12 857.459 171.24L887.099 256ZM858.889 224.8L847.969 188.14L836.529 224.8H858.889Z" fill="#F1F1F1"/>
<path d="M780.944 114.575L780.355 114.825C777.776 115.921 775.433 117.501 773.461 119.477C771.488 121.453 769.923 123.785 768.856 126.34C766.702 131.5 766.705 137.256 768.866 142.341C771.026 147.427 775.167 151.425 780.377 153.457C782.956 154.463 785.721 154.956 788.513 154.907C791.304 154.859 794.068 154.27 796.647 153.175C802.537 150.672 805.06 147.337 807.373 142.959C797.796 150.423 784.72 146.924 780.647 137.337C776.574 127.749 783.133 115.908 795.154 114.197C792.897 113.319 790.476 112.9 788.034 112.965C785.593 113.03 783.182 113.578 780.944 114.575ZM793.201 118.875L793.107 126.837L786.086 130.499L793.817 132.873L794.901 140.335L799.555 133.831L807.467 134.997L802.652 129.12L806.506 121.823L798.997 124.335L793.201 118.875Z" fill="#F1F1F1"/>
</svg>
