<svg width="360" height="356" viewBox="0 0 360 356" fill="none" xmlns="http://www.w3.org/2000/svg">
<path d="M314.184 171.761C313.764 184.716 313.334 197.71 312.914 210.742C312.408 226.294 311.902 241.904 311.387 257.57C310.976 270.401 310.556 283.28 310.136 296.188C309.897 303.491 309.659 310.814 309.43 318.146C309.411 318.49 309.401 318.833 309.392 319.177L42.9811 321.42C42.4561 304.512 41.9311 287.633 41.6351 270.811C41.5491 265.999 41.4821 261.197 41.4441 256.395C41.3681 247.64 41.3681 238.895 41.4821 230.179C41.6351 218.446 41.9881 206.751 42.6181 195.113C43.6201 176.62 45.3391 158.261 48.0601 140.084C49.9891 127.224 53.0341 113.39 62.9921 105.19C69.2171 100.054 77.3221 97.8769 85.2651 96.5019C96.5881 94.5449 108.092 93.9429 119.568 93.3799C117.334 90.6589 115.386 87.7279 113.792 84.5969C108.627 74.4199 108.408 61.4169 114.842 51.9839C118.546 46.5609 124.093 42.6469 129.86 39.5059C139.264 34.3979 149.565 31.0089 158.635 25.3379C167.705 19.6669 175.772 10.9309 176.898 0.295898C179.361 13.3369 193.233 23.1899 205.682 27.8009C218.131 32.4029 232.013 36.2409 239.889 46.9239C249.302 59.6689 246.553 78.0659 238.61 91.7669C238.39 92.1489 238.152 92.5209 237.923 92.8939C249.952 94.3449 261.962 96.2449 273.935 98.2499C278.117 98.9469 282.336 99.6729 286.318 101.2C298.901 106.021 307.541 118.451 311.284 131.455C315.024 144.495 314.623 158.242 314.184 171.761Z" fill="#35025E"/>
<path d="M312.272 257.57C311.862 270.401 311.441 283.28 311.021 296.188C310.773 303.835 310.525 311.501 310.276 319.177L43.8651 321.42C43.3401 304.512 42.8151 287.633 42.5191 270.811C42.2801 257.225 42.1941 243.678 42.3661 230.179C42.5191 218.446 42.8721 206.751 43.5021 195.113C88.0771 194.645 133.302 202.913 177.151 212.422C192.025 215.639 207.033 219.095 221.917 223.057C253.452 231.44 284.414 242.075 312.272 257.57Z" fill="#35025E"/>
<path d="M312.914 210.742C312.408 226.294 311.902 241.904 311.387 257.57C310.976 270.401 310.556 283.28 310.136 296.188C309.888 303.835 309.64 311.501 309.391 319.177L42.98 321.42C42.455 304.512 41.93 287.633 41.634 270.811C73.311 259.851 105.647 250.772 138.193 242.514C151.206 239.211 164.257 236.041 177.307 232.938C191.838 229.482 206.397 226.102 221.033 223.057C246.084 217.835 271.317 213.596 296.827 211.639C302.174 211.229 307.539 210.923 312.914 210.742Z" fill="#35025E"/>
<path d="M309.43 318.146C309.411 318.49 309.401 318.833 309.392 319.177L42.9811 321.42C42.4561 304.512 41.9311 287.633 41.6351 270.811C41.5491 265.999 41.4821 261.197 41.4441 256.395C41.4531 255.058 41.4631 253.722 41.4821 252.385C74.0091 252.891 106.259 257.569 138.194 264.72C182.082 274.534 225.359 289.008 267.891 303.653C281.753 308.418 295.615 313.239 309.43 318.146Z" fill="#35025E"/>
<path d="M217.717 95.6219C215.232 94.3719 213.651 91.7659 213.301 89.5029C212.695 92.4079 211.686 94.3059 209.135 95.8659C211.842 97.1019 213.07 99.4299 213.646 101.859C214.111 99.5499 215.708 96.8519 217.717 95.6219Z" fill="white"/>
<path d="M140.575 137.952C137.268 136.288 135.163 132.819 134.697 129.807C133.891 133.673 132.547 136.201 129.151 138.277C132.755 139.922 134.388 143.021 135.156 146.254C135.776 143.18 137.901 139.588 140.575 137.952Z" fill="white"/>
<path d="M209.677 166.005C205.709 164.009 203.184 159.847 202.624 156.232C201.657 160.871 200.044 163.904 195.97 166.394C200.294 168.368 202.254 172.086 203.175 175.965C203.919 172.278 206.469 167.969 209.677 166.005Z" fill="white"/>
<path d="M17.481 349.48C16.039 349.688 14.591 349.783 13.127 349.746C11.61 349.707 10.127 349.459 8.62404 349.338C5.82704 349.111 3.01605 349.738 0.619048 351.102C-0.601952 351.797 0.372041 353.714 1.60404 353.01C4.04104 351.619 6.66104 351.216 9.47704 351.553C12.346 351.897 15.146 351.98 18.01 351.567C19.443 351.361 18.9 349.276 17.481 349.48Z" fill="#274027"/>
<path d="M19.665 346.323C17.312 346.315 15.09 345.63 12.857 345.017C10.51 344.372 8.15703 343.932 5.73603 343.844C4.33603 343.793 4.08003 345.843 5.49903 345.896C7.90203 345.986 10.215 346.428 12.541 347.082C14.804 347.718 17.103 348.402 19.487 348.412C20.093 348.415 20.644 348.098 20.694 347.488C20.738 346.972 20.272 346.325 19.665 346.323Z" fill="#274027"/>
<path d="M22.1711 340.273C22.0731 340.379 20.8641 340.225 20.6561 340.213C20.0801 340.179 19.5061 340.137 18.9321 340.091C17.6411 339.988 16.3531 339.866 15.0651 339.782C12.5731 339.619 10.0631 339.606 7.63209 340.093C6.27009 340.366 6.58808 342.381 7.96508 342.105C10.7091 341.556 13.5001 341.685 16.3061 341.915C17.6971 342.029 19.0891 342.164 20.4871 342.247C21.7851 342.324 23.1001 342.482 24.0021 341.498C24.9041 340.513 23.0691 339.299 22.1711 340.273Z" fill="#274027"/>
<path d="M25.4311 334.875C24.8561 335.155 24.2271 335.01 23.5991 334.92C22.8981 334.819 22.1981 334.712 21.4981 334.609C20.1981 334.42 18.8981 334.241 17.5951 334.124C14.9441 333.886 12.2621 333.903 9.7021 334.534C9.1371 334.673 8.7141 335.085 8.8041 335.658C8.8811 336.143 9.4781 336.636 10.0411 336.497C12.7451 335.83 15.5231 335.883 18.3161 336.193C19.7251 336.349 21.1311 336.564 22.5401 336.775C23.8161 336.966 25.2001 337.295 26.3821 336.718C27.6031 336.122 26.6531 334.28 25.4311 334.875Z" fill="#274027"/>
<path d="M27.397 329.579C25.056 329.675 22.711 329.658 20.374 329.532C19.226 329.47 18.082 329.382 16.941 329.269C15.792 329.155 14.654 329.05 13.586 329.503C12.345 330.029 13.218 331.818 14.466 331.288C15.389 330.896 16.54 331.186 17.523 331.276C18.671 331.38 19.822 331.458 20.976 331.51C23.253 331.612 25.536 331.606 27.816 331.515C28.404 331.491 28.781 330.884 28.675 330.399C28.551 329.832 27.984 329.555 27.397 329.579Z" fill="#274027"/>
<path d="M30.8571 325.125C26.0231 324.845 21.2181 324.794 16.4451 324.951C15.8681 324.97 15.4941 325.568 15.5771 326.035C15.6761 326.594 16.2361 326.853 16.8081 326.835C21.4201 326.687 26.0671 326.76 30.7361 327.037C32.1291 327.119 32.2541 325.206 30.8571 325.125Z" fill="#274027"/>
<path d="M33.3171 320.49C32.1191 320.745 30.8871 320.895 29.6391 320.869C28.4901 320.845 27.3491 320.686 26.2051 320.631C23.7261 320.512 21.3091 320.908 18.9141 321.328C17.5881 321.561 17.9491 323.417 19.2861 323.182C21.6911 322.761 24.1051 322.351 26.5951 322.532C29.0421 322.709 31.3641 322.86 33.7571 322.351C35.0781 322.07 34.6431 320.208 33.3171 320.49Z" fill="#274027"/>
<path d="M33.7241 317.567C29.5841 317.589 25.4741 316.151 21.4021 316.888C20.1971 317.106 20.5431 318.926 21.7571 318.706C25.6641 318 29.6591 319.434 33.6391 319.416C34.1661 319.414 34.6351 319.122 34.6581 318.584C34.6771 318.125 34.2521 317.564 33.7241 317.567Z" fill="#274027"/>
<path d="M37.7631 313.819C35.3881 313.688 33.0221 313.515 30.6651 313.295C28.4531 313.088 26.0731 312.621 24.0221 313.528C22.9221 314.014 23.7481 315.678 24.8521 315.189C26.6991 314.37 29.0911 314.97 31.0831 315.153C33.2791 315.355 35.4831 315.516 37.6951 315.641C38.9461 315.71 39.0181 313.888 37.7631 313.819Z" fill="#274027"/>
<path d="M38.8971 311.569C36.6921 311.02 34.4841 310.534 32.2751 310.117C30.1871 309.723 27.8411 309.096 25.8601 309.945C24.7631 310.415 25.5911 312.05 26.6911 311.578C27.5441 311.212 28.4721 311.281 29.3991 311.413C30.4041 311.556 31.4071 311.752 32.4081 311.945C34.3871 312.327 36.3631 312.77 38.3371 313.266C38.8501 313.395 39.3851 313.224 39.5461 312.734C39.6861 312.307 39.4121 311.697 38.8971 311.569Z" fill="#274027"/>
<path d="M43.3211 307.345C42.0881 307.612 40.8341 307.714 39.5461 307.598C38.3091 307.487 37.1471 307.141 35.9581 306.806C33.5151 306.117 31.0501 305.942 28.6211 306.451C27.4511 306.696 27.8181 308.433 29.0001 308.186C30.2511 307.924 31.5181 307.829 32.8171 307.953C34.0561 308.071 35.2251 308.423 36.4271 308.763C38.8641 309.453 41.3421 309.626 43.7691 309.101C44.9531 308.846 44.5071 307.089 43.3211 307.345Z" fill="#274027"/>
<path d="M19.997 347.695C17.131 348.314 14.477 347.523 11.631 347.173C8.74803 346.818 5.84103 346.79 2.97203 347.04C1.55903 347.163 1.87304 349.234 3.28704 349.112C6.19504 348.861 9.12403 348.934 12.041 349.344C13.427 349.539 14.8 349.886 16.198 350.029C17.608 350.172 19.028 350.087 20.396 349.792C21.791 349.49 21.395 347.393 19.997 347.695Z" fill="#4B7351"/>
<path d="M21.8031 344.372C19.1651 343.639 16.5451 342.906 13.9361 342.187C11.4791 341.51 9.09708 341.114 6.57208 341.501C5.18808 341.713 5.50709 343.738 6.90109 343.525C9.25809 343.164 11.4171 343.61 13.7011 344.25C16.1431 344.934 18.5981 345.622 21.0671 346.314C22.4541 346.701 23.2011 344.76 21.8031 344.372Z" fill="#4B7351"/>
<path d="M24.6881 337.743C19.0341 338.171 13.4491 335.869 7.94408 337.515C6.61808 337.912 7.49208 339.76 8.81108 339.365C11.3861 338.594 14.1461 338.874 16.8111 339.209C19.5631 339.555 22.3181 339.959 25.1021 339.75C26.5221 339.645 26.0941 337.637 24.6881 337.743Z" fill="#4B7351"/>
<path d="M27.4321 333.017C22.3361 332.21 16.8141 330.824 11.8151 332.118C11.2551 332.263 10.8321 332.66 10.9251 333.232C11.0031 333.707 11.6041 334.206 12.1621 334.061C14.5831 333.435 17.0721 333.502 19.5771 333.804C22.1471 334.115 24.7141 334.581 27.2931 334.994C28.6991 335.219 28.8291 333.238 27.4321 333.017Z" fill="#4B7351"/>
<path d="M29.445 328.473C24.738 327.949 20.225 326.258 15.513 326.693C14.149 326.819 14.508 328.717 15.873 328.592C20.377 328.179 24.812 329.904 29.317 330.413C30.719 330.571 30.844 328.629 29.445 328.473Z" fill="#4B7351"/>
<path d="M32.575 323.54C29.989 323.185 27.415 322.788 24.844 322.498C22.263 322.207 19.719 322.172 17.241 322.814C16.691 322.957 16.507 323.627 16.718 324.054C16.975 324.575 17.58 324.687 18.126 324.546C20.419 323.951 22.888 324.153 25.256 324.448C27.651 324.746 30.051 325.105 32.462 325.44C33.849 325.633 33.955 323.73 32.575 323.54Z" fill="#4B7351"/>
<path d="M34.5691 320.5C32.3601 319.895 30.1651 319.214 27.9461 318.73C25.7071 318.242 23.4091 318.078 21.2831 318.862C20.0411 319.32 20.9361 321.023 22.1791 320.564C23.9961 319.892 26.0371 320.16 27.9261 320.625C29.9261 321.118 31.9131 321.709 33.9151 322.262C35.2511 322.632 35.9131 320.869 34.5691 320.5Z" fill="#4B7351"/>
<path d="M35.668 316.188C31.405 316.348 27.23 314.208 23.041 315.26C22.546 315.384 22.176 315.782 22.279 316.303C22.368 316.754 22.902 317.191 23.402 317.066C25.437 316.555 27.526 316.865 29.602 317.254C31.759 317.658 33.891 318.095 36.089 318.014C36.615 317.995 36.936 317.409 36.831 316.956C36.705 316.415 36.193 316.168 35.668 316.188Z" fill="#4B7351"/>
<path d="M37.972 313.316C35.764 313 33.573 312.621 31.402 312.172C30.352 311.955 29.311 311.709 28.27 311.47C27.231 311.231 26.179 311.034 25.149 311.317C24.662 311.451 24.291 311.824 24.398 312.343C24.487 312.777 25.024 313.225 25.517 313.09C26.497 312.821 27.466 313.108 28.446 313.338C29.471 313.579 30.502 313.806 31.538 314.019C33.643 314.453 35.767 314.822 37.906 315.132C39.155 315.314 39.216 313.494 37.972 313.316Z" fill="#4B7351"/>
<path d="M41.095 310.447C36.554 309.875 32.385 307.492 27.836 307.555C27.323 307.562 26.876 307.837 26.838 308.348C26.805 308.782 27.219 309.32 27.729 309.313C32.273 309.254 36.489 311.662 41.043 312.242C42.29 312.401 42.338 310.603 41.095 310.447Z" fill="#4B7351"/>
<path d="M45.0211 307.132C42.6141 306.857 40.3861 305.849 38.1451 305.039C35.8831 304.221 33.5281 303.619 31.1581 303.894C29.9631 304.033 30.3491 305.748 31.5461 305.61C33.8171 305.347 36.0761 306.11 38.2161 306.917C40.4161 307.746 42.6151 308.63 44.9831 308.904C46.2301 309.047 46.2631 307.274 45.0211 307.132Z" fill="#4B7351"/>
<path d="M303.956 310.523C302.293 310.343 300.636 310.466 298.939 310.693C297.275 310.915 295.66 310.886 294.017 310.824C292.586 310.77 292.24 312.628 293.673 312.682C295.371 312.747 297.067 312.78 298.789 312.564C300.445 312.356 301.995 312.204 303.622 312.381C304.213 312.445 304.814 311.97 304.899 311.497C304.995 310.961 304.548 310.587 303.956 310.523Z" fill="#274027"/>
<path d="M311.207 313.485C310.194 313.386 309.175 313.289 308.135 313.346C307.02 313.406 305.993 313.641 304.924 313.987C302.891 314.646 300.964 315.127 298.835 315.09C297.398 315.065 297.053 316.932 298.495 316.957C300.684 316.995 302.819 316.624 304.924 315.923C305.861 315.611 306.771 315.297 307.761 315.215C308.81 315.129 309.861 315.249 310.88 315.348C312.296 315.487 312.615 313.623 311.207 313.485Z" fill="#274027"/>
<path d="M320.009 317.407C317.128 316.962 314.332 317.684 311.451 318.324C308.429 318.995 305.369 319.44 302.302 319.675C301.689 319.722 301.247 320.332 301.3 320.788C301.364 321.334 301.935 321.559 302.542 321.513C305.396 321.294 308.245 320.895 311.063 320.297C313.674 319.743 316.508 318.787 319.136 319.194C319.726 319.285 320.346 319.104 320.61 318.581C320.828 318.146 320.592 317.497 320.009 317.407Z" fill="#274027"/>
<path d="M320.533 319.207C319.421 320.09 317.454 320.271 316.056 320.505C314.411 320.781 312.757 320.977 311.11 321.248C308.092 321.744 305.087 322.544 302.537 324.189C301.33 324.968 302.675 326.364 303.879 325.585C306.458 323.919 309.608 323.337 312.635 322.89C314.284 322.647 315.939 322.439 317.577 322.112C319.035 321.821 320.729 321.513 321.883 320.595C322.974 319.728 321.631 318.335 320.533 319.207Z" fill="#274027"/>
<path d="M326.335 322.249C323.67 321.246 320.626 321.944 317.845 322.803C314.889 323.717 311.937 324.567 308.904 325.23C307.47 325.543 307.712 327.393 309.151 327.078C311.985 326.458 314.785 325.707 317.545 324.838C320.134 324.023 322.939 323.094 325.465 324.045C326.737 324.524 327.6 322.725 326.335 322.249Z" fill="#274027"/>
<path d="M330.587 325.346C327.536 325.071 324.36 325.286 321.301 326.024C318.431 326.717 315.496 328.362 312.517 328.287C311.072 328.251 310.739 330.143 312.188 330.179C315.276 330.257 318.009 328.815 320.936 328.031C324.019 327.205 327.182 326.952 330.276 327.232C331.706 327.361 332.008 325.474 330.587 325.346Z" fill="#274027"/>
<path d="M336.669 329.141C330.273 327.754 323.908 331.18 317.449 330.801C316.008 330.716 315.685 332.614 317.125 332.698C320.231 332.881 323.327 332.221 326.399 331.575C329.507 330.921 332.763 330.289 335.806 330.949C337.175 331.247 338.048 329.44 336.669 329.141Z" fill="#274027"/>
<path d="M338.454 331.87C336.893 332.112 335.507 332.865 333.995 333.279C332.413 333.713 330.77 333.922 329.147 334.056C325.889 334.324 322.638 334.275 319.381 334.798C317.923 335.032 318.184 336.898 319.639 336.664C322.896 336.141 326.155 336.189 329.414 335.921C330.99 335.791 332.572 335.583 334.113 335.182C335.667 334.778 337.149 333.976 338.729 333.73C340.185 333.504 339.902 331.645 338.454 331.87Z" fill="#274027"/>
<path d="M341.335 335.858C338.591 337.545 335.151 337.862 331.984 338.078C328.577 338.311 325.135 338.504 321.907 339.832C320.544 340.393 321.378 342.104 322.741 341.543C326.072 340.17 329.701 340.161 333.204 339.881C336.534 339.615 339.865 339.021 342.711 337.27C343.937 336.517 342.553 335.11 341.335 335.858Z" fill="#274027"/>
<path d="M346.96 338.87C343.876 338.322 340.854 339.09 337.803 339.923C334.609 340.795 331.378 341.42 328.085 341.619C326.636 341.707 326.304 343.627 327.77 343.538C330.92 343.347 334.034 342.875 337.105 342.062C339.997 341.296 343.147 340.171 346.103 340.697C347.492 340.945 348.365 339.12 346.96 338.87Z" fill="#274027"/>
<path d="M349.789 345.431C347.178 344.276 343.973 344.909 341.052 345.065C337.901 345.233 334.741 345.215 331.815 344.382C330.467 343.998 329.588 345.835 330.94 346.22C333.73 347.015 336.736 347.155 339.749 347.036C341.233 346.978 342.719 346.865 344.203 346.76C345.605 346.661 347.176 346.511 348.417 347.06C349.658 347.609 351.045 345.986 349.789 345.431Z" fill="#274027"/>
<path d="M355.231 350.895C349.907 347.748 342.974 348.765 336.782 347.791C336.183 347.697 335.555 347.884 335.291 348.424C335.072 348.873 335.317 349.542 335.91 349.636C341.815 350.565 348.807 349.544 353.86 352.534C355.02 353.22 356.393 351.582 355.231 350.895Z" fill="#274027"/>
<path d="M356.977 350.801C354.279 350.073 351.369 350.44 348.562 351.039C345.747 351.64 342.92 352.431 340.062 352.166C338.615 352.032 338.316 353.972 339.757 354.106C342.501 354.36 345.252 353.738 347.96 353.133C350.657 352.53 353.501 351.944 356.125 352.652C357.489 353.019 358.346 351.17 356.977 350.801Z" fill="#4B7351"/>
<path d="M352.605 347.254C347.512 345.806 342.218 348.415 337.007 348.01C335.558 347.898 335.254 349.829 336.7 349.941C339.27 350.141 341.854 349.639 344.416 349.198C346.875 348.774 349.412 348.431 351.75 349.097C353.104 349.483 353.961 347.64 352.605 347.254Z" fill="#4B7351"/>
<path d="M346.02 342.636C343.59 341.911 341.032 342.612 338.588 343.352C336.062 344.116 333.571 344.526 330.969 344.374C329.518 344.289 329.206 346.213 330.656 346.298C333.143 346.443 335.669 346.161 338.11 345.463C340.377 344.814 342.873 343.788 345.16 344.471C346.503 344.872 347.363 343.037 346.02 342.636Z" fill="#4B7351"/>
<path d="M342.705 338.389C342.642 337.933 342.031 337.483 341.439 337.652C338.403 338.521 335.282 339.103 332.143 339.346C329.516 339.55 326.808 339.448 324.512 340.946C323.302 341.735 324.674 343.155 325.881 342.366C327.849 341.08 330.777 341.374 333.011 341.17C335.953 340.901 338.871 340.339 341.718 339.523C342.317 339.352 342.78 338.94 342.705 338.389Z" fill="#4B7351"/>
<path d="M340.542 334.272C337.886 334.303 335.342 335.017 332.782 335.734C330.298 336.43 327.756 337.108 325.206 336.843C323.775 336.694 323.465 338.604 324.889 338.752C330.157 339.3 335.023 336.237 340.242 336.175C341.691 336.158 342 334.255 340.542 334.272Z" fill="#4B7351"/>
<path d="M336.661 329.972C331.115 332.872 324.566 331.232 318.65 332.742C317.231 333.104 317.477 334.97 318.907 334.604C325.054 333.034 331.709 334.699 337.504 331.665C338.772 331.001 337.94 329.304 336.661 329.972Z" fill="#4B7351"/>
<path d="M332.298 326.858C329.351 327.185 326.352 327.402 323.426 327.988C322.103 328.253 320.773 328.609 319.524 329.113C318.316 329.6 317.182 330.45 315.874 330.676C314.422 330.927 314.677 332.785 316.128 332.534C317.514 332.294 318.613 331.569 319.858 331.014C321.08 330.469 322.371 330.105 323.688 329.841C326.617 329.254 329.618 329.036 332.568 328.708C334.024 328.546 333.742 326.698 332.298 326.858Z" fill="#4B7351"/>
<path d="M326.603 322.676C320.8 324.55 314.476 324.052 308.835 326.606C307.507 327.207 308.319 328.898 309.652 328.294C315.243 325.76 321.645 326.228 327.434 324.356C328.826 323.906 327.983 322.23 326.603 322.676Z" fill="#4B7351"/>
<path d="M323.613 320.013C318.591 319.887 313.966 322.484 308.982 322.703C308.374 322.73 307.796 323.054 307.699 323.598C307.616 324.067 308.038 324.611 308.65 324.584C311.184 324.473 313.607 323.828 316.055 323.15C318.425 322.494 320.85 321.827 323.297 321.889C324.737 321.925 325.054 320.05 323.613 320.013Z" fill="#4B7351"/>
<path d="M320.127 317.265C318.938 317.79 317.712 318.188 316.421 318.423C315.078 318.668 313.727 318.715 312.377 318.811C309.809 318.994 307.297 319.582 304.931 320.623C303.598 321.209 304.406 322.889 305.742 322.3C308.147 321.24 310.591 320.773 313.192 320.609C315.899 320.438 318.445 320.042 320.949 318.935C322.274 318.351 321.453 316.68 320.127 317.265Z" fill="#4B7351"/>
<path d="M316.834 315.31C314.454 315.158 311.997 315.314 309.605 315.807C307.146 316.313 304.733 317.142 302.329 317.863C301.74 318.04 301.479 318.707 301.68 319.122C301.919 319.616 302.545 319.713 303.137 319.535C305.357 318.869 307.581 318.104 309.852 317.636C312.073 317.179 314.303 317.034 316.513 317.176C317.941 317.268 318.259 315.401 316.834 315.31Z" fill="#4B7351"/>
<path d="M310.95 311.511C308.586 311.528 306.196 311.76 303.846 312.25C301.683 312.701 299.48 313.55 297.276 313.401C295.85 313.305 295.511 315.168 296.934 315.264C299.195 315.417 301.374 314.677 303.585 314.181C305.912 313.658 308.273 313.386 310.622 313.37C312.058 313.36 312.391 311.501 310.95 311.511Z" fill="#4B7351"/>
<path d="M341.408 354.124C304.805 355.919 264.306 356.072 227.674 355.165C220.218 354.974 212.666 354.716 205.506 352.616C202.289 351.671 199.1 350.334 195.739 350.296C190.622 350.239 186.001 353.141 181.075 354.487C176.473 355.738 171.633 355.623 166.859 355.499C116.565 354.201 65.803 353.093 15.5 351.795C15.882 351.174 16.264 350.544 16.646 349.914C25.181 335.909 33.315 321.187 40.227 306.36C126.905 309.425 213.726 308.47 300.308 303.505C312.566 320.871 325.589 336.528 339.766 352.29C340.31 352.902 340.854 353.513 341.408 354.124Z" fill="#2D472C"/>
<path d="M339.766 352.291C303.592 354.01 263.762 354.153 227.674 353.255C220.218 353.064 212.666 352.806 205.506 350.706C202.289 349.761 199.1 348.424 195.739 348.386C190.622 348.329 186.001 351.231 181.075 352.577C176.473 353.828 171.633 353.713 166.859 353.589C116.947 352.3 66.577 351.202 16.646 349.913C25.181 335.908 33.315 321.186 40.227 306.359C126.905 309.424 213.726 308.469 300.308 303.504C312.566 320.872 325.588 336.529 339.766 352.291Z" fill="#4B7351"/>
<path d="M323.754 346.922C324.754 348.046 324.015 349.826 322.512 349.891C291.953 351.193 249.823 351.276 220.337 350.543C213.992 350.38 207.565 350.161 201.472 348.374C198.734 347.57 196.02 346.432 193.161 346.4C188.806 346.351 184.874 348.821 180.682 349.967C176.766 351.031 172.647 350.934 168.584 350.828C127.121 349.757 75.2511 348.841 33.2761 347.778C31.9091 347.743 31.1021 346.251 31.8061 345.079C38.2881 334.286 44.4521 321.122 49.7921 309.784C50.0951 309.141 50.7401 308.743 51.4501 308.767C124.721 311.314 218.55 310.507 291.706 306.352C292.315 306.317 292.894 306.601 293.247 307.099C302.786 320.532 312.87 334.689 323.754 346.922Z" fill="#ACCEB3"/>
<path d="M310.13 344.352C311.037 345.371 310.367 346.985 309.004 347.043C281.299 348.224 243.104 348.299 216.371 347.634C210.618 347.487 204.792 347.288 199.267 345.667C196.785 344.938 194.324 343.907 191.732 343.877C187.784 343.833 184.219 346.072 180.418 347.111C176.868 348.076 173.133 347.987 169.45 347.892C131.859 346.921 89.607 346.091 51.552 345.127C50.313 345.096 49.582 343.742 50.22 342.68C56.097 332.895 61.685 322.692 66.527 312.412C66.801 311.829 67.387 311.468 68.03 311.49C134.458 313.799 214.751 313.067 281.075 309.301C281.628 309.27 282.152 309.527 282.472 309.978C291.121 322.158 300.264 333.262 310.13 344.352Z" fill="#5A9463"/>
<path d="M218.056 338.211C213.03 338.742 207.976 338.981 202.922 338.903C197.963 338.826 193.043 338.366 188.112 337.868C183.254 337.377 178.357 336.937 173.475 337.317C168.591 337.697 163.988 339.312 159.162 339.993C154.436 340.659 149.619 340.498 144.867 340.272C139.812 340.031 134.758 339.751 129.704 339.471C120.013 338.934 110.186 338.749 100.643 336.84C92.0531 335.122 83.7561 332.191 75.9911 328.167C88.6131 325.434 101.282 322.812 114.123 321.375C121.429 320.557 128.766 320.155 136.118 320.234C143.489 320.313 150.848 320.778 158.209 321.131C166.486 321.528 174.781 321.771 183.055 321.19C185.116 321.045 185.129 317.821 183.055 317.967C168.198 319.011 153.356 317.365 138.506 317.05C123.772 316.737 109.184 318.415 94.7091 321.074C86.5921 322.565 78.5501 324.432 70.4621 326.072C63.1501 327.555 87.2901 336.985 95.9681 339.103C105.463 341.42 115.177 341.871 124.895 342.424C129.97 342.713 135.046 342.99 140.123 343.254C145.057 343.511 150.011 343.846 154.952 343.597C157.402 343.473 159.853 343.201 162.259 342.721C164.612 342.251 166.92 341.583 169.273 341.117C174.12 340.156 179.101 340.306 184.001 340.707C189.647 341.169 195.259 341.902 200.927 342.08C206.644 342.259 212.367 342.035 218.055 341.435C218.92 341.344 219.667 340.758 219.667 339.823C219.667 339.022 218.926 338.119 218.056 338.211Z" fill="#ACCEB3"/>
<path opacity="0.3" d="M170.15 328.634C173.26 332.749 176.726 337.099 181.106 337.745C182.784 337.993 184.501 337.667 186.158 338.097C189.492 338.963 191.922 342.642 194.851 344.912C198.888 348.042 203.778 348.417 208.457 348.689C222.858 349.525 237.267 350.128 251.679 350.496C261.803 350.755 310.07 353.049 319.709 348.96C309.586 337.239 257.981 330.28 244.661 327.567C230.811 324.746 215.813 324.203 202.769 316.809C197.671 313.919 193.286 308.572 187.725 307.114C182.874 305.842 178.086 308.145 173.661 310.604C166.553 314.553 164.225 320.795 170.15 328.634Z" fill="#5A9463"/>
<path d="M216.556 273.286C216.32 272.225 216.072 271.167 215.816 270.111C215.562 269.063 214.516 268.88 213.773 269.261C213.65 269.287 213.526 269.324 213.4 269.386C209.678 271.228 205.506 271.575 201.411 271.526C197.076 271.474 192.737 271.131 188.41 270.893C183.81 270.64 179.2 269.893 174.594 269.861C173.143 269.851 170.366 269.692 170.588 271.903C170.789 273.902 173.44 274.399 175.028 274.742C177.372 275.248 179.726 275.594 182.037 276.26C183.611 276.713 185.148 277.263 186.657 277.888C185.682 278.266 184.615 278.479 183.643 278.829C182.724 279.159 181.73 279.532 181.103 280.317C180.42 281.173 180.421 282.317 180.482 283.363C180.548 284.514 180.896 285.55 181.092 286.667C181.187 287.21 180.921 287.502 180.796 288.022C180.675 288.523 180.732 289.03 180.865 289.522C181.007 290.043 181.166 290.305 181.028 290.84C180.904 291.317 180.686 291.725 180.669 292.233C180.637 293.168 181.101 294.153 181.992 294.523C182.624 294.785 183.184 294.746 183.712 294.29C184.85 293.306 186.894 292.163 186.698 290.44C186.85 290.42 187.001 290.402 187.153 290.387C187.625 290.331 188.082 290.266 188.54 290.131C189.367 289.886 190.152 289.491 190.933 289.131C194.66 287.413 198.385 285.691 202.11 283.972C205.836 282.252 209.562 280.532 213.287 278.813C214.73 278.147 216.829 277.626 216.968 275.73C217.027 274.923 216.729 274.066 216.556 273.286Z" fill="#DE9281"/>
<path d="M341.102 311.058C343.279 302.179 342.162 292.804 341.637 283.792C341.322 278.436 341.007 273.08 340.692 267.724C340.625 266.521 339.365 266.11 338.544 266.483C336.702 262.33 335.709 257.824 333.828 253.68C332.272 250.253 329.99 247.484 327.059 245.508C325.36 244.353 323.441 243.455 321.331 242.863C315.307 241.164 308.719 241.536 302.609 242.5C295.754 243.579 289.176 245.889 283.037 249.116C271.485 255.188 261.547 263.952 249.622 269.394C237.373 274.989 223.988 277.433 210.976 280.554C204.579 282.082 198.049 283.647 191.968 286.168C189.161 287.333 186.44 288.908 184.435 291.228C182.411 293.567 181.141 296.383 180.139 299.276C179.032 302.426 177.867 305.758 177.619 309.109C177.371 312.46 178.593 315.563 180.264 318.408C183.147 323.325 186.603 327.974 190.336 332.309C190.938 333.015 191.548 333.703 192.169 334.39C196.561 339.269 201.411 344.405 207.721 346.706C210.241 347.623 212.867 348.033 215.521 348.138C220.428 348.911 225.421 348.654 230.367 348.214C236.582 347.66 242.769 347.278 249.012 347.183C255.198 347.088 261.366 347.011 267.524 347.708C273.854 348.424 280.107 349.054 286.484 348.968C288.68 348.939 290.876 348.844 293.071 348.72C295.343 349.417 297.615 350.114 299.935 350.639C303.487 351.422 307.086 351.641 310.714 351.403C314.218 351.174 317.702 350.668 321.187 350.181C323.001 349.923 324.815 349.656 326.629 349.37C328.128 349.131 329.655 348.931 331.078 348.406C334.171 347.251 335.489 344.759 335.622 341.561C335.756 338.554 335.135 335.546 333.97 332.787C333.092 330.696 331.851 328.777 330.352 327.097C335.956 323.564 339.536 317.416 341.102 311.058Z" fill="#CBE2D0"/>
<path d="M330.352 327.097C331.851 328.777 333.092 330.696 333.97 332.787C335.135 335.546 335.755 338.553 335.622 341.561C335.488 344.759 334.171 347.251 331.078 348.406C329.655 348.931 328.128 349.132 326.629 349.37C324.815 349.656 323.001 349.924 321.187 350.181C317.702 350.668 314.218 351.174 310.714 351.403C307.086 351.642 303.487 351.422 299.935 350.639C297.615 350.114 295.343 349.417 293.071 348.72C290.875 348.844 288.679 348.94 286.484 348.968C280.107 349.054 273.853 348.424 267.524 347.708C261.366 347.011 255.199 347.087 249.012 347.183C242.768 347.278 236.582 347.66 230.367 348.214C225.422 348.653 220.428 348.911 215.521 348.138C212.867 348.033 210.241 347.622 207.721 346.706C201.41 344.405 196.561 339.269 192.169 334.39C191.548 333.703 190.937 333.015 190.336 332.309C189.725 328.462 190.078 324.528 191.673 320.957C194.489 314.666 200.561 310.455 206.767 307.457C212.963 304.459 219.474 301.166 225.938 298.855C248.994 290.635 270.733 276.41 289.416 260.762C295.65 255.54 301.808 249.888 309.417 247.005C315.05 244.876 321.141 244.485 327.06 245.506C329.991 247.482 332.273 250.251 333.829 253.678C335.71 257.821 336.703 262.328 338.545 266.481C339.366 266.109 340.626 266.519 340.693 267.722C341.008 273.078 341.323 278.434 341.638 283.79C342.163 292.802 343.28 302.178 341.103 311.056C339.536 317.416 335.956 323.564 330.352 327.097Z" fill="#ACCEB3"/>
<path d="M248.403 260.073C247.354 255.31 246.226 250.564 245.025 245.837C245.019 245.812 245.007 245.792 245 245.768C246.003 244.362 244.058 242.44 242.913 243.835C240.588 246.668 237.878 249.158 234.79 251.139C233.285 252.104 231.649 252.954 230.41 254.272C229.242 255.515 228.456 257.046 227.24 258.255C222.809 262.667 216.23 264.01 211.727 268.398C211.314 268.8 211.14 269.616 211.494 270.118C213.316 272.702 214.763 275.496 215.763 278.497C215.989 279.174 216.749 279.803 217.512 279.519C226.12 276.316 234.565 272.676 242.786 268.58C243.867 268.041 244.945 267.495 246.018 266.941C246.773 266.551 247.594 266.191 248.185 265.561C249.601 264.052 248.788 261.823 248.403 260.073Z" fill="#ACCEB3"/>
<path d="M317.356 234.602C314.342 230.852 310.338 228.064 306.055 225.938C303.815 224.826 301.496 223.877 299.155 223C296.85 222.136 294.393 221.026 291.968 220.577C289.162 220.057 287.157 221.867 285.067 223.446C282.757 225.191 280.473 226.97 278.219 228.787C273.619 232.495 269.143 236.355 264.801 240.361C262.581 242.409 260.278 244.438 258.268 246.696C256.395 248.801 254.972 251.154 254.759 254.015C254.758 254.031 254.761 254.045 254.76 254.061C248.058 258.773 241.388 263.537 234.623 268.157C231.284 270.438 227.869 272.342 223.986 273.522C220.151 274.687 216.222 275.525 212.641 277.391C212.262 277.588 212.053 277.874 211.966 278.184C211.699 278.486 211.571 278.907 211.727 279.42C213.296 284.578 214.963 289.707 216.736 294.799C217.622 297.345 218.534 299.882 219.472 302.41C219.866 303.472 220.085 304.912 221.222 305.38C222.326 305.834 223.714 305.866 224.883 305.768C227.346 305.562 229.701 304.692 232.034 303.934C234.616 303.095 237.191 302.232 239.758 301.35C244.893 299.585 250.001 297.74 255.089 295.843C265.195 292.075 275.224 288.102 285.25 284.125C289.689 282.364 293.995 280.496 297.543 277.211C300.623 274.36 303.006 270.797 304.949 267.101C307.298 262.634 309.077 257.891 310.927 253.204C313.194 247.461 315.461 241.719 317.727 235.976C317.922 235.489 317.651 234.968 317.356 234.602Z" fill="#CBE2D0"/>
<path d="M222.056 289.004C221.469 286.589 220.859 284.167 219.806 281.91C219.722 281.73 219.628 281.544 219.536 281.359C219.512 281.289 219.475 281.222 219.436 281.156C218.522 279.376 217.21 277.561 215.253 277.2C214.74 276.983 214.192 276.877 213.581 276.99C212.615 277.168 211.832 278.014 211.599 278.92C211.379 279.773 211.567 280.625 211.741 281.467C211.824 281.865 211.916 282.262 212.004 282.659C212.181 286.58 212.678 290.517 214.049 294.19C215.768 298.797 218.617 302.987 221.062 307.217C221.949 308.751 223.936 307.972 224.108 306.396C224.753 300.508 223.436 294.685 222.056 289.004Z" fill="#ACCEB3"/>
<path d="M348.748 276.684C346.046 264.31 341.512 252.415 337.319 240.493C335.359 234.92 333.565 229.251 331.329 223.781C329.55 219.429 327.204 215.156 323.338 212.324C318.758 208.969 312.813 208.928 307.414 209.661C301.534 210.46 295.853 212.43 290.489 214.927C280.386 219.632 271.419 226.518 263.314 234.1C253.289 243.478 244.454 254.018 234.973 263.925C234.009 264.932 234.935 266.338 235.995 266.383C236.289 266.797 236.789 267.034 237.43 266.819C242.112 265.245 247.047 265.398 251.91 264.98C256.57 264.579 260.894 263.407 264.983 261.103C269.149 258.756 272.941 255.709 276.611 252.663C280.312 249.591 283.856 246.33 287.226 242.897C288.903 241.189 290.497 239.408 292.134 237.663C293.527 236.178 295.08 234.583 297.055 233.91C297.946 233.606 299.09 233.4 299.946 233.899C300.817 234.407 301.494 235.51 302.078 236.302C303.252 237.891 304.294 239.577 305.212 241.326C306.299 244.459 306.673 247.9 306.703 251.178C306.768 258.369 305.206 265.53 302.163 272.044C301.608 273.233 302.83 274.81 304.116 273.997C310.426 270.01 317.783 268.131 325.232 268.592C325.436 268.605 325.615 268.57 325.776 268.51C327.269 270.192 328.767 271.878 330.692 273.085C332.992 274.528 335.742 275.155 338.319 275.906L346.998 278.433C348.072 278.745 348.97 277.699 348.748 276.684Z" fill="#ACCEB3"/>
<path d="M358.84 282.938C358.48 278.343 358.253 273.714 357.674 269.141C357.107 264.653 355.579 260.644 353.792 256.519C352.025 252.439 350.533 248.258 349.387 243.961C348.367 240.139 347.622 236.252 347.134 232.33C347.14 232.308 347.149 232.29 347.154 232.266C348.993 223.308 347.902 214.228 347.349 205.2C347.073 200.701 347.135 196.259 347.327 191.76C347.506 187.548 347.341 183.385 345.623 179.471C344.138 176.09 341.631 173.045 340.969 169.342C340.305 165.627 342.128 161.79 340.8 158.133C340.125 156.272 338.719 155.181 337.423 153.776C336.007 152.242 335.034 150.351 334.032 148.536C331.727 144.362 329.423 140.188 327.118 136.015C324.848 131.905 322.579 127.794 320.309 123.684C319.271 120.938 318.188 118.209 317.048 115.503C315.238 111.205 313.293 106.949 310.418 103.244C307.587 99.5968 303.899 96.5998 300.201 93.8708C298.395 92.5378 296.438 91.3618 294.255 90.7658C291.975 90.1428 289.567 90.2088 287.238 90.4538C282.965 90.9048 278.749 91.8128 274.678 93.1918C266.485 95.9678 258.895 100.502 252.648 106.495C251.781 107.327 250.876 108.182 250.429 109.323C250.003 110.411 250.073 111.58 250.104 112.725C250.18 115.534 250.225 118.346 250.336 121.155C250.525 125.911 251.754 131.103 256.685 132.961C257.035 133.093 257.34 133.078 257.595 132.974C264.075 138.686 268.207 146.798 268.838 155.44C268.756 155.574 268.688 155.727 268.65 155.913C266.934 164.368 264.363 172.639 260.916 180.55C257.492 188.411 253.677 196.05 250.81 204.147C247.978 212.146 245.758 220.346 243.816 228.602C242.842 232.74 241.938 236.894 241.06 241.054C240.629 243.096 240.204 245.139 239.781 247.182C239.605 248.032 239.541 249.24 238.983 249.945C238.473 250.589 237.544 250.838 236.835 251.205C230.919 254.266 229.565 262.721 233.69 267.732C234.204 268.357 235.18 268.202 235.715 267.732C243.352 261.031 254.311 260.565 262.797 255.359C264.935 254.047 266.93 252.433 268.506 250.473C270.448 248.057 271.715 245.237 273.401 242.656C276.927 237.26 283.018 234.035 288.289 230.616C291.466 228.555 294.643 226.495 297.82 224.434C299.276 223.49 300.732 222.545 302.189 221.601C303.588 220.694 304.992 219.678 306.553 219.065C312.506 216.726 318.132 222.411 321.357 226.732C325.113 231.764 327.446 237.636 328.376 243.83C328.872 247.136 329.08 250.482 329.715 253.768C330.304 256.817 331.347 259.728 332.853 262.445C336.143 268.381 341.126 273.126 345.379 278.344C350.167 284.22 354.133 290.747 357.258 297.647C357.843 298.937 360.045 298.334 359.936 296.94C359.572 292.271 359.206 287.604 358.84 282.938Z" fill="#CBE2D0"/>
<path d="M281.93 147.077C281.214 145.206 280.546 143.315 279.801 141.454C278.608 138.504 277.223 135.64 275.257 133.129C274.942 132.718 274.608 132.327 274.254 131.936C274.159 131.831 274.063 131.726 273.968 131.621C268.469 125.788 260.468 123.43 254.387 118.37C254.272 118.217 254.12 118.103 253.948 118.026C252.716 117.129 251.16 127.984 253.643 131.335C254.674 132.729 256.603 133.817 256.746 135.679C256.918 137.779 256.24 140.09 255.954 142.161C255.706 143.918 256.135 145.436 258.054 145.865C258.77 146.027 259.496 145.903 260.221 145.97C261.223 146.065 261.128 146.438 261.348 147.326C261.539 148.109 261.883 148.787 262.551 149.264C262.818 149.465 263.276 149.531 263.506 149.741C263.659 149.884 263.592 150.419 263.706 150.791C263.926 151.517 264.489 152.023 265.138 152.376C265.911 152.796 266.131 152.806 266.198 153.751C266.322 155.469 266.399 157.016 267.773 158.267C268.098 158.563 268.46 158.821 268.852 159.021C269.864 159.546 271.038 159.737 272.165 159.46C273.989 159.002 275.688 157.589 277.158 156.462C277.301 156.357 277.444 156.242 277.578 156.128C279.067 154.963 280.461 153.684 281.721 152.271C282.342 151.574 282.905 150.868 282.867 149.875C282.827 148.92 282.273 147.956 281.93 147.077Z" fill="#F5B9A6"/>
<path d="M269.037 152.428C269.006 152.352 268.975 152.275 268.944 152.199C268.857 152.047 268.737 151.928 268.585 151.84C268.509 151.809 268.432 151.778 268.356 151.747C268.195 151.706 268.033 151.706 267.872 151.747C267.661 151.8 267.449 151.853 267.238 151.906C267.111 151.934 267.001 151.991 266.907 152.077C266.797 152.147 266.711 152.24 266.65 152.358C266.583 152.467 266.547 152.584 266.541 152.708C266.515 152.829 266.52 152.95 266.557 153.071C266.588 153.147 266.619 153.224 266.65 153.3C266.738 153.452 266.857 153.571 267.009 153.659C267.085 153.69 267.162 153.721 267.238 153.752C267.399 153.793 267.561 153.793 267.722 153.752L268.356 153.593C268.483 153.565 268.593 153.508 268.687 153.422C268.797 153.352 268.882 153.259 268.944 153.141C269.011 153.032 269.047 152.915 269.053 152.791C269.079 152.67 269.074 152.549 269.037 152.428Z" fill="#DE9281"/>
<path d="M271.824 129.234C269.312 127.001 266.411 125.457 263.413 123.986C260.317 122.467 257.199 120.923 254.891 118.285C254.081 117.36 252.735 118.714 253.541 119.635C257.858 124.57 264.677 125.83 269.65 129.883C274.642 133.952 277.999 139.927 278.751 146.335C278.893 147.543 280.803 147.555 280.66 146.335C279.893 139.788 276.765 133.628 271.824 129.234Z" fill="#DE9281"/>
<path d="M218.645 285.903C217.808 283.558 216.727 281.314 215.574 279.11C215.319 278.324 214.461 277.716 213.538 278.25C209.902 280.35 205.769 281.111 201.774 282.238C199.967 282.748 197.985 283.257 196.443 284.37C195.693 284.911 195.237 285.56 194.681 286.287C194.102 287.044 193.378 287.436 192.589 287.947C189.231 290.121 186.825 293.333 183.929 296.03C182.376 297.477 180.674 298.689 178.988 299.969C178.321 300.475 177.724 301.057 177.55 301.917C177.451 302.406 177.648 302.913 177.516 303.383C177.403 303.786 177.025 304.141 176.757 304.443C175.77 305.557 176.737 307.054 178.133 306.841C180.287 306.512 182.27 304.841 184.083 303.728C184.421 303.521 184.759 303.313 185.097 303.106C185.07 303.224 185.054 303.347 185.052 303.475C185 306.046 187.998 305.353 189.473 304.838C191.447 304.149 193.325 303.215 195.044 302.023C196.687 300.883 198.203 299.554 199.933 298.542C201.811 297.442 203.834 297.162 205.936 296.754C208.192 296.316 210.37 295.584 212.498 294.725C214.471 293.929 216.697 293.162 218.498 292.023C220.639 290.669 219.314 287.776 218.645 285.903Z" fill="#F5B9A6"/>
<path d="M264.815 141.5C264.508 140.635 263.923 139.951 263.291 139.302C262.942 138.944 262.286 138.924 261.941 139.302C261.588 139.688 261.567 140.269 261.941 140.652C262.178 140.895 262.403 141.144 262.622 141.403C262.646 141.437 262.671 141.471 262.694 141.506C262.74 141.574 262.783 141.642 262.824 141.713C262.865 141.783 262.899 141.858 262.94 141.928C262.955 141.953 262.956 141.952 262.962 141.96C262.965 141.97 262.962 141.967 262.968 141.984C262.995 142.07 263.058 142.223 263.067 142.339C263.067 142.346 263.067 142.34 263.068 142.355C263.071 142.392 263.073 142.428 263.074 142.465C263.074 142.478 263.078 142.558 263.077 142.618C263.075 142.629 263.075 142.629 263.07 142.658C263.065 142.682 263.06 142.705 263.055 142.728C263.048 142.758 263.042 142.785 263.038 142.808C263.015 142.861 262.982 142.911 262.958 142.962C262.952 142.975 262.956 142.97 262.953 142.978C262.943 142.987 262.943 142.984 262.923 143.004C262.901 143.028 262.877 143.051 262.853 143.074C262.838 143.087 262.839 143.087 262.831 143.094C262.811 143.107 262.791 143.12 262.77 143.132C262.714 143.166 262.656 143.196 262.597 143.225C262.582 143.232 262.575 143.236 262.565 143.241C262.559 143.243 262.557 143.243 262.549 143.245C262.282 143.322 262.02 143.39 261.745 143.437C261.086 143.549 260.435 143.644 259.792 143.838C259.314 143.982 258.955 144.499 259.111 145.004C259.259 145.484 259.766 145.839 260.277 145.685C261.752 145.24 263.576 145.403 264.558 143.995C265.047 143.294 265.096 142.293 264.815 141.5Z" fill="#DE9281"/>
<path d="M266.888 131.285C266.605 131.026 266.082 130.875 265.741 131.13C265.125 131.59 264.469 131.995 263.779 132.335C263.615 132.416 263.449 132.493 263.281 132.567C263.202 132.602 263.122 132.636 263.042 132.669C262.99 132.689 262.92 132.715 262.9 132.723C262.534 132.861 262.163 132.98 261.786 133.083C261.304 133.215 260.951 133.752 261.105 134.249C261.256 134.739 261.756 135.072 262.271 134.93C262.511 134.864 262.746 134.779 262.983 134.7C263.111 134.924 263.293 135.095 263.555 135.201C263.823 135.31 264.119 135.312 264.397 135.237C264.857 135.113 265.234 134.766 265.573 134.447C266.177 133.878 266.686 133.182 267.044 132.433C267.219 132.063 267.21 131.579 266.888 131.285Z" fill="#4B1927"/>
<path d="M261.747 128.118C261.594 127.622 261.098 127.303 260.581 127.436C259.37 127.749 258.261 128.362 257.334 129.2C256.963 129.535 256.966 130.214 257.334 130.55C257.732 130.914 258.287 130.909 258.684 130.55C258.786 130.458 258.893 130.372 259 130.286C259.413 129.983 259.857 129.729 260.327 129.526C260.569 129.433 260.813 129.348 261.064 129.283C261.55 129.159 261.899 128.609 261.747 128.118Z" fill="#4B1927"/>
<path d="M282.865 149.875C282.903 150.868 282.34 151.574 281.719 152.271C280.459 153.684 279.065 154.963 277.576 156.128C276.831 151.765 276.201 147.383 276.153 142.972C276.134 140.375 276.315 137.759 275.933 135.182C275.847 134.638 275.542 133.903 275.255 133.129C277.222 135.64 278.606 138.504 279.799 141.454C280.544 143.316 281.212 145.206 281.928 147.077C282.273 147.956 282.827 148.92 282.865 149.875Z" fill="#DE9281"/>
<path d="M316.814 164.286C316.697 164.08 316.462 163.885 316.226 163.834C315.989 163.783 315.724 163.794 315.512 163.927C315.284 164.071 315.15 164.262 315.06 164.515C314.796 165.252 314.532 165.989 314.268 166.727C314.191 166.941 314.253 167.25 314.361 167.441C314.478 167.647 314.713 167.842 314.949 167.893C315.186 167.944 315.451 167.933 315.663 167.8C315.891 167.657 316.025 167.465 316.115 167.212C316.379 166.475 316.643 165.738 316.907 165C316.984 164.786 316.923 164.476 316.814 164.286Z" fill="#ACCEB3"/>
<path d="M315.911 194.477C315.703 190.3 314.693 186.319 313.9 182.233C313.135 178.29 312.809 174.05 314.701 170.362C315.26 169.273 313.603 168.321 313.04 169.419C309.152 176.995 313.288 185.294 313.912 193.106C314.614 201.889 312.726 210.594 310.866 219.124C310.605 220.321 312.45 220.814 312.713 219.608C314.511 211.369 316.334 202.962 315.911 194.477Z" fill="#ACCEB3"/>
<path d="M308.336 166.329C294.863 173.752 289.806 189.918 285.283 203.588C283.795 208.084 282.417 212.616 281.138 217.176C280.806 218.359 282.653 218.846 282.985 217.66C285.14 209.973 287.585 202.368 290.338 194.875C292.856 188.021 295.743 181.093 300.456 175.425C302.941 172.437 305.867 169.869 309.278 167.99C310.357 167.395 309.412 165.736 308.336 166.329Z" fill="#ACCEB3"/>
<path d="M280.575 221.516C280.106 221.415 279.499 221.671 279.409 222.198C279.162 223.653 278.768 225.078 278.231 226.452C278.049 226.919 278.449 227.518 278.913 227.618C279.466 227.738 279.884 227.436 280.079 226.937C280.616 225.562 281.011 224.138 281.257 222.683C281.339 222.191 281.109 221.632 280.575 221.516Z" fill="#ACCEB3"/>
<path d="M282.332 190.782C279.282 198.276 271.733 201.981 265.114 205.774C263.631 206.624 261.738 207.58 260.212 208.83C258.925 208.299 257.723 207.503 256.667 206.327C255.845 205.412 254.497 206.765 255.317 207.677C256.357 208.834 257.515 209.687 258.755 210.294C258.17 211.043 257.745 211.881 257.591 212.841C257.346 214.365 258 215.744 258.74 217.03C259.144 217.733 259.58 218.451 259.751 219.168C258.484 219.327 257.208 219.422 255.928 219.452C254.7 219.481 254.696 221.39 255.928 221.361C257.064 221.334 258.194 221.247 259.318 221.124C259.258 221.198 259.196 221.272 259.123 221.345C257.829 222.661 256.12 223.397 254.912 224.847C253.643 226.369 252.786 228.158 252.396 230.101C252.155 231.3 254 231.795 254.243 230.585C254.602 228.798 255.375 227.14 256.617 225.793C257.718 224.599 259.178 223.903 260.354 222.805C260.958 222.241 261.396 221.557 261.618 220.806C265.094 220.217 268.484 219.174 271.707 217.687C272.824 217.171 271.872 215.515 270.764 216.026C267.866 217.363 264.811 218.315 261.682 218.873C261.375 217.486 260.456 216.354 259.859 215.09C259.11 213.501 259.632 212.155 260.683 211.01C265.692 212.438 271.614 210.716 276.424 209.021C277.577 208.614 277.099 206.765 275.94 207.174C271.905 208.597 266.89 210.234 262.503 209.485C263.863 208.561 265.393 207.813 266.435 207.22C269.869 205.264 273.368 203.402 276.506 200.981C279.685 198.528 282.466 195.482 283.995 191.725C284.449 190.604 282.796 189.644 282.332 190.782Z" fill="#ACCEB3"/>
<path d="M305.001 130.273C303.597 136.196 301.993 142.071 300.177 147.881C299.281 150.749 298.335 153.602 297.338 156.437C296.377 159.172 295.507 161.796 293.319 163.808C291.527 165.456 289.42 166.733 287.801 168.57C286.314 170.259 285.206 172.223 284.297 174.272C282.405 178.537 281.284 183.294 278.4 187.051C275.02 191.453 269.462 193.818 263.961 193.435C262.733 193.349 262.74 195.259 263.961 195.344C268.866 195.686 273.765 193.996 277.481 190.786C281.274 187.51 282.982 182.839 284.717 178.287C285.587 176.005 286.506 173.719 287.841 171.662C289.257 169.479 291.224 167.971 293.232 166.371C295.382 164.657 296.954 162.786 297.984 160.216C299.104 157.42 300.032 154.53 300.969 151.668C303.222 144.784 305.178 137.805 306.849 130.757C307.131 129.564 305.286 129.073 305.001 130.273Z" fill="#ACCEB3"/>
<path d="M307.79 122.993C307.625 122.827 307.353 122.703 307.115 122.713C306.868 122.723 306.612 122.805 306.44 122.993C306.259 123.191 306.19 123.403 306.16 123.668C306.155 123.717 306.148 123.766 306.142 123.816C306.024 124.702 305.845 125.579 305.604 126.44C305.469 126.921 305.787 127.498 306.285 127.606C306.797 127.717 307.307 127.439 307.451 126.924C307.75 125.856 307.945 124.769 308.068 123.668C308.095 123.441 307.944 123.147 307.79 122.993Z" fill="#ACCEB3"/>
<path d="M291.011 115.294C290.991 115.038 290.918 114.806 290.731 114.619C290.566 114.454 290.294 114.329 290.056 114.339C289.809 114.349 289.553 114.431 289.381 114.619C289.218 114.798 289.082 115.044 289.101 115.294C289.146 115.878 289.13 116.463 289.064 117.045C289.038 117.224 289.011 117.403 288.974 117.58C288.924 117.824 288.942 118.073 289.067 118.294C289.184 118.5 289.419 118.695 289.655 118.746C290.138 118.85 290.714 118.588 290.821 118.065C291.008 117.155 291.082 116.22 291.011 115.294Z" fill="#ACCEB3"/>
<path d="M289.719 139.219C288.548 142.4 287.358 145.598 285.63 148.527C284.798 149.939 283.843 151.267 282.718 152.461C284.253 148.568 285.555 144.583 286.521 140.477C287.623 135.793 288.298 131.024 288.972 126.264C289.142 125.062 287.297 124.562 287.125 125.78C285.973 133.92 284.592 141.925 281.75 149.671C279.012 157.131 275.327 164.208 271.371 171.085C269.148 174.949 266.829 178.757 264.508 182.563C263.869 183.612 265.528 184.556 266.169 183.506C271.278 175.128 276.448 166.617 280.519 157.65C280.847 157.697 281.181 157.569 281.364 157.163C282.051 155.64 283.367 154.612 284.456 153.391C285.594 152.115 286.582 150.704 287.435 149.224C289.166 146.221 290.372 142.948 291.566 139.705C291.991 138.552 290.141 138.073 289.719 139.219Z" fill="#ACCEB3"/>
<path d="M274.022 127.712C272.209 122.96 270.396 118.208 268.583 113.456C268.149 112.317 266.298 112.793 266.736 113.94C268.549 118.692 270.362 123.444 272.175 128.196C272.609 129.335 274.46 128.86 274.022 127.712Z" fill="#ACCEB3"/>
<path d="M266.48 108.742C266.436 108.576 266.353 108.431 266.231 108.309C266.186 108.274 266.151 108.23 266.112 108.189C266.104 108.175 266.095 108.161 266.088 108.146C266.073 108.094 266.054 108.043 266.047 107.989L266.061 108.098C266.058 108.092 266.054 108.087 266.051 108.08C266.042 107.992 266.036 107.903 265.995 107.823C265.957 107.7 265.89 107.594 265.793 107.505C265.704 107.409 265.598 107.341 265.475 107.303C265.364 107.247 265.245 107.221 265.118 107.225C265.037 107.235 264.957 107.246 264.876 107.256C264.71 107.3 264.565 107.383 264.443 107.505C264.391 107.573 264.339 107.641 264.288 107.709C264.206 107.855 264.164 108.013 264.164 108.18C264.174 108.298 264.188 108.417 264.21 108.534C264.217 108.573 264.227 108.612 264.238 108.65C264.272 108.763 264.321 108.872 264.367 108.98C264.383 109.019 264.4 109.057 264.42 109.094C264.439 109.129 264.46 109.163 264.482 109.196C264.55 109.296 264.625 109.392 264.702 109.485C264.755 109.549 264.816 109.607 264.883 109.659C264.972 109.755 265.078 109.823 265.201 109.861C265.312 109.917 265.431 109.943 265.558 109.939C265.685 109.944 265.804 109.918 265.915 109.861C266.038 109.823 266.144 109.756 266.233 109.659C266.285 109.591 266.337 109.523 266.388 109.455C266.47 109.309 266.512 109.151 266.512 108.983C266.501 108.903 266.49 108.823 266.48 108.742Z" fill="#ACCEB3"/>
<path d="M270.15 101.393C269.315 100.491 267.966 101.842 268.8 102.743C272.733 106.992 275.264 112.351 276.119 118.072C276.301 119.288 278.146 118.791 277.966 117.588C277.063 111.542 274.299 105.876 270.15 101.393Z" fill="#ACCEB3"/>
<path d="M278.205 122.563C278.164 122.049 277.795 121.608 277.25 121.608C276.766 121.608 276.254 122.046 276.295 122.563C276.523 125.402 276.506 128.253 276.245 131.09C276.198 131.604 276.717 132.045 277.2 132.045C277.755 132.045 278.107 131.605 278.155 131.09C278.416 128.254 278.432 125.402 278.205 122.563Z" fill="#ACCEB3"/>
<path d="M356.287 283.087C356.282 283.081 356.278 283.075 356.274 283.069C356.318 282.907 356.34 282.736 356.316 282.559C355.858 279.107 355.033 275.717 353.856 272.441C353.682 271.956 353.22 271.621 352.69 271.759C352.225 271.881 351.833 272.437 352.008 272.925C352.815 275.169 353.442 277.469 353.913 279.803C351.266 276.016 348.94 272.087 347.667 267.547C345.97 261.496 344.852 255.23 343.766 249.046C343.553 247.833 341.708 248.328 341.919 249.53C343.029 255.855 344.151 262.289 345.942 268.463C347.64 274.312 351.039 279.194 354.625 284.031C355.35 285.006 357.017 284.072 356.287 283.087Z" fill="#ACCEB3"/>
<path d="M337.859 168.477C334.283 173.424 329.137 177.181 323.351 179.112C322.189 179.5 322.668 181.349 323.835 180.959C330.148 178.853 335.623 174.81 339.52 169.42C340.238 168.427 338.574 167.489 337.859 168.477Z" fill="#ACCEB3"/>
<path d="M340.791 178.102C340.394 177.705 339.843 177.776 339.441 178.102C336.895 180.166 333.811 181.478 330.58 181.983C330.07 182.063 329.777 182.686 329.899 183.149C330.041 183.691 330.554 183.91 331.065 183.831C334.643 183.271 337.984 181.728 340.792 179.453C341.192 179.127 341.128 178.44 340.791 178.102Z" fill="#ACCEB3"/>
<path d="M318.688 154.327C317.043 154.013 315.372 153.874 313.698 153.993C312.475 154.08 309.845 155.051 309.149 153.656C308.599 152.554 306.941 153.503 307.488 154.599C308.307 156.241 310.137 156.393 311.756 156.155C313.589 155.885 315.371 155.809 317.185 156.034C315.921 158.841 312.086 160.298 309.611 161.666L297.969 168.103C296.892 168.699 297.837 170.358 298.912 169.764C303.14 167.426 307.368 165.088 311.596 162.75C314.634 161.07 318.626 159.28 319.369 155.492C319.464 155.014 319.221 154.429 318.688 154.327Z" fill="#ACCEB3"/>
<path d="M259.939 239.098C257.911 241.931 255.384 244.429 252.514 246.406C251.253 247.275 249.92 248.037 248.545 248.711C248.906 247.637 249.294 246.573 249.654 245.52C250.894 241.905 252.134 238.291 253.373 234.676C253.772 233.514 251.923 233.033 251.526 234.192L247.666 245.445C247.185 246.848 246.667 248.269 246.24 249.709C245.186 250.04 244.082 250.144 243.126 249.535C242.09 248.875 241.147 250.536 242.183 251.196C243.275 251.891 244.507 251.981 245.717 251.772C245.385 253.344 245.225 254.94 245.425 256.566C245.573 257.772 247.484 257.785 247.334 256.566C247.107 254.722 247.36 252.917 247.813 251.144C249.618 250.411 251.347 249.469 252.97 248.395C256.346 246.161 259.245 243.33 261.599 240.042C262.313 239.044 260.649 238.106 259.939 239.098Z" fill="#ACCEB3"/>
<path d="M277.344 270.137C273.888 275.679 268.246 279.157 262.41 281.773C255.878 284.7 249.101 287.135 242.443 289.759C241.298 290.21 242.139 291.925 243.276 291.478C250.198 288.751 257.278 286.256 264.033 283.133C269.88 280.43 275.47 276.751 278.94 271.187C279.588 270.146 277.996 269.09 277.344 270.137Z" fill="#ACCEB3"/>
<path d="M227.542 277.466C226.63 276.454 225.537 275.59 224.349 274.925C223.914 274.681 223.283 274.823 223.047 275.284C222.813 275.742 222.939 276.325 223.406 276.586C223.86 276.84 224.292 277.129 224.709 277.44C225.24 277.858 225.738 278.315 226.191 278.817C226.526 279.188 227.205 279.184 227.541 278.817C227.907 278.418 227.901 277.864 227.542 277.466Z" fill="#ACCEB3"/>
<path d="M229.66 282.816C228.43 282.816 228.429 284.725 229.66 284.725C230.89 284.726 230.891 282.816 229.66 282.816Z" fill="#ACCEB3"/>
<path d="M231.678 287.779C231.086 286.7 229.426 287.645 230.017 288.722C232.225 292.745 232.281 297.461 231.962 301.925C231.874 303.153 233.784 303.146 233.871 301.925C234.215 297.122 234.048 292.097 231.678 287.779Z" fill="#ACCEB3"/>
<path d="M239.649 292.267C239.487 291.743 239.008 291.487 238.483 291.586C236.766 291.908 235.085 292.393 233.46 293.034C232.997 293.217 232.614 293.667 232.779 294.2C232.916 294.645 233.449 295.077 233.945 294.882C235.57 294.241 237.251 293.756 238.968 293.434C239.459 293.34 239.793 292.736 239.649 292.267Z" fill="#ACCEB3"/>
<path d="M211.08 128.335C201.99 149.595 167.16 154.495 154.51 131.095C140.59 105.345 161.73 80.675 183.57 81.775C171.85 88.475 164.59 103.855 173.16 119.715C181.03 134.275 199.12 135.785 211.08 128.335Z" fill="white"/>
</svg>
