<svg width="253" height="156" viewBox="0 0 253 156" fill="none" xmlns="http://www.w3.org/2000/svg">
<rect width="253" height="156" rx="16" fill="#220027" fill-opacity="0.54"/>
<path d="M17.584 15.44V26H15.376V15.44H17.584ZM23.227 26.16C22.4163 26.16 21.675 26.016 21.003 25.728C20.3417 25.44 19.803 25.0347 19.387 24.512L20.651 23.232C20.907 23.616 21.2483 23.9307 21.675 24.176C22.1017 24.4213 22.6083 24.544 23.195 24.544C23.611 24.544 23.9417 24.4853 24.187 24.368C24.443 24.24 24.571 24.0427 24.571 23.776C24.571 23.6053 24.5123 23.4613 24.395 23.344C24.2777 23.216 24.043 23.1147 23.691 23.04L22.283 22.752C21.355 22.56 20.6937 22.272 20.299 21.888C19.915 21.4933 19.723 20.9867 19.723 20.368C19.723 19.9307 19.851 19.52 20.107 19.136C20.3737 18.752 20.7683 18.4427 21.291 18.208C21.8137 17.9627 22.4643 17.84 23.243 17.84C24.043 17.84 24.7363 17.968 25.323 18.224C25.9203 18.4693 26.3897 18.8373 26.731 19.328L25.419 20.608C25.1843 20.2347 24.875 19.952 24.491 19.76C24.1177 19.5573 23.723 19.456 23.307 19.456C23.0083 19.456 22.7523 19.488 22.539 19.552C22.3257 19.616 22.1657 19.7067 22.059 19.824C21.9523 19.9307 21.899 20.0693 21.899 20.24C21.899 20.4107 21.9737 20.56 22.123 20.688C22.2723 20.8053 22.5443 20.9067 22.939 20.992L24.571 21.328C25.3603 21.488 25.9257 21.76 26.267 22.144C26.6083 22.5173 26.779 22.9707 26.779 23.504C26.779 24.016 26.6403 24.4747 26.363 24.88C26.0963 25.2747 25.6963 25.5893 25.163 25.824C24.6403 26.048 23.995 26.16 23.227 26.16ZM30.687 14.496V23.536C30.687 23.9093 30.751 24.1707 30.879 24.32C31.007 24.4693 31.2203 24.544 31.519 24.544C31.7003 24.544 31.8497 24.5333 31.967 24.512C32.0843 24.48 32.2337 24.4373 32.415 24.384L32.223 25.824C32.0417 25.9307 31.8123 26.0107 31.535 26.064C31.2683 26.128 31.0017 26.16 30.735 26.16C29.9563 26.16 29.3857 25.9733 29.023 25.6C28.671 25.216 28.495 24.608 28.495 23.776V14.496H30.687ZM38.2745 20.896C38.2745 20.4373 38.1412 20.08 37.8745 19.824C37.6185 19.568 37.2772 19.44 36.8505 19.44C36.4558 19.44 36.1092 19.5413 35.8105 19.744C35.5118 19.9467 35.2932 20.2827 35.1545 20.752L33.2825 20.176C33.4638 19.472 33.8585 18.9067 34.4665 18.48C35.0852 18.0533 35.9118 17.84 36.9465 17.84C37.6505 17.84 38.2638 17.952 38.7865 18.176C39.3092 18.3893 39.7145 18.7147 40.0025 19.152C40.3012 19.5893 40.4505 20.1387 40.4505 20.8V24.048C40.4505 24.4533 40.6425 24.656 41.0265 24.656C41.2078 24.656 41.3785 24.6293 41.5385 24.576L41.4105 25.936C41.1332 26.0747 40.7865 26.144 40.3705 26.144C39.9972 26.144 39.6612 26.08 39.3625 25.952C39.0638 25.824 38.8292 25.632 38.6585 25.376C38.4878 25.1093 38.4025 24.7787 38.4025 24.384V24.32L38.7865 24.256C38.7225 24.6613 38.5465 25.008 38.2585 25.296C37.9705 25.5733 37.6185 25.7867 37.2025 25.936C36.7972 26.0853 36.3758 26.16 35.9385 26.16C35.3945 26.16 34.9252 26.08 34.5305 25.92C34.1358 25.7493 33.8318 25.504 33.6185 25.184C33.4052 24.864 33.2985 24.4693 33.2985 24C33.2985 23.4027 33.4905 22.9173 33.8745 22.544C34.2585 22.16 34.8078 21.8987 35.5225 21.76L38.5305 21.152L38.5145 22.512L36.5945 22.896C36.2318 22.9707 35.9545 23.072 35.7625 23.2C35.5812 23.3173 35.4905 23.5147 35.4905 23.792C35.4905 24.0587 35.5865 24.2613 35.7785 24.4C35.9812 24.5387 36.2212 24.608 36.4985 24.608C36.7225 24.608 36.9412 24.5813 37.1545 24.528C37.3678 24.4747 37.5598 24.3893 37.7305 24.272C37.9012 24.1547 38.0345 23.9947 38.1305 23.792C38.2265 23.5893 38.2745 23.344 38.2745 23.056V20.896ZM42.902 26V18H44.87L44.95 19.44C45.2167 18.9067 45.5793 18.5067 46.038 18.24C46.5073 17.9733 47.0247 17.84 47.59 17.84C48.166 17.84 48.6833 17.9733 49.142 18.24C49.6113 18.5067 49.9633 18.9013 50.198 19.424C50.3687 19.072 50.598 18.7787 50.886 18.544C51.174 18.3093 51.494 18.1333 51.846 18.016C52.198 17.8987 52.5553 17.84 52.918 17.84C53.4407 17.84 53.9153 17.9467 54.342 18.16C54.7793 18.3733 55.126 18.6933 55.382 19.12C55.638 19.5467 55.766 20.0907 55.766 20.752V26H53.574V21.184C53.574 20.5973 53.446 20.1813 53.19 19.936C52.934 19.6907 52.6033 19.568 52.198 19.568C51.878 19.568 51.5793 19.648 51.302 19.808C51.0353 19.968 50.822 20.208 50.662 20.528C50.5127 20.8373 50.438 21.2267 50.438 21.696V26H48.246V21.184C48.246 20.5973 48.1127 20.1813 47.846 19.936C47.59 19.6907 47.2593 19.568 46.854 19.568C46.5767 19.568 46.2993 19.6427 46.022 19.792C45.7553 19.9413 45.5313 20.176 45.35 20.496C45.1793 20.816 45.094 21.2373 45.094 21.76V26H42.902ZM19.808 34.44C20.6187 34.44 21.312 34.5787 21.888 34.856C22.464 35.1227 22.9067 35.512 23.216 36.024C23.536 36.5253 23.696 37.1333 23.696 37.848C23.696 38.5627 23.536 39.176 23.216 39.688C22.9067 40.1893 22.464 40.5787 21.888 40.856C21.312 41.1227 20.6187 41.256 19.808 41.256H17.584V45H15.376V34.44H19.808ZM19.472 39.512C20.1333 39.512 20.6293 39.3733 20.96 39.096C21.2907 38.808 21.456 38.392 21.456 37.848C21.456 37.2933 21.2907 36.8773 20.96 36.6C20.6293 36.3227 20.1333 36.184 19.472 36.184H17.584V39.512H19.472ZM28.9406 36.84C29.7513 36.84 30.4606 37.0053 31.0686 37.336C31.6873 37.6667 32.1673 38.1413 32.5086 38.76C32.8606 39.3787 33.0366 40.1253 33.0366 41C33.0366 41.864 32.8606 42.6107 32.5086 43.24C32.1673 43.8587 31.6873 44.3333 31.0686 44.664C30.4606 44.9947 29.7513 45.16 28.9406 45.16C28.1406 45.16 27.4313 44.9947 26.8126 44.664C26.194 44.3333 25.7086 43.8587 25.3566 43.24C25.0153 42.6107 24.8446 41.864 24.8446 41C24.8446 40.1253 25.0153 39.3787 25.3566 38.76C25.7086 38.1413 26.194 37.6667 26.8126 37.336C27.4313 37.0053 28.1406 36.84 28.9406 36.84ZM28.9406 38.472C28.5353 38.472 28.1886 38.568 27.9006 38.76C27.6233 38.9413 27.41 39.2187 27.2606 39.592C27.1113 39.9653 27.0366 40.4347 27.0366 41C27.0366 41.5653 27.1113 42.0347 27.2606 42.408C27.41 42.7813 27.6233 43.064 27.9006 43.256C28.1886 43.4373 28.5353 43.528 28.9406 43.528C29.3353 43.528 29.6713 43.4373 29.9486 43.256C30.2366 43.064 30.4553 42.7813 30.6046 42.408C30.754 42.0347 30.8286 41.5653 30.8286 41C30.8286 40.4347 30.754 39.9653 30.6046 39.592C30.4553 39.2187 30.2366 38.9413 29.9486 38.76C29.6713 38.568 29.3353 38.472 28.9406 38.472ZM34.8708 48.36V37H36.8388L36.9828 39.544L36.7108 39.256C36.8068 38.7867 36.9828 38.3707 37.2388 38.008C37.5054 37.6453 37.8414 37.3627 38.2468 37.16C38.6521 36.9467 39.1054 36.84 39.6068 36.84C40.2574 36.84 40.8388 37.0053 41.3508 37.336C41.8628 37.6667 42.2628 38.1413 42.5508 38.76C42.8494 39.368 42.9988 40.1093 42.9988 40.984C42.9988 41.8587 42.8494 42.6107 42.5508 43.24C42.2521 43.8587 41.8414 44.3333 41.3188 44.664C40.8068 44.9947 40.2201 45.16 39.5588 45.16C38.8548 45.16 38.2681 44.9627 37.7988 44.568C37.3401 44.1733 37.0254 43.6773 36.8548 43.08L37.0628 42.744V48.36H34.8708ZM38.9188 43.48C39.5054 43.48 39.9641 43.272 40.2948 42.856C40.6361 42.4293 40.8068 41.8107 40.8068 41C40.8068 40.1893 40.6414 39.576 40.3108 39.16C39.9908 38.7333 39.5374 38.52 38.9508 38.52C38.5774 38.52 38.2468 38.6213 37.9588 38.824C37.6814 39.016 37.4628 39.2987 37.3028 39.672C37.1428 40.0347 37.0628 40.4773 37.0628 41C37.0628 41.512 37.1374 41.9547 37.2868 42.328C37.4361 42.7013 37.6494 42.9893 37.9268 43.192C38.2148 43.384 38.5454 43.48 38.9188 43.48ZM47.686 45.16C47.1527 45.16 46.6727 45.064 46.246 44.872C45.8193 44.68 45.478 44.376 45.222 43.96C44.9767 43.5333 44.854 42.984 44.854 42.312V37H47.046V41.784C47.046 42.4027 47.174 42.8347 47.43 43.08C47.686 43.3147 48.054 43.432 48.534 43.432C48.758 43.432 48.9767 43.3947 49.19 43.32C49.4033 43.2347 49.59 43.1067 49.75 42.936C49.9207 42.7653 50.054 42.5467 50.15 42.28C50.246 42.0027 50.294 41.6773 50.294 41.304V37H52.486V45H50.534L50.454 43.608C50.1873 44.1413 49.8193 44.536 49.35 44.792C48.8913 45.0373 48.3367 45.16 47.686 45.16ZM56.9526 33.496V42.536C56.9526 42.9093 57.0166 43.1707 57.1446 43.32C57.2726 43.4693 57.486 43.544 57.7846 43.544C57.966 43.544 58.1153 43.5333 58.2326 43.512C58.35 43.48 58.4993 43.4373 58.6806 43.384L58.4886 44.824C58.3073 44.9307 58.078 45.0107 57.8006 45.064C57.534 45.128 57.2673 45.16 57.0006 45.16C56.222 45.16 55.6513 44.9733 55.2886 44.6C54.9366 44.216 54.7606 43.608 54.7606 42.776V33.496H56.9526ZM64.5401 39.896C64.5401 39.4373 64.4068 39.08 64.1401 38.824C63.8841 38.568 63.5428 38.44 63.1161 38.44C62.7215 38.44 62.3748 38.5413 62.0761 38.744C61.7775 38.9467 61.5588 39.2827 61.4201 39.752L59.5481 39.176C59.7295 38.472 60.1241 37.9067 60.7321 37.48C61.3508 37.0533 62.1775 36.84 63.2121 36.84C63.9161 36.84 64.5295 36.952 65.0521 37.176C65.5748 37.3893 65.9801 37.7147 66.2681 38.152C66.5668 38.5893 66.7161 39.1387 66.7161 39.8V43.048C66.7161 43.4533 66.9081 43.656 67.2921 43.656C67.4735 43.656 67.6441 43.6293 67.8041 43.576L67.6761 44.936C67.3988 45.0747 67.0521 45.144 66.6361 45.144C66.2628 45.144 65.9268 45.08 65.6281 44.952C65.3295 44.824 65.0948 44.632 64.9241 44.376C64.7535 44.1093 64.6681 43.7787 64.6681 43.384V43.32L65.0521 43.256C64.9881 43.6613 64.8121 44.008 64.5241 44.296C64.2361 44.5733 63.8841 44.7867 63.4681 44.936C63.0628 45.0853 62.6415 45.16 62.2041 45.16C61.6601 45.16 61.1908 45.08 60.7961 44.92C60.4015 44.7493 60.0975 44.504 59.8841 44.184C59.6708 43.864 59.5641 43.4693 59.5641 43C59.5641 42.4027 59.7561 41.9173 60.1401 41.544C60.5241 41.16 61.0735 40.8987 61.7881 40.76L64.7961 40.152L64.7801 41.512L62.8601 41.896C62.4975 41.9707 62.2201 42.072 62.0281 42.2C61.8468 42.3173 61.7561 42.5147 61.7561 42.792C61.7561 43.0587 61.8521 43.2613 62.0441 43.4C62.2468 43.5387 62.4868 43.608 62.7641 43.608C62.9881 43.608 63.2068 43.5813 63.4201 43.528C63.6335 43.4747 63.8255 43.3893 63.9961 43.272C64.1668 43.1547 64.3001 42.9947 64.3961 42.792C64.4921 42.5893 64.5401 42.344 64.5401 42.056V39.896ZM71.6871 34.552V42.392C71.6871 42.776 71.7831 43.0587 71.9751 43.24C72.1778 43.4107 72.4498 43.496 72.7911 43.496C73.0578 43.496 73.2925 43.4587 73.4951 43.384C73.6978 43.2987 73.8791 43.1867 74.0391 43.048L74.3911 44.504C74.1351 44.7067 73.8151 44.8667 73.4311 44.984C73.0471 45.1013 72.6418 45.16 72.2151 45.16C71.6818 45.16 71.2071 45.08 70.7911 44.92C70.3858 44.76 70.0658 44.504 69.8311 44.152C69.6071 43.8 69.4951 43.3307 69.4951 42.744V35.16L71.6871 34.552ZM74.2471 37V38.632H68.0231V37H74.2471ZM76.8341 35.848C76.3755 35.848 76.0341 35.752 75.8101 35.56C75.5861 35.3573 75.4741 35.064 75.4741 34.68C75.4741 34.2853 75.5861 33.992 75.8101 33.8C76.0341 33.5973 76.3755 33.496 76.8341 33.496C77.2928 33.496 77.6341 33.5973 77.8581 33.8C78.0821 33.992 78.1941 34.2853 78.1941 34.68C78.1941 35.064 78.0821 35.3573 77.8581 35.56C77.6341 35.752 77.2928 35.848 76.8341 35.848ZM77.9221 37V45H75.7301V37H77.9221ZM83.8938 36.84C84.7044 36.84 85.4138 37.0053 86.0218 37.336C86.6404 37.6667 87.1204 38.1413 87.4618 38.76C87.8138 39.3787 87.9898 40.1253 87.9898 41C87.9898 41.864 87.8138 42.6107 87.4618 43.24C87.1204 43.8587 86.6404 44.3333 86.0218 44.664C85.4138 44.9947 84.7044 45.16 83.8938 45.16C83.0938 45.16 82.3844 44.9947 81.7658 44.664C81.1471 44.3333 80.6618 43.8587 80.3098 43.24C79.9684 42.6107 79.7978 41.864 79.7978 41C79.7978 40.1253 79.9684 39.3787 80.3098 38.76C80.6618 38.1413 81.1471 37.6667 81.7658 37.336C82.3844 37.0053 83.0938 36.84 83.8938 36.84ZM83.8938 38.472C83.4884 38.472 83.1418 38.568 82.8538 38.76C82.5764 38.9413 82.3631 39.2187 82.2138 39.592C82.0644 39.9653 81.9898 40.4347 81.9898 41C81.9898 41.5653 82.0644 42.0347 82.2138 42.408C82.3631 42.7813 82.5764 43.064 82.8538 43.256C83.1418 43.4373 83.4884 43.528 83.8938 43.528C84.2884 43.528 84.6244 43.4373 84.9018 43.256C85.1898 43.064 85.4084 42.7813 85.5578 42.408C85.7071 42.0347 85.7818 41.5653 85.7818 41C85.7818 40.4347 85.7071 39.9653 85.5578 39.592C85.4084 39.2187 85.1898 38.9413 84.9018 38.76C84.6244 38.568 84.2884 38.472 83.8938 38.472ZM89.8239 45V37H91.7919L91.9199 39.4L91.6479 39.144C91.7759 38.6213 91.9785 38.1893 92.2559 37.848C92.5332 37.5067 92.8692 37.256 93.2639 37.096C93.6692 36.9253 94.1119 36.84 94.5919 36.84C95.1465 36.84 95.6372 36.9467 96.0639 37.16C96.5012 37.3733 96.8425 37.6987 97.0879 38.136C97.3439 38.5627 97.4719 39.1013 97.4719 39.752V45H95.2799V40.376C95.2799 39.6933 95.1465 39.224 94.8799 38.968C94.6132 38.7013 94.2665 38.568 93.8399 38.568C93.5412 38.568 93.2479 38.6427 92.9599 38.792C92.6825 38.9307 92.4532 39.16 92.2719 39.48C92.1012 39.8 92.0159 40.2267 92.0159 40.76V45H89.8239Z" fill="#F1F1F1"/>
<path d="M73.2564 116.091C79.255 109.566 82.5545 101.008 82.4889 92.1445C82.4233 83.2815 78.9975 74.7733 72.903 68.3378C66.8085 61.9023 58.4993 58.0188 49.6529 57.4712C40.8065 56.9237 32.0818 59.7529 25.2402 65.3877C18.3986 71.0225 13.9497 79.0432 12.7916 87.8306C11.6336 96.6179 13.8526 105.517 19.0007 112.732C24.1489 119.947 31.8427 124.94 40.5289 126.703C49.2151 128.466 58.2467 126.868 65.8005 122.231L60.1505 113.027C54.9277 116.233 48.683 117.338 42.6772 116.119C36.6713 114.9 31.3517 111.448 27.7921 106.459C24.2326 101.471 22.6983 95.3175 23.499 89.2417C24.2997 83.1659 27.3758 77.6202 32.1062 73.7242C36.8367 69.8281 42.8691 67.872 48.9857 68.2506C55.1023 68.6291 60.8475 71.3143 65.0614 75.764C69.2752 80.2136 71.6439 86.0963 71.6893 92.2245C71.7346 98.3526 69.4533 104.27 65.3057 108.781L73.2564 116.091Z" fill="#DEDEDE"/>
<path d="M82.483 92.0989C82.4104 83.7658 79.3669 75.732 73.8998 69.4426C68.4328 63.1532 60.9009 59.0208 52.6591 57.7889C44.4173 56.557 36.0063 58.3063 28.9391 62.7222C21.8718 67.138 16.6122 73.9307 14.1061 81.8783C11.6 89.826 12.012 98.4071 15.2679 106.078C18.5239 113.749 24.4101 120.007 31.8679 123.725C39.3256 127.444 47.8655 128.379 55.9514 126.363C64.0373 124.347 71.1386 119.513 75.978 112.728L67.1858 106.457C63.8397 111.147 58.9297 114.49 53.3389 115.884C47.7481 117.278 41.8435 116.631 36.687 114.06C31.5305 111.489 27.4606 107.162 25.2094 101.858C22.9582 96.5545 22.6733 90.6214 24.4061 85.1262C26.1388 79.631 29.7755 74.9344 34.6619 71.8811C39.5484 68.8279 45.3639 67.6184 51.0625 68.4702C56.7611 69.322 61.9688 72.1791 65.7489 76.5278C69.5289 80.8764 71.6333 86.4312 71.6834 92.1929L82.483 92.0989Z" fill="#AF81FB"/>
<path d="M34.7147 59.8109C28.4479 62.2655 23.0218 66.4749 19.0864 71.9348C15.1511 77.3946 12.8734 83.8734 12.5264 90.5948C12.1793 97.3162 13.7776 103.995 17.1297 109.831C20.4818 115.667 25.4456 120.413 31.4262 123.5C37.4069 126.587 44.1507 127.884 50.8498 127.236C57.5488 126.588 63.9189 124.022 69.1967 119.845C74.4745 115.669 78.4363 110.06 80.6073 103.689C82.7783 97.3185 83.0664 90.4571 81.4371 83.927L70.9584 86.5414C72.0849 91.0565 71.8857 95.8006 70.3846 100.205C68.8836 104.61 66.1443 108.489 62.4951 111.376C58.8459 114.264 54.4415 116.038 49.8096 116.486C45.1777 116.934 40.5149 116.038 36.3797 113.903C32.2446 111.769 28.8125 108.487 26.4948 104.452C24.1771 100.417 23.072 95.799 23.312 91.1517C23.5519 86.5044 25.1267 82.0248 27.8477 78.2497C30.5687 74.4746 34.3205 71.5642 38.6535 69.867L34.7147 59.8109Z" fill="#E7DF30"/>
<rect x="103" y="67" width="127" height="22" rx="5" fill="#675F75" fill-opacity="0.64"/>
<path d="M110.418 74.08V82H109.458V74.08H110.418ZM114.883 82.12C114.299 82.12 113.759 81.996 113.263 81.748C112.775 81.5 112.399 81.148 112.135 80.692L112.951 80.104C113.127 80.472 113.383 80.76 113.719 80.968C114.063 81.176 114.475 81.28 114.955 81.28C115.379 81.28 115.711 81.2 115.951 81.04C116.191 80.872 116.311 80.656 116.311 80.392C116.311 80.224 116.255 80.072 116.143 79.936C116.039 79.792 115.835 79.688 115.531 79.624L114.091 79.324C113.507 79.204 113.087 79.004 112.831 78.724C112.583 78.444 112.459 78.096 112.459 77.68C112.459 77.352 112.551 77.052 112.735 76.78C112.927 76.508 113.195 76.292 113.539 76.132C113.891 75.964 114.303 75.88 114.775 75.88C115.367 75.88 115.867 75.996 116.275 76.228C116.683 76.46 116.987 76.788 117.187 77.212L116.383 77.74C116.247 77.388 116.027 77.132 115.723 76.972C115.419 76.804 115.103 76.72 114.775 76.72C114.487 76.72 114.239 76.76 114.031 76.84C113.831 76.92 113.675 77.032 113.563 77.176C113.459 77.312 113.407 77.468 113.407 77.644C113.407 77.82 113.467 77.984 113.587 78.136C113.707 78.28 113.931 78.384 114.259 78.448L115.759 78.76C116.319 78.872 116.711 79.056 116.935 79.312C117.159 79.568 117.271 79.88 117.271 80.248C117.271 80.624 117.171 80.956 116.971 81.244C116.771 81.524 116.491 81.74 116.131 81.892C115.771 82.044 115.355 82.12 114.883 82.12ZM119.964 73.24V80.476C119.964 80.78 120.02 80.992 120.132 81.112C120.244 81.224 120.424 81.28 120.672 81.28C120.832 81.28 120.964 81.268 121.068 81.244C121.172 81.22 121.312 81.176 121.488 81.112L121.332 81.952C121.204 82.008 121.064 82.048 120.912 82.072C120.76 82.104 120.604 82.12 120.444 82.12C119.956 82.12 119.592 81.988 119.352 81.724C119.12 81.46 119.004 81.056 119.004 80.512V73.24H119.964ZM126.224 78.124C126.224 77.676 126.104 77.332 125.864 77.092C125.624 76.844 125.284 76.72 124.844 76.72C124.428 76.72 124.076 76.812 123.788 76.996C123.5 77.172 123.288 77.46 123.152 77.86L122.372 77.38C122.532 76.932 122.828 76.572 123.26 76.3C123.692 76.02 124.228 75.88 124.868 75.88C125.3 75.88 125.692 75.956 126.044 76.108C126.396 76.252 126.672 76.476 126.872 76.78C127.08 77.076 127.184 77.46 127.184 77.932V80.836C127.184 81.124 127.336 81.268 127.64 81.268C127.792 81.268 127.94 81.248 128.084 81.208L128.036 81.964C127.876 82.044 127.668 82.084 127.412 82.084C127.18 82.084 126.972 82.04 126.788 81.952C126.604 81.864 126.46 81.732 126.356 81.556C126.252 81.372 126.2 81.144 126.2 80.872V80.752L126.44 80.788C126.344 81.1 126.18 81.356 125.948 81.556C125.716 81.748 125.456 81.892 125.168 81.988C124.88 82.076 124.596 82.12 124.316 82.12C123.964 82.12 123.636 82.06 123.332 81.94C123.028 81.82 122.784 81.64 122.6 81.4C122.424 81.152 122.336 80.848 122.336 80.488C122.336 80.04 122.484 79.672 122.78 79.384C123.084 79.088 123.504 78.888 124.04 78.784L126.416 78.316V79.108L124.484 79.504C124.092 79.584 123.8 79.696 123.608 79.84C123.416 79.984 123.32 80.184 123.32 80.44C123.32 80.688 123.416 80.892 123.608 81.052C123.808 81.204 124.088 81.28 124.448 81.28C124.68 81.28 124.9 81.252 125.108 81.196C125.324 81.132 125.516 81.04 125.684 80.92C125.852 80.792 125.984 80.636 126.08 80.452C126.176 80.26 126.224 80.036 126.224 79.78V78.124ZM129.516 82V76H130.356L130.416 76.936C130.632 76.568 130.912 76.3 131.256 76.132C131.608 75.964 131.968 75.88 132.336 75.88C132.76 75.88 133.16 75.976 133.536 76.168C133.912 76.36 134.2 76.656 134.4 77.056C134.528 76.784 134.708 76.564 134.94 76.396C135.172 76.22 135.424 76.092 135.696 76.012C135.976 75.924 136.24 75.88 136.488 75.88C136.872 75.88 137.236 75.96 137.58 76.12C137.932 76.28 138.22 76.528 138.444 76.864C138.668 77.2 138.78 77.632 138.78 78.16V82H137.82V78.256C137.82 77.712 137.684 77.32 137.412 77.08C137.14 76.84 136.804 76.72 136.404 76.72C136.092 76.72 135.8 76.796 135.528 76.948C135.256 77.1 135.036 77.324 134.868 77.62C134.708 77.916 134.628 78.28 134.628 78.712V82H133.668V78.256C133.668 77.712 133.532 77.32 133.26 77.08C132.988 76.84 132.652 76.72 132.252 76.72C131.988 76.72 131.716 76.792 131.436 76.936C131.164 77.072 130.936 77.292 130.752 77.596C130.568 77.9 130.476 78.3 130.476 78.796V82H129.516Z" fill="#AF81FB"/>
<path d="M169.162 82V81.064C169.922 80.52 170.558 80.04 171.07 79.624C171.59 79.208 172.006 78.824 172.318 78.472C172.63 78.12 172.854 77.788 172.99 77.476C173.134 77.156 173.206 76.832 173.206 76.504C173.206 76.08 173.074 75.736 172.81 75.472C172.546 75.208 172.178 75.076 171.706 75.076C171.21 75.076 170.814 75.244 170.518 75.58C170.23 75.908 170.066 76.36 170.026 76.936L168.91 76.42C168.966 75.916 169.114 75.48 169.354 75.112C169.594 74.744 169.918 74.46 170.326 74.26C170.742 74.06 171.222 73.96 171.766 73.96C172.214 73.96 172.606 74.024 172.942 74.152C173.286 74.28 173.574 74.46 173.806 74.692C174.038 74.916 174.214 75.18 174.334 75.484C174.462 75.788 174.526 76.112 174.526 76.456C174.526 76.96 174.402 77.448 174.154 77.92C173.906 78.384 173.514 78.86 172.978 79.348C172.442 79.836 171.738 80.36 170.866 80.92V80.944C170.962 80.928 171.094 80.92 171.262 80.92C171.43 80.912 171.598 80.908 171.766 80.908C171.934 80.9 172.07 80.896 172.174 80.896H174.67V82H169.162ZM179.464 82V80.02H175.6V79.144C175.616 79.104 175.64 79.056 175.672 79C175.712 78.944 175.756 78.88 175.804 78.808L179.104 74.08H180.676V79.024H182.02V80.02H180.676V82H179.464ZM176.8 79.024H179.464V76.228C179.464 76.036 179.468 75.84 179.476 75.64C179.492 75.432 179.504 75.228 179.512 75.028H179.488C179.4 75.22 179.284 75.432 179.14 75.664C179.004 75.888 178.876 76.084 178.756 76.252L176.884 78.916C176.868 78.932 176.852 78.948 176.836 78.964C176.828 78.98 176.816 79 176.8 79.024ZM184.076 80.38C184.348 80.38 184.564 80.46 184.724 80.62C184.892 80.772 184.976 80.98 184.976 81.244C184.976 81.508 184.892 81.72 184.724 81.88C184.564 82.04 184.348 82.12 184.076 82.12C183.796 82.12 183.572 82.04 183.404 81.88C183.244 81.72 183.164 81.508 183.164 81.244C183.164 80.98 183.244 80.772 183.404 80.62C183.572 80.46 183.796 80.38 184.076 80.38ZM189.265 73.96C189.945 73.96 190.517 74.128 190.981 74.464C191.453 74.8 191.805 75.272 192.037 75.88C192.277 76.488 192.397 77.204 192.397 78.028C192.397 78.94 192.273 79.7 192.025 80.308C191.777 80.908 191.421 81.36 190.957 81.664C190.493 81.968 189.933 82.12 189.277 82.12C188.605 82.12 188.029 81.972 187.549 81.676C187.069 81.38 186.709 80.936 186.469 80.344L187.681 79.78C187.793 80.156 187.977 80.456 188.233 80.68C188.497 80.904 188.853 81.016 189.301 81.016C189.669 81.016 189.977 80.944 190.225 80.8C190.473 80.656 190.669 80.448 190.813 80.176C190.965 79.904 191.073 79.576 191.137 79.192C191.201 78.808 191.233 78.376 191.233 77.896C191.233 77.872 191.233 77.852 191.233 77.836C191.233 77.812 191.233 77.788 191.233 77.764H191.185C191.097 78.084 190.937 78.344 190.705 78.544C190.481 78.744 190.225 78.892 189.937 78.988C189.649 79.076 189.361 79.12 189.073 79.12C188.561 79.12 188.105 79.02 187.705 78.82C187.313 78.612 187.005 78.324 186.781 77.956C186.557 77.588 186.445 77.152 186.445 76.648C186.445 76.096 186.557 75.62 186.781 75.22C187.013 74.82 187.337 74.512 187.753 74.296C188.177 74.072 188.681 73.96 189.265 73.96ZM189.277 75.088C188.773 75.088 188.385 75.224 188.113 75.496C187.849 75.768 187.717 76.148 187.717 76.636C187.717 77.068 187.857 77.408 188.137 77.656C188.425 77.896 188.805 78.016 189.277 78.016C189.581 78.016 189.849 77.956 190.081 77.836C190.313 77.708 190.493 77.536 190.621 77.32C190.757 77.104 190.825 76.852 190.825 76.564C190.825 76.26 190.757 76 190.621 75.784C190.493 75.56 190.313 75.388 190.081 75.268C189.849 75.148 189.581 75.088 189.277 75.088ZM195.255 82L200.439 74.08H201.543L196.371 82H195.255ZM195.567 73.96C195.975 73.96 196.327 74.052 196.623 74.236C196.927 74.42 197.159 74.676 197.319 75.004C197.487 75.332 197.571 75.72 197.571 76.168C197.571 76.608 197.487 76.996 197.319 77.332C197.159 77.66 196.927 77.916 196.623 78.1C196.327 78.284 195.975 78.376 195.567 78.376C195.167 78.376 194.815 78.284 194.511 78.1C194.207 77.916 193.971 77.66 193.803 77.332C193.643 76.996 193.563 76.608 193.563 76.168C193.563 75.72 193.643 75.332 193.803 75.004C193.971 74.676 194.207 74.42 194.511 74.236C194.815 74.052 195.167 73.96 195.567 73.96ZM195.567 74.896C195.367 74.896 195.195 74.948 195.051 75.052C194.907 75.148 194.799 75.292 194.727 75.484C194.655 75.668 194.619 75.896 194.619 76.168C194.619 76.432 194.655 76.66 194.727 76.852C194.799 77.044 194.907 77.188 195.051 77.284C195.195 77.38 195.367 77.428 195.567 77.428C195.775 77.428 195.951 77.38 196.095 77.284C196.239 77.188 196.347 77.044 196.419 76.852C196.491 76.66 196.527 76.432 196.527 76.168C196.527 75.896 196.491 75.668 196.419 75.484C196.347 75.292 196.239 75.148 196.095 75.052C195.951 74.948 195.775 74.896 195.567 74.896ZM201.231 77.704C201.639 77.704 201.991 77.796 202.287 77.98C202.591 78.164 202.823 78.424 202.983 78.76C203.151 79.088 203.235 79.472 203.235 79.912C203.235 80.36 203.151 80.748 202.983 81.076C202.823 81.404 202.591 81.66 202.287 81.844C201.991 82.028 201.639 82.12 201.231 82.12C200.831 82.12 200.479 82.028 200.175 81.844C199.871 81.66 199.635 81.404 199.467 81.076C199.307 80.748 199.227 80.36 199.227 79.912C199.227 79.472 199.307 79.088 199.467 78.76C199.635 78.424 199.871 78.164 200.175 77.98C200.479 77.796 200.831 77.704 201.231 77.704ZM201.231 78.652C201.031 78.652 200.859 78.7 200.715 78.796C200.571 78.892 200.463 79.036 200.391 79.228C200.319 79.412 200.283 79.64 200.283 79.912C200.283 80.176 200.319 80.404 200.391 80.596C200.463 80.788 200.571 80.936 200.715 81.04C200.859 81.136 201.031 81.184 201.231 81.184C201.439 81.184 201.615 81.136 201.759 81.04C201.903 80.936 202.011 80.788 202.083 80.596C202.155 80.404 202.191 80.176 202.191 79.912C202.191 79.648 202.155 79.42 202.083 79.228C202.011 79.036 201.903 78.892 201.759 78.796C201.615 78.7 201.439 78.652 201.231 78.652Z" fill="#AF81FB"/>
<rect x="103" y="95" width="126" height="22" rx="5" fill="#675F75" fill-opacity="0.64"/>
<path d="M112.859 101.96C113.611 101.96 114.259 102.128 114.803 102.464C115.355 102.792 115.779 103.26 116.075 103.868C116.379 104.476 116.531 105.2 116.531 106.04C116.531 106.88 116.379 107.604 116.075 108.212C115.779 108.82 115.355 109.292 114.803 109.628C114.259 109.956 113.611 110.12 112.859 110.12C112.107 110.12 111.455 109.956 110.903 109.628C110.359 109.292 109.935 108.82 109.631 108.212C109.335 107.604 109.187 106.88 109.187 106.04C109.187 105.2 109.335 104.476 109.631 103.868C109.935 103.26 110.359 102.792 110.903 102.464C111.455 102.128 112.107 101.96 112.859 101.96ZM112.859 102.86C112.315 102.86 111.843 102.988 111.443 103.244C111.043 103.492 110.735 103.856 110.519 104.336C110.303 104.808 110.195 105.376 110.195 106.04C110.195 106.704 110.303 107.276 110.519 107.756C110.735 108.228 111.043 108.592 111.443 108.848C111.843 109.096 112.315 109.22 112.859 109.22C113.411 109.22 113.883 109.096 114.275 108.848C114.675 108.592 114.983 108.228 115.199 107.756C115.415 107.276 115.523 106.704 115.523 106.04C115.523 105.376 115.415 104.808 115.199 104.336C114.983 103.856 114.675 103.492 114.275 103.244C113.883 102.988 113.411 102.86 112.859 102.86ZM119.88 102.296V108.344C119.88 108.64 119.964 108.86 120.132 109.004C120.3 109.148 120.516 109.22 120.78 109.22C121.012 109.22 121.212 109.18 121.38 109.1C121.548 109.02 121.7 108.912 121.836 108.776L122.172 109.58C121.988 109.748 121.768 109.88 121.512 109.976C121.264 110.072 120.976 110.12 120.648 110.12C120.344 110.12 120.06 110.068 119.796 109.964C119.532 109.852 119.32 109.68 119.16 109.448C119.008 109.208 118.928 108.896 118.92 108.512V102.56L119.88 102.296ZM122.064 104V104.828H117.72V104H122.064ZM123.491 110V101.24H124.451V104.9C124.659 104.54 124.935 104.28 125.279 104.12C125.623 103.96 125.999 103.88 126.407 103.88C126.839 103.88 127.231 103.964 127.583 104.132C127.935 104.292 128.215 104.54 128.423 104.876C128.639 105.212 128.747 105.64 128.747 106.16V110H127.787V106.496C127.787 105.832 127.643 105.372 127.355 105.116C127.075 104.852 126.727 104.72 126.311 104.72C126.023 104.72 125.735 104.788 125.447 104.924C125.159 105.06 124.919 105.284 124.727 105.596C124.543 105.9 124.451 106.308 124.451 106.82V110H123.491ZM133.429 110.12C132.861 110.12 132.353 109.996 131.905 109.748C131.465 109.5 131.121 109.144 130.873 108.68C130.625 108.208 130.501 107.648 130.501 107C130.501 106.352 130.625 105.796 130.873 105.332C131.121 104.86 131.461 104.5 131.893 104.252C132.325 104.004 132.817 103.88 133.369 103.88C133.929 103.88 134.405 104 134.797 104.24C135.197 104.48 135.501 104.808 135.709 105.224C135.917 105.632 136.021 106.092 136.021 106.604C136.021 106.74 136.017 106.864 136.009 106.976C136.001 107.088 135.989 107.188 135.973 107.276H131.125V106.424H135.553L135.061 106.52C135.061 105.944 134.901 105.5 134.581 105.188C134.269 104.876 133.857 104.72 133.345 104.72C132.953 104.72 132.613 104.812 132.325 104.996C132.045 105.172 131.825 105.432 131.665 105.776C131.513 106.112 131.437 106.52 131.437 107C131.437 107.472 131.517 107.88 131.677 108.224C131.837 108.568 132.061 108.832 132.349 109.016C132.645 109.192 132.997 109.28 133.405 109.28C133.845 109.28 134.201 109.196 134.473 109.028C134.753 108.86 134.977 108.632 135.145 108.344L135.901 108.788C135.749 109.06 135.553 109.296 135.313 109.496C135.081 109.696 134.805 109.852 134.485 109.964C134.173 110.068 133.821 110.12 133.429 110.12ZM137.846 110V104H138.626L138.758 104.984C138.926 104.616 139.17 104.34 139.49 104.156C139.818 103.972 140.214 103.88 140.678 103.88C140.782 103.88 140.894 103.888 141.014 103.904C141.142 103.92 141.25 103.952 141.338 104L141.17 104.876C141.082 104.844 140.986 104.82 140.882 104.804C140.778 104.788 140.63 104.78 140.438 104.78C140.19 104.78 139.938 104.852 139.682 104.996C139.434 105.14 139.226 105.36 139.058 105.656C138.89 105.944 138.806 106.312 138.806 106.76V110H137.846Z" fill="#ADA602"/>
<path d="M170.882 102.08H176.918V103.148C176.254 103.836 175.718 104.544 175.31 105.272C174.902 105.992 174.606 106.744 174.422 107.528C174.246 108.304 174.158 109.128 174.158 110H172.862C172.862 109.12 172.97 108.264 173.186 107.432C173.41 106.592 173.746 105.792 174.194 105.032C174.65 104.264 175.222 103.544 175.91 102.872L176.15 103.196H170.882V102.08ZM180.725 110.12C180.021 110.12 179.441 109.968 178.985 109.664C178.537 109.36 178.181 108.92 177.917 108.344L179.117 107.72C179.237 108.104 179.417 108.42 179.657 108.668C179.905 108.908 180.269 109.028 180.749 109.028C181.085 109.028 181.369 108.968 181.601 108.848C181.841 108.72 182.025 108.544 182.153 108.32C182.281 108.088 182.345 107.812 182.345 107.492C182.345 107.156 182.285 106.876 182.165 106.652C182.045 106.428 181.873 106.26 181.649 106.148C181.425 106.028 181.145 105.968 180.809 105.968C180.577 105.968 180.361 105.992 180.161 106.04C179.961 106.088 179.781 106.164 179.621 106.268C179.461 106.364 179.321 106.492 179.201 106.652L178.145 106.448L178.625 102.08H183.233V103.184H179.645L179.357 105.416L179.333 105.548H179.357C179.541 105.348 179.777 105.192 180.065 105.08C180.361 104.968 180.709 104.912 181.109 104.912C181.621 104.912 182.061 105.02 182.429 105.236C182.797 105.444 183.085 105.736 183.293 106.112C183.501 106.488 183.605 106.924 183.605 107.42C183.605 107.852 183.533 108.236 183.389 108.572C183.245 108.908 183.041 109.192 182.777 109.424C182.513 109.656 182.205 109.832 181.853 109.952C181.509 110.064 181.133 110.12 180.725 110.12ZM185.91 108.38C186.182 108.38 186.398 108.46 186.558 108.62C186.726 108.772 186.81 108.98 186.81 109.244C186.81 109.508 186.726 109.72 186.558 109.88C186.398 110.04 186.182 110.12 185.91 110.12C185.63 110.12 185.406 110.04 185.238 109.88C185.078 109.72 184.998 109.508 184.998 109.244C184.998 108.98 185.078 108.772 185.238 108.62C185.406 108.46 185.63 108.38 185.91 108.38ZM188.624 110V104.564C188.624 104.404 188.624 104.24 188.624 104.072C188.632 103.896 188.64 103.712 188.648 103.52C188.376 103.784 188.064 104.012 187.712 104.204C187.368 104.388 187.012 104.52 186.644 104.6L186.404 103.484C186.572 103.46 186.768 103.404 186.992 103.316C187.216 103.228 187.448 103.116 187.688 102.98C187.928 102.844 188.148 102.7 188.348 102.548C188.548 102.388 188.704 102.232 188.816 102.08H189.896V110H188.624ZM193.152 110L198.336 102.08H199.44L194.268 110H193.152ZM193.464 101.96C193.872 101.96 194.224 102.052 194.52 102.236C194.824 102.42 195.056 102.676 195.216 103.004C195.384 103.332 195.468 103.72 195.468 104.168C195.468 104.608 195.384 104.996 195.216 105.332C195.056 105.66 194.824 105.916 194.52 106.1C194.224 106.284 193.872 106.376 193.464 106.376C193.064 106.376 192.712 106.284 192.408 106.1C192.104 105.916 191.868 105.66 191.7 105.332C191.54 104.996 191.46 104.608 191.46 104.168C191.46 103.72 191.54 103.332 191.7 103.004C191.868 102.676 192.104 102.42 192.408 102.236C192.712 102.052 193.064 101.96 193.464 101.96ZM193.464 102.896C193.264 102.896 193.092 102.948 192.948 103.052C192.804 103.148 192.696 103.292 192.624 103.484C192.552 103.668 192.516 103.896 192.516 104.168C192.516 104.432 192.552 104.66 192.624 104.852C192.696 105.044 192.804 105.188 192.948 105.284C193.092 105.38 193.264 105.428 193.464 105.428C193.672 105.428 193.848 105.38 193.992 105.284C194.136 105.188 194.244 105.044 194.316 104.852C194.388 104.66 194.424 104.432 194.424 104.168C194.424 103.896 194.388 103.668 194.316 103.484C194.244 103.292 194.136 103.148 193.992 103.052C193.848 102.948 193.672 102.896 193.464 102.896ZM199.128 105.704C199.536 105.704 199.888 105.796 200.184 105.98C200.488 106.164 200.72 106.424 200.88 106.76C201.048 107.088 201.132 107.472 201.132 107.912C201.132 108.36 201.048 108.748 200.88 109.076C200.72 109.404 200.488 109.66 200.184 109.844C199.888 110.028 199.536 110.12 199.128 110.12C198.728 110.12 198.376 110.028 198.072 109.844C197.768 109.66 197.532 109.404 197.364 109.076C197.204 108.748 197.124 108.36 197.124 107.912C197.124 107.472 197.204 107.088 197.364 106.76C197.532 106.424 197.768 106.164 198.072 105.98C198.376 105.796 198.728 105.704 199.128 105.704ZM199.128 106.652C198.928 106.652 198.756 106.7 198.612 106.796C198.468 106.892 198.36 107.036 198.288 107.228C198.216 107.412 198.18 107.64 198.18 107.912C198.18 108.176 198.216 108.404 198.288 108.596C198.36 108.788 198.468 108.936 198.612 109.04C198.756 109.136 198.928 109.184 199.128 109.184C199.336 109.184 199.512 109.136 199.656 109.04C199.8 108.936 199.908 108.788 199.98 108.596C200.052 108.404 200.088 108.176 200.088 107.912C200.088 107.648 200.052 107.42 199.98 107.228C199.908 107.036 199.8 106.892 199.656 106.796C199.512 106.7 199.336 106.652 199.128 106.652Z" fill="#ADA602"/>
<rect x="139" y="14" width="86" height="17" rx="5" fill="#675F75" fill-opacity="0.64"/>
<path d="M145.676 19.72V25H145.036V19.72H145.676ZM148.653 25.08C148.263 25.08 147.903 24.9973 147.573 24.832C147.247 24.6667 146.997 24.432 146.821 24.128L147.365 23.736C147.482 23.9813 147.653 24.1733 147.877 24.312C148.106 24.4507 148.381 24.52 148.701 24.52C148.983 24.52 149.205 24.4667 149.365 24.36C149.525 24.248 149.605 24.104 149.605 23.928C149.605 23.816 149.567 23.7147 149.493 23.624C149.423 23.528 149.287 23.4587 149.085 23.416L148.125 23.216C147.735 23.136 147.455 23.0027 147.285 22.816C147.119 22.6293 147.037 22.3973 147.037 22.12C147.037 21.9013 147.098 21.7013 147.221 21.52C147.349 21.3387 147.527 21.1947 147.757 21.088C147.991 20.976 148.266 20.92 148.581 20.92C148.975 20.92 149.309 20.9973 149.581 21.152C149.853 21.3067 150.055 21.5253 150.189 21.808L149.653 22.16C149.562 21.9253 149.415 21.7547 149.213 21.648C149.01 21.536 148.799 21.48 148.581 21.48C148.389 21.48 148.223 21.5067 148.085 21.56C147.951 21.6133 147.847 21.688 147.773 21.784C147.703 21.8747 147.669 21.9787 147.669 22.096C147.669 22.2133 147.709 22.3227 147.789 22.424C147.869 22.52 148.018 22.5893 148.237 22.632L149.237 22.84C149.61 22.9147 149.871 23.0373 150.021 23.208C150.17 23.3787 150.245 23.5867 150.245 23.832C150.245 24.0827 150.178 24.304 150.045 24.496C149.911 24.6827 149.725 24.8267 149.485 24.928C149.245 25.0293 148.967 25.08 148.653 25.08ZM152.04 19.16V23.984C152.04 24.1867 152.077 24.328 152.152 24.408C152.226 24.4827 152.346 24.52 152.512 24.52C152.618 24.52 152.706 24.512 152.776 24.496C152.845 24.48 152.938 24.4507 153.056 24.408L152.952 24.968C152.866 25.0053 152.773 25.032 152.672 25.048C152.57 25.0693 152.466 25.08 152.36 25.08C152.034 25.08 151.792 24.992 151.632 24.816C151.477 24.64 151.4 24.3707 151.4 24.008V19.16H152.04ZM156.213 22.416C156.213 22.1173 156.133 21.888 155.973 21.728C155.813 21.5627 155.586 21.48 155.293 21.48C155.015 21.48 154.781 21.5413 154.589 21.664C154.397 21.7813 154.255 21.9733 154.165 22.24L153.645 21.92C153.751 21.6213 153.949 21.3813 154.237 21.2C154.525 21.0133 154.882 20.92 155.309 20.92C155.597 20.92 155.858 20.9707 156.093 21.072C156.327 21.168 156.511 21.3173 156.645 21.52C156.783 21.7173 156.853 21.9733 156.853 22.288V24.224C156.853 24.416 156.954 24.512 157.157 24.512C157.258 24.512 157.357 24.4987 157.453 24.472L157.421 24.976C157.314 25.0293 157.175 25.056 157.005 25.056C156.85 25.056 156.711 25.0267 156.589 24.968C156.466 24.9093 156.37 24.8213 156.301 24.704C156.231 24.5813 156.197 24.4293 156.197 24.248V24.168L156.357 24.192C156.293 24.4 156.183 24.5707 156.029 24.704C155.874 24.832 155.701 24.928 155.509 24.992C155.317 25.0507 155.127 25.08 154.941 25.08C154.706 25.08 154.487 25.04 154.285 24.96C154.082 24.88 153.919 24.76 153.797 24.6C153.679 24.4347 153.621 24.232 153.621 23.992C153.621 23.6933 153.719 23.448 153.917 23.256C154.119 23.0587 154.399 22.9253 154.757 22.856L156.341 22.544V23.072L155.053 23.336C154.791 23.3893 154.597 23.464 154.469 23.56C154.341 23.656 154.277 23.7893 154.277 23.96C154.277 24.1253 154.341 24.2613 154.469 24.368C154.602 24.4693 154.789 24.52 155.029 24.52C155.183 24.52 155.33 24.5013 155.469 24.464C155.613 24.4213 155.741 24.36 155.853 24.28C155.965 24.1947 156.053 24.0907 156.117 23.968C156.181 23.84 156.213 23.6907 156.213 23.52V22.416ZM158.408 25V21H158.968L159.008 21.624C159.152 21.3787 159.339 21.2 159.568 21.088C159.803 20.976 160.043 20.92 160.288 20.92C160.571 20.92 160.837 20.984 161.088 21.112C161.339 21.24 161.531 21.4373 161.664 21.704C161.749 21.5227 161.869 21.376 162.024 21.264C162.179 21.1467 162.347 21.0613 162.528 21.008C162.715 20.9493 162.891 20.92 163.056 20.92C163.312 20.92 163.555 20.9733 163.784 21.08C164.019 21.1867 164.211 21.352 164.36 21.576C164.509 21.8 164.584 22.088 164.584 22.44V25H163.944V22.504C163.944 22.1413 163.853 21.88 163.672 21.72C163.491 21.56 163.267 21.48 163 21.48C162.792 21.48 162.597 21.5307 162.416 21.632C162.235 21.7333 162.088 21.8827 161.976 22.08C161.869 22.2773 161.816 22.52 161.816 22.808V25H161.176V22.504C161.176 22.1413 161.085 21.88 160.904 21.72C160.723 21.56 160.499 21.48 160.232 21.48C160.056 21.48 159.875 21.528 159.688 21.624C159.507 21.7147 159.355 21.8613 159.232 22.064C159.109 22.2667 159.048 22.5333 159.048 22.864V25H158.408ZM170.2 25.08C169.81 25.08 169.45 24.9973 169.12 24.832C168.794 24.6667 168.544 24.432 168.368 24.128L168.912 23.736C169.029 23.9813 169.2 24.1733 169.424 24.312C169.653 24.4507 169.928 24.52 170.248 24.52C170.53 24.52 170.752 24.4667 170.912 24.36C171.072 24.248 171.152 24.104 171.152 23.928C171.152 23.816 171.114 23.7147 171.04 23.624C170.97 23.528 170.834 23.4587 170.632 23.416L169.672 23.216C169.282 23.136 169.002 23.0027 168.832 22.816C168.666 22.6293 168.584 22.3973 168.584 22.12C168.584 21.9013 168.645 21.7013 168.768 21.52C168.896 21.3387 169.074 21.1947 169.304 21.088C169.538 20.976 169.813 20.92 170.128 20.92C170.522 20.92 170.856 20.9973 171.128 21.152C171.4 21.3067 171.602 21.5253 171.736 21.808L171.2 22.16C171.109 21.9253 170.962 21.7547 170.76 21.648C170.557 21.536 170.346 21.48 170.128 21.48C169.936 21.48 169.77 21.5067 169.632 21.56C169.498 21.6133 169.394 21.688 169.32 21.784C169.25 21.8747 169.216 21.9787 169.216 22.096C169.216 22.2133 169.256 22.3227 169.336 22.424C169.416 22.52 169.565 22.5893 169.784 22.632L170.784 22.84C171.157 22.9147 171.418 23.0373 171.568 23.208C171.717 23.3787 171.792 23.5867 171.792 23.832C171.792 24.0827 171.725 24.304 171.592 24.496C171.458 24.6827 171.272 24.8267 171.032 24.928C170.792 25.0293 170.514 25.08 170.2 25.08ZM173.922 19.864V23.896C173.922 24.0933 173.978 24.24 174.09 24.336C174.202 24.432 174.346 24.48 174.522 24.48C174.677 24.48 174.81 24.4533 174.922 24.4C175.034 24.3467 175.136 24.2747 175.226 24.184L175.45 24.72C175.328 24.832 175.181 24.92 175.01 24.984C174.845 25.048 174.653 25.08 174.434 25.08C174.232 25.08 174.042 25.0453 173.866 24.976C173.69 24.9013 173.549 24.7867 173.442 24.632C173.341 24.472 173.288 24.264 173.282 24.008V20.04L173.922 19.864ZM175.378 21V21.552H172.482V21H175.378ZM178.666 22.416C178.666 22.1173 178.586 21.888 178.426 21.728C178.266 21.5627 178.039 21.48 177.746 21.48C177.469 21.48 177.234 21.5413 177.042 21.664C176.85 21.7813 176.709 21.9733 176.618 22.24L176.098 21.92C176.205 21.6213 176.402 21.3813 176.69 21.2C176.978 21.0133 177.335 20.92 177.762 20.92C178.05 20.92 178.311 20.9707 178.546 21.072C178.781 21.168 178.965 21.3173 179.098 21.52C179.237 21.7173 179.306 21.9733 179.306 22.288V24.224C179.306 24.416 179.407 24.512 179.61 24.512C179.711 24.512 179.81 24.4987 179.906 24.472L179.874 24.976C179.767 25.0293 179.629 25.056 179.458 25.056C179.303 25.056 179.165 25.0267 179.042 24.968C178.919 24.9093 178.823 24.8213 178.754 24.704C178.685 24.5813 178.65 24.4293 178.65 24.248V24.168L178.81 24.192C178.746 24.4 178.637 24.5707 178.482 24.704C178.327 24.832 178.154 24.928 177.962 24.992C177.77 25.0507 177.581 25.08 177.394 25.08C177.159 25.08 176.941 25.04 176.738 24.96C176.535 24.88 176.373 24.76 176.25 24.6C176.133 24.4347 176.074 24.232 176.074 23.992C176.074 23.6933 176.173 23.448 176.37 23.256C176.573 23.0587 176.853 22.9253 177.21 22.856L178.794 22.544V23.072L177.506 23.336C177.245 23.3893 177.05 23.464 176.922 23.56C176.794 23.656 176.73 23.7893 176.73 23.96C176.73 24.1253 176.794 24.2613 176.922 24.368C177.055 24.4693 177.242 24.52 177.482 24.52C177.637 24.52 177.783 24.5013 177.922 24.464C178.066 24.4213 178.194 24.36 178.306 24.28C178.418 24.1947 178.506 24.0907 178.57 23.968C178.634 23.84 178.666 23.6907 178.666 23.52V22.416ZM181.649 19.864V23.896C181.649 24.0933 181.705 24.24 181.817 24.336C181.929 24.432 182.073 24.48 182.249 24.48C182.404 24.48 182.537 24.4533 182.649 24.4C182.761 24.3467 182.862 24.2747 182.953 24.184L183.177 24.72C183.054 24.832 182.908 24.92 182.737 24.984C182.572 25.048 182.38 25.08 182.161 25.08C181.958 25.08 181.769 25.0453 181.593 24.976C181.417 24.9013 181.276 24.7867 181.169 24.632C181.068 24.472 181.014 24.264 181.009 24.008V20.04L181.649 19.864ZM183.105 21V21.552H180.209V21H183.105ZM184.377 20.232C184.233 20.232 184.115 20.1893 184.025 20.104C183.939 20.0133 183.897 19.896 183.897 19.752C183.897 19.608 183.939 19.4933 184.025 19.408C184.115 19.3173 184.233 19.272 184.377 19.272C184.521 19.272 184.635 19.3173 184.721 19.408C184.811 19.4933 184.857 19.608 184.857 19.752C184.857 19.896 184.811 20.0133 184.721 20.104C184.635 20.1893 184.521 20.232 184.377 20.232ZM184.697 21V25H184.057V21H184.697ZM187.622 25.08C187.232 25.08 186.872 24.9973 186.542 24.832C186.216 24.6667 185.966 24.432 185.79 24.128L186.334 23.736C186.451 23.9813 186.622 24.1733 186.846 24.312C187.075 24.4507 187.35 24.52 187.67 24.52C187.952 24.52 188.174 24.4667 188.334 24.36C188.494 24.248 188.574 24.104 188.574 23.928C188.574 23.816 188.536 23.7147 188.462 23.624C188.392 23.528 188.256 23.4587 188.054 23.416L187.094 23.216C186.704 23.136 186.424 23.0027 186.254 22.816C186.088 22.6293 186.006 22.3973 186.006 22.12C186.006 21.9013 186.067 21.7013 186.19 21.52C186.318 21.3387 186.496 21.1947 186.726 21.088C186.96 20.976 187.235 20.92 187.549 20.92C187.944 20.92 188.278 20.9973 188.55 21.152C188.822 21.3067 189.024 21.5253 189.158 21.808L188.622 22.16C188.531 21.9253 188.384 21.7547 188.182 21.648C187.979 21.536 187.768 21.48 187.549 21.48C187.358 21.48 187.192 21.5067 187.054 21.56C186.92 21.6133 186.816 21.688 186.742 21.784C186.672 21.8747 186.638 21.9787 186.638 22.096C186.638 22.2133 186.678 22.3227 186.758 22.424C186.838 22.52 186.987 22.5893 187.206 22.632L188.206 22.84C188.579 22.9147 188.84 23.0373 188.99 23.208C189.139 23.3787 189.214 23.5867 189.214 23.832C189.214 24.0827 189.147 24.304 189.014 24.496C188.88 24.6827 188.694 24.8267 188.454 24.928C188.214 25.0293 187.936 25.08 187.622 25.08ZM191.344 19.864V23.896C191.344 24.0933 191.4 24.24 191.512 24.336C191.624 24.432 191.768 24.48 191.944 24.48C192.099 24.48 192.232 24.4533 192.344 24.4C192.456 24.3467 192.558 24.2747 192.648 24.184L192.872 24.72C192.75 24.832 192.603 24.92 192.432 24.984C192.267 25.048 192.075 25.08 191.856 25.08C191.654 25.08 191.464 25.0453 191.288 24.976C191.112 24.9013 190.971 24.7867 190.864 24.632C190.763 24.472 190.71 24.264 190.704 24.008V20.04L191.344 19.864ZM192.8 21V21.552H189.904V21H192.8ZM194.072 20.232C193.928 20.232 193.81 20.1893 193.72 20.104C193.634 20.0133 193.592 19.896 193.592 19.752C193.592 19.608 193.634 19.4933 193.72 19.408C193.81 19.3173 193.928 19.272 194.072 19.272C194.216 19.272 194.33 19.3173 194.416 19.408C194.506 19.4933 194.552 19.608 194.552 19.752C194.552 19.896 194.506 20.0133 194.416 20.104C194.33 20.1893 194.216 20.232 194.072 20.232ZM194.392 21V25H193.752V21H194.392ZM197.533 20.92C197.81 20.92 198.053 20.9627 198.261 21.048C198.474 21.1333 198.658 21.256 198.813 21.416C198.967 21.576 199.093 21.7653 199.189 21.984L198.581 22.272C198.495 22.016 198.365 21.8213 198.189 21.688C198.018 21.5493 197.794 21.48 197.517 21.48C197.25 21.48 197.021 21.5413 196.829 21.664C196.637 21.7813 196.49 21.9547 196.389 22.184C196.287 22.408 196.237 22.68 196.237 23C196.237 23.3147 196.287 23.5867 196.389 23.816C196.49 24.0453 196.637 24.2213 196.829 24.344C197.021 24.4613 197.25 24.52 197.517 24.52C197.725 24.52 197.903 24.488 198.053 24.424C198.207 24.36 198.333 24.2667 198.429 24.144C198.53 24.0213 198.599 23.872 198.637 23.696L199.229 23.904C199.138 24.1493 199.013 24.36 198.853 24.536C198.698 24.712 198.509 24.848 198.285 24.944C198.066 25.0347 197.815 25.08 197.533 25.08C197.159 25.08 196.826 24.9973 196.533 24.832C196.239 24.6667 196.01 24.4293 195.845 24.12C195.679 23.8053 195.597 23.432 195.597 23C195.597 22.568 195.679 22.1973 195.845 21.888C196.01 21.5733 196.239 21.3333 196.533 21.168C196.826 21.0027 197.159 20.92 197.533 20.92ZM201.793 25.08C201.404 25.08 201.044 24.9973 200.713 24.832C200.388 24.6667 200.137 24.432 199.961 24.128L200.505 23.736C200.623 23.9813 200.793 24.1733 201.017 24.312C201.247 24.4507 201.521 24.52 201.841 24.52C202.124 24.52 202.345 24.4667 202.505 24.36C202.665 24.248 202.745 24.104 202.745 23.928C202.745 23.816 202.708 23.7147 202.633 23.624C202.564 23.528 202.428 23.4587 202.225 23.416L201.265 23.216C200.876 23.136 200.596 23.0027 200.425 22.816C200.26 22.6293 200.177 22.3973 200.177 22.12C200.177 21.9013 200.239 21.7013 200.361 21.52C200.489 21.3387 200.668 21.1947 200.897 21.088C201.132 20.976 201.407 20.92 201.721 20.92C202.116 20.92 202.449 20.9973 202.721 21.152C202.993 21.3067 203.196 21.5253 203.329 21.808L202.793 22.16C202.703 21.9253 202.556 21.7547 202.353 21.648C202.151 21.536 201.94 21.48 201.721 21.48C201.529 21.48 201.364 21.5067 201.225 21.56C201.092 21.6133 200.988 21.688 200.913 21.784C200.844 21.8747 200.809 21.9787 200.809 22.096C200.809 22.2133 200.849 22.3227 200.929 22.424C201.009 22.52 201.159 22.5893 201.377 22.632L202.377 22.84C202.751 22.9147 203.012 23.0373 203.161 23.208C203.311 23.3787 203.385 23.5867 203.385 23.832C203.385 24.0827 203.319 24.304 203.185 24.496C203.052 24.6827 202.865 24.8267 202.625 24.928C202.385 25.0293 202.108 25.08 201.793 25.08Z" fill="#FDFCFC"/>
<path d="M214.148 20.6679C214.049 20.7799 214 20.9224 214 21.0954C214 21.2684 214.049 21.4109 214.148 21.5229L216.623 24.3321C216.677 24.3931 216.735 24.4365 216.798 24.4621C216.861 24.4874 216.928 24.5 217 24.5C217.072 24.5 217.141 24.4847 217.209 24.4542C217.276 24.4237 217.332 24.383 217.377 24.3321L219.852 21.5229C219.951 21.4109 220 21.2684 220 21.0954C220 20.9224 219.951 20.7799 219.852 20.6679C219.753 20.556 219.628 20.5 219.475 20.5C219.323 20.5 219.197 20.556 219.099 20.6679L217 23.0496L214.901 20.6679C214.803 20.556 214.677 20.5 214.525 20.5C214.372 20.5 214.247 20.556 214.148 20.6679Z" fill="#F7F7F7"/>
</svg>
