<svg width="253" height="156" viewBox="0 0 253 156" fill="none" xmlns="http://www.w3.org/2000/svg">
<rect width="253" height="156" rx="16" fill="#220027" fill-opacity="0.54"/>
<path d="M25.834 20.44V31H23.626V20.44H25.834ZM31.477 31.16C30.6663 31.16 29.925 31.016 29.253 30.728C28.5917 30.44 28.053 30.0347 27.637 29.512L28.901 28.232C29.157 28.616 29.4983 28.9307 29.925 29.176C30.3517 29.4213 30.8583 29.544 31.445 29.544C31.861 29.544 32.1917 29.4853 32.437 29.368C32.693 29.24 32.821 29.0427 32.821 28.776C32.821 28.6053 32.7623 28.4613 32.645 28.344C32.5277 28.216 32.293 28.1147 31.941 28.04L30.533 27.752C29.605 27.56 28.9437 27.272 28.549 26.888C28.165 26.4933 27.973 25.9867 27.973 25.368C27.973 24.9307 28.101 24.52 28.357 24.136C28.6237 23.752 29.0183 23.4427 29.541 23.208C30.0637 22.9627 30.7143 22.84 31.493 22.84C32.293 22.84 32.9863 22.968 33.573 23.224C34.1703 23.4693 34.6397 23.8373 34.981 24.328L33.669 25.608C33.4343 25.2347 33.125 24.952 32.741 24.76C32.3677 24.5573 31.973 24.456 31.557 24.456C31.2583 24.456 31.0023 24.488 30.789 24.552C30.5757 24.616 30.4157 24.7067 30.309 24.824C30.2023 24.9307 30.149 25.0693 30.149 25.24C30.149 25.4107 30.2237 25.56 30.373 25.688C30.5223 25.8053 30.7943 25.9067 31.189 25.992L32.821 26.328C33.6103 26.488 34.1757 26.76 34.517 27.144C34.8583 27.5173 35.029 27.9707 35.029 28.504C35.029 29.016 34.8903 29.4747 34.613 29.88C34.3463 30.2747 33.9463 30.5893 33.413 30.824C32.8903 31.048 32.245 31.16 31.477 31.16ZM38.937 19.496V28.536C38.937 28.9093 39.001 29.1707 39.129 29.32C39.257 29.4693 39.4703 29.544 39.769 29.544C39.9503 29.544 40.0997 29.5333 40.217 29.512C40.3343 29.48 40.4837 29.4373 40.665 29.384L40.473 30.824C40.2917 30.9307 40.0623 31.0107 39.785 31.064C39.5183 31.128 39.2517 31.16 38.985 31.16C38.2063 31.16 37.6357 30.9733 37.273 30.6C36.921 30.216 36.745 29.608 36.745 28.776V19.496H38.937ZM46.5245 25.896C46.5245 25.4373 46.3912 25.08 46.1245 24.824C45.8685 24.568 45.5272 24.44 45.1005 24.44C44.7058 24.44 44.3592 24.5413 44.0605 24.744C43.7618 24.9467 43.5432 25.2827 43.4045 25.752L41.5325 25.176C41.7138 24.472 42.1085 23.9067 42.7165 23.48C43.3352 23.0533 44.1618 22.84 45.1965 22.84C45.9005 22.84 46.5138 22.952 47.0365 23.176C47.5592 23.3893 47.9645 23.7147 48.2525 24.152C48.5512 24.5893 48.7005 25.1387 48.7005 25.8V29.048C48.7005 29.4533 48.8925 29.656 49.2765 29.656C49.4578 29.656 49.6285 29.6293 49.7885 29.576L49.6605 30.936C49.3832 31.0747 49.0365 31.144 48.6205 31.144C48.2472 31.144 47.9112 31.08 47.6125 30.952C47.3138 30.824 47.0792 30.632 46.9085 30.376C46.7378 30.1093 46.6525 29.7787 46.6525 29.384V29.32L47.0365 29.256C46.9725 29.6613 46.7965 30.008 46.5085 30.296C46.2205 30.5733 45.8685 30.7867 45.4525 30.936C45.0472 31.0853 44.6258 31.16 44.1885 31.16C43.6445 31.16 43.1752 31.08 42.7805 30.92C42.3858 30.7493 42.0818 30.504 41.8685 30.184C41.6552 29.864 41.5485 29.4693 41.5485 29C41.5485 28.4027 41.7405 27.9173 42.1245 27.544C42.5085 27.16 43.0578 26.8987 43.7725 26.76L46.7805 26.152L46.7645 27.512L44.8445 27.896C44.4818 27.9707 44.2045 28.072 44.0125 28.2C43.8312 28.3173 43.7405 28.5147 43.7405 28.792C43.7405 29.0587 43.8365 29.2613 44.0285 29.4C44.2312 29.5387 44.4712 29.608 44.7485 29.608C44.9725 29.608 45.1912 29.5813 45.4045 29.528C45.6178 29.4747 45.8098 29.3893 45.9805 29.272C46.1512 29.1547 46.2845 28.9947 46.3805 28.792C46.4765 28.5893 46.5245 28.344 46.5245 28.056V25.896ZM51.152 31V23H53.12L53.2 24.44C53.4667 23.9067 53.8293 23.5067 54.288 23.24C54.7573 22.9733 55.2747 22.84 55.84 22.84C56.416 22.84 56.9333 22.9733 57.392 23.24C57.8613 23.5067 58.2133 23.9013 58.448 24.424C58.6187 24.072 58.848 23.7787 59.136 23.544C59.424 23.3093 59.744 23.1333 60.096 23.016C60.448 22.8987 60.8053 22.84 61.168 22.84C61.6907 22.84 62.1653 22.9467 62.592 23.16C63.0293 23.3733 63.376 23.6933 63.632 24.12C63.888 24.5467 64.016 25.0907 64.016 25.752V31H61.824V26.184C61.824 25.5973 61.696 25.1813 61.44 24.936C61.184 24.6907 60.8533 24.568 60.448 24.568C60.128 24.568 59.8293 24.648 59.552 24.808C59.2853 24.968 59.072 25.208 58.912 25.528C58.7627 25.8373 58.688 26.2267 58.688 26.696V31H56.496V26.184C56.496 25.5973 56.3627 25.1813 56.096 24.936C55.84 24.6907 55.5093 24.568 55.104 24.568C54.8267 24.568 54.5493 24.6427 54.272 24.792C54.0053 24.9413 53.7813 25.176 53.6 25.496C53.4293 25.816 53.344 26.2373 53.344 26.76V31H51.152ZM75.7276 31.16C74.757 31.16 73.9036 30.9467 73.1676 30.52C72.4423 30.0933 71.877 29.4747 71.4716 28.664C71.0663 27.8533 70.8636 26.8773 70.8636 25.736C70.8636 24.6053 71.077 23.6347 71.5036 22.824C71.9303 22.0027 72.533 21.3733 73.3116 20.936C74.101 20.4987 75.013 20.28 76.0476 20.28C77.189 20.28 78.1116 20.4933 78.8156 20.92C79.5196 21.336 80.0796 21.9867 80.4956 22.872L78.4476 23.752C78.277 23.1867 77.9836 22.7707 77.5676 22.504C77.1623 22.2267 76.661 22.088 76.0636 22.088C75.4663 22.088 74.949 22.232 74.5116 22.52C74.0743 22.7973 73.7383 23.208 73.5036 23.752C73.269 24.2853 73.1516 24.9413 73.1516 25.72C73.1516 26.52 73.2636 27.1973 73.4876 27.752C73.7116 28.296 74.0423 28.7067 74.4796 28.984C74.9276 29.2507 75.477 29.384 76.1276 29.384C76.4796 29.384 76.805 29.3413 77.1036 29.256C77.413 29.1707 77.6796 29.0427 77.9036 28.872C78.1276 28.7013 78.3036 28.4827 78.4316 28.216C78.5596 27.9493 78.6236 27.64 78.6236 27.288V27.048H75.8556V25.432H80.5276V31H78.9756L78.8156 28.696L79.1996 28.968C78.965 29.672 78.549 30.216 77.9516 30.6C77.365 30.9733 76.6236 31.16 75.7276 31.16ZM82.7301 31V23H84.6341L84.7781 24.568C84.9915 24.0133 85.3008 23.5867 85.7061 23.288C86.1221 22.9893 86.6395 22.84 87.2581 22.84C87.4395 22.84 87.6048 22.856 87.7541 22.888C87.9035 22.92 88.0261 22.9627 88.1221 23.016L87.8661 24.856C87.7595 24.8133 87.6261 24.7813 87.4661 24.76C87.3168 24.7387 87.1195 24.728 86.8741 24.728C86.5541 24.728 86.2448 24.808 85.9461 24.968C85.6475 25.1173 85.4021 25.352 85.2101 25.672C85.0181 25.9813 84.9221 26.376 84.9221 26.856V31H82.7301ZM92.9719 22.84C93.7825 22.84 94.4919 23.0053 95.0999 23.336C95.7185 23.6667 96.1985 24.1413 96.5399 24.76C96.8919 25.3787 97.0679 26.1253 97.0679 27C97.0679 27.864 96.8919 28.6107 96.5399 29.24C96.1985 29.8587 95.7185 30.3333 95.0999 30.664C94.4919 30.9947 93.7825 31.16 92.9719 31.16C92.1719 31.16 91.4625 30.9947 90.8439 30.664C90.2252 30.3333 89.7399 29.8587 89.3879 29.24C89.0465 28.6107 88.8759 27.864 88.8759 27C88.8759 26.1253 89.0465 25.3787 89.3879 24.76C89.7399 24.1413 90.2252 23.6667 90.8439 23.336C91.4625 23.0053 92.1719 22.84 92.9719 22.84ZM92.9719 24.472C92.5665 24.472 92.2199 24.568 91.9319 24.76C91.6545 24.9413 91.4412 25.2187 91.2919 25.592C91.1425 25.9653 91.0679 26.4347 91.0679 27C91.0679 27.5653 91.1425 28.0347 91.2919 28.408C91.4412 28.7813 91.6545 29.064 91.9319 29.256C92.2199 29.4373 92.5665 29.528 92.9719 29.528C93.3665 29.528 93.7025 29.4373 93.9799 29.256C94.2679 29.064 94.4865 28.7813 94.6359 28.408C94.7852 28.0347 94.8599 27.5653 94.8599 27C94.8599 26.4347 94.7852 25.9653 94.6359 25.592C94.4865 25.2187 94.2679 24.9413 93.9799 24.76C93.7025 24.568 93.3665 24.472 92.9719 24.472ZM109.003 23H111.339L108.779 31H106.251L104.507 25.56L102.827 31H100.299L97.7393 23H100.075L101.675 29.128L103.451 23H105.627L107.419 29.128L109.003 23ZM113.803 21.848C113.344 21.848 113.003 21.752 112.779 21.56C112.555 21.3573 112.443 21.064 112.443 20.68C112.443 20.2853 112.555 19.992 112.779 19.8C113.003 19.5973 113.344 19.496 113.803 19.496C114.262 19.496 114.603 19.5973 114.827 19.8C115.051 19.992 115.163 20.2853 115.163 20.68C115.163 21.064 115.051 21.3573 114.827 21.56C114.603 21.752 114.262 21.848 113.803 21.848ZM114.891 23V31H112.699V23H114.891ZM117.215 31V23H119.183L119.311 25.4L119.039 25.144C119.167 24.6213 119.369 24.1893 119.647 23.848C119.924 23.5067 120.26 23.256 120.655 23.096C121.06 22.9253 121.503 22.84 121.983 22.84C122.537 22.84 123.028 22.9467 123.455 23.16C123.892 23.3733 124.233 23.6987 124.479 24.136C124.735 24.5627 124.863 25.1013 124.863 25.752V31H122.671V26.376C122.671 25.6933 122.537 25.224 122.271 24.968C122.004 24.7013 121.657 24.568 121.231 24.568C120.932 24.568 120.639 24.6427 120.351 24.792C120.073 24.9307 119.844 25.16 119.663 25.48C119.492 25.8 119.407 26.2267 119.407 26.76V31H117.215ZM134.497 21.096L134.753 22.664C134.71 22.664 134.662 22.664 134.609 22.664C134.566 22.6533 134.518 22.648 134.465 22.648C133.974 22.648 133.606 22.76 133.361 22.984C133.115 23.1973 132.993 23.496 132.993 23.88L132.097 23.512C132.097 23.0853 132.182 22.6907 132.353 22.328C132.523 21.9547 132.774 21.656 133.105 21.432C133.446 21.208 133.851 21.096 134.321 21.096C134.342 21.096 134.369 21.096 134.401 21.096C134.433 21.096 134.465 21.096 134.497 21.096ZM131.873 29.496C132.737 29.496 133.403 29.6827 133.873 30.056C134.342 30.4293 134.577 30.952 134.577 31.624C134.577 32.232 134.401 32.744 134.049 33.16C133.697 33.5867 133.201 33.9067 132.561 34.12C131.931 34.3333 131.201 34.44 130.369 34.44C128.993 34.44 127.985 34.248 127.345 33.864C126.715 33.48 126.401 32.9787 126.401 32.36C126.401 31.9227 126.566 31.5547 126.897 31.256C127.238 30.9573 127.798 30.792 128.577 30.76L128.497 31.016C127.942 30.92 127.515 30.7387 127.217 30.472C126.929 30.1947 126.785 29.816 126.785 29.336C126.785 28.8453 126.971 28.4453 127.345 28.136C127.729 27.816 128.246 27.6293 128.897 27.576L129.857 28.024H129.633C129.174 28.056 128.849 28.152 128.657 28.312C128.475 28.4613 128.385 28.632 128.385 28.824C128.385 29.048 128.47 29.2187 128.641 29.336C128.822 29.4427 129.078 29.496 129.409 29.496H131.873ZM130.385 32.936C130.939 32.936 131.393 32.888 131.745 32.792C132.107 32.696 132.374 32.5733 132.545 32.424C132.726 32.2747 132.817 32.1093 132.817 31.928C132.817 31.7253 132.737 31.56 132.577 31.432C132.417 31.3147 132.129 31.256 131.713 31.256H129.009C128.753 31.256 128.539 31.32 128.369 31.448C128.209 31.576 128.129 31.752 128.129 31.976C128.129 32.2747 128.326 32.5093 128.721 32.68C129.126 32.8507 129.681 32.936 130.385 32.936ZM130.401 22.84C131.147 22.84 131.793 22.952 132.337 23.176C132.891 23.3893 133.313 23.6987 133.601 24.104C133.899 24.5093 134.049 24.9947 134.049 25.56C134.049 26.1147 133.899 26.5947 133.601 27C133.313 27.4053 132.891 27.72 132.337 27.944C131.793 28.1573 131.147 28.264 130.401 28.264C129.217 28.264 128.31 28.024 127.681 27.544C127.062 27.0533 126.753 26.392 126.753 25.56C126.753 24.9947 126.897 24.5093 127.185 24.104C127.483 23.6987 127.905 23.3893 128.449 23.176C128.993 22.952 129.643 22.84 130.401 22.84ZM130.401 24.216C129.974 24.216 129.622 24.3333 129.345 24.568C129.067 24.8027 128.929 25.128 128.929 25.544C128.929 25.96 129.067 26.2907 129.345 26.536C129.622 26.7707 129.974 26.888 130.401 26.888C130.827 26.888 131.174 26.7707 131.441 26.536C131.718 26.2907 131.857 25.96 131.857 25.544C131.857 25.128 131.718 24.8027 131.441 24.568C131.174 24.3333 130.827 24.216 130.401 24.216Z" fill="#F1F1F1"/>
<rect x="184" y="18" width="48" height="16" rx="4" fill="#424242"/>
<path d="M192.513 27.9773V24.2273H193.15V27.9773H192.513ZM190.957 26.4205V25.7841H194.707V26.4205H190.957ZM198.116 23.1818V29H197.412V23.9205H197.378L195.957 24.8636V24.1477L197.412 23.1818H198.116ZM201.608 29.0795C201.275 29.0795 200.974 29.0133 200.707 28.8807C200.44 28.7481 200.226 28.5663 200.065 28.3352C199.904 28.1042 199.816 27.8409 199.801 27.5455H200.483C200.509 27.8087 200.629 28.0265 200.841 28.1989C201.055 28.3693 201.311 28.4545 201.608 28.4545C201.847 28.4545 202.059 28.3987 202.244 28.2869C202.432 28.1752 202.579 28.0218 202.685 27.8267C202.793 27.6297 202.847 27.4072 202.847 27.1591C202.847 26.9053 202.791 26.679 202.679 26.4801C202.569 26.2794 202.418 26.1212 202.224 26.0057C202.031 25.8902 201.811 25.8314 201.562 25.8295C201.384 25.8277 201.202 25.8551 201.014 25.9119C200.827 25.9669 200.672 26.0379 200.551 26.125L199.892 26.0455L200.244 23.1818H203.267V23.8068H200.835L200.631 25.5227H200.665C200.784 25.428 200.934 25.3494 201.114 25.2869C201.294 25.2244 201.481 25.1932 201.676 25.1932C202.032 25.1932 202.349 25.2784 202.628 25.4489C202.908 25.6174 203.128 25.8485 203.287 26.142C203.448 26.4356 203.528 26.7708 203.528 27.1477C203.528 27.5189 203.445 27.8504 203.278 28.142C203.114 28.4318 202.886 28.661 202.597 28.8295C202.307 28.9962 201.977 29.0795 201.608 29.0795ZM206.555 29.0795C206.127 29.0795 205.762 28.9631 205.461 28.7301C205.16 28.4953 204.93 28.1553 204.771 27.7102C204.612 27.2633 204.532 26.7235 204.532 26.0909C204.532 25.4621 204.612 24.9252 204.771 24.4801C204.932 24.0331 205.163 23.6922 205.464 23.4574C205.767 23.2206 206.13 23.1023 206.555 23.1023C206.979 23.1023 207.342 23.2206 207.643 23.4574C207.946 23.6922 208.177 24.0331 208.336 24.4801C208.497 24.9252 208.577 25.4621 208.577 26.0909C208.577 26.7235 208.498 27.2633 208.339 27.7102C208.18 28.1553 207.95 28.4953 207.648 28.7301C207.347 28.9631 206.983 29.0795 206.555 29.0795ZM206.555 28.4545C206.979 28.4545 207.308 28.25 207.543 27.8409C207.778 27.4318 207.896 26.8485 207.896 26.0909C207.896 25.5871 207.842 25.1581 207.734 24.804C207.628 24.4498 207.474 24.1799 207.273 23.9943C207.075 23.8087 206.835 23.7159 206.555 23.7159C206.134 23.7159 205.806 23.9233 205.569 24.3381C205.332 24.7509 205.214 25.3352 205.214 26.0909C205.214 26.5947 205.267 27.0227 205.373 27.375C205.479 27.7273 205.631 27.9953 205.83 28.179C206.031 28.3627 206.272 28.4545 206.555 28.4545ZM212.623 27.9091V27.6023C212.623 27.3902 212.666 27.196 212.754 27.0199C212.843 26.8419 212.971 26.6998 213.14 26.5938C213.31 26.4858 213.517 26.4318 213.759 26.4318C214.005 26.4318 214.212 26.4858 214.379 26.5938C214.545 26.6998 214.671 26.8419 214.756 27.0199C214.842 27.196 214.884 27.3902 214.884 27.6023V27.9091C214.884 28.1212 214.841 28.3163 214.754 28.4943C214.668 28.6705 214.541 28.8125 214.373 28.9205C214.206 29.0265 214.002 29.0795 213.759 29.0795C213.513 29.0795 213.306 29.0265 213.137 28.9205C212.969 28.8125 212.841 28.6705 212.754 28.4943C212.666 28.3163 212.623 28.1212 212.623 27.9091ZM213.202 27.6023V27.9091C213.202 28.0852 213.244 28.2434 213.327 28.3835C213.411 28.5218 213.555 28.5909 213.759 28.5909C213.958 28.5909 214.098 28.5218 214.18 28.3835C214.263 28.2434 214.305 28.0852 214.305 27.9091V27.6023C214.305 27.4261 214.265 27.2689 214.185 27.1307C214.106 26.9905 213.964 26.9205 213.759 26.9205C213.56 26.9205 213.417 26.9905 213.33 27.1307C213.245 27.2689 213.202 27.4261 213.202 27.6023ZM209.725 24.5795V24.2727C209.725 24.0606 209.769 23.8665 209.856 23.6903C209.945 23.5123 210.074 23.3703 210.242 23.2642C210.413 23.1562 210.619 23.1023 210.862 23.1023C211.108 23.1023 211.314 23.1562 211.481 23.2642C211.647 23.3703 211.773 23.5123 211.859 23.6903C211.944 23.8665 211.987 24.0606 211.987 24.2727V24.5795C211.987 24.7917 211.943 24.9867 211.856 25.1648C211.771 25.3409 211.644 25.483 211.475 25.5909C211.308 25.697 211.104 25.75 210.862 25.75C210.615 25.75 210.408 25.697 210.239 25.5909C210.071 25.483 209.943 25.3409 209.856 25.1648C209.769 24.9867 209.725 24.7917 209.725 24.5795ZM210.305 24.2727V24.5795C210.305 24.7557 210.346 24.9138 210.43 25.054C210.513 25.1922 210.657 25.2614 210.862 25.2614C211.06 25.2614 211.201 25.1922 211.282 25.054C211.365 24.9138 211.407 24.7557 211.407 24.5795V24.2727C211.407 24.0966 211.367 23.9394 211.288 23.8011C211.208 23.661 211.066 23.5909 210.862 23.5909C210.663 23.5909 210.52 23.661 210.433 23.8011C210.347 23.9394 210.305 24.0966 210.305 24.2727ZM209.941 29L213.941 23.1818H214.589L210.589 29H209.941ZM217.805 29.56H225.805V21.56H217.805V29.56Z" fill="#59CB00"/>
<path d="M25.1239 107.182V113H23.8938V108.349H23.8597L22.5273 109.185V108.094L23.9677 107.182H25.1239ZM28.6119 107.102C28.9111 107.102 29.199 107.152 29.4755 107.253C29.7539 107.353 30.002 107.513 30.2198 107.733C30.4395 107.953 30.6128 108.244 30.7397 108.608C30.8685 108.97 30.9338 109.414 30.9357 109.94C30.9357 110.435 30.8799 110.876 30.7681 111.264C30.6583 111.651 30.5001 111.979 30.2937 112.25C30.0872 112.521 29.8382 112.727 29.5465 112.869C29.2549 113.009 28.9291 113.08 28.5692 113.08C28.181 113.08 27.8382 113.005 27.5408 112.855C27.2435 112.704 27.0039 112.498 26.8221 112.239C26.6422 111.977 26.5333 111.684 26.4954 111.358H27.7085C27.7558 111.57 27.8552 111.735 28.0067 111.852C28.1583 111.968 28.3458 112.026 28.5692 112.026C28.948 112.026 29.2359 111.861 29.4329 111.531C29.6299 111.2 29.7293 110.746 29.7312 110.17H29.6914C29.6043 110.341 29.4869 110.488 29.3391 110.611C29.1914 110.732 29.0219 110.826 28.8306 110.892C28.6412 110.958 28.4395 110.991 28.2255 110.991C27.8827 110.991 27.5768 110.911 27.3079 110.75C27.0389 110.589 26.8268 110.367 26.6715 110.085C26.5162 109.803 26.4386 109.481 26.4386 109.119C26.4367 108.729 26.5266 108.382 26.7085 108.077C26.8903 107.772 27.1441 107.533 27.4698 107.361C27.7975 107.187 28.1781 107.1 28.6119 107.102ZM28.6204 108.068C28.4291 108.068 28.2586 108.114 28.109 108.205C27.9613 108.295 27.8439 108.418 27.7567 108.571C27.6715 108.724 27.6299 108.896 27.6317 109.085C27.6317 109.277 27.6734 109.449 27.7567 109.602C27.842 109.754 27.9575 109.875 28.1033 109.966C28.2511 110.055 28.4196 110.099 28.609 110.099C28.7511 110.099 28.8827 110.073 29.0039 110.02C29.1251 109.967 29.2302 109.894 29.3192 109.801C29.4102 109.706 29.4812 109.598 29.5323 109.474C29.5835 109.351 29.609 109.221 29.609 109.082C29.6071 108.899 29.5636 108.73 29.4783 108.577C29.3931 108.423 29.2757 108.3 29.1261 108.207C28.9764 108.115 28.8079 108.068 28.6204 108.068ZM33.9585 113.08C33.521 113.08 33.1317 113.009 32.7908 112.866C32.4518 112.723 32.1857 112.527 31.9925 112.278C31.7994 112.03 31.7028 111.749 31.7028 111.435C31.7028 111.192 31.7577 110.97 31.8675 110.767C31.9793 110.562 32.1308 110.393 32.3221 110.259C32.5134 110.122 32.7274 110.035 32.9641 109.997V109.957C32.6535 109.895 32.4016 109.744 32.2085 109.506C32.0153 109.265 31.9187 108.986 31.9187 108.668C31.9187 108.366 32.0067 108.098 32.1829 107.864C32.359 107.627 32.6005 107.441 32.9073 107.307C33.216 107.17 33.5664 107.102 33.9585 107.102C34.3505 107.102 34.6999 107.17 35.0067 107.307C35.3155 107.443 35.5579 107.63 35.734 107.866C35.9102 108.101 35.9992 108.368 36.0011 108.668C35.9992 108.988 35.9007 109.267 35.7056 109.506C35.5105 109.744 35.2605 109.895 34.9556 109.957V109.997C35.1886 110.035 35.3997 110.122 35.5891 110.259C35.7804 110.393 35.9319 110.562 36.0437 110.767C36.1573 110.97 36.2151 111.192 36.217 111.435C36.2151 111.749 36.1175 112.03 35.9244 112.278C35.7312 112.527 35.4641 112.723 35.1232 112.866C34.7842 113.009 34.396 113.08 33.9585 113.08ZM33.9585 112.176C34.1535 112.176 34.324 112.141 34.4698 112.071C34.6156 111.999 34.7293 111.901 34.8107 111.776C34.8941 111.649 34.9357 111.503 34.9357 111.338C34.9357 111.17 34.8931 111.021 34.8079 110.892C34.7227 110.761 34.6071 110.659 34.4613 110.585C34.3155 110.509 34.1478 110.472 33.9585 110.472C33.771 110.472 33.6033 110.509 33.4556 110.585C33.3079 110.659 33.1914 110.761 33.1062 110.892C33.0228 111.021 32.9812 111.17 32.9812 111.338C32.9812 111.503 33.0219 111.649 33.1033 111.776C33.1848 111.901 33.2994 111.999 33.4471 112.071C33.5948 112.141 33.7653 112.176 33.9585 112.176ZM33.9585 109.577C34.1213 109.577 34.2662 109.544 34.3931 109.477C34.52 109.411 34.6194 109.319 34.6914 109.202C34.7634 109.084 34.7994 108.949 34.7994 108.795C34.7994 108.644 34.7634 108.511 34.6914 108.398C34.6194 108.282 34.521 108.192 34.396 108.128C34.271 108.062 34.1251 108.028 33.9585 108.028C33.7937 108.028 33.6478 108.062 33.521 108.128C33.3941 108.192 33.2946 108.282 33.2227 108.398C33.1526 108.511 33.1175 108.644 33.1175 108.795C33.1175 108.949 33.1535 109.084 33.2255 109.202C33.2975 109.319 33.3969 109.411 33.5238 109.477C33.6507 109.544 33.7956 109.577 33.9585 109.577ZM39.2276 113.08C38.8034 113.08 38.4255 113.007 38.0941 112.861C37.7646 112.713 37.5041 112.51 37.3129 112.253C37.1235 111.993 37.0259 111.694 37.0202 111.355H38.2589C38.2665 111.497 38.3129 111.622 38.3981 111.73C38.4852 111.836 38.6007 111.919 38.7447 111.977C38.8886 112.036 39.0505 112.065 39.2305 112.065C39.418 112.065 39.5837 112.032 39.7276 111.966C39.8716 111.9 39.9843 111.808 40.0657 111.69C40.1471 111.573 40.1879 111.437 40.1879 111.284C40.1879 111.129 40.1443 110.991 40.0572 110.872C39.9719 110.751 39.8488 110.656 39.6879 110.588C39.5288 110.52 39.3394 110.486 39.1197 110.486H38.5771V109.582H39.1197C39.3053 109.582 39.4691 109.55 39.6112 109.486C39.7551 109.421 39.8668 109.332 39.9464 109.219C40.0259 109.103 40.0657 108.969 40.0657 108.815C40.0657 108.67 40.0307 108.542 39.9606 108.432C39.8924 108.32 39.7958 108.233 39.6708 108.17C39.5477 108.108 39.4038 108.077 39.239 108.077C39.0723 108.077 38.9199 108.107 38.7816 108.168C38.6433 108.226 38.5326 108.311 38.4492 108.42C38.3659 108.53 38.3214 108.659 38.3157 108.807H37.1367C37.1424 108.472 37.238 108.176 37.4237 107.92C37.6093 107.665 37.8593 107.465 38.1737 107.321C38.4899 107.175 38.8469 107.102 39.2447 107.102C39.6462 107.102 39.9975 107.175 40.2987 107.321C40.5998 107.467 40.8337 107.664 41.0004 107.912C41.1689 108.158 41.2522 108.435 41.2504 108.741C41.2522 109.067 41.1509 109.339 40.9464 109.557C40.7437 109.775 40.4795 109.913 40.1538 109.972V110.017C40.5818 110.072 40.9076 110.221 41.131 110.463C41.3564 110.704 41.4682 111.005 41.4663 111.366C41.4682 111.698 41.3725 111.992 41.1793 112.25C40.988 112.508 40.7238 112.71 40.3867 112.858C40.0496 113.006 39.6632 113.08 39.2276 113.08Z" fill="#B0B0B0"/>
<path d="M81.1278 107.182V113H79.8977V108.349H79.8636L78.5312 109.185V108.094L79.9716 107.182H81.1278ZM84.6158 107.102C84.915 107.102 85.2029 107.152 85.4794 107.253C85.7578 107.353 86.0059 107.513 86.2237 107.733C86.4434 107.953 86.6167 108.244 86.7436 108.608C86.8724 108.97 86.9377 109.414 86.9396 109.94C86.9396 110.435 86.8838 110.876 86.772 111.264C86.6622 111.651 86.504 111.979 86.2976 112.25C86.0911 112.521 85.8421 112.727 85.5504 112.869C85.2588 113.009 84.933 113.08 84.5732 113.08C84.1849 113.08 83.8421 113.005 83.5447 112.855C83.2474 112.704 83.0078 112.498 82.826 112.239C82.6461 111.977 82.5372 111.684 82.4993 111.358H83.7124C83.7597 111.57 83.8591 111.735 84.0107 111.852C84.1622 111.968 84.3497 112.026 84.5732 112.026C84.9519 112.026 85.2398 111.861 85.4368 111.531C85.6338 111.2 85.7332 110.746 85.7351 110.17H85.6953C85.6082 110.341 85.4908 110.488 85.343 110.611C85.1953 110.732 85.0258 110.826 84.8345 110.892C84.6451 110.958 84.4434 110.991 84.2294 110.991C83.8866 110.991 83.5807 110.911 83.3118 110.75C83.0429 110.589 82.8307 110.367 82.6754 110.085C82.5201 109.803 82.4425 109.481 82.4425 109.119C82.4406 108.729 82.5305 108.382 82.7124 108.077C82.8942 107.772 83.148 107.533 83.4737 107.361C83.8014 107.187 84.1821 107.1 84.6158 107.102ZM84.6243 108.068C84.433 108.068 84.2625 108.114 84.1129 108.205C83.9652 108.295 83.8478 108.418 83.7607 108.571C83.6754 108.724 83.6338 108.896 83.6357 109.085C83.6357 109.277 83.6773 109.449 83.7607 109.602C83.8459 109.754 83.9614 109.875 84.1072 109.966C84.255 110.055 84.4235 110.099 84.6129 110.099C84.755 110.099 84.8866 110.073 85.0078 110.02C85.129 109.967 85.2341 109.894 85.3232 109.801C85.4141 109.706 85.4851 109.598 85.5362 109.474C85.5874 109.351 85.6129 109.221 85.6129 109.082C85.611 108.899 85.5675 108.73 85.4822 108.577C85.397 108.423 85.2796 108.3 85.13 108.207C84.9804 108.115 84.8118 108.068 84.6243 108.068ZM90.0249 113.08C89.7256 113.078 89.4368 113.027 89.1584 112.929C88.8819 112.83 88.6338 112.67 88.4141 112.449C88.1944 112.227 88.0201 111.934 87.8913 111.568C87.7644 111.203 87.701 110.754 87.701 110.222C87.7029 109.733 87.7588 109.296 87.8686 108.912C87.9804 108.526 88.1394 108.198 88.3459 107.929C88.5542 107.66 88.8033 107.455 89.093 107.315C89.3828 107.173 89.7076 107.102 90.0675 107.102C90.4557 107.102 90.7985 107.178 91.0959 107.33C91.3932 107.479 91.6319 107.683 91.8118 107.94C91.9936 108.198 92.1035 108.487 92.1413 108.807H90.9283C90.8809 108.604 90.7815 108.445 90.63 108.33C90.4785 108.214 90.291 108.156 90.0675 108.156C89.6887 108.156 89.4008 108.321 89.2038 108.651C89.0088 108.98 88.9093 109.428 88.9055 109.994H88.9453C89.0324 109.822 89.1499 109.675 89.2976 109.554C89.4472 109.431 89.6167 109.337 89.8061 109.273C89.9974 109.206 90.1991 109.173 90.4112 109.173C90.7559 109.173 91.0627 109.255 91.3317 109.418C91.6006 109.579 91.8127 109.8 91.968 110.082C92.1233 110.365 92.201 110.687 92.201 111.051C92.201 111.445 92.1091 111.795 91.9254 112.102C91.7436 112.409 91.4889 112.65 91.1612 112.824C90.8355 112.996 90.4567 113.081 90.0249 113.08ZM90.0192 112.114C90.2086 112.114 90.3781 112.068 90.5277 111.977C90.6773 111.886 90.7947 111.763 90.88 111.608C90.9652 111.453 91.0078 111.278 91.0078 111.085C91.0078 110.892 90.9652 110.719 90.88 110.565C90.7966 110.412 90.6811 110.29 90.5334 110.199C90.3857 110.108 90.2171 110.062 90.0277 110.062C89.8857 110.062 89.754 110.089 89.6328 110.142C89.5135 110.195 89.4084 110.269 89.3175 110.364C89.2285 110.458 89.1584 110.568 89.1072 110.693C89.0561 110.816 89.0305 110.948 89.0305 111.088C89.0305 111.276 89.0732 111.447 89.1584 111.602C89.2455 111.758 89.3629 111.882 89.5107 111.974C89.6603 112.067 89.8298 112.114 90.0192 112.114ZM95.2237 113.08C94.7995 113.08 94.4216 113.007 94.0902 112.861C93.7607 112.713 93.5002 112.51 93.3089 112.253C93.1196 111.993 93.022 111.694 93.0163 111.355H94.255C94.2625 111.497 94.3089 111.622 94.3942 111.73C94.4813 111.836 94.5968 111.919 94.7408 111.977C94.8847 112.036 95.0466 112.065 95.2266 112.065C95.4141 112.065 95.5798 112.032 95.7237 111.966C95.8677 111.9 95.9804 111.808 96.0618 111.69C96.1432 111.573 96.1839 111.437 96.1839 111.284C96.1839 111.129 96.1404 110.991 96.0533 110.872C95.968 110.751 95.8449 110.656 95.6839 110.588C95.5249 110.52 95.3355 110.486 95.1158 110.486H94.5732V109.582H95.1158C95.3014 109.582 95.4652 109.55 95.6072 109.486C95.7512 109.421 95.8629 109.332 95.9425 109.219C96.022 109.103 96.0618 108.969 96.0618 108.815C96.0618 108.67 96.0268 108.542 95.9567 108.432C95.8885 108.32 95.7919 108.233 95.6669 108.17C95.5438 108.108 95.3999 108.077 95.2351 108.077C95.0684 108.077 94.916 108.107 94.7777 108.168C94.6394 108.226 94.5286 108.311 94.4453 108.42C94.362 108.53 94.3175 108.659 94.3118 108.807H93.1328C93.1385 108.472 93.2341 108.176 93.4197 107.92C93.6054 107.665 93.8554 107.465 94.1697 107.321C94.486 107.175 94.843 107.102 95.2408 107.102C95.6423 107.102 95.9936 107.175 96.2947 107.321C96.5959 107.467 96.8298 107.664 96.9964 107.912C97.165 108.158 97.2483 108.435 97.2464 108.741C97.2483 109.067 97.147 109.339 96.9425 109.557C96.7398 109.775 96.4756 109.913 96.1499 109.972V110.017C96.5779 110.072 96.9036 110.221 97.1271 110.463C97.3525 110.704 97.4643 111.005 97.4624 111.366C97.4643 111.698 97.3686 111.992 97.1754 112.25C96.9841 112.508 96.7199 112.71 96.3828 112.858C96.0457 113.006 95.6593 113.08 95.2237 113.08Z" fill="#B0B0B0"/>
<path d="M136.808 113V112.114L138.879 110.196C139.055 110.026 139.202 109.872 139.322 109.736C139.443 109.599 139.535 109.466 139.597 109.335C139.66 109.203 139.691 109.06 139.691 108.906C139.691 108.736 139.652 108.589 139.575 108.466C139.497 108.341 139.391 108.245 139.256 108.179C139.122 108.111 138.969 108.077 138.799 108.077C138.621 108.077 138.466 108.113 138.333 108.185C138.201 108.257 138.098 108.36 138.026 108.494C137.954 108.629 137.918 108.789 137.918 108.974H136.751C136.751 108.594 136.837 108.263 137.009 107.983C137.182 107.703 137.423 107.486 137.734 107.332C138.044 107.179 138.402 107.102 138.808 107.102C139.224 107.102 139.587 107.176 139.896 107.324C140.206 107.47 140.448 107.672 140.62 107.932C140.792 108.191 140.879 108.489 140.879 108.824C140.879 109.044 140.835 109.26 140.748 109.474C140.663 109.688 140.51 109.926 140.29 110.188C140.071 110.447 139.761 110.759 139.362 111.122L138.512 111.955V111.994H140.955V113H136.808ZM144.128 113.128C143.639 113.126 143.219 113.006 142.866 112.767C142.516 112.528 142.246 112.183 142.057 111.73C141.869 111.277 141.777 110.733 141.778 110.097C141.778 109.462 141.872 108.921 142.06 108.474C142.249 108.027 142.519 107.687 142.869 107.455C143.222 107.22 143.641 107.102 144.128 107.102C144.615 107.102 145.033 107.22 145.384 107.455C145.736 107.689 146.007 108.03 146.196 108.477C146.385 108.922 146.479 109.462 146.477 110.097C146.477 110.735 146.383 111.28 146.193 111.733C146.006 112.186 145.737 112.531 145.386 112.77C145.036 113.009 144.616 113.128 144.128 113.128ZM144.128 112.108C144.461 112.108 144.727 111.94 144.926 111.605C145.125 111.27 145.223 110.767 145.222 110.097C145.222 109.655 145.176 109.288 145.085 108.994C144.996 108.701 144.869 108.48 144.705 108.332C144.542 108.185 144.349 108.111 144.128 108.111C143.796 108.111 143.531 108.277 143.332 108.608C143.134 108.939 143.033 109.436 143.031 110.097C143.031 110.544 143.076 110.917 143.165 111.216C143.256 111.513 143.384 111.737 143.548 111.886C143.713 112.034 143.906 112.108 144.128 112.108ZM149.636 113.128C149.147 113.126 148.727 113.006 148.374 112.767C148.024 112.528 147.754 112.183 147.565 111.73C147.377 111.277 147.284 110.733 147.286 110.097C147.286 109.462 147.38 108.921 147.567 108.474C147.757 108.027 148.027 107.687 148.377 107.455C148.729 107.22 149.149 107.102 149.636 107.102C150.122 107.102 150.541 107.22 150.891 107.455C151.244 107.689 151.514 108.03 151.704 108.477C151.893 108.922 151.987 109.462 151.985 110.097C151.985 110.735 151.89 111.28 151.701 111.733C151.513 112.186 151.245 112.531 150.894 112.77C150.544 113.009 150.124 113.128 149.636 113.128ZM149.636 112.108C149.969 112.108 150.235 111.94 150.434 111.605C150.633 111.27 150.731 110.767 150.729 110.097C150.729 109.655 150.684 109.288 150.593 108.994C150.504 108.701 150.377 108.48 150.212 108.332C150.049 108.185 149.857 108.111 149.636 108.111C149.304 108.111 149.039 108.277 148.84 108.608C148.641 108.939 148.541 109.436 148.539 110.097C148.539 110.544 148.584 110.917 148.673 111.216C148.763 111.513 148.891 111.737 149.056 111.886C149.221 112.034 149.414 112.108 149.636 112.108ZM155.013 113.08C154.589 113.08 154.211 113.007 153.879 112.861C153.55 112.713 153.289 112.51 153.098 112.253C152.909 111.993 152.811 111.694 152.805 111.355H154.044C154.052 111.497 154.098 111.622 154.183 111.73C154.27 111.836 154.386 111.919 154.53 111.977C154.674 112.036 154.836 112.065 155.016 112.065C155.203 112.065 155.369 112.032 155.513 111.966C155.657 111.9 155.769 111.808 155.851 111.69C155.932 111.573 155.973 111.437 155.973 111.284C155.973 111.129 155.929 110.991 155.842 110.872C155.757 110.751 155.634 110.656 155.473 110.588C155.314 110.52 155.125 110.486 154.905 110.486H154.362V109.582H154.905C155.09 109.582 155.254 109.55 155.396 109.486C155.54 109.421 155.652 109.332 155.732 109.219C155.811 109.103 155.851 108.969 155.851 108.815C155.851 108.67 155.816 108.542 155.746 108.432C155.678 108.32 155.581 108.233 155.456 108.17C155.333 108.108 155.189 108.077 155.024 108.077C154.857 108.077 154.705 108.107 154.567 108.168C154.429 108.226 154.318 108.311 154.234 108.42C154.151 108.53 154.107 108.659 154.101 108.807H152.922C152.928 108.472 153.023 108.176 153.209 107.92C153.394 107.665 153.644 107.465 153.959 107.321C154.275 107.175 154.632 107.102 155.03 107.102C155.431 107.102 155.783 107.175 156.084 107.321C156.385 107.467 156.619 107.664 156.786 107.912C156.954 108.158 157.037 108.435 157.036 108.741C157.037 109.067 156.936 109.339 156.732 109.557C156.529 109.775 156.265 109.913 155.939 109.972V110.017C156.367 110.072 156.693 110.221 156.916 110.463C157.142 110.704 157.253 111.005 157.251 111.366C157.253 111.698 157.158 111.992 156.964 112.25C156.773 112.508 156.509 112.71 156.172 112.858C155.835 113.006 155.448 113.08 155.013 113.08Z" fill="#B0B0B0"/>
<path d="M203.542 113V112.114L205.613 110.196C205.789 110.026 205.937 109.872 206.056 109.736C206.177 109.599 206.269 109.466 206.332 109.335C206.394 109.203 206.425 109.06 206.425 108.906C206.425 108.736 206.387 108.589 206.309 108.466C206.231 108.341 206.125 108.245 205.991 108.179C205.856 108.111 205.704 108.077 205.533 108.077C205.355 108.077 205.2 108.113 205.067 108.185C204.935 108.257 204.833 108.36 204.761 108.494C204.689 108.629 204.653 108.789 204.653 108.974H203.485C203.485 108.594 203.571 108.263 203.744 107.983C203.916 107.703 204.157 107.486 204.468 107.332C204.779 107.179 205.137 107.102 205.542 107.102C205.959 107.102 206.321 107.176 206.63 107.324C206.941 107.47 207.182 107.672 207.354 107.932C207.527 108.191 207.613 108.489 207.613 108.824C207.613 109.044 207.569 109.26 207.482 109.474C207.397 109.688 207.245 109.926 207.025 110.188C206.805 110.447 206.496 110.759 206.096 111.122L205.246 111.955V111.994H207.69V113H203.542ZM210.862 113.128C210.374 113.126 209.953 113.006 209.601 112.767C209.25 112.528 208.981 112.183 208.791 111.73C208.604 111.277 208.511 110.733 208.513 110.097C208.513 109.462 208.607 108.921 208.794 108.474C208.983 108.027 209.253 107.687 209.604 107.455C209.956 107.22 210.375 107.102 210.862 107.102C211.349 107.102 211.768 107.22 212.118 107.455C212.47 107.689 212.741 108.03 212.93 108.477C213.12 108.922 213.214 109.462 213.212 110.097C213.212 110.735 213.117 111.28 212.928 111.733C212.74 112.186 212.471 112.531 212.121 112.77C211.77 113.009 211.351 113.128 210.862 113.128ZM210.862 112.108C211.196 112.108 211.462 111.94 211.661 111.605C211.859 111.27 211.958 110.767 211.956 110.097C211.956 109.655 211.911 109.288 211.82 108.994C211.731 108.701 211.604 108.48 211.439 108.332C211.276 108.185 211.084 108.111 210.862 108.111C210.531 108.111 210.266 108.277 210.067 108.608C209.868 108.939 209.768 109.436 209.766 110.097C209.766 110.544 209.81 110.917 209.899 111.216C209.99 111.513 210.118 111.737 210.283 111.886C210.447 112.034 210.641 112.108 210.862 112.108ZM214.089 113V112.114L216.16 110.196C216.336 110.026 216.484 109.872 216.603 109.736C216.724 109.599 216.816 109.466 216.879 109.335C216.941 109.203 216.972 109.06 216.972 108.906C216.972 108.736 216.933 108.589 216.856 108.466C216.778 108.341 216.672 108.245 216.538 108.179C216.403 108.111 216.251 108.077 216.08 108.077C215.902 108.077 215.747 108.113 215.614 108.185C215.482 108.257 215.379 108.36 215.308 108.494C215.236 108.629 215.2 108.789 215.2 108.974H214.032C214.032 108.594 214.118 108.263 214.29 107.983C214.463 107.703 214.704 107.486 215.015 107.332C215.326 107.179 215.683 107.102 216.089 107.102C216.505 107.102 216.868 107.176 217.177 107.324C217.487 107.47 217.729 107.672 217.901 107.932C218.074 108.191 218.16 108.489 218.16 108.824C218.16 109.044 218.116 109.26 218.029 109.474C217.944 109.688 217.791 109.926 217.572 110.188C217.352 110.447 217.042 110.759 216.643 111.122L215.793 111.955V111.994H218.237V113H214.089ZM221.278 113.08C220.854 113.08 220.476 113.007 220.145 112.861C219.815 112.713 219.555 112.51 219.364 112.253C219.174 111.993 219.077 111.694 219.071 111.355H220.31C220.317 111.497 220.364 111.622 220.449 111.73C220.536 111.836 220.652 111.919 220.795 111.977C220.939 112.036 221.101 112.065 221.281 112.065C221.469 112.065 221.634 112.032 221.778 111.966C221.922 111.9 222.035 111.808 222.116 111.69C222.198 111.573 222.239 111.437 222.239 111.284C222.239 111.129 222.195 110.991 222.108 110.872C222.023 110.751 221.9 110.656 221.739 110.588C221.58 110.52 221.39 110.486 221.17 110.486H220.628V109.582H221.17C221.356 109.582 221.52 109.55 221.662 109.486C221.806 109.421 221.918 109.332 221.997 109.219C222.077 109.103 222.116 108.969 222.116 108.815C222.116 108.67 222.081 108.542 222.011 108.432C221.943 108.32 221.847 108.233 221.722 108.17C221.598 108.108 221.455 108.077 221.29 108.077C221.123 108.077 220.971 108.107 220.832 108.168C220.694 108.226 220.583 108.311 220.5 108.42C220.417 108.53 220.372 108.659 220.366 108.807H219.188C219.193 108.472 219.289 108.176 219.474 107.92C219.66 107.665 219.91 107.465 220.224 107.321C220.541 107.175 220.898 107.102 221.295 107.102C221.697 107.102 222.048 107.175 222.349 107.321C222.651 107.467 222.884 107.664 223.051 107.912C223.22 108.158 223.303 108.435 223.301 108.741C223.303 109.067 223.202 109.339 222.997 109.557C222.795 109.775 222.53 109.913 222.205 109.972V110.017C222.633 110.072 222.958 110.221 223.182 110.463C223.407 110.704 223.519 111.005 223.517 111.366C223.519 111.698 223.423 111.992 223.23 112.25C223.039 112.508 222.775 112.71 222.438 112.858C222.1 113.006 221.714 113.08 221.278 113.08Z" fill="#B0B0B0"/>
<path d="M28 85.6678H36.0597C37.7442 85.6678 39.3436 86.4081 40.4337 87.6923L40.6193 87.9109C41.5917 89.0564 43.0183 89.7167 44.5209 89.7167V89.7167C45.9729 89.7167 47.3565 89.1 48.3271 88.02L49.2777 86.9624C50.0451 86.1086 50.9811 85.4231 52.0267 84.9492L55.9 83.1934L59.3522 82.1692C61.0319 81.6708 62.8379 81.8254 64.4084 82.6021V82.6021C65.1985 82.9927 65.907 83.5302 66.4962 84.1857L67.0847 84.8404C67.5792 85.3907 68.0197 85.9873 68.4 86.622L70.2543 89.7167L71.2205 91.3292C72.1692 92.9125 73.5961 94.1538 75.2956 94.8741V94.8741C76.3716 95.3302 77.5283 95.5652 78.697 95.5652H79.2288C80.2409 95.5652 81.2394 95.3318 82.1466 94.8832V94.8832C83.6017 94.1637 84.7396 92.9319 85.3418 91.4244L85.3997 91.2793C85.81 90.2522 86.4581 89.3372 87.2907 88.6093L88.1858 87.8269C88.6309 87.4377 89.0464 87.0161 89.429 86.5654L90.8089 84.9398C91.7847 83.7903 93.0066 82.8751 94.3841 82.2621L95.2051 81.8967C95.9499 81.5652 96.756 81.3939 97.5713 81.3939V81.3939C98.9893 81.3939 100.358 80.8762 101.422 79.938L103.027 78.521C104.708 77.0384 106.871 76.2203 109.112 76.2203V76.2203C110.677 76.2203 112.215 76.6195 113.583 77.3801L114.936 78.1331C116.129 78.7964 117.47 79.1445 118.835 79.1445V79.1445C120.124 79.1445 121.395 78.8334 122.539 78.2377L125.795 76.5422C128.529 75.1184 131.848 75.4585 134.236 77.4071V77.4071C135.613 78.5308 137.336 79.1445 139.113 79.1445H144.962C145.826 79.1445 146.682 78.9702 147.477 78.632V78.632C150.645 77.2841 154.312 78.6746 155.791 81.7843L156.268 82.7869C159.073 88.6886 167.533 88.5113 170.089 82.4973L171.726 78.6438C172.4 77.0582 173.494 75.6867 174.89 74.6771L180.843 70.3718L187.519 66.5031C189.503 65.3536 191.755 64.7482 194.048 64.7482V64.7482C195.742 64.7482 197.419 64.4178 198.986 63.7753L204.296 61.5991L214 58" stroke="#8DFCAC" stroke-width="3" stroke-linecap="round"/>
<circle cx="212" cy="56" r="11" fill="#D3FFE0"/>
<g filter="url(#filter0_d_231_201)">
<circle cx="212" cy="56" r="5" fill="#ECFFF2"/>
<circle cx="212" cy="56" r="4" stroke="#006D1F" stroke-width="2"/>
</g>
<defs>
<filter id="filter0_d_231_201" x="201" y="51" width="22" height="22" filterUnits="userSpaceOnUse" color-interpolation-filters="sRGB">
<feFlood flood-opacity="0" result="BackgroundImageFix"/>
<feColorMatrix in="SourceAlpha" type="matrix" values="0 0 0 0 0 0 0 0 0 0 0 0 0 0 0 0 0 0 127 0" result="hardAlpha"/>
<feOffset dy="6"/>
<feGaussianBlur stdDeviation="3"/>
<feComposite in2="hardAlpha" operator="out"/>
<feColorMatrix type="matrix" values="0 0 0 0 0 0 0 0 0 0 0 0 0 0 0 0 0 0 0.1 0"/>
<feBlend mode="normal" in2="BackgroundImageFix" result="effect1_dropShadow_231_201"/>
<feBlend mode="normal" in="SourceGraphic" in2="effect1_dropShadow_231_201" result="shape"/>
</filter>
</defs>
</svg>
